<?xml version="1.0" encoding="utf-8"?>
<!-- Generator: Adobe Illustrator 17.1.0, SVG Export Plug-In . SVG Version: 6.00 Build 0)  -->
<!DOCTYPE svg PUBLIC "-//W3C//DTD SVG 1.1//EN" "http://www.w3.org/Graphics/SVG/1.1/DTD/svg11.dtd">
<svg version="1.1" id="Layer_1" xmlns="http://www.w3.org/2000/svg" xmlns:xlink="http://www.w3.org/1999/xlink" x="0px" y="0px"
	 viewBox="0 0 966 1024" enable-background="new 0 0 966 1024" xml:space="preserve">
<g>
	<g>
		<path d="M243.2,700.6c45.2,4.6,88.3,17.5,128.6,37.8c57.7,29.1,114.7,59.7,171.1,91.2c86.5,48.3,174.6,50.5,265.2,13.5
			c7-2.9,9.1-6.7,7-13.3c-8.5-26.5-16.5-53.1-25.8-79.3c-10.5-29.6-31.2-50.2-58.8-64.9c-5.5-2.9-10.9-8.6-13.4-14.3
			c-63.8-142.4-127.2-285-190.4-427.6c-1.7-3.9-1.7-9.6-0.2-13.6c6.5-17.7,13.9-35.6,10.2-54.5C528.1,132,510.2,92,484.2,55.9
			c-3.6-4.9-11.9-8.4-18.3-9c-19.9-1.7-38.1,4.8-55.1,15c-11.7,7-15.2,17.1-13.1,30.2c4.7,30.7,15.2,59.6,26.8,88.2
			c10.4,25.6,26.1,46.9,51,59c15.3,7.4,20.3,19.9,25.7,34.1c-2.7,1.6-5.3,3-7.8,4.4c-40.8,23.2-76.4,52.6-104.6,90.2
			c-32.4,43-51,90.1-40.4,145.2c0.4,2.2-1.6,6-3.7,7.5c-47.6,35.5-81.1,81.9-105.4,135.5c-6.3,13.9-11.4,28.3-17.9,44.3
			C230.1,700.5,236.7,700,243.2,700.6z M411.9,440c23.6-51.5,64.1-86.1,112.8-114.4c43.6,97.9,86.7,194.7,131,294.2
			c-18.7,1.1-35.6,3.2-52.4,2.8c-58.7-1.3-111.2-20.3-156.5-58c-20.5-17.1-37.5-36.8-42.8-64.2C400,479.5,403,459.3,411.9,440z
			 M401.1,695.7c7.7-22.6,20.8-41.4,39.7-56.4c4.9-3.9,8.4-3.9,13.8-0.8c48.8,28.5,101.7,41.9,158,40.9c19.6-0.3,39.2-3.5,58.7-6.3
			c6.2-0.9,8.6,0.7,11.3,5.9c4.9,9.4,6.6,17.7,1.7,28.4c-14.4,31.1-7.2,61.5,5.5,91.3c1.6,3.8,3.1,7.7,5.1,12.5
			c-34.5-14.6-67-29.2-100.2-42.3C536.4,746,476.5,729.2,415,718.1C398.5,715.1,395.8,711.1,401.1,695.7z"/>
		<path d="M944.9,789.4c-5.2,3.7-11,6.9-15.6,11.3C917,812.6,906,825.9,893.1,837c-74.7,64.1-161.7,85.3-257.9,71.6
			c-42.5-6-80.3-24.7-117.7-45.1c-57.3-31.2-114.7-62.4-173.6-90.3c-51.3-24.3-106-36.7-163.5-25.5c-58.6,11.4-109.8,37-151.1,80.6
			c-4.9,5.1-8.3,11.7-11.7,18c-1,1.9-0.4,6.5,1.2,7.7c2.1,1.6,5.9,1.8,8.8,1.4c2-0.2,3.8-2.4,5.7-3.7c50.2-32.6,105-52.3,164.8-56.1
			c50.9-3.3,98.4,11.3,142.5,35.1c52.2,28.2,103,59,154.3,89c75.8,44.3,156.7,59.7,243.4,44.5c58.8-10.4,108.4-38.2,151-79.4
			c22.8-22.1,43.2-46,55.9-75.5c2.2-5.1,2.6-11.1,3.8-16.6C947.6,791.5,946.2,790.5,944.9,789.4z"/>
		<path d="M498.7,561.2c34.9-0.1,64.1-29.5,63.9-64.3c-0.2-34.7-29-63.2-63.6-63.2c-35.4,0-64.4,28.6-64.4,63.5
			C434.6,532.1,463.9,561.3,498.7,561.2z"/>
	</g>
</g>
</svg>
