<?xml version="1.0" encoding="utf-8"?>
<!-- Generator: Adobe Illustrator 16.0.4, SVG Export Plug-In . SVG Version: 6.00 Build 0)  -->
<!DOCTYPE svg PUBLIC "-//W3C//DTD SVG 1.1//EN" "http://www.w3.org/Graphics/SVG/1.1/DTD/svg11.dtd">
<svg version="1.1" id="Layer_1" xmlns="http://www.w3.org/2000/svg" xmlns:xlink="http://www.w3.org/1999/xlink" x="0px" y="0px"
	 width="127.528px" height="127.606px" viewBox="0 0 127.528 127.606" enable-background="new 0 0 127.528 127.606"
	 xml:space="preserve">
<path fill="#181818" d="M63.766,11.111c-29.083,0-52.661,23.595-52.661,52.688c0,29.101,23.578,52.695,52.661,52.695
	c29.084,0,52.658-23.595,52.658-52.695C116.424,34.707,92.85,11.111,63.766,11.111z M63.766,106.617
	c-23.633,0-42.786-19.167-42.786-42.817c0-23.644,19.153-42.811,42.786-42.811s42.787,19.167,42.787,42.811
	C106.553,87.45,87.398,106.617,63.766,106.617z M94.748,59.148L68.417,32.801c-2.571-2.574-6.739-2.574-9.306,0
	c-2.575,2.571-2.575,6.746,0,9.312l15.092,15.102H37.435c-3.633,0-6.584,2.952-6.584,6.584c0,3.64,2.951,6.588,6.584,6.588h36.768
	L59.111,85.497c-2.575,2.57-2.575,6.745,0,9.309c1.282,1.288,2.968,1.927,4.654,1.927c1.683,0,3.369-0.639,4.651-1.927
	l26.331-26.352C97.325,65.891,97.325,61.712,94.748,59.148z"/>
</svg>
