<?xml version="1.0" encoding="utf-8"?>
<!-- Generated by IcoMoon.io -->
<!DOCTYPE svg PUBLIC "-//W3C//DTD SVG 1.1//EN" "http://www.w3.org/Graphics/SVG/1.1/DTD/svg11.dtd">
<svg version="1.1" xmlns="http://www.w3.org/2000/svg" xmlns:xlink="http://www.w3.org/1999/xlink" width="2382" height="1024" viewBox="0 0 2382 1024">
<g>
</g>
	<path d="M2328.976 466.738c-17.562 3.34-23.702 12.726-19.318 20.73 2.148 3.86 2.14 7.618 0.554 9.668-9.276 12.072-43.010 13.586-66.632 12.596 26.518-30.482 18.386-73.966 18.386-73.966-2.338-16.008-2.624-30.616 7.126-44.624 26.356-6.5 39.682-15.314 35.604-23.948-3.114-5.038-14.428-7.926-31.022-7.926-9.486 0-24.938 0.96-44.672 5.544-46.984 10.83-71.864 36.952-125.324 76.95-40.306 30.154-104.772 69.386-186.102 69.386-14.474 0-25.982-2.702-33.29-7.8-6.506-4.534-9.58-10.86-8.898-18.564-0.060-2.546 0.442-5.108 1.486-7.668 1.938 0.012 3.84 0.044 5.76 0.044 102.008 0 184.822-39.12 188.020-72.764 0.756-8.746-3.074-16.32-11.094-21.894-10.164-7.072-26.93-10.81-48.398-10.81-80.074 0-168.19 37.060-207.452 74.978-9.588 9.796-28.436 30.094-25.792 56.234-3.968 3.38-7.52 6.218-9.246 7.298-4.060 2.532-13.778 8.986-27.284 7.256-11.948-1.53-6.23-19.11-4.904-24.222 1.256-4.832 10.424-38.322 11.652-43.226s10.424-28.204 1.53-46.298-28.51-20.846-33.112-21.768-20.234-0.922-20.234-0.922 9.508-8.89 13.186-11.96 29.432-29.128 48.75-50.278 44.452-57.022 49.976-64.382 36.486-54.88 36.176-80.014-26.056-20.544-34.642-19.62-31.884 8.584-58.25 24.222c-14.628 8.678-43.228 30.046-60.394 44.762s-47.826 46.906-54.57 54.878-26.056 30.962-41.696 53.036c-19.106 26.97-43.844 72.966-51.808 86.764-1.358 2.356-2.998 5.514-4.772 9.080-7.396 14.020-14.744 29.19-21.594 45.202-45.836 26.18-105.816 38.414-144.716 38.414h-1.358c-24.468-0.17-48.7-8.346-48.7-22.424 0-42.778 99.192-89.252 122.22-89.252 0.544 0 0.966 0.034 1.256 0.076-0.746 3.032-3.328 5.916-6.054 8.972-3.622 4.052-7.378 8.23-7.378 13.372 0 6.466 7.692 13.416 24.606 13.416 30.258 0 59.958-20.494 59.958-41.366 0-14.648-19.69-23.756-51.354-23.756-62.876 0-142.224 28.582-188.588 67.904-6.010 4.904-11.948 10.182-18.234 15.764-7.156 6.35-14.084 13.578-22.176 19.002-30.952 20.808-51.894 30.584-79.406 37.12-24.708 5.852-34.068-6.754-34.068-13.632 0-16.394 24.538-33.204 34.76-44.726 9.894-11.15 0.422-13.398-14.116-15.736-21.010-3.38-24.96 0.574-37.034 8.924-12.102 8.348-19.936 14.754-38.016 25.292-32.662 19.040-71.21 33.826-99.102 33.826-17.17 0-20.372-6.536-20.372-14.344 3.202-33.69 85.282-69.096 118.91-78.344 29.402-8.094 81.78-19.028 100.048-8.674 2.806 1.58 4.214 5.284 2.894 9.692-2.732 9.114 8.674 16.664 32.552 15.034 35.176-2.378 54.97-56.204-38.098-56.204-89.532 0-227.914 55.976-281.976 100.918-41.134 31.982-122.382 42.618-170.612 42.618-16.77 0-33.716-4.754-40.698-9.924-6.22-4.59-7.662-11.828-6.804-19.62 0-2.574 0.538-5.18 1.61-7.766 1.87 0.022 3.732 0.038 5.606 0.038 99.182 0 180.644-39.586 184.534-73.638 0.956-8.85-2.586-16.502-10.264-22.164-9.712-7.158-25.904-10.942-46.802-10.942-112.076 0-225.908 74.742-225.908 128.456 0 33.616 38.908 55.34 99.122 55.34 47.14 0 132.59-11.784 173.328-30.36-0.394 8.432 3.356 15.702 10.836 20.99 8.898 6.322 21.442 9.79 37.918 9.79 50.692 0 121.52-22.364 162.786-45.314-2.040 3.622-2.25 11.45 0.298 18.080 6.506 16.908 23.992 24.256 45.116 25.724l-0.364 0.298c49.656 1.408 90.268-13.568 133.462-44.298 6.814 30.708 46.964 45.706 101.79 45.706 39.846 0 110.268-12.454 149.916-31.998l0.068-0.076 11.994-5.89c-7.006 21.844-12.484 44.552-15.368 67.486-179.506-6.602-471.802-11.15-742.222 18.356-202.232 18.778-399.11 55.232-485.586 89.12-193.858 75.994-22.026 148.92 57.004 124.158 53.702-16.816 59.158-38.62 31.38-51.518-13.46-6.202-17.046-10.778-17.026-16.028 0.038-13.086 29.254-29 72.084-44.74 355.66-100.586 784.898-109.182 1082.422-97.906-0.192 3.61-0.344 7.226-0.394 10.826-1.478 130.928 141.21 220.346 345.462 242.51 326.012 35.382 478.87-21.624 471.080-82.336-9.962-77.688-275.444-167.856-733.724-189.084-5.48-0.26-11.258-0.514-17.17-0.774 1.942-13.48 5.298-26.424 9.51-38.76 0.662-1.908 1.33-3.812 2.010-5.682 4.042-10.934 8.776-21.288 13.922-31.002 6.23-10.334 14.134-20.334 24.174-30.976 2.988-3.168 17.17-17.472 22.074-22.074s44.358-41.186 64.072-38.016c24.104 3.872 18.090 28.82 17.472 32.19s-8.584 34.034-8.584 35.26-10.732 39.552-3.066 55.494 31.58 11.96 35.26 11.96 19.924-3.374 29.734-6.134c8.516-2.394 36.858-13.652 44.206-16.596 19.25 12.818 50.176 20.544 86.436 20.544 77.74 0 162.154-29.174 233.012-86.682 36.56-29.186 59.86-49.136 79.398-58.99-4.866 11.488-9.238 29.054-9.246 42.132 0.008 18.75 3.366 40.326-17.66 50.048-56.020 1.556-99.21 17.414-98.798 34.162 0.28 11.51 19.946 18.654 51.314 18.654 33.38 0 68.214-9.772 91.784-21.794 37.324 4.552 74.576 4.092 101.784-3.62 66.74-18.96 38.050-65.394 12.17-60.478zM1989.516 399.524c8.856 0 9.952 4.808 7.126 9.6-10.404 16.82-54.008 42.024-114.73 51.036 23.83-30.62 78.132-60.634 107.604-60.634zM777.972 398.762c8.602 0 9.56 4.866 6.686 9.718-10.51 17.016-53.504 42.534-112.738 51.648 23.884-30.986 77.4-61.366 106.052-61.366zM1750.964 623.188c206.788 19.518 483.884 84.426 493.836 162.126 7.8 60.692-174.662 89.342-365.302 67.326-262.394-30.304-336.454-125.448-333.462-243.154 0.008-0.26 0.030-0.51 0.038-0.764 83.512 4.15 153.692 9.644 204.89 14.47zM1672.702 366.598c-15.942 15.33-38.36 32.63-44.452 37.404-11.34 8.89-32.498 22.688-32.498 22.688s21.432-44.552 35.26-65.918c13.49-20.846 39.856-56.106 58.862-76.336s48.44-48.748 61.012-57.334 34.032-24.524 33.414-9.196-22.686 44.452-25.14 48.132-31.27 41.082-36.79 47.212-42.634 46.586-49.672 53.35zM510.864 520.296c59.854-41.072 57.984-74.692 45.886-95.678-14.278-24.736-49.558-42.858-76.654-49.226 48.164-10.942 134.646-34.558 137.46-90.914 1.57-31.61-34.77-55.518-69.21-64.352-32.806-8.414-61.21-11.836-98.062-11.836-5.034 0-10.188 0.060-15.486 0.168-70.934 1.52-193.422 10.732-278.858 20.99-5.636 0.678-8.206 2.658-9.366 4.198-1.73 2.334-1.428 5.254 0.972 8.346 5.7 6.616 11.012 9.55 17.736 13.258 1.28 0.706 2.634 1.442 4.188 2.34 12.916 6.808 23.324 9.226 39.816 9.226 5.748 0 12.39-0.294 20.996-0.922 15.592-1.308 31.112-3.518 47.548-5.856 13.774-1.956 27.936-3.972 43.48-5.674-57.48 43.014-208.608 163.15-290.098 250.056-26.626 28.386-30.28 50.462-10.326 60.392 10.286 6.062 21.44 8.884 31.204 10.866 2.954 0.49 5.528 0.726 7.884 0.726 10.272 0 15.188-4.802 18.42-9.118 5.71-8.504 14.374-19.39 25.796-32.356 23.466 23.242 88.668 37.664 170.38 37.664 77.376 0 180.082-13.74 236.294-52.294zM167.89 524.756c-2.586-3.842-2.432-6.010 3.802-8.27 3.468-1.196 7.406-1.792 11.586-2.126 4.152-0.342 8.618-0.452 13.272-0.726 9.218-0.514 19.014-1.62 28.392-6.18 10.644-5.164 15.644-14.29 6.348-23.772-12.348-12.568-38.87-17.848-66.418-15.84l-1.876 0.142 0.96-0.952c85.516-84.542 194.482-182.072 194.482-182.072 22.396-20.838 28.084-27.128 38.84-37.24 22.074-1.8 45.414-2.562 68.616-0.624 123.804 10.342 70.652 101.45-84.71 119.802-13.5 1.652-48.342 5.362-69.194 8.29-20.548 2.88-31.722 4.408-36.756 11.914-2.86 4.522-4.288 10.902-2.86 15.020 0.716 2.068 2.63 2.948 7.476 2.432 11.060-0.936 19.326-1.624 29.824-2.632 14.754-1.35 29.044-2.364 53.532-2.85 35.638-0.716 79.898 4.732 95.38 24.1 26.19 32.742-30.212 94.584-125.918 112.394-85.034 15.85-153.238 6.298-164.778-10.812zM2279.014 548.732c-9.186 0-16.958 7.068-16.958 16.652 0 9.668 7.77 16.738 16.958 16.738 9.094 0 16.864-7.068 16.864-16.738-0.004-9.58-7.776-16.652-16.864-16.652zM2279.014 579.336c-7.646 0-13.602-5.91-13.602-13.95 0-7.9 5.958-13.864 13.602-13.864 7.548 0 13.51 5.958 13.51 13.864 0 8.034-5.958 13.95-13.51 13.95zM2286.698 561.276c0-3.792-2.252-5.47-6.804-5.47h-7.33v19.25h2.914v-8.346h3.356l5.078 8.346h3.266l-5.47-8.48c2.826-0.352 4.988-1.85 4.988-5.298zM2275.478 564.234v-5.958h3.976c2.032 0 4.194 0.442 4.194 2.826 0 2.964-2.214 3.134-4.684 3.134h-3.488z" />
</svg>
