<?xml version="1.0" encoding="utf-8"?>
<!-- Generator: Adobe Illustrator 17.1.0, SVG Export Plug-In . SVG Version: 6.00 Build 0)  -->
<!DOCTYPE svg PUBLIC "-//W3C//DTD SVG 1.1//EN" "http://www.w3.org/Graphics/SVG/1.1/DTD/svg11.dtd">
<svg version="1.1" id="Layer_1" xmlns="http://www.w3.org/2000/svg" xmlns:xlink="http://www.w3.org/1999/xlink" x="0px" y="0px"
	 viewBox="0 0 188.1 188.1" enable-background="new 0 0 188.1 188.1" xml:space="preserve">
<path d="M94,163h-0.2c-18.4,0-35.7-7.3-48.7-20.3c-13-13.1-20.1-30.4-20.1-48.8c0.1-37.9,31-68.8,68.9-68.8h0.2
	c38,0.1,68.9,31.1,68.8,69.1C162.9,132.1,131.9,163,94,163z M94,27.3c-36.7,0-66.6,29.9-66.7,66.6c0,17.8,6.9,34.6,19.4,47.2
	s29.3,19.6,47.1,19.7l0.2,0c36.7,0,66.6-29.9,66.7-66.6c0.1-36.8-29.8-66.8-66.6-66.9L94,27.3z"/>
<path d="M94,158.5h-0.2c-35.6-0.1-64.4-29.1-64.3-64.7c0.1-35.5,29-64.3,64.5-64.3h0.2c35.6,0.1,64.4,29.1,64.3,64.7
	C158.4,129.7,129.5,158.5,94,158.5z M94,30.3c-35.1,0-63.7,28.5-63.8,63.6c-0.1,35.2,28.4,63.8,63.6,63.9l0.2,0
	c35.1,0,63.7-28.5,63.8-63.6c0.1-35.2-28.4-63.8-63.6-63.9L94,30.3z"/>
<path d="M94,146l-0.1,0c-28.6-0.1-51.9-23.4-51.8-52.1C42.2,65.3,65.5,42.1,94,42.1l0.1,0c13.9,0,26.9,5.5,36.7,15.3
	c9.8,9.8,15.2,22.9,15.1,36.8C145.9,122.7,122.6,146,94,146z M94,42.8c-28.2,0-51.1,22.9-51.2,51.1c-0.1,28.2,22.8,51.3,51.1,51.3
	H94c28.2,0,51.1-22.9,51.2-51.1c0-13.7-5.3-26.6-14.9-36.3s-22.5-15.1-36.2-15.1H94z"/>
<g>
	<path d="M34.4,84.1l0.1-0.6l4.6,0.8l0.4-2.1l0.6,0.1L39.6,85L34.4,84.1z"/>
	<path d="M41.2,78L41,78.6l-0.4-0.1l0,0c0.3,0.2,0.4,0.7,0.3,1.1c-0.3,1-1,0.8-1.5,0.7l-2.7-0.7l0.2-0.6l2.6,0.7
		c0.3,0.1,0.8,0.2,0.9-0.3c0.1-0.3,0-0.8-0.6-1l-2.6-0.7l0.2-0.6L41.2,78z"/>
	<path d="M38,74.9l0.2-0.6l1.6-0.2l-1.1-1.2l0.2-0.6l1.4,1.6l2.3-0.3l-0.2,0.6l-1.7,0.2l1.2,1.2l-0.2,0.6l-1.5-1.7L38,74.9z"/>
	<path d="M44.5,69.6l-0.2,0.5L43.8,70l0,0c0.3,0.3,0.3,0.8,0.1,1.1c-0.4,0.9-1.1,0.6-1.6,0.4l-2.5-1.2l0.3-0.6l2.5,1.1
		c0.3,0.1,0.7,0.3,1-0.2c0.1-0.3,0.1-0.8-0.4-1l-2.5-1.1l0.3-0.6L44.5,69.6z"/>
	<path d="M42,65.8l0.3-0.5l0.5,0.3l0,0c-0.2-0.3-0.4-0.7-0.2-1.1c0.1-0.1,0.1-0.2,0.2-0.2l0.5,0.3c0,0-0.1,0.1-0.2,0.3
		C43,65.1,43,65.7,43.6,66l2.2,1.2l-0.3,0.5L42,65.8z"/>
	<path d="M43.8,62.7l0.4-0.6l3.1,1.1l0,0L45,60.9l0.4-0.6l2.9,3.3c0.4,0.4,0.7,0.8,0.3,1.4c-0.1,0.2-0.2,0.3-0.3,0.4l-0.4-0.3
		c0.1-0.1,0.1-0.2,0.2-0.3c0.2-0.2,0.1-0.4-0.1-0.6l-0.2-0.3L43.8,62.7z"/>
	<path d="M47.7,55.1l0.4-0.5l4,3.4l-0.4,0.5L47.7,55.1z"/>
	<path d="M50.8,53.7l0.4-0.4l0.3,0.3l0,0c-0.1-0.4,0-0.8,0.3-1.1c0.7-0.7,1.3-0.2,1.6,0.1l2,2L55,55L53,53.1c-0.2-0.2-0.6-0.5-1-0.1
		c-0.2,0.2-0.4,0.7,0,1.1L54,56l-0.4,0.4L50.8,53.7z"/>
	<path d="M56.6,49.8c-0.2-0.3-0.7-0.5-1-0.2c-0.3,0.2-0.5,0.6,0.5,1.7c0.3,0.4,1,1.2,1.6,0.7c0.4-0.3,0.1-0.8-0.2-1.2l0.5-0.4
		c0.4,0.5,0.7,1.3,0,2c-0.7,0.6-1.5,0.4-2.4-0.6c-0.6-0.7-1.2-1.7-0.3-2.5c0.8-0.7,1.5-0.2,1.8,0.2L56.6,49.8z"/>
	<path d="M57.2,46.1l0.5-0.4l3.2,4.2l-0.5,0.4L57.2,46.1z"/>
	<path d="M64.8,47.2l-0.5,0.3L64,47.1l0,0c0.1,0.4-0.2,0.8-0.5,1c-0.9,0.6-1.3-0.1-1.5-0.5l-1.5-2.3l0.5-0.3l1.5,2.3
		c0.2,0.2,0.5,0.6,0.9,0.3c0.3-0.2,0.5-0.6,0.2-1.1l-1.5-2.3l0.5-0.3L64.8,47.2z"/>
	<path d="M68.9,44.9l-0.5,0.3l-0.2-0.4l0,0c0.1,0.3-0.1,0.7-0.5,0.9c-0.8,0.4-1.5-0.1-2.1-1.2c-0.4-0.7-0.9-1.9,0.1-2.4
		c0.3-0.2,0.7-0.2,1,0.1l0,0l-0.8-1.5l0.5-0.3L68.9,44.9z M67.5,45.1c0.6-0.3,0.4-0.9,0-1.7c-0.4-0.7-0.8-1.3-1.4-1
		c-0.5,0.3-0.3,0.9,0.1,1.7C66.5,45,67,45.4,67.5,45.1z"/>
	<path d="M70.5,42c0.2,0.5,0.6,1.4,1.3,1.1c0.5-0.2,0.4-0.8,0.2-1.1l0.6-0.2c0.2,0.4,0.3,1.4-0.7,1.8c-0.9,0.4-1.5-0.1-2.1-1.3
		c-0.4-0.9-0.7-2,0.4-2.5c1.1-0.5,1.6,0.4,2,1.2l0.1,0.2L70.5,42z M71.6,41l-0.1-0.2c-0.2-0.4-0.5-0.8-1-0.6c-0.6,0.3-0.3,1-0.2,1.2
		l0.1,0.1L71.6,41z"/>
	<path d="M77.5,41.3l-0.6,0.2l-0.2-0.5l0,0c0,0.3-0.2,0.7-0.6,0.8c-0.9,0.3-1.5-0.4-1.9-1.5c-0.3-0.8-0.5-2,0.5-2.4
		c0.3-0.1,0.8,0,1,0.2l0,0l-0.6-1.7l0.6-0.2L77.5,41.3z M76,41.4c0.6-0.2,0.5-0.9,0.3-1.7c-0.2-0.7-0.6-1.4-1.2-1.2
		c-0.5,0.2-0.5,0.8-0.2,1.7C75.2,41,75.5,41.6,76,41.4z"/>
	<path d="M80.9,35l0.7-0.1l1.9,4.2l0,0l0.2-4.6l0.7-0.1L84,39.7l-0.8,0.2L80.9,35z"/>
	<path d="M86.4,36.5c-0.1-0.9,0.2-1.3,1.2-1.4c1.2-0.1,1.3,0.6,1.3,1l0.2,2.2c0,0.2,0,0.3,0.2,0.3c0.1,0,0.1,0,0.1-0.1l0,0.4
		c0,0-0.2,0.1-0.4,0.1c-0.2,0-0.5,0.1-0.6-0.4l0,0c-0.2,0.4-0.5,0.6-0.9,0.7c-0.7,0.1-1.1-0.3-1.2-1c-0.1-0.5,0.1-1,0.6-1.2l0.8-0.3
		c0.4-0.2,0.4-0.3,0.4-0.6c0-0.4-0.3-0.6-0.7-0.5C87,35.7,87,36.3,87,36.4l0,0L86.4,36.5z M88.4,36.9c-0.2,0.3-0.7,0.4-1,0.6
		c-0.2,0.1-0.3,0.3-0.2,0.7c0,0.4,0.2,0.7,0.6,0.6c0.4,0,0.8-0.4,0.7-0.8L88.4,36.9z"/>
	<path d="M93.2,36.1c0-0.4-0.2-0.8-0.6-0.8c-0.4,0-0.8,0.2-0.7,1.6c0,0.5,0,1.5,0.8,1.5c0.5,0,0.6-0.6,0.6-1l0.6,0
		c0,0.6-0.3,1.5-1.3,1.5c-1,0-1.4-0.6-1.4-2c0-1,0.1-2.1,1.3-2.2c1.1,0,1.3,0.8,1.3,1.3L93.2,36.1z"/>
	<path d="M95.9,36.1c0-0.9,0.5-1.3,1.4-1.2c1.2,0.1,1.2,0.8,1.1,1.2l-0.1,2.2c0,0.2,0,0.3,0.2,0.3c0.1,0,0.1,0,0.1,0l0,0.4
		c0,0-0.2,0-0.4,0c-0.2,0-0.5,0-0.5-0.5l0,0c-0.2,0.3-0.6,0.5-1,0.5c-0.7,0-1-0.5-1-1.2c0-0.5,0.3-0.9,0.8-1l0.8-0.2
		c0.5-0.1,0.5-0.2,0.5-0.6c0-0.4-0.2-0.6-0.6-0.6c-0.7,0-0.7,0.6-0.7,0.7l0,0L95.9,36.1z M97.8,36.8C97.6,37,97,37,96.7,37.2
		c-0.2,0.1-0.3,0.3-0.3,0.6c0,0.4,0.1,0.7,0.5,0.7c0.4,0,0.8-0.3,0.8-0.7L97.8,36.8z"/>
	<path d="M101.4,34.2l0.6,0.1l-0.1,1.1l0.7,0.1l-0.1,0.5l-0.7-0.1l-0.3,2.5c0,0.3,0,0.4,0.3,0.5c0.1,0,0.2,0,0.3,0l-0.1,0.5
		c-0.1,0-0.2,0-0.5,0c-0.6-0.1-0.8-0.4-0.7-0.9l0.4-2.7l-0.6-0.1l0.1-0.5l0.6,0.1L101.4,34.2z"/>
	<path d="M104.5,35.8l0.6,0.1l-0.7,3.9l-0.6-0.1L104.5,35.8z M104.7,34.5l0.6,0.1l-0.1,0.7l-0.6-0.1L104.7,34.5z"/>
	<path d="M108.8,36.6c1.1,0.3,1.1,1.3,0.9,2.4c-0.3,1.1-0.8,1.9-1.9,1.7c-1.1-0.3-1.1-1.3-0.9-2.4C107.1,37.2,107.7,36.4,108.8,36.6
		z M109,38.8c0.2-0.8,0.3-1.6-0.4-1.7c-0.6-0.2-0.9,0.5-1.1,1.3c-0.2,0.8-0.3,1.6,0.3,1.7C108.5,40.3,108.8,39.7,109,38.8z"/>
	<path d="M112.3,37.8l0.6,0.2l-0.2,0.4l0,0c0.3-0.3,0.7-0.3,1.1-0.2c1,0.3,0.7,1.1,0.6,1.5l-0.9,2.6l-0.6-0.2l0.9-2.6
		c0.1-0.3,0.2-0.8-0.3-0.9c-0.3-0.1-0.8,0-1,0.5l-0.9,2.6l-0.6-0.2L112.3,37.8z"/>
	<path d="M118.1,41.3c0.2-0.5,0.2-0.8-0.2-0.9c-0.2-0.1-0.6-0.2-0.8,0.3c-0.2,0.4,0.2,0.7,0.6,1c0.4,0.3,0.7,0.7,0.4,1.4
		c-0.3,0.8-1,0.9-1.7,0.6c-1.2-0.5-0.8-1.4-0.7-1.8l0.6,0.2c-0.2,0.4-0.2,0.9,0.3,1.1c0.2,0.1,0.6,0.2,0.9-0.3
		c0.2-0.5-0.2-0.8-0.6-1.1c-0.4-0.3-0.8-0.7-0.4-1.4c0.3-0.7,1-0.8,1.6-0.5c1,0.5,0.8,1.2,0.6,1.6L118.1,41.3z"/>
	<path d="M124.9,42l2.3,1.4l-0.3,0.5l-1.8-1.1l-0.9,1.4l1.7,1l-0.3,0.5l-1.7-1l-1.3,2.1l-0.5-0.3L124.9,42z"/>
	<path d="M129.2,46.3c0.9,0.7,0.6,1.6-0.1,2.5c-0.7,0.9-1.5,1.5-2.4,0.8c-0.9-0.7-0.6-1.6,0.1-2.5C127.5,46.3,128.3,45.7,129.2,46.3
		z M128.6,48.5c0.5-0.7,0.8-1.3,0.3-1.7c-0.5-0.4-1,0.1-1.5,0.8c-0.5,0.7-0.8,1.3-0.3,1.7C127.5,49.7,128.1,49.1,128.6,48.5z"/>
	<path d="M132,48.7l0.5,0.4l-0.4,0.4l0,0c0.4-0.2,0.8-0.3,1.1,0c0.1,0.1,0.2,0.2,0.2,0.2l-0.4,0.5c0,0-0.1-0.1-0.2-0.2
		c-0.2-0.2-0.8-0.3-1.2,0.2l-1.6,1.9l-0.5-0.4L132,48.7z"/>
	<path d="M138.2,52.8l1.8,2l-0.4,0.4l-1.4-1.5l-1.2,1.1l1.3,1.4l-0.4,0.4l-1.3-1.5l-1.4,1.3l1.4,1.6l-0.4,0.4l-1.9-2.1L138.2,52.8z"
		/>
	<path d="M140.3,57.2l0.4,0.5l-2.1,2.5l0,0l3-1.3l0.4,0.5l-3.8,1.5l-0.4-0.6L140.3,57.2z"/>
	<path d="M141.8,62.7c-0.5,0.3-1.3,0.8-0.9,1.5c0.3,0.5,0.9,0.2,1.1,0.1l0.3,0.5c-0.4,0.2-1.3,0.5-1.9-0.4c-0.5-0.8-0.2-1.5,1-2.2
		c0.8-0.5,1.9-1,2.5,0c0.6,1-0.2,1.7-0.9,2.1l-0.2,0.1L141.8,62.7z M143,63.7l0.2-0.1c0.4-0.2,0.7-0.6,0.4-1.1
		c-0.3-0.5-1.1-0.2-1.3-0.1l-0.1,0.1L143,63.7z"/>
	<path d="M145.8,65.4l0.3,0.5l-0.5,0.3l0,0c0.4,0,0.8,0,1,0.4c0.1,0.1,0.1,0.2,0.1,0.3l-0.5,0.3c0-0.1,0-0.1-0.1-0.3
		c-0.1-0.3-0.6-0.6-1.2-0.3l-2.2,1.2l-0.3-0.5L145.8,65.4z"/>
	<path d="M147.4,68.6l0.3,0.6l-2.6,2l0,0l3.2-0.7l0.3,0.6l-4.3,0.7c-0.6,0.1-1.1,0.1-1.4-0.5c-0.1-0.2-0.1-0.3-0.2-0.4l0.4-0.2
		c0,0.1,0.1,0.2,0.1,0.3c0.1,0.3,0.3,0.3,0.5,0.3l0.4,0L147.4,68.6z"/>
	<path d="M149.9,74.3c0.4,1.1-0.4,1.7-1.5,2c-1,0.4-2,0.4-2.4-0.6c-0.4-1.1,0.4-1.7,1.5-2C148.5,73.3,149.5,73.2,149.9,74.3z
		 M148.2,75.7c0.8-0.3,1.5-0.6,1.2-1.3c-0.2-0.6-0.9-0.5-1.7-0.2c-0.8,0.3-1.5,0.6-1.2,1.2C146.7,76.1,147.4,76,148.2,75.7z"/>
	<path d="M150.9,77.8l0.1,0.6l-0.4,0.1l0,0c0.4,0.1,0.7,0.4,0.8,0.8c0.3,1-0.5,1.2-0.9,1.3l-2.7,0.7l-0.2-0.6l2.6-0.7
		c0.3-0.1,0.8-0.2,0.6-0.8c-0.1-0.3-0.4-0.7-1-0.5l-2.6,0.7l-0.2-0.6L150.9,77.8z"/>
	<path d="M150.2,83.6c-0.6,0.1-1.5,0.3-1.4,1c0.1,0.6,0.7,0.6,1,0.5l0.1,0.6c-0.4,0.1-1.4,0-1.6-1.1c-0.2-0.9,0.4-1.5,1.8-1.7
		c1-0.2,2.1-0.2,2.3,1c0.2,1.2-0.8,1.5-1.6,1.6l-0.2,0L150.2,83.6z M150.9,84.9l0.2,0c0.4-0.1,0.9-0.3,0.8-0.8
		c-0.1-0.6-0.9-0.6-1.1-0.5l-0.1,0L150.9,84.9z"/>
</g>
<g>
	<path d="M40.5,101.6l0.1,0.6L36,103l0.3,2.1l-0.6,0.1l-0.4-2.7L40.5,101.6z"/>
	<path d="M36.9,109.9l-0.1-0.6l0.4-0.1l0,0c-0.4-0.1-0.7-0.4-0.8-0.8c-0.3-1,0.5-1.2,1-1.3l2.7-0.7l0.2,0.6l-2.6,0.7
		c-0.3,0.1-0.8,0.2-0.6,0.8c0.1,0.3,0.4,0.7,1,0.6l2.6-0.7l0.2,0.6L36.9,109.9z"/>
	<path d="M41.2,110.7l0.2,0.6l-1.1,1.1l1.6,0.2l0.2,0.6L40,113l-1.6,1.7l-0.2-0.6l1.2-1.2l-1.7-0.2l-0.2-0.6l2.3,0.4L41.2,110.7z"/>
	<path d="M40.2,119.1l-0.2-0.5l0.4-0.2l0,0c-0.4,0-0.7-0.3-0.9-0.6c-0.4-0.9,0.3-1.3,0.7-1.4l2.6-1.1l0.2,0.6l-2.5,1.1
		c-0.3,0.1-0.7,0.3-0.5,0.9c0.1,0.3,0.5,0.6,1,0.4l2.5-1.1l0.2,0.6L40.2,119.1z"/>
	<path d="M44.8,119.5l0.3,0.5l-0.5,0.3l0,0c0.4,0,0.8,0,1,0.4c0.1,0.1,0.1,0.2,0.1,0.3l-0.5,0.3c0-0.1,0-0.1-0.1-0.3
		c-0.1-0.3-0.6-0.6-1.2-0.3l-2.2,1.2l-0.3-0.5L44.8,119.5z"/>
	<path d="M46.5,122.4l0.4,0.6l-2.2,2.3l0,0l3-1.1l0.4,0.6l-4.1,1.3c-0.5,0.2-1,0.3-1.4-0.3c-0.1-0.2-0.2-0.3-0.2-0.4l0.4-0.3
		c0,0.1,0.1,0.2,0.2,0.3c0.2,0.2,0.4,0.3,0.6,0.2l0.4-0.1L46.5,122.4z"/>
	<path d="M52,128l0.4,0.5l-4,3.3l-0.4-0.5L52,128z"/>
	<path d="M52.9,131.1l0.4,0.4l-0.3,0.3l0,0c0.4-0.1,0.8,0,1.1,0.3c0.7,0.8,0.1,1.3-0.2,1.6l-2,1.9l-0.4-0.4l2-1.9
		c0.2-0.2,0.6-0.6,0.2-1c-0.2-0.2-0.7-0.4-1.1,0l-2,1.9l-0.4-0.4L52.9,131.1z"/>
	<path d="M56.8,136.6c0.3-0.3,0.4-0.7,0.1-1c-0.3-0.3-0.7-0.4-1.7,0.7c-0.3,0.4-1,1.2-0.5,1.6c0.4,0.4,0.9,0,1.1-0.3l0.5,0.4
		c-0.4,0.5-1.2,0.9-1.9,0.2c-0.7-0.6-0.6-1.4,0.3-2.4c0.7-0.7,1.6-1.5,2.5-0.6c0.8,0.7,0.4,1.5,0.1,1.8L56.8,136.6z"/>
	<path d="M60.4,136.4l0.5,0.4l-3.2,4.1l-0.5-0.4L60.4,136.4z"/>
	<path d="M61.8,143.8l-0.5-0.3l0.3-0.4l0,0c-0.3,0.2-0.8,0.1-1.1-0.1c-0.9-0.6-0.4-1.2-0.2-1.6l1.6-2.3l0.5,0.3l-1.5,2.2
		c-0.2,0.2-0.4,0.7,0,1c0.3,0.2,0.8,0.3,1.1-0.2l1.5-2.2l0.5,0.3L61.8,143.8z"/>
	<path d="M66.2,146.4l-0.5-0.3l0.2-0.4l0,0c-0.2,0.2-0.7,0.3-1,0.1c-0.8-0.5-0.7-1.3-0.1-2.4c0.4-0.7,1.1-1.7,2.1-1.2
		c0.3,0.2,0.5,0.5,0.5,0.9l0,0l0.9-1.5l0.5,0.3L66.2,146.4z M65.2,145.4c0.6,0.3,1-0.2,1.4-1c0.4-0.7,0.6-1.4,0.1-1.7
		c-0.5-0.3-0.9,0.2-1.4,1C64.9,144.5,64.7,145.1,65.2,145.4z"/>
	<path d="M69.7,146c-0.2,0.5-0.6,1.4,0.1,1.7c0.5,0.2,0.9-0.3,1-0.6l0.6,0.3c-0.2,0.4-0.8,1.2-1.8,0.7c-0.9-0.4-1-1.2-0.4-2.4
		c0.4-0.9,1-1.9,2.1-1.4c1.1,0.5,0.8,1.5,0.4,2.3l-0.1,0.2L69.7,146z M71.2,146.2l0.1-0.2c0.2-0.4,0.3-0.9-0.2-1.2
		c-0.6-0.3-1,0.4-1.1,0.6l-0.1,0.1L71.2,146.2z"/>
	<path d="M75.5,150.4l-0.6-0.2l0.2-0.5l0,0c-0.2,0.2-0.6,0.4-1,0.3c-0.9-0.3-0.9-1.2-0.5-2.4c0.3-0.8,0.8-1.9,1.9-1.5
		c0.3,0.1,0.6,0.4,0.6,0.8l0,0l0.6-1.7l0.6,0.2L75.5,150.4z M74.3,149.5c0.6,0.2,1-0.3,1.3-1.2c0.3-0.7,0.4-1.5-0.2-1.7
		c-0.5-0.2-0.9,0.3-1.2,1.2C73.9,148.7,73.8,149.3,74.3,149.5z"/>
	<path d="M81.6,146.7l0.7,0.1l0.1,4.6l0,0l1.9-4.2l0.7,0.1l-2.3,4.9l-0.8-0.2L81.6,146.7z"/>
	<path d="M86.1,150c0.1-0.9,0.5-1.2,1.5-1.1c1.2,0.1,1.1,0.9,1.1,1.3l-0.3,2.2c0,0.2,0,0.3,0.2,0.3c0.1,0,0.1,0,0.1,0l-0.1,0.4
		c0,0-0.2,0-0.4,0c-0.2,0-0.5-0.1-0.5-0.6l0,0c-0.2,0.3-0.6,0.5-1,0.5c-0.7-0.1-1-0.6-0.9-1.3c0.1-0.5,0.3-0.9,0.9-1l0.9-0.2
		c0.5-0.1,0.5-0.2,0.5-0.5c0-0.4-0.2-0.6-0.6-0.6c-0.7-0.1-0.7,0.5-0.8,0.7l0,0L86.1,150z M87.9,150.9c-0.3,0.2-0.8,0.2-1.1,0.3
		c-0.2,0.1-0.3,0.2-0.4,0.6c0,0.4,0.1,0.7,0.5,0.7c0.4,0,0.8-0.2,0.9-0.7L87.9,150.9z"/>
	<path d="M92.8,150.6c0-0.4-0.1-0.8-0.6-0.8c-0.4,0-0.8,0.2-0.8,1.6c0,0.5,0,1.5,0.7,1.6c0.5,0,0.7-0.5,0.7-1l0.6,0
		c0,0.6-0.4,1.5-1.3,1.4c-1,0-1.3-0.7-1.3-2.1c0-1,0.3-2.1,1.5-2.1c1.1,0,1.2,0.9,1.2,1.3L92.8,150.6z"/>
	<path d="M95.4,150.6c0-0.9,0.3-1.3,1.3-1.4c1.2-0.1,1.2,0.7,1.2,1.1l0.1,2.2c0,0.2,0,0.3,0.2,0.3c0.1,0,0.1,0,0.1,0l0,0.4
		c0,0-0.2,0-0.4,0.1c-0.2,0-0.5,0-0.6-0.5h0c-0.2,0.4-0.6,0.6-0.9,0.6c-0.7,0-1.1-0.4-1.1-1.1c0-0.6,0.2-0.9,0.7-1.1l0.8-0.3
		c0.4-0.2,0.4-0.3,0.4-0.6c0-0.4-0.2-0.6-0.7-0.5c-0.7,0-0.6,0.7-0.6,0.8l0,0L95.4,150.6z M97.3,151.1c-0.2,0.3-0.8,0.3-1,0.5
		c-0.2,0.1-0.3,0.3-0.3,0.6c0,0.4,0.2,0.7,0.6,0.6c0.4,0,0.8-0.4,0.8-0.8L97.3,151.1z"/>
	<path d="M100.2,147.9l0.6-0.1l0.1,1.1l0.7-0.1l0.1,0.5l-0.7,0.1l0.3,2.5c0,0.3,0.1,0.4,0.5,0.4c0.1,0,0.2,0,0.3-0.1l0.1,0.5
		c-0.1,0-0.2,0.1-0.5,0.1c-0.6,0.1-0.8-0.2-0.9-0.7l-0.3-2.7l-0.6,0.1l-0.1-0.5l0.6-0.1L100.2,147.9z"/>
	<path d="M103.3,147.3l0.6-0.1l0.1,0.7l-0.6,0.1L103.3,147.3z M103.5,148.6l0.6-0.1l0.7,3.9l-0.6,0.1L103.5,148.6z"/>
	<path d="M107.5,147.7c1.1-0.3,1.6,0.6,1.9,1.7c0.3,1.1,0.2,2.1-0.9,2.3c-1.1,0.3-1.6-0.6-1.9-1.7
		C106.3,148.9,106.4,147.9,107.5,147.7z M108.7,149.5c-0.2-0.8-0.5-1.5-1.1-1.3c-0.6,0.2-0.6,0.9-0.3,1.7c0.2,0.8,0.5,1.5,1.1,1.4
		C109,151,108.9,150.3,108.7,149.5z"/>
	<path d="M110.8,146.8l0.6-0.2l0.1,0.4l0,0c0-0.4,0.4-0.7,0.7-0.8c1-0.3,1.2,0.4,1.4,0.8l0.9,2.6l-0.6,0.2l-0.9-2.6
		c-0.1-0.3-0.3-0.7-0.8-0.6c-0.3,0.1-0.7,0.5-0.5,1l0.9,2.6l-0.6,0.2L110.8,146.8z"/>
	<path d="M117.3,145.6c-0.2-0.5-0.4-0.7-0.8-0.5c-0.2,0.1-0.6,0.3-0.3,0.8c0.2,0.4,0.7,0.3,1.2,0.3c0.5,0,1-0.1,1.3,0.6
		c0.3,0.8,0,1.3-0.7,1.6c-1.2,0.5-1.6-0.4-1.8-0.7l0.6-0.2c0.2,0.4,0.5,0.8,1,0.5c0.2-0.1,0.6-0.4,0.3-0.9c-0.2-0.5-0.7-0.4-1.2-0.3
		c-0.5,0-1,0.1-1.3-0.6c-0.3-0.7,0.1-1.2,0.7-1.5c1-0.5,1.4,0.2,1.6,0.7L117.3,145.6z"/>
	<path d="M121.4,140.7l2.3-1.4l0.3,0.5l-1.8,1.1l0.9,1.4l1.7-1l0.3,0.5l-1.7,1l1.3,2.1l-0.5,0.3L121.4,140.7z"/>
	<path d="M126.8,138.6c0.9-0.7,1.7-0.1,2.4,0.8c0.7,0.9,1,1.8,0.1,2.5c-0.9,0.7-1.7,0.1-2.4-0.8
		C126.2,140.2,125.9,139.2,126.8,138.6z M128.6,139.8c-0.5-0.7-1-1.2-1.6-0.8c-0.5,0.4-0.2,1,0.3,1.7c0.5,0.7,1,1.2,1.5,0.8
		C129.4,141.1,129.1,140.4,128.6,139.8z"/>
	<path d="M129.5,136.5l0.5-0.4l0.4,0.4l0,0c-0.1-0.4-0.1-0.8,0.2-1.1c0.1-0.1,0.2-0.1,0.2-0.1l0.4,0.5c0,0-0.1,0.1-0.3,0.2
		c-0.2,0.2-0.4,0.7,0,1.2l1.6,1.9l-0.5,0.4L129.5,136.5z"/>
	<path d="M133.5,131l1.8-2l0.4,0.4l-1.4,1.5l1.2,1.1l1.3-1.4l0.4,0.4l-1.3,1.4l1.4,1.3l1.4-1.6l0.4,0.4l-1.9,2.1L133.5,131z"/>
	<path d="M137.3,128.5l0.4-0.5l3,1.3l0,0l-2.1-2.5l0.4-0.5l2.5,3.2l-0.4,0.6L137.3,128.5z"/>
	<path d="M142.1,125.4c0.5,0.3,1.3,0.8,1.7,0.2c0.3-0.5-0.2-0.9-0.4-1.1l0.3-0.5c0.4,0.2,1,1,0.5,1.9c-0.5,0.8-1.3,0.8-2.4,0.1
		c-0.8-0.5-1.7-1.3-1-2.3c0.6-1,1.6-0.5,2.3-0.1l0.2,0.1L142.1,125.4z M142.5,123.9l-0.2-0.1c-0.4-0.2-0.9-0.4-1.2,0.1
		c-0.3,0.5,0.3,1,0.5,1.2l0.1,0.1L142.5,123.9z"/>
	<path d="M142.5,120.7l0.3-0.5l0.5,0.3l0,0c-0.2-0.3-0.4-0.7-0.2-1.1c0.1-0.1,0.1-0.2,0.2-0.2l0.5,0.3c0,0-0.1,0.1-0.2,0.3
		c-0.1,0.3-0.1,0.8,0.4,1.2l2.2,1.2l-0.3,0.5L142.5,120.7z"/>
	<path d="M144.1,117.7l0.3-0.6l3.2,0.6l0,0l-2.6-1.9l0.3-0.6l3.4,2.7c0.4,0.4,0.8,0.7,0.5,1.4c-0.1,0.2-0.2,0.3-0.2,0.4l-0.4-0.2
		c0-0.1,0.1-0.2,0.2-0.3c0.1-0.3,0-0.4-0.2-0.6l-0.3-0.2L144.1,117.7z"/>
	<path d="M146.2,112.2c0.4-1.1,1.4-1,2.4-0.7c1,0.4,1.9,0.9,1.5,2c-0.4,1.1-1.4,1-2.4,0.7C146.7,113.9,145.9,113.3,146.2,112.2z
		 M148.4,112.2c-0.8-0.3-1.5-0.4-1.8,0.2c-0.2,0.6,0.4,1,1.2,1.2c0.8,0.3,1.5,0.4,1.7-0.2C149.9,112.8,149.2,112.5,148.4,112.2z"/>
	<path d="M147.4,109l0.1-0.6l0.4,0.1l0,0c-0.3-0.2-0.4-0.7-0.3-1.1c0.3-1,1-0.8,1.5-0.7l2.7,0.7l-0.2,0.6l-2.6-0.7
		c-0.3-0.1-0.8-0.2-0.9,0.4c-0.1,0.3,0,0.8,0.6,0.9l2.6,0.7l-0.2,0.6L147.4,109z"/>
	<path d="M150.5,104.2c0.6,0.1,1.5,0.2,1.6-0.5c0.1-0.6-0.5-0.8-0.8-0.8l0.1-0.6c0.4,0.1,1.3,0.5,1.2,1.5c-0.2,0.9-0.9,1.2-2.2,1
		c-1-0.2-2.1-0.5-1.9-1.7c0.2-1.2,1.2-1.1,2.1-1l0.2,0L150.5,104.2z M150.3,102.7l-0.2,0c-0.4-0.1-1,0-1.1,0.5
		c-0.1,0.6,0.7,0.8,0.9,0.9l0.1,0L150.3,102.7z"/>
</g>
<g>
	<path d="M118.5,59.6c-0.4,0.1-0.6,0.3-0.5,0.5c0.1,0.1,0.1,0.2,0,0.2c-0.2,0.3-1,0.3-1.6,0.3c0.6-0.7,0.4-1.7,0.4-1.7
		c-0.1-0.4-0.1-0.7,0.2-1.1c0.6-0.2,0.9-0.4,0.8-0.6c-0.1-0.1-0.3-0.2-0.7-0.2c-0.2,0-0.6,0-1.1,0.1c-1.1,0.3-1.7,0.9-3,1.8
		c-1,0.7-2.5,1.6-4.4,1.6c-0.3,0-0.6-0.1-0.8-0.2c-0.2-0.1-0.2-0.3-0.2-0.4c0-0.1,0-0.1,0-0.2c0,0,0.1,0,0.1,0
		c2.4,0,4.4-0.9,4.4-1.7c0-0.2-0.1-0.4-0.3-0.5c-0.2-0.2-0.6-0.3-1.1-0.3c-1.9,0-4,0.9-4.9,1.8c-0.2,0.2-0.7,0.7-0.6,1.3
		c-0.1,0.1-0.2,0.2-0.2,0.2c-0.1,0.1-0.3,0.2-0.6,0.2c-0.3,0-0.1-0.5-0.1-0.6c0-0.1,0.2-0.9,0.3-1c0-0.1,0.2-0.7,0-1.1
		c-0.2-0.4-0.7-0.5-0.8-0.5c-0.1,0-0.5,0-0.5,0s0.2-0.2,0.3-0.3c0.1-0.1,0.7-0.7,1.2-1.2c0.5-0.5,1.1-1.3,1.2-1.5
		c0.1-0.2,0.9-1.3,0.9-1.9c0-0.6-0.6-0.5-0.8-0.5c-0.2,0-0.8,0.2-1.4,0.6c-0.3,0.2-1,0.7-1.4,1.1c-0.4,0.3-1.1,1.1-1.3,1.3
		c-0.2,0.2-0.6,0.7-1,1.2c-0.5,0.6-1,1.7-1.2,2c0,0.1-0.1,0.1-0.1,0.2c-0.2,0.3-0.3,0.7-0.5,1.1c-1.1,0.6-2.5,0.9-3.4,0.9l0,0
		c-0.6,0-1.2-0.2-1.2-0.5c0-1,2.3-2.1,2.9-2.1c0,0,0,0,0,0c0,0.1-0.1,0.1-0.1,0.2c-0.1,0.1-0.2,0.2-0.2,0.3c0,0.2,0.2,0.3,0.6,0.3
		c0.7,0,1.4-0.5,1.4-1c0-0.3-0.5-0.6-1.2-0.6c-1.5,0-3.4,0.7-4.5,1.6c-0.1,0.1-0.3,0.2-0.4,0.4c-0.2,0.2-0.3,0.3-0.5,0.4
		c-0.7,0.5-1.2,0.7-1.9,0.9c-0.6,0.1-0.8-0.2-0.8-0.3c0-0.4,0.6-0.8,0.8-1.1c0.2-0.3,0-0.3-0.3-0.4c-0.5-0.1-0.6,0-0.9,0.2
		c-0.3,0.2-0.5,0.3-0.9,0.6c-0.8,0.4-1.7,0.8-2.3,0.8c-0.4,0-0.5-0.2-0.5-0.3c0.1-0.8,2-1.6,2.8-1.8c0.7-0.2,1.9-0.4,2.4-0.2
		c0.1,0,0.1,0.1,0.1,0.2c-0.1,0.2,0.2,0.4,0.8,0.4c0.8-0.1,1.3-1.3-0.9-1.3c-2.1,0-5.4,1.3-6.7,2.4c-1,0.8-2.9,1-4,1
		c-0.4,0-0.8-0.1-1-0.2c-0.1-0.1-0.2-0.3-0.2-0.5c0-0.1,0-0.1,0-0.2c0,0,0.1,0,0.1,0c2.3,0,4.3-0.9,4.4-1.7c0-0.2-0.1-0.4-0.2-0.5
		c-0.2-0.2-0.6-0.3-1.1-0.3c-2.6,0-5.3,1.8-5.3,3c0,0.8,0.9,1.3,2.3,1.3c1.1,0,3.1-0.3,4.1-0.7c0,0.2,0.1,0.4,0.3,0.5
		c0.2,0.1,0.5,0.2,0.9,0.2c1.2,0,2.9-0.5,3.8-1.1c0,0.1-0.1,0.3,0,0.4c0.2,0.4,0.6,0.6,1.1,0.6l0,0c1.2,0,2.1-0.3,3.2-1
		c0.2,0.7,1.1,1.1,2.4,1.1c0.9,0,2.6-0.3,3.5-0.7l0,0l0.3-0.1c-0.2,0.5-0.3,1-0.4,1.6c-4.2-0.2-11.1-0.3-17.5,0.4
		c-4.8,0.4-9.4,1.3-11.5,2.1c-4.6,1.8-0.5,3.5,1.3,2.9c1.3-0.4,1.4-0.9,0.7-1.2c-0.3-0.1-0.4-0.3-0.4-0.4c0-0.3,0.7-0.7,1.7-1.1
		c8.4-2.4,18.5-2.5,25.6-2.2c0,0.1,0,0.2,0,0.3c0,3.1,3.3,5.2,8.1,5.7c7.7,0.9,11.3-0.5,11.1-1.9c-0.2-1.8-6.5-4-17.3-4.5
		c-0.1,0-0.3,0-0.4,0c0-0.3,0.1-0.6,0.2-0.9c0,0,0-0.1,0-0.1c0.1-0.3,0.2-0.5,0.3-0.7c0.1-0.2,0.3-0.5,0.6-0.7
		c0.1-0.1,0.4-0.4,0.5-0.5c0.1-0.1,1-1,1.5-0.9c0.6,0.1,0.4,0.7,0.4,0.8c0,0.1-0.2,0.8-0.2,0.8c0,0-0.3,0.9-0.1,1.3
		c0.2,0.4,0.7,0.3,0.8,0.3c0.1,0,0.5-0.1,0.7-0.1c0.2-0.1,0.9-0.3,1-0.4c0.5,0.3,1.2,0.5,2,0.5c1.8,0,3.8-0.7,5.5-2
		c0.9-0.7,1.4-1.2,1.9-1.4c-0.1,0.3-0.2,0.7-0.2,1c0,0.4,0.1,1-0.4,1.2c-1.3,0-2.3,0.4-2.3,0.8c0,0.3,0.5,0.4,1.2,0.4
		c0.8,0,1.6-0.2,2.2-0.5c0.9,0.1,1.8,0.1,2.4-0.1C119.8,60.6,119.1,59.5,118.5,59.6z M110.5,58c0.2,0,0.2,0.1,0.2,0.2
		c-0.2,0.4-1.3,1-2.7,1.2C108.5,58.7,109.8,58,110.5,58z M81.9,57.9c0.2,0,0.2,0.1,0.2,0.2c-0.2,0.4-1.3,1-2.7,1.2
		C79.9,58.6,81.2,57.9,81.9,57.9z M104.8,63.3c4.9,0.5,11.4,2,11.6,3.9c0.2,1.4-4.1,2.1-8.6,1.6c-6.2-0.7-7.9-3-7.9-5.8c0,0,0,0,0,0
		C102,63,103.6,63.2,104.8,63.3z M103,57.2c-0.4,0.4-0.9,0.8-1.1,0.9c-0.3,0.2-0.8,0.5-0.8,0.5s0.5-1.1,0.8-1.6
		c0.3-0.5,0.9-1.3,1.4-1.8c0.4-0.5,1.1-1.1,1.4-1.4c0.3-0.2,0.8-0.6,0.8-0.2c0,0.4-0.5,1-0.6,1.1c-0.1,0.1-0.7,1-0.9,1.1
		C104,56.1,103.1,57.1,103,57.2z M75.5,60.8c1.4-1,1.4-1.8,1.1-2.3c-0.3-0.6-1.2-1-1.8-1.2c1.1-0.3,3.2-0.8,3.2-2.1
		c0-0.7-0.8-1.3-1.6-1.5c-0.8-0.2-1.4-0.3-2.3-0.3c-0.1,0-0.2,0-0.4,0c-1.7,0-4.6,0.2-6.6,0.5C67.1,53.9,67,54,67,54
		c0,0.1,0,0.1,0,0.2c0.1,0.2,0.3,0.2,0.4,0.3c0,0,0.1,0,0.1,0.1c0.3,0.2,0.5,0.2,0.9,0.2c0.1,0,0.3,0,0.5,0c0.4,0,0.7-0.1,1.1-0.1
		c0.3,0,0.7-0.1,1-0.1c-1.4,1-4.9,3.8-6.9,5.9c-0.6,0.7-0.7,1.2-0.2,1.4c0.2,0.1,0.5,0.2,0.7,0.3c0.1,0,0.1,0,0.2,0
		c0.2,0,0.4-0.1,0.4-0.2c0.1-0.2,0.3-0.5,0.6-0.8c0.6,0.5,2.1,0.9,4,0.9C71.8,62,74.2,61.7,75.5,60.8z M67.5,60.9
		c-0.1-0.1-0.1-0.1,0.1-0.2c0.1,0,0.2,0,0.3-0.1c0.1,0,0.2,0,0.3,0c0.2,0,0.4,0,0.7-0.1c0.3-0.1,0.4-0.3,0.2-0.6
		c-0.3-0.3-0.9-0.4-1.6-0.4l0,0l0,0c2-2,4.6-4.3,4.6-4.3c0.5-0.5,0.7-0.6,0.9-0.9c0.5,0,1.1-0.1,1.6,0c2.9,0.3,1.7,2.4-2,2.8
		c-0.3,0-1.1,0.1-1.6,0.2c-0.5,0.1-0.8,0.1-0.9,0.3c-0.1,0.1-0.1,0.3-0.1,0.4c0,0,0.1,0.1,0.2,0.1c0.3,0,0.5,0,0.7-0.1
		c0.3,0,0.7-0.1,1.3-0.1c0.8,0,1.9,0.1,2.2,0.6c0.6,0.8-0.7,2.2-3,2.6C69.3,61.5,67.7,61.3,67.5,60.9z"/>
	<path d="M117.3,61.6c-0.2,0-0.4,0.2-0.4,0.4c0,0.2,0.2,0.4,0.4,0.4c0.2,0,0.4-0.2,0.4-0.4C117.7,61.7,117.5,61.6,117.3,61.6z
		 M117.3,62.3c-0.2,0-0.3-0.1-0.3-0.3c0-0.2,0.1-0.3,0.3-0.3c0.2,0,0.3,0.1,0.3,0.3C117.6,62.1,117.5,62.3,117.3,62.3z"/>
	<path d="M117.5,61.9c0-0.1-0.1-0.1-0.2-0.1l-0.2,0l0,0.5l0.1,0V62h0.1l0.1,0.2h0.1l-0.1-0.2C117.4,62,117.5,61.9,117.5,61.9z
		 M117.2,61.9v-0.1h0.1c0,0,0.1,0,0.1,0.1C117.4,61.9,117.3,61.9,117.2,61.9L117.2,61.9z"/>
</g>
<circle fill-rule="evenodd" clip-rule="evenodd" cx="37" cy="94.2" r="1.7"/>
<circle fill-rule="evenodd" clip-rule="evenodd" cx="150.3" cy="94.5" r="1.7"/>
<g>
	<g>
		<path fill="#231F20" d="M56.8,71.6h11.8c2,0,3.5,0.5,4.5,1.5c1.1,1,1.6,2.2,1.6,3.6c0,1.2-0.4,2.2-1.1,3.1c-0.5,0.6-1.2,1-2.2,1.4
			c1.5,0.4,2.6,1,3.2,1.8c0.7,0.9,1,1.9,1,3.2c0,1.1-0.2,2-0.7,2.9c-0.5,0.8-1.2,1.5-2,2c-0.5,0.3-1.3,0.5-2.4,0.7
			c-1.4,0.2-2.4,0.3-2.8,0.3H56.8V71.6z M63.2,79.7h2.8c1,0,1.7-0.2,2.1-0.5c0.4-0.3,0.6-0.8,0.6-1.5c0-0.6-0.2-1.1-0.6-1.4
			c-0.4-0.3-1.1-0.5-2-0.5h-2.8V79.7z M63.2,87.7h3.2c1.1,0,1.9-0.2,2.3-0.6c0.4-0.4,0.7-0.9,0.7-1.6c0-0.6-0.2-1.1-0.7-1.5
			c-0.4-0.4-1.2-0.6-2.3-0.6h-3.2V87.7z"/>
		<path fill="#231F20" d="M77.1,71.6h17V76H83.4v3.3h9.8v4.2h-9.8v4h10.9v4.6H77.1V71.6z"/>
		<path fill="#231F20" d="M94.6,85.3l6-0.4c0.1,1,0.4,1.7,0.8,2.2c0.7,0.8,1.6,1.2,2.8,1.2c0.9,0,1.6-0.2,2.1-0.6
			c0.5-0.4,0.7-0.9,0.7-1.5c0-0.5-0.2-1-0.7-1.4c-0.5-0.4-1.5-0.8-3.2-1.2c-2.8-0.6-4.8-1.5-5.9-2.5c-1.2-1-1.8-2.4-1.8-4
			c0-1.1,0.3-2,0.9-3c0.6-0.9,1.5-1.7,2.8-2.2c1.2-0.5,2.9-0.8,5-0.8c2.6,0,4.6,0.5,6,1.5c1.4,1,2.2,2.5,2.5,4.6l-6,0.3
			c-0.2-0.9-0.5-1.6-1-2c-0.5-0.4-1.2-0.6-2.1-0.6c-0.7,0-1.3,0.2-1.7,0.5c-0.4,0.3-0.6,0.7-0.6,1.1c0,0.3,0.2,0.6,0.5,0.9
			c0.3,0.3,1,0.5,2.1,0.8c2.8,0.6,4.7,1.2,5.9,1.8c1.2,0.6,2.1,1.4,2.6,2.3c0.5,0.9,0.8,1.9,0.8,3c0,1.3-0.4,2.5-1.1,3.6
			c-0.7,1.1-1.7,1.9-3,2.5c-1.3,0.6-2.9,0.9-4.9,0.9c-3.5,0-5.9-0.7-7.2-2C95.6,89.1,94.8,87.4,94.6,85.3z"/>
		<path fill="#231F20" d="M113,71.6h19.2v5.1h-6.5v15.4h-6.3V76.7H113V71.6z"/>
		<path fill="#231F20" d="M56.8,113.9V94.4h7.4c1.3,0,2.3,0.1,3,0.2c1,0.2,1.8,0.5,2.4,0.9c0.6,0.4,1.2,1.1,1.6,1.9
			c0.4,0.8,0.6,1.7,0.6,2.7c0,1.7-0.5,3.1-1.6,4.2c-1.1,1.2-3,1.7-5.7,1.7h-5v7.9H56.8z M59.4,103.7h5.1c1.7,0,2.9-0.3,3.6-0.9
			c0.7-0.6,1.1-1.5,1.1-2.6c0-0.8-0.2-1.5-0.6-2.1c-0.4-0.6-1-1-1.6-1.2c-0.4-0.1-1.2-0.2-2.4-0.2h-5V103.7z"/>
		<path fill="#231F20" d="M73.5,113.9V94.4h8.7c1.7,0,3.1,0.2,4,0.5c0.9,0.4,1.6,1,2.2,1.9c0.5,0.9,0.8,1.9,0.8,2.9
			c0,1.4-0.4,2.6-1.3,3.5c-0.9,1-2.3,1.6-4.2,1.8c0.7,0.3,1.2,0.7,1.6,1c0.8,0.7,1.5,1.6,2.1,2.6l3.4,5.3h-3.3l-2.6-4.1
			c-0.8-1.2-1.4-2.1-1.9-2.7c-0.5-0.6-0.9-1.1-1.3-1.3c-0.4-0.2-0.8-0.4-1.2-0.5c-0.3-0.1-0.8-0.1-1.4-0.1h-3v8.7H73.5z M76.1,103
			h5.6c1.2,0,2.1-0.1,2.8-0.4c0.7-0.2,1.2-0.6,1.5-1.2c0.3-0.5,0.5-1.1,0.5-1.8c0-0.9-0.3-1.7-1-2.3c-0.7-0.6-1.7-0.9-3.2-0.9h-6.2
			V103z"/>
		<path fill="#231F20" d="M92.4,113.9V94.4H95v19.5H92.4z"/>
		<path fill="#231F20" d="M112.3,107.1l2.6,0.7c-0.5,2.1-1.5,3.7-2.9,4.9c-1.4,1.1-3.1,1.7-5.2,1.7c-2.1,0-3.8-0.4-5.1-1.3
			c-1.3-0.9-2.3-2.1-3-3.7s-1-3.4-1-5.2c0-2,0.4-3.8,1.2-5.3c0.8-1.5,1.9-2.7,3.3-3.5c1.4-0.8,3-1.2,4.7-1.2c2,0,3.6,0.5,4.9,1.5
			c1.3,1,2.3,2.4,2.8,4.2l-2.5,0.6c-0.5-1.4-1.1-2.5-2-3.1c-0.9-0.6-1.9-1-3.3-1c-1.5,0-2.8,0.4-3.8,1.1c-1,0.7-1.7,1.7-2.1,2.9
			c-0.4,1.2-0.6,2.5-0.6,3.8c0,1.7,0.2,3.1,0.7,4.4c0.5,1.2,1.2,2.2,2.3,2.8c1,0.6,2.1,0.9,3.3,0.9c1.4,0,2.7-0.4,3.7-1.3
			C111.2,110,111.9,108.7,112.3,107.1z"/>
		<path fill="#231F20" d="M116.9,113.9V94.4H131v2.3h-11.5v6h10.8v2.3h-10.8v6.6h12v2.3H116.9z"/>
	</g>
	<g>
		<path fill="#231F20" d="M61.4,122.1v-1.4h3.7v3.4c-0.4,0.3-0.9,0.7-1.6,0.9c-0.7,0.3-1.4,0.4-2.1,0.4c-0.9,0-1.7-0.2-2.3-0.6
			c-0.7-0.4-1.2-0.9-1.5-1.6c-0.3-0.7-0.5-1.5-0.5-2.3c0-0.9,0.2-1.7,0.6-2.4c0.4-0.7,0.9-1.2,1.6-1.6c0.5-0.3,1.2-0.4,2-0.4
			c1.1,0,1.9,0.2,2.5,0.7c0.6,0.4,1,1.1,1.2,1.8l-1.7,0.3c-0.1-0.4-0.3-0.8-0.7-1c-0.3-0.2-0.7-0.4-1.2-0.4c-0.8,0-1.4,0.2-1.8,0.7
			c-0.4,0.5-0.7,1.2-0.7,2.1c0,1,0.2,1.8,0.7,2.3c0.5,0.5,1,0.8,1.8,0.8c0.4,0,0.7-0.1,1.1-0.2c0.4-0.1,0.7-0.3,0.9-0.5v-1.1H61.4z"
			/>
		<path fill="#231F20" d="M66.4,116.7h1.7v4.6c0,0.7,0,1.2,0.1,1.4c0.1,0.3,0.2,0.6,0.5,0.8c0.3,0.2,0.7,0.3,1.1,0.3
			c0.5,0,0.9-0.1,1.1-0.3c0.2-0.2,0.4-0.4,0.4-0.7c0-0.3,0.1-0.8,0.1-1.5v-4.7h1.7v4.5c0,1,0,1.8-0.1,2.2c-0.1,0.4-0.3,0.8-0.5,1.1
			c-0.3,0.3-0.6,0.5-1,0.7c-0.4,0.2-1,0.3-1.6,0.3c-0.8,0-1.4-0.1-1.9-0.3c-0.4-0.2-0.8-0.4-1-0.7c-0.2-0.3-0.4-0.6-0.5-0.9
			c-0.1-0.5-0.2-1.2-0.2-2.2V116.7z"/>
		<path fill="#231F20" d="M82.2,125.3h-1.9l-0.7-1.9h-3.4l-0.7,1.9h-1.8l3.3-8.5h1.8L82.2,125.3z M79,121.9l-1.2-3.2l-1.2,3.2H79z"
			/>
		<path fill="#231F20" d="M82.9,125.3v-8.5h3.6c0.9,0,1.6,0.1,2,0.2c0.4,0.2,0.7,0.4,1,0.8c0.2,0.4,0.4,0.8,0.4,1.3
			c0,0.6-0.2,1.2-0.6,1.6c-0.4,0.4-0.9,0.7-1.7,0.8c0.4,0.2,0.7,0.5,0.9,0.7c0.2,0.3,0.6,0.7,1,1.4l1,1.7h-2.1l-1.2-1.9
			c-0.4-0.7-0.7-1.1-0.9-1.3c-0.2-0.2-0.3-0.3-0.5-0.4c-0.2-0.1-0.5-0.1-0.9-0.1h-0.3v3.6H82.9z M84.7,120.3h1.3
			c0.8,0,1.3,0,1.6-0.1c0.2-0.1,0.4-0.2,0.5-0.4c0.1-0.2,0.2-0.4,0.2-0.6c0-0.3-0.1-0.5-0.2-0.7c-0.2-0.2-0.4-0.3-0.7-0.3
			c-0.1,0-0.6,0-1.3,0h-1.3V120.3z"/>
		<path fill="#231F20" d="M99.5,125.3h-1.9l-0.7-1.9h-3.4l-0.7,1.9h-1.8l3.3-8.5h1.8L99.5,125.3z M96.3,121.9l-1.2-3.2l-1.2,3.2
			H96.3z"/>
		<path fill="#231F20" d="M100.2,125.3v-8.5h1.7l3.5,5.7v-5.7h1.6v8.5h-1.7l-3.4-5.6v5.6H100.2z"/>
		<path fill="#231F20" d="M110.4,125.3v-7.1h-2.5v-1.4h6.8v1.4h-2.5v7.1H110.4z"/>
		<path fill="#231F20" d="M115.5,125.3v-8.5h6.3v1.4h-4.6v1.9h4.3v1.4h-4.3v2.3h4.8v1.4H115.5z"/>
		<path fill="#231F20" d="M123.2,125.3v-8.5h6.3v1.4h-4.6v1.9h4.3v1.4h-4.3v2.3h4.8v1.4H123.2z"/>
	</g>
</g>
</svg>
