<?xml version="1.0" encoding="utf-8"?>
<!-- Generator: Adobe Illustrator 16.0.0, SVG Export Plug-In . SVG Version: 6.00 Build 0)  -->
<!DOCTYPE svg PUBLIC "-//W3C//DTD SVG 1.1//EN" "http://www.w3.org/Graphics/SVG/1.1/DTD/svg11.dtd">
<svg version="1.1" id="Foreground" xmlns="http://www.w3.org/2000/svg" xmlns:xlink="http://www.w3.org/1999/xlink" x="0px" y="0px"
	 width="244.062px" height="54.02px" viewBox="0 0 244.062 54.02" enable-background="new 0 0 244.062 54.02" xml:space="preserve">
<path d="M90.231,0.139c6.585,0,13.259,0,19.691,0c3.457,0,6.727-0.219,9.614,0.231c14.174,2.213,21.771,10.806,21.43,26.988
	c-0.258,12.163-5.286,20.577-14.595,24.21c-8.847,3.454-23.491,1.652-36.373,2.086c0.013-9.893,0.115-15.36,0.115-26.062
	c0-10.063-0.029-18.375,0-27.106C90.105,0.322,90.097,0.158,90.231,0.139z M122.087,35.237c2.159-4.653,2.243-14.124-0.465-18.533
	c-2.44-3.979-9.575-4.446-14.016-4.054c-0.271,9.267-0.038,19.036-0.114,28.495C114.795,41.685,119.853,40.055,122.087,35.237z"/>
<path d="M156.954,0.139c5.907,0,11.814,0,17.723,0c6.091,17.965,12.744,35.366,18.649,53.518c-5.753,0-11.507,0-17.259,0
	c-0.651-2.361-1.285-4.74-2.086-6.951c-5.688,0.03-10.997,0.006-16.912,0c-0.932,2.243-1.351,4.5-2.085,7.065
	c-5.676,0-11.354,0-17.028,0C144.188,35.792,150.479,17.874,156.954,0.139z M160.312,35.353c2.879,0.175,6.499,0.055,10.655,0.116
	c-1.491-6.042-3.59-13.086-5.442-18.766C163.839,22.972,162.108,29.195,160.312,35.353z"/>
<path d="M193.674,0.139c3.988,0,7.885,0,12.048,0c1.182,0,3.052-0.312,3.938,0c0.749,0.264,1.705,2.491,2.433,3.591
	c5.437,8.221,11.162,17.315,16.448,25.138c0.002-9.115,0-19.229,0-28.729c5.175,0,10.351,0,15.522,0c0,17.916,0,35.832,0,53.749
	c-3.924,0-7.625,0-11.7,0c-1.239,0-2.875,0.299-3.822,0c-0.732-0.233-1.865-2.433-2.548-3.475
	c-5.454-8.318-10.958-17.643-16.333-25.484c0.632,8.605,0.24,19.215,0.347,28.729c-5.48,0-10.965,0-16.447,0
	c0-17.725,0-35.446,0-53.17C193.548,0.322,193.539,0.158,193.674,0.139z"/>
<path d="M11.27,0H0v11.251V54h69.695H81V42.771V0H11.27z M55.918,11.933c2.415,0.003,4.154,0.014,6.4,0c0-1.977,0-3.954,0-5.93
	c1.981-0.009,4.093,0.005,6.223,0c0,1.997,0,3.992,0,5.989c2.036,0.137,4.326,0.019,6.459,0.059c0,1.938,0,3.875,0,5.812
	c-2.152,0-4.306,0-6.459,0c0,1.957,0,3.915,0,5.872c-2.074,0-4.147,0-6.223,0c0-1.977,0-3.952,0-5.93
	c-2.018-0.137-4.287-0.02-6.4-0.059C55.918,15.808,55.918,13.871,55.918,11.933z M79.5,52.5H67.25L1.5,12.171V1.5h12.215
	L79.5,41.851V52.5z"/>
</svg>
