<?xml version="1.0" encoding="utf-8"?>
<!-- Generator: Adobe Illustrator 17.1.0, SVG Export Plug-In . SVG Version: 6.00 Build 0)  -->
<!DOCTYPE svg PUBLIC "-//W3C//DTD SVG 1.1//EN" "http://www.w3.org/Graphics/SVG/1.1/DTD/svg11.dtd">
<svg version="1.1" id="Layer_1" xmlns="http://www.w3.org/2000/svg" xmlns:xlink="http://www.w3.org/1999/xlink" x="0px" y="0px"
	 viewBox="0 0 96 107" enable-background="new 0 0 96 107" xml:space="preserve">
<path d="M74.3,52.2l8.1-10.4L80,40.1l-8.2,10.5l-9.8-7.2L70,32.8l-2.5-2l-8.3,10.9c-0.8-0.5-1.6-0.7-2.5-0.7c-2,0-3.4,1.5-4,2.4
	l-9.5,13l3.2,6.8l4.3,3.1c-3.6,3-11,9-15.9,9c-1.2,0-2.1-0.4-2.8-1.1c-1.1-1.2-2.2-4.1-1.6-10.9C33.5,33.4,16,27.9,15.2,27.7
	l-1.4-0.4L13,30.7l1.3,0.4c0.7,0.2,16,5.2,13.4,32.5c-0.6,6.4,0.1,10.7,2.3,13.1c1.2,1.3,2.8,2,4.8,2c6.5,0,15.4-7.7,18.8-10.6
	l3.4,2.4l9.1,0.8l8.3-11.5c1.2-1.8,1.7-3.5,1.4-5C75.5,53.4,74.8,52.6,74.3,52.2z"/>
</svg>
