<?xml version="1.0" encoding="utf-8"?>
<!-- Generator: Adobe Illustrator 17.1.0, SVG Export Plug-In . SVG Version: 6.00 Build 0)  -->
<!DOCTYPE svg PUBLIC "-//W3C//DTD SVG 1.1//EN" "http://www.w3.org/Graphics/SVG/1.1/DTD/svg11.dtd">
<svg version="1.1" id="Layer_1" xmlns="http://www.w3.org/2000/svg" xmlns:xlink="http://www.w3.org/1999/xlink" x="0px" y="0px"
	 viewBox="0 0 96 107" enable-background="new 0 0 96 107" xml:space="preserve">
<g>
	<g>
		<path fill-rule="evenodd" clip-rule="evenodd" d="M78,55c-1.2-5.8-2.9-11.5-6.2-16.5c-2.5-3.7-5.8-6.4-10.5-7
			c-0.7-0.1-1.4-0.2-2.1-0.2H59c-0.7,0.1-1.4,0.2-2.1,0.2c-4.6,0.6-7.9,3.3-10.4,7c-3.4,5-5,10.6-6.2,16.5c-0.3,1.7,0.3,2.6,1.5,2.8
			c1.3,0.2,2-0.5,2.4-2.1c1-4.3,2.2-8.6,4.3-12.6c0.3-0.5,0.6-1.1,0.9-1.6c0.1-0.1,0.2-0.2,0.5-0.5c-0.6,2.9-1.1,5.5-1.6,8.1
			c-1.2,5.8-2.4,11.6-3.5,17.4c-0.1,0.4,0.4,1.2,0.9,1.4c1.3,0.5,2.7,1.1,4.2,1.2c2.9,0.3,5.8,0.6,8.8,0.6h1c2.9,0,5.8-0.2,8.8-0.6
			c1.4-0.2,2.8-0.7,4.2-1.2c0.4-0.2,0.9-1,0.9-1.4c-1.1-5.8-2.3-11.6-3.5-17.4c-0.5-2.6-1-5.2-1.6-8.1c0.3,0.3,0.5,0.4,0.5,0.5
			c0.3,0.5,0.6,1.1,0.9,1.6c2.1,4,3.3,8.3,4.3,12.6c0.4,1.6,1.2,2.3,2.4,2.1C77.8,57.7,78.4,56.7,78,55z"/>
		<path fill-rule="evenodd" clip-rule="evenodd" d="M58.7,30.3c3.1,0.2,6.5-2.2,6.6-6.5c0.1-3.5-3.1-6.6-6.6-6.6
			c-3.5,0-6.7,3.1-6.6,6.6C52.2,27.8,55.4,30.5,58.7,30.3z"/>
		<path fill-rule="evenodd" clip-rule="evenodd" d="M58.2,71.1c-2.1-0.1-4.1-0.2-6.2-0.3c0,5.2,0,9.1,0,14.1c0,0.5,0.3,1.1,0.6,1.5
			c0.9,1,1.9,1.5,3.3,1c1.5-0.5,2.3-1.6,2.3-3.4c0-3.3,0-6.1,0-9.4C58.2,73.3,58.2,72.5,58.2,71.1z"/>
		<path fill-rule="evenodd" clip-rule="evenodd" d="M65.4,70.9c-1.1,0-1.9,0-2.8,0c-1.1,0.1-2.2,0.2-3.4,0.3c0,1.1,0,1.6,0,2.5
			c0,3.7,0,6.8,0,10.5c0,1.9,1.5,3.5,3.2,3.4c1.7-0.1,3-1.5,3-3.4c0-3.2,0-5.9,0-9.1C65.4,73.5,65.4,72.5,65.4,70.9z"/>
	</g>
	<g>
		<path fill-rule="evenodd" clip-rule="evenodd" d="M43.2,56.5c-2.6-2.6-5.4-5-8.8-6.5c-1.6-0.7-3.2-1-4.8-0.9c-0.3,0-0.5,0-0.8,0
			l0.1-0.1h-0.2c-0.4,0.1-0.9,0.1-1.3,0.2c-2.9,0.4-4.9,2.1-6.5,4.4c-2.1,3.1-3.1,8.6-3.9,12.3c-0.2,1,0.5,1.9,1.3,2
			c0.8,0.1,2.2-0.6,2.4-1.6c0.6-2.7,1.3-7.4,2.7-9.8c0.2-0.3,0.3-0.6,0.5-0.9c0,8.2,0,20.8,0,29c0,1.8,0.9,2.9,2.4,3.1
			c1.5,0.2,2.6-1.1,2.7-3c0-0.3,0-0.7,0-1c0-3.4,0-8.1,0-11.5c0-0.4,0.2-0.8,0.3-1.2c0.2,0,0.4,0.1,0.6,0.1c0,0.5,0,1,0,1.5
			c0,3.7,0,8.9,0,12.6c0,1.3,0.7,2.1,2,2.4c1.2,0.3,2.1-0.2,2.6-1.2c0.3-0.6,0.3-1.4,0.3-2c0-8.5,0-21.4,0-29.9
			c2.1,1.3,3.9,2.9,5.6,4.6c0.7,0.7,2.3,0.6,2.9,0C43.8,58.4,43.9,57.2,43.2,56.5z"/>
		<path fill-rule="evenodd" clip-rule="evenodd" d="M29.4,47.6c2.9,0,5.3-2.4,5.2-5.5c0-3-2.5-5.5-5.5-5.4c-3,0-5.4,2.4-5.4,5.5
			C23.8,45.3,26.3,47.6,29.4,47.6z"/>
	</g>
</g>
</svg>
