<?xml version="1.0" encoding="utf-8"?>
<!-- Generator: Adobe Illustrator 17.1.0, SVG Export Plug-In . SVG Version: 6.00 Build 0)  -->
<!DOCTYPE svg PUBLIC "-//W3C//DTD SVG 1.1//EN" "http://www.w3.org/Graphics/SVG/1.1/DTD/svg11.dtd">
<svg version="1.1" id="Layer_1" xmlns="http://www.w3.org/2000/svg" xmlns:xlink="http://www.w3.org/1999/xlink" x="0px" y="0px"
	 viewBox="0 0 96 107" enable-background="new 0 0 96 107" xml:space="preserve">
<g>
	<path fill-rule="evenodd" clip-rule="evenodd" d="M74.9,20.5c-18,0-36,0-54,0c-3.4,0-5.9,2.5-5.9,5.9c0,2.7,0,5.5,0,8.2
		c0,13.6,0,27.3,0,40.9c0,2.8,1.9,5.1,4.6,5.6c1,0.2,2,0.2,3,0.2c0,0.8,0,1.6,0,2.3c0,1.6,1.1,2.7,2.7,2.7c3.3,0,6.5,0,9.8,0
		c1.6,0,2.7-1.1,2.7-2.7c0-0.8,0-1.6,0-2.3c6.8,0,13.5,0,20.2,0c0,0.8,0,1.6,0,2.3c0,1.6,1.1,2.6,2.6,2.7c3.3,0,6.6,0,10,0
		c1.5,0,2.6-1.1,2.6-2.6c0-0.8,0-1.6,0-2.5c0.6,0,1.2,0,1.7,0c3.4,0,5.9-2.5,5.9-5.9c0-16.3,0-32.6,0-48.9
		C80.8,23,78.3,20.5,74.9,20.5z M70.7,69.8c0,1.1-0.2,1.3-1.3,1.3c-7.2,0-14.3,0-21.5,0c-7.2,0-14.3,0-21.5,0
		c-1.1,0-1.3-0.1-1.3-1.3c0-12.7,0-25.3,0-38c0-1.1,0.1-1.3,1.3-1.3c14.3,0,28.7,0,43,0c1.1,0,1.3,0.1,1.3,1.3
		C70.7,44.5,70.7,57.2,70.7,69.8z"/>
	<path fill-rule="evenodd" clip-rule="evenodd" d="M27.7,68.5c13.5,0,26.9,0,40.4,0c0-11.8,0-23.5,0-35.3c-13.5,0-27,0-40.4,0
		C27.7,45,27.7,56.8,27.7,68.5z M48,40.4c5.8,0,10.4,4.7,10.5,10.5c0,5.7-4.8,10.6-10.7,10.5c-5.7-0.1-10.4-4.8-10.3-10.5
		C37.5,45,42.2,40.3,48,40.4z"/>
	<path fill-rule="evenodd" clip-rule="evenodd" d="M43.1,56.4c2.6,2.4,7.1,2.3,9.8-0.2c2.7-2.5,2.8-6.8,1.4-8.7
		c-1.4,0.5-2.9,1-4.3,1.5c1,1.7,0.8,3-0.4,4c-1.1,0.8-2.6,0.7-3.5-0.2c-0.9-0.9-1.1-2.4-0.3-3.5c0.9-1.3,2.2-1.5,4.1-0.6
		c0.5-1.4,1-2.9,1.5-4.3c-2.5-1.5-6.6-1.2-9,1.8C39.7,49.4,40.1,53.7,43.1,56.4z"/>
</g>
</svg>
