<?xml version="1.0" encoding="utf-8"?>
<!-- Generator: Adobe Illustrator 17.1.0, SVG Export Plug-In . SVG Version: 6.00 Build 0)  -->
<!DOCTYPE svg PUBLIC "-//W3C//DTD SVG 1.1//EN" "http://www.w3.org/Graphics/SVG/1.1/DTD/svg11.dtd">
<svg version="1.1" id="Layer_1" xmlns="http://www.w3.org/2000/svg" xmlns:xlink="http://www.w3.org/1999/xlink" x="0px" y="0px"
	 viewBox="0 0 96 107" enable-background="new 0 0 96 107" xml:space="preserve">
<g>
	<path fill-rule="evenodd" clip-rule="evenodd" d="M75.8,31.8c-18.6,0-37.1,0-55.7,0c-2.2,0-4.2,0.5-5.3,2.6
		c-0.4,0.9-0.7,1.9-0.8,2.9C14,48.1,14,59,14,69.9c0,2.8,1.4,4.5,4,5.4c20.1,0,40.2,0,60.3,0c1.8-0.7,3-1.9,3.7-3.7
		c0-12,0-24.1,0-36.1C80.8,32.8,78.7,31.7,75.8,31.8z M17.2,36.8c0-1.1,0.8-1.7,1.9-1.9c0.4,0,0.8,0,1.2,0c18.5,0,37.1,0,55.6,0
		c2.5,0,3,0.5,3,3c0,1.4,0,2.7,0,4.1c0,0.1-0.1,0.2-0.1,0.3c-20.4,0-40.9,0-61.5,0C17.2,40.4,17.1,38.6,17.2,36.8z M78.9,69.5
		c0,2.2-0.5,2.7-2.7,2.7c-18.7,0-37.4,0-56.1,0c-2.3,0-2.8-0.5-2.8-2.8c0-4.8,0-9.6,0-14.3c0-0.4,0-0.9,0-1.4c20.6,0,41.1,0,61.6,0
		c0,0.5,0.1,0.9,0.1,1.3C78.9,59.9,78.9,64.7,78.9,69.5z"/>
	<path fill-rule="evenodd" clip-rule="evenodd" d="M30.5,67c5.9,0,11.7,0,17.5,0c0-0.9,0-1.8,0-2.5c-5.9,0-11.7,0-17.5,0
		C30.5,65.4,30.5,66.2,30.5,67z"/>
	<path fill-rule="evenodd" clip-rule="evenodd" d="M19.7,67.1c2.8,0,5.4,0,8.1,0c0-0.9,0-1.7,0-2.6c-2.7,0-5.4,0-8.1,0
		C19.7,65.4,19.7,66.2,19.7,67.1z"/>
</g>
</svg>
