<?xml version="1.0" encoding="utf-8"?>
<!-- Generator: Adobe Illustrator 17.1.0, SVG Export Plug-In . SVG Version: 6.00 Build 0)  -->
<!DOCTYPE svg PUBLIC "-//W3C//DTD SVG 1.1//EN" "http://www.w3.org/Graphics/SVG/1.1/DTD/svg11.dtd">
<svg version="1.1" id="Layer_1" xmlns="http://www.w3.org/2000/svg" xmlns:xlink="http://www.w3.org/1999/xlink" x="0px" y="0px"
	 viewBox="0 0 96 107" enable-background="new 0 0 96 107" xml:space="preserve">
<g id="xxsSLp_1_">
	<g>
		<g>
			<path fill-rule="evenodd" clip-rule="evenodd" d="M12.9,74.4c0.2-0.9,0.4-1.9,0.7-2.8c1.4-3.6,3.9-6,7.7-6.8
				c0.6-0.1,1.3-0.1,1.9-0.2c0.4-1.3,0.7-2.7,1.2-3.9c2.2-5.7,6.2-9.6,12.3-10.9c4.2-0.9,8.1-0.1,11.8,2.2c2.2,1.4,3.9,3.2,5.3,5.4
				c0.2,0.3,0.3,0.4,0.8,0.4c3.8-0.6,7.2,0.2,10.5,2.2c2,1.2,3.6,2.8,4.9,4.7c0.3,0.4,0.5,0.5,1.1,0.3c3.2-1.3,6.5,0,8.7,2.5
				c2.1,2.3,3.1,5.1,3.4,8.2c-23.4,0-46.7,0-70,0C12.9,75.1,12.9,74.8,12.9,74.4z"/>
			<path fill-rule="evenodd" clip-rule="evenodd" d="M83.1,40c-0.9,0.5-1.9,1-2.8,1.5c-0.7,0.4-1.4,0.8-2.1,1.2
				c-0.5-0.8-0.9-1.5-1.3-2.3c1.6-1,3.2-1.9,4.9-2.8c0.5,0.8,0.9,1.5,1.4,2.3C83.1,39.9,83.1,39.9,83.1,40z"/>
			<path fill-rule="evenodd" clip-rule="evenodd" d="M70.7,57.9c-1.9-1.9-4-3.3-6.4-4.2c-2.3-0.8-4.7-1.1-7.2-0.7
				c-0.5,0.1-0.7-0.1-0.9-0.4c-1.6-2.7-3.8-4.8-6.5-6.3c-0.5-0.3-1.1-0.5-1.7-0.9c0.4-0.9,0.6-1.9,1.1-2.9c2-4,5.1-6.6,9.5-7.3
				c5.2-0.9,9.5,0.9,12.7,5.1c2.2,2.9,3.1,6.3,2.7,9.9C73.8,53,72.7,55.6,70.7,57.9z"/>
			<path fill-rule="evenodd" clip-rule="evenodd" d="M82.8,52c-1.9,0-3.7,0-5.6,0c0-0.9,0-1.7,0-2.6c1.9,0,3.7,0,5.6,0
				C82.8,50.2,82.8,51.1,82.8,52z"/>
			<path fill-rule="evenodd" clip-rule="evenodd" d="M81.3,63.5c-1.7-1-3.2-1.9-4.9-2.8c0.5-0.8,0.9-1.5,1.4-2.3
				c1.6,0.9,3.2,1.9,4.9,2.8C82.2,61.9,81.8,62.6,81.3,63.5z"/>
			<path fill-rule="evenodd" clip-rule="evenodd" d="M62.4,31.4c-0.9,0-1.7,0-2.6,0c0-1.8,0-3.7,0-5.5c0.9,0,1.7,0,2.6,0
				C62.4,27.7,62.4,29.6,62.4,31.4z"/>
			<path fill-rule="evenodd" clip-rule="evenodd" d="M40.5,38.4c1.7,0.7,3.3,1.4,4.9,2.2c-0.4,0.8-0.7,1.6-1.1,2.4
				c-1.6-0.7-3.2-1.4-4.9-2.1C39.8,40,40.2,39.3,40.5,38.4z"/>
			<path fill-rule="evenodd" clip-rule="evenodd" d="M49.7,28.6c1.3,1.3,2.5,2.7,3.8,4c-0.6,0.6-1.2,1.1-1.8,1.7
				c-1.3-1.3-2.5-2.6-3.8-4C48.5,29.7,49.1,29.2,49.7,28.6z"/>
			<path fill-rule="evenodd" clip-rule="evenodd" d="M72.1,29c0.7,0.5,1.3,0.9,1.9,1.4c-1.1,1.5-2.1,2.9-3.1,4.3
				c-0.7-0.5-1.3-0.9-1.9-1.4C70,31.9,71,30.5,72.1,29z"/>
		</g>
	</g>
</g>
</svg>
