<?xml version="1.0" encoding="utf-8"?>
<!-- Generator: Adobe Illustrator 17.1.0, SVG Export Plug-In . SVG Version: 6.00 Build 0)  -->
<!DOCTYPE svg PUBLIC "-//W3C//DTD SVG 1.1//EN" "http://www.w3.org/Graphics/SVG/1.1/DTD/svg11.dtd">
<svg version="1.1" id="Layer_1" xmlns="http://www.w3.org/2000/svg" xmlns:xlink="http://www.w3.org/1999/xlink" x="0px" y="0px"
	 viewBox="0 0 96 107" enable-background="new 0 0 96 107" xml:space="preserve">
<g>
	<g>
		<path fill-rule="evenodd" clip-rule="evenodd" d="M15.7,75.5c0-11.5,0-23,0-34.5c21.8,0,43.6,0,65.4,0c0,11.5,0,23,0,34.5
			C59.4,75.5,37.6,75.5,15.7,75.5z M68.9,71.1c0.5-4.8,3.3-7.2,7.9-7.8c0-3.4,0-6.7,0-10.1c-4.6-0.6-7.4-3-8-7.8
			c-13.6,0-27.3,0-40.9,0c-0.5,4.8-3.3,7.2-7.9,7.8c0,3.4,0,6.7,0,10.1c4.6,0.6,7.4,3,7.9,7.8C41.7,71.1,55.3,71.1,68.9,71.1z"/>
		<path fill-rule="evenodd" clip-rule="evenodd" d="M27.4,54.9c1.9,0,3.4,1.5,3.3,3.4c0,1.9-1.5,3.3-3.5,3.3c-1.9,0-3.3-1.5-3.3-3.4
			C24,56.3,25.5,54.9,27.4,54.9z"/>
		<path fill-rule="evenodd" clip-rule="evenodd" d="M69.5,54.9c2,0,3.4,1.4,3.4,3.3c0,1.9-1.4,3.4-3.3,3.4c-1.9,0-3.4-1.4-3.4-3.3
			C66.1,56.4,67.6,54.9,69.5,54.9z"/>
		<g>
			<path d="M48.4,49.6c-4.8,0-8.8,3.9-8.8,8.6c0,4.8,4,8.7,8.9,8.7c4.8,0,8.8-3.9,8.8-8.6C57.4,53.5,53.4,49.6,48.4,49.6z
				 M49.3,63.7v1.8h-1.7v-1.7c-1.2-0.1-2.3-0.4-3-0.7l0.5-2c0.7,0.4,1.8,0.8,2.9,0.8c1,0,1.7-0.4,1.7-1.1c0-0.7-0.6-1.1-1.8-1.5
				c-1.9-0.6-3.1-1.5-3.1-3.2c0-1.5,1.1-2.7,2.9-3.1v-1.7h1.7v1.5c1.2,0.1,2,0.3,2.5,0.6l-0.5,2c-0.5-0.2-1.3-0.6-2.5-0.6
				c-1.1,0-1.5,0.5-1.5,1c0,0.6,0.6,0.9,2.1,1.5c2.1,0.7,2.9,1.7,2.9,3.3C52.4,62,51.3,63.4,49.3,63.7z"/>
		</g>
	</g>
	<polygon points="16,39 75.7,39 75.7,34.3 16,37.6 	"/>
	<polygon points="16,36 70.3,32.4 70.3,28.2 16,34.2 	"/>
</g>
</svg>
