<?xml version="1.0" encoding="utf-8"?>
<!-- Generator: Adobe Illustrator 17.1.0, SVG Export Plug-In . SVG Version: 6.00 Build 0)  -->
<!DOCTYPE svg PUBLIC "-//W3C//DTD SVG 1.1//EN" "http://www.w3.org/Graphics/SVG/1.1/DTD/svg11.dtd">
<svg version="1.1" id="Isolation_Mode" xmlns="http://www.w3.org/2000/svg" xmlns:xlink="http://www.w3.org/1999/xlink" x="0px"
	 y="0px" viewBox="0 0 118 114" enable-background="new 0 0 118 114" xml:space="preserve">
<path fill="#00ABE6" d="M55,88.8c-17.9,0-32.4-14.6-32.4-32.4S37.1,23.9,55,23.9c6.2,0,12.1,1.8,17,4.8V14.5c-5.3-2.1-11-3.3-17-3.3
	c-24.9,0-45.1,20.2-45.1,45.1c0,24.9,20.2,45.1,45.1,45.1c9.3,0,17.9-2.8,25-7.6V77C74,84.2,65,88.8,55,88.8z"/>
<path fill="#00ABE6" d="M106,11h-4.1l-1.3,25h-5.6l-0.5-25h-3.9l-0.6,25h-4.8l-2.1-24.6L79,11.2v25.2l0.2,0.2
	c0.3,8,4.4,8.3,9.8,11.3h0l-2,52.8c4,4.6,12,0.7,12,0.7l-2-54c0,0,8.8-3.5,9.1-11.5H106V11z"/>
</svg>
