<?xml version="1.0" encoding="utf-8"?>
<!-- Generator: Adobe Illustrator 17.0.0, SVG Export Plug-In . SVG Version: 6.00 Build 0)  -->
<!DOCTYPE svg PUBLIC "-//W3C//DTD SVG 1.1//EN" "http://www.w3.org/Graphics/SVG/1.1/DTD/svg11.dtd">
<svg version="1.1" id="Layer_1" xmlns="http://www.w3.org/2000/svg" xmlns:xlink="http://www.w3.org/1999/xlink" x="0px" y="0px"
	 width="81px" height="67px" viewBox="0 0 81 67" enable-background="new 0 0 81 67" xml:space="preserve">
<g>
	<path d="M73.408,23.1c0,0-6.113,0-6.462,0c-0.349,0-1.572-0.699-1.572-0.699s-4.801-7.945-9.079-9.079
		c-4.277-1.134-27.673-1.134-31.952,0s-9.079,9.079-9.079,9.079S14.041,23.1,13.692,23.1c-0.349,0-6.462,0-6.462,0
		s-2.18,2.883,2.184,4.889c1.406,0.646,2.19,0.966,2.615,1.102c0.109-0.142,0.178-0.229,0.178-0.229s0.718,0.519-0.178,0.229
		c-0.614,0.801-2.668,3.592-2.965,5.446c-0.348,2.183-0.786,4.628-0.786,9.167s-1.048,10.65,1.047,10.65s10.04,0,10.04,0
		s0.785-0.698,0.96-1.745c0.175-1.047,0-3.666,0-3.666h18.16h2.618H60.31c0,0-0.175,2.619,0,3.666
		c0.174,1.047,0.96,1.745,0.96,1.745s7.945,0,10.04,0c2.096,0,1.047-6.11,1.047-10.65s-0.438-6.985-0.786-9.167
		c-0.297-1.854-2.351-4.645-2.965-5.446c-0.896,0.29-0.178-0.229-0.178-0.229s0.07,0.087,0.178,0.229
		c0.425-0.136,1.21-0.456,2.615-1.102C75.588,25.983,73.408,23.1,73.408,23.1z M20.502,20.219c2.969-4.19,4.977-5.762,10.477-6.024
		c4.223-0.202,14.458-0.202,18.682,0c5.5,0.262,7.508,1.834,10.477,6.024s0.699,5.675,0.699,5.675s-14.33,0-19.818,0
		c-0.33,0-0.808,0-1.397,0c-5.488,0-19.818,0-19.818,0S17.534,24.41,20.502,20.219z M20.502,39.984
		c-1.921-0.07-5.588-0.136-7.072-1.506c-1.484-1.367,0.524-5.13,1.746-4.788c1.221,0.341,6.024,1.299,7.856,1.643
		c1.834,0.341,3.929,3.898,3.929,4.239C26.962,40.395,22.421,40.053,20.502,39.984z M27.661,35.881c0-0.454,0.469-0.823,1.047-0.823
		h9.515v1.643h-9.515C28.13,36.701,27.661,36.335,27.661,35.881z M50.883,39.233H29.755c-0.579,0-1.047-0.367-1.047-0.822
		c0-0.454,0.469-0.822,1.047-0.822h21.127c0.579,0,1.047,0.368,1.047,0.822C51.93,38.867,51.462,39.233,50.883,39.233z
		 M51.93,36.701h-9.515v-1.643h9.515c0.579,0,1.047,0.368,1.047,0.823C52.978,36.335,52.509,36.701,51.93,36.701z M27.137,34.17
		c-0.58,0-1.048-0.367-1.048-0.822c0-0.454,0.469-0.822,1.048-0.822h26.364c0.58,0,1.048,0.368,1.048,0.822
		s-0.469,0.822-1.048,0.822H27.137z M67.208,38.48c-1.484,1.368-5.15,1.436-7.072,1.506c-1.919,0.068-6.46,0.41-6.46-0.41
		c0-0.341,2.094-3.898,3.929-4.239c1.833-0.344,6.635-1.302,7.856-1.643C66.684,33.349,68.692,37.113,67.208,38.48z"/>
</g>
</svg>
