<?xml version="1.0" encoding="utf-8"?>
<!-- Generator: Adobe Illustrator 20.0.0, SVG Export Plug-In . SVG Version: 6.00 Build 0)  -->
<svg version="1.1" id="Layer_1" xmlns="http://www.w3.org/2000/svg" xmlns:xlink="http://www.w3.org/1999/xlink" x="0px" y="0px"
	 viewBox="0 0 463.5 170.5" style="enable-background:new 0 0 463.5 170.5;" xml:space="preserve">
<style type="text/css">
	.st0{fill-rule:evenodd;clip-rule:evenodd;}
</style>
<g>
	<g>
		<path d="M33.2,135.8c-4.2,0-8.4-0.7-12.4-2c-4-1.4-7.6-3.4-10.6-5.9c-3.1-2.6-5.6-5.8-7.4-9.5c-1.9-3.8-2.8-8.1-2.8-12.9
			c0-4.7,0.9-9,2.8-12.8c1.8-3.8,4.3-7,7.4-9.6c3-2.6,6.6-4.7,10.5-6c3.9-1.4,7.9-2.1,12-2.1c2.5,0,4.8,0.2,6.9,0.5
			c2.1,0.3,4.1,0.8,6,1.5c1.8,0.6,3.6,1.4,5.3,2.3c1.7,0.9,3.3,1.9,4.9,2.9l0.7,0.5L53,87.3l-0.6-0.4c-2.8-1.9-5.9-3.5-9.1-4.7
			c-3.2-1.1-6.8-1.8-10.6-1.8c-3.7,0-7.1,0.6-10.3,1.9c-3.2,1.2-5.9,3-8.2,5.2c-2.3,2.2-4.1,4.9-5.5,7.9c-1.3,3.1-2,6.5-2,10.1
			c0,3.8,0.7,7.2,2.1,10.2c1.4,3.1,3.3,5.7,5.7,7.8c2.4,2.2,5.3,3.8,8.5,5c3.2,1.2,6.7,1.8,10.4,1.8c3.3,0,6.4-0.4,9.2-1.3
			c2.6-0.8,5.1-1.9,7.4-3.4v-14H32.5V106h23.7v22.3l-0.3,0.2c-3.1,2.3-6.5,4.1-10.2,5.3C42,135.2,37.8,135.8,33.2,135.8z"/>
		<path d="M105.4,135.8c-4.3,0-8.3-0.8-12.1-2.3c-3.8-1.5-7.1-3.6-9.9-6.3c-2.8-2.7-5-6-6.6-9.7c-1.6-3.7-2.4-7.8-2.4-12.1
			c0-4.3,0.8-8.4,2.5-12.2c1.6-3.7,3.9-7,6.7-9.7c2.8-2.7,6.2-4.8,10-6.4c3.8-1.5,7.9-2.3,12.2-2.3c4.3,0,8.3,0.8,12.1,2.3
			c3.8,1.5,7.1,3.7,9.9,6.4c2.8,2.7,5,6,6.6,9.7c1.6,3.7,2.4,7.8,2.4,12.1c0,4.3-0.8,8.4-2.5,12.1c-1.6,3.7-3.9,6.9-6.7,9.6
			c-2.8,2.7-6.2,4.8-10,6.3C113.9,135.1,109.8,135.8,105.4,135.8z M105.6,80.5c-3.6,0-6.9,0.6-9.9,1.9c-3,1.3-5.6,3-7.7,5.2
			c-2.1,2.2-3.9,4.9-5.1,7.9c-1.2,3-1.8,6.4-1.8,9.9c0,3.5,0.6,6.8,1.8,9.8c1.2,3,2.9,5.7,5.1,7.9c2.1,2.2,4.7,4,7.7,5.2
			c3,1.3,6.3,1.9,9.9,1.9c3.6,0,6.9-0.6,9.9-1.9c3-1.3,5.6-3,7.7-5.2c2.1-2.2,3.9-4.9,5.1-7.9c1.2-3,1.8-6.3,1.8-9.8
			c0-3.5-0.6-6.8-1.8-9.9c-1.2-3-2.9-5.7-5.1-7.9c-2.1-2.2-4.7-4-7.7-5.2C112.5,81.2,109.2,80.5,105.6,80.5z"/>
		<path d="M179.7,135.8c-7.3,0-13.1-2-17.3-5.8c-4.2-3.9-6.3-9.5-6.3-16.7V75.8h6.3v37.4c0,5.6,1.6,9.9,4.7,12.7
			c3.1,2.8,7.4,4.3,12.6,4.3c2.6,0,5.1-0.4,7.2-1.1c2.1-0.7,4-1.8,5.5-3.2c1.5-1.4,2.7-3.2,3.5-5.3c0.8-2.1,1.2-4.6,1.2-7.4V75.8
			h6.3v37.5c0,3.4-0.6,6.6-1.7,9.4c-1.1,2.8-2.8,5.2-4.8,7.1c-2.1,1.9-4.6,3.4-7.6,4.5C186.4,135.3,183.2,135.8,179.7,135.8z"/>
		<path d="M259.8,135l-16.7-23.4c-0.7,0.1-1.4,0.1-2.2,0.2c-0.9,0.1-1.8,0.1-2.8,0.1c-1.1,0-2.4,0-3.8-0.1c-1.1,0-2-0.1-2.8-0.2V135
			h-6.3V76.5l0.7-0.1c2.3-0.3,4.4-0.5,6.5-0.7c2.1-0.2,4.3-0.3,6.7-0.3c3.8,0,7.3,0.4,10.3,1.3c3,0.9,5.5,2.1,7.5,3.6
			c2,1.6,3.6,3.5,4.7,5.7c1.1,2.2,1.6,4.6,1.6,7.3c0,4.1-1.3,7.7-3.9,10.8c-2.3,2.8-5.7,4.9-9.8,6.2l18.1,24.7H259.8z M231.5,106.2
			c0.9,0.1,1.9,0.2,3,0.2c1.3,0.1,2.7,0.2,4,0.2c6,0,10.6-1.2,13.6-3.6c3-2.4,4.5-5.5,4.5-9.5c0-1.8-0.4-3.5-1.1-5
			c-0.7-1.5-1.8-2.8-3.2-3.9c-1.4-1.1-3.2-2-5.3-2.7c-2.1-0.7-4.6-1-7.4-1c-2.7,0-5.4,0.2-8.1,0.6V106.2z"/>
		<polygon points="336.2,135 335.3,90.9 313.5,126.8 311.9,126.8 290.1,90.8 289.2,135 282.8,135 285,75.2 287.2,74.9 312.9,117.8 
			338.2,74.9 340.5,75.2 342.6,135 		"/>
		<polygon points="363.9,135 363.9,75.8 400.1,75.8 400.1,81.3 370.2,81.3 370.2,102.2 397.2,102.2 397.2,107.8 370.2,107.8 
			370.2,129.5 400.1,129.5 400.1,135 		"/>
		<polygon points="436.4,135 436.4,81.3 415.5,81.3 415.5,75.8 463.5,75.8 463.5,81.3 442.7,81.3 442.7,135 		"/>
	</g>
	<g>
		<path d="M34,163.9l-4.4-0.2c-3.6-0.2-5.7-1.1-5.7-3.6c0-2.7,2.9-4.2,7.6-4.2c4.1,0,6.3,0.7,8.1,1.6l-0.9,1.7
			c-1.5-0.8-3.4-1.5-7.1-1.5c-3.6,0-5.4,0.8-5.4,2.2c0,1.3,1.2,1.7,3.8,1.8l4.4,0.2c3.7,0.2,6.1,0.9,6.1,3.8c0,3.3-3.7,4.6-8.2,4.6
			c-4.3,0-6.9-0.8-8.8-2.1l1.2-1.7c1.3,0.9,3.7,1.9,7.7,1.9c4.2,0,5.9-1.1,5.9-2.6C38.2,164.4,36.9,164,34,163.9z"/>
		<path d="M65.1,167.3H54l-1.8,2.7h-2.4l9.7-14.4h0.2l9.9,14.4H67L65.1,167.3z M55.2,165.5h8.6l-4.4-6.4L55.2,165.5z"/>
		<path d="M91.7,156.1h2.5l-9.7,14.4h-0.2l-9.9-14.4h2.7l7.3,10.8L91.7,156.1z"/>
		<path d="M112.4,170.3c-5.4,0-9.8-2.3-9.8-7.2c0-4.8,4.5-7.3,9.8-7.3c5.3,0,9.7,2.4,9.7,7.2C122.2,168,117.8,170.3,112.4,170.3z
			 M112.4,168.5c4.5,0,7.4-1.8,7.4-5.4c0-3.5-2.9-5.5-7.4-5.5c-4.5,0-7.4,1.9-7.4,5.4C105,166.7,107.9,168.5,112.4,168.5z"/>
		<path d="M142.1,170.3c-5.6,0-8.6-1.9-8.6-6.2v-8h2.3v7.8c0,3.3,1.5,4.6,6.2,4.6c4.7,0,6.2-1.3,6.2-4.6v-7.8h2.3v8
			C150.6,168.4,147.7,170.3,142.1,170.3z"/>
		<path d="M177,170l-5-5.5h-6.7v5.5H163v-14h9.7c4.4,0,6.7,1.2,6.7,4.2c0,2.4-1.7,3.8-4.8,4.1l5.1,5.7H177z M165.3,162.7h7.2
			c3,0,4.6-0.5,4.6-2.4c0-1.8-1.4-2.3-4.6-2.3h-7.2V162.7z"/>
		<path d="M204.5,156.1h16.9v2h-7.3v12h-2.3v-12h-7.3V156.1z"/>
		<path d="M232.7,156.1h2.3v5.9h12.2v-5.9h2.3v14h-2.3v-6.1H235v6.1h-2.3V156.1z"/>
		<path d="M273.1,161.9v1.9h-8.6v4.2H277v2h-14.8v-14h14.3v2h-12v3.8H273.1z"/>
		<path d="M321,166.4l4.9-10.3h2.4l-7,14.3h-0.2l-6.3-10.8l-6.1,10.8h-0.2l-7.2-14.3h2.5l5.1,10.3l5.8-10.5h0.1L321,166.4z"/>
		<path d="M346.9,170.3c-5.4,0-9.8-2.3-9.8-7.2c0-4.8,4.5-7.3,9.8-7.3c5.3,0,9.7,2.4,9.7,7.2C356.6,168,352.3,170.3,346.9,170.3z
			 M346.9,168.5c4.5,0,7.4-1.8,7.4-5.4c0-3.5-2.9-5.5-7.4-5.5c-4.5,0-7.4,1.9-7.4,5.4C339.5,166.7,342.4,168.5,346.9,168.5z"/>
		<path d="M382.3,170l-5-5.5h-6.7v5.5h-2.3v-14h9.7c4.4,0,6.7,1.2,6.7,4.2c0,2.4-1.7,3.8-4.8,4.1l5.1,5.7H382.3z M370.5,162.7h7.2
			c3,0,4.6-0.5,4.6-2.4c0-1.8-1.4-2.3-4.6-2.3h-7.2V162.7z"/>
		<path d="M410.9,168.1v2h-14.3v-14h2.3v12H410.9z"/>
		<path d="M440,163.1c0,4.9-3.6,7-9.9,7h-7.5v-14h7.5C436.2,156.1,440,158.2,440,163.1z M424.8,168.1h4.8c5.3,0,8-1,8-5
			c0-3.9-2.5-5.1-8-5.1h-4.8V168.1z"/>
	</g>
	<g>
		<path d="M144.7,42.3c-0.5,0-1,0-1.5-0.1c-1.9-0.2-3.7-0.8-5.3-1.7c-1.6-0.9-3-2.1-4.1-3.6c-1.1-1.5-2-3.2-2.6-5.2
			c-0.6-1.9-0.8-3.8-0.6-5.7c0.1-1.9,0.6-3.7,1.4-5.3c0.8-1.7,1.9-3.1,3.4-4.4c1.4-1.3,3.2-2.2,5.3-2.9c1.1-0.3,2.2-0.6,3.2-0.7
			c0.7-0.1,1.3-0.1,1.9-0.1c0.3,0,0.6,0,0.9,0c0.9,0.1,1.8,0.2,2.7,0.5c0.8,0.2,1.7,0.5,2.5,0.9l0.6,0.3l-1.8,4.1l-0.6-0.3
			c-0.6-0.3-1.2-0.5-1.8-0.7c-0.6-0.2-1.3-0.3-1.9-0.4c-0.3,0-0.6,0-0.9,0c-0.4,0-0.8,0-1.2,0.1c-0.8,0.1-1.6,0.2-2.4,0.5
			c-1.3,0.4-2.5,1-3.5,1.9c-1,0.9-1.7,1.9-2.3,3c-0.5,1.1-0.9,2.4-1,3.8c-0.1,1.4,0.1,2.7,0.5,4.1c0.5,1.5,1.1,2.9,1.9,4
			c0.8,1.1,1.8,2,2.9,2.6c1.1,0.6,2.3,1,3.6,1.2c0.3,0,0.7,0.1,1,0.1c1,0,2.1-0.2,3.2-0.5c1.4-0.4,2.7-1.1,3.7-1.9
			c1-0.8,1.8-1.6,2.4-2.4l-1.7-5.5l-7.9,2.4l-1.2-4l12.1-3.6l3.4,11.3l-0.2,0.3c-0.9,1.5-2.2,3-3.8,4.3c-1.6,1.4-3.6,2.4-5.9,3.1
			C147.8,42,146.2,42.3,144.7,42.3z"/>
		<polygon points="167.5,7 171.9,6.2 176.2,30.2 191.2,27.5 192,31.7 172.5,35.1 		"/>
		<path d="M213,30.1c-1.7,0-3.3-0.3-4.8-0.8c-1.8-0.7-3.4-1.6-4.8-2.9c-1.4-1.2-2.5-2.8-3.3-4.5c-0.8-1.7-1.3-3.6-1.4-5.5
			c-0.1-2,0.1-3.9,0.7-5.8c0.6-1.8,1.5-3.5,2.6-4.9c1.2-1.4,2.6-2.6,4.4-3.5c1.7-0.9,3.7-1.5,5.9-1.6c0.4,0,0.8,0,1.2,0
			c1.7,0,3.3,0.3,4.8,0.8C220,2,221.6,3,223,4.2c1.4,1.2,2.5,2.8,3.3,4.5c0.8,1.6,1.2,3.4,1.4,5.2l0,0l0,0.3l0,0.3l0,0
			c0.1,1.8-0.1,3.7-0.7,5.4c-0.6,1.8-1.5,3.5-2.6,4.9c-1.2,1.4-2.6,2.6-4.4,3.5c-1.7,0.9-3.7,1.5-5.9,1.6
			C213.8,30.1,213.4,30.1,213,30.1z M213.2,4.8c-0.3,0-0.5,0-0.8,0c-1.4,0.1-2.8,0.5-3.9,1.1c-1.2,0.6-2.2,1.4-3,2.4
			c-0.8,1-1.4,2.2-1.8,3.5c-0.4,1.3-0.6,2.7-0.5,4.1c0.1,1.5,0.5,2.9,1,4.1c0.6,1.2,1.4,2.3,2.3,3.2c1,0.9,2.1,1.6,3.3,2
			c1,0.4,2.1,0.6,3.3,0.6l0,0c0.3,0,0.5,0,0.8,0c1.4-0.1,2.8-0.5,3.9-1.1c1.2-0.6,2.2-1.4,3-2.4c0.8-1,1.4-2.2,1.8-3.5
			c0.4-1.3,0.6-2.7,0.5-4.1c-0.1-1.5-0.5-2.9-1-4.1c-0.6-1.2-1.4-2.3-2.3-3.2c-1-0.9-2.1-1.6-3.3-2C215.4,5,214.3,4.8,213.2,4.8z"/>
		<path d="M254.3,29.1c-0.3,0-0.5,0-0.8,0l-12.8-0.5L242,0l12.3,0.5c1.6,0.1,3.1,0.4,4.3,0.9c1.3,0.5,2.3,1.2,3.1,2.1
			c1.3,1.4,1.8,3.1,1.8,4.9c0,1-0.2,1.9-0.5,2.6c-0.3,0.7-0.7,1.4-1.2,1.9c-0.5,0.5-1,1-1.6,1.4c-0.1,0.1-0.2,0.1-0.3,0.2
			c0.3,0.1,0.6,0.3,0.9,0.5c0.8,0.4,1.4,1,2,1.5c0.6,0.6,1,1.3,1.3,2.1c0.3,0.8,0.5,1.7,0.4,2.8c-0.1,1.3-0.4,2.5-0.9,3.5
			c-0.6,1-1.3,1.8-2.3,2.5c-1,0.6-2.1,1.1-3.4,1.4C256.7,29,255.6,29.1,254.3,29.1z M253.8,24.9c0.2,0,0.4,0,0.5,0c1.7,0,3-0.3,4-1
			c1-0.7,1.6-1.6,1.6-2.9c0.1-1.3-0.4-2.3-1.4-3c-1.1-0.8-2.7-1.2-5-1.3l-7.9-0.3l-0.3,8.2L253.8,24.9z M253.2,12.6
			c0.2,0,0.5,0,0.5,0c1.5,0,2.7-0.3,3.7-0.9c1-0.6,1.5-1.6,1.6-3c0-1.2-0.3-2.1-1.2-2.8c-0.9-0.7-2.2-1.1-4-1.2l-7.6-0.3l-0.3,8
			L253.2,12.6z"/>
		<path d="M297.7,34l-2.1-7.6l-13.7-2.1l-4.3,6.6l-4.6-0.7l17.2-26.5l3.7,0.6l8.5,30.4L297.7,34z M294.5,22l-3.3-12.1l-6.8,10.5
			L294.5,22z"/>
		<polygon points="312.7,37.2 320.3,9.7 324.6,10.9 318.2,34.3 332.9,38.4 331.8,42.5 		"/>
	</g>
	<rect x="0.2" y="145.1" width="463.1" height="1.5"/>
	<g>
		<polygon class="st0" points="258.9,62.1 253.4,66.1 255.5,59.6 250,55.6 256.8,55.6 258.9,49.1 261,55.6 267.9,55.6 262.4,59.6 
			264.5,66.1 		"/>
		<polygon class="st0" points="231.8,62.1 226.3,66.1 228.4,59.6 222.9,55.6 229.7,55.6 231.8,49.1 234,55.6 240.8,55.6 235.3,59.6 
			237.4,66.1 		"/>
		<polygon class="st0" points="204.7,62.1 199.2,66.1 201.3,59.6 195.8,55.6 202.6,55.6 204.7,49.1 206.9,55.6 213.7,55.6 
			208.2,59.6 210.3,66.1 		"/>
		<polygon class="st0" points="177.7,62.1 172.1,66.1 174.2,59.6 168.7,55.6 175.5,55.6 177.7,49.1 179.8,55.6 186.6,55.6 
			181.1,59.6 183.2,66.1 		"/>
		<polygon class="st0" points="286,62.1 280.5,66.1 282.6,59.6 277.1,55.6 283.9,55.6 286,49.1 288.1,55.6 295,55.6 289.5,59.6 
			291.5,66.1 		"/>
	</g>
	<rect x="0.3" y="59.8" width="161.3" height="1.5"/>
	<rect x="301.9" y="59.8" width="161.3" height="1.5"/>
</g>
</svg>
