<?xml version="1.0" encoding="utf-8"?>
<!-- Generated by IcoMoon.io -->
<!DOCTYPE svg PUBLIC "-//W3C//DTD SVG 1.1//EN" "http://www.w3.org/Graphics/SVG/1.1/DTD/svg11.dtd">
<svg version="1.1" xmlns="http://www.w3.org/2000/svg" xmlns:xlink="http://www.w3.org/1999/xlink" width="2382" height="1024" viewBox="0 0 2382 1024">
<g>
</g>
	<path d="M1621.926 36.456c-97.436 0.936-133.234 24.578-133.234 24.578l-30.73 21.538 106.442 21.538 46.556-44.116-21.026 38.418c0 0 96.864 57.148 107.634 56.854 10.768-0.316 40.788 4.518 73.734 23.84 32.926 19.262 44.038 1.33 44.038 1.33l7.402-74.698 22.58 57.366c0 0 16.31 12.924 30.346 9.478 14.096-3.474 62.198 48.2 67.75 50.338 5.552 2.126 49.598-29.754 49.598-29.754s-19.076 30.858-19.026 50.338c-72.296-26.724-152.694-47.206-232.578-49.588-247.718-7.412-410.186 124.298-408.906 137.24 1.31 12.924 45.16 43.2 49.52 56.922 4.38 13.682 30.366 12.096 36.428 2.6 6.034-9.498 17.078-19.362 28.052-15.994 10.984 3.326 19.292-5.974 22.342-8.88 3.052-2.934 4.862-15.11 27.7-4.212 22.806 10.896 58.272 22.58 63.586 23.544 5.364 0.964 13.358-6.064 20.652-26.862 7.294-20.798 56.036-104.886 56.036-104.886s-26.4 58.34-24.066 65.878c2.344 7.55-2.884 10.304 18.278 23.77 21.202 13.496 54.176 30.868 59.284 37.748 5.118 6.92 26.164 30.010 40.788 12.658 14.628-17.362 80.594-134.168 112.21-157.676 0 0-22.55 55.938-32.196 89.786-9.616 33.85-24.874 65.396-11.832 57.956 13.13-7.452 30.326-15.896 34.794-15.472 4.518 0.424 59.038 8.476 63.95 21.32 4.94 12.836 12.48 55.228 16.368 52.856 3.898-2.382 13.742 2.678 14.44-7.776 0.708-10.452 13.604-8.338 21.674-11.684 8.082-3.336 29.4-20.060 64.040-29.538 24.972-6.832 61.844-13.002 85.132-22.51 7.944-0.59 15.386-2.964 17.324-8.072 0.748-1.95 2.078-4.212 3.848-6.732 13.012-14.392 38.092-2.984 50.11 2.372 14.548 6.458 45.318 24.962 61.224 32.562 32.462 64.118 45.958 148.206-50.052 209.704-0.462 1.044-0.984 2.088-1.476 3.12 5.728-1.122 10.61-1.556 14.656-1.556 2.344 0 9.4 0.552 9.4 7.618 0 7.088-17.038 17.698-51.814 31.822-1.476 1.428-2.756 2.776-4.144 4.154 2.964-1.428 5.758-2.826 8.378-4.154 39.284-19.952 83.546-27.61 111.314-97.032 27.758-69.414-16.024-165.962-83.114-269.588-1.516-2.344-2.904-4.4-4.29-6.516 0-0.286 0.068-0.818 0.068-0.818-61.744-110.104-206.9-185.776-414.902-219.036-58.548-9.398-106.158-12.46-144.29-12.096v0zM2148.76 645.678c-1.94 0.926-3.946 1.87-5.994 2.806 2.432-1.714 4.872-3.522 7.254-5.542 13.8-11.782 23.83-25.218 30.65-39.304-1.644 0.306-3.414 0.738-5.168 1.182 1.526-0.964 2.698-1.752 4.29-2.738 0.818-0.522 1.566-1.044 2.364-1.566 6.87-15.306 10-31.34 10-46.782 0-30.778-19.962-115.546-125.834-115.546-36.744 0-53.024 2.668-65.436 2.668-16.2 0-25.366-2.668-38.86-2.668-4.31 0-6.458-0.050-11.85 1.034v5.926c3.76 0 5.926-1.034 11.32-1.034 3.77 0 6.998 0 9.694 0.512 4.31 1.092 10.296 9.194 10.296 19.992v166.926c0 18.376-3.808 24.352-8.14 28.12-3.258 2.156-11.31 2.668-13.466 2.668-3.258 0-8.102-0.58-10.808-1.102v3.7c-11.89-4.162-23.052-6.89-29.39-6.89-51.244 0-175.58 54.786-175.58 126.050 0 2.884 0.206 5.58 0.66 8.15-49.826 11.84-93.99 16.31-121.984 14.814-65.986-2.944-113.696-40.032-113.696-112.516 44.796-4.694 166.7-10.552 182.616-15.836 18.83-6.466 26.498-19.47 15.906-20.662-13.732-1.074-35.010-0.758-59.51-0.068-7.59-6.95-9.636-18.918-9.636-25.908l-0.016-161.542 172.862 197.194c2.156 2.718 4.35 3.258 5.974 3.258 2.698 0 6.448-1.112 6.448-4.872v-186.388c0-26.458 5.442-30.208 13.544-35.612 11.348 0 12.392-0.040 18.87 1.034v-5.394c-4.852-1.074-8.624-1.634-15.090-1.634-5.946 0-14.638 2.738-20.582 2.738-8.102 0-15.65-2.738-25.386-2.738-4.32 0-8.614 0.020-13.998 1.112v4.882c3.248-0.552 6.466-0.59 9.694-0.59 3.788 0 7.028 0.050 10.808 0.59 10.816 9.724 11.84 24.834 11.84 39.964v145.312l-159.298-180.472c-8.642-9.734-20.552-10.808-37.304-10.808-8.652 0-17.254 0.61-24.804 2.226v5.404c4.32-0.562 7.53-1.112 11.84-1.112 9.724 0 12.984 2.678 19.46 9.704l5.394 5.984v157.144c0 1.438-0.434 29.618-9.764 41.38-35.966 1.092-75.152 2.146-107.042 0.374 0-11.762 2.392-37.158 10.058-51.892 2.372-5.296-5.296-12.944-14.136-12.944-14.568 0-27.148 5.196-37.748 15.542l-69.286-174.998h-5.916l-75.132 198.76c-2.166 5.946-8.122 14.628-12.442 21.094-0.542 1.092-8.042 6.496-8.594 7.028-0.542 0.562-5.964 1.044-8.662 1.044-2.698 0-5.424-0.522-8.14-0.522v4.872c2.718 0.552 4.38 0.532 9.254 0.532 5.394 0 13.514-1.112 23.76-1.112 8.112 0 20.504 1.112 29.174 1.112 3.228 0 6.486 0.020 9.184-0.532l0.018-4.864c-3.77 0-7.618 0.522-11.398 0.522-10.256 0-13.466-9.184-13.466-16.732 0-3.778 1.074-10.286 3.77-17.836l23.76-63.734h67.582l28.73 71.498c-2.462 5.118-4.774 10.59-6.88 16.654-17.078-1.772-30.612 10.65-34.716 20.652 5.286 8.268 14.726 14.736 28.278 18.878 2.126 39.924 12.54 70.722 29.892 93.498-52.494 9.674-91.47 5.758-115.91-18.14-29.49-30.050-47.698-51.854-57.148-50.11-10.6 2.372-24.144 7.116-28.858 11.84-43.584 43.624-61.252 69.462-97.79 61.804-21.202-4.144-24.154-48.24-23.544-61.804 1.172-28.868-9.468-34.774-23.612-33.004-7.274 1.092-13.908 2.196-19.912 3.474-1.96-5.65-6.92-10.384-11.172-8.732-41.242 17.078-108.4 8.24-144.348-3.552-8.258-2.964-39.472 2.354-46.556 11.762-5.306 7.078 2.314 11.772 8.22 15.326 6.476 4.114 13.584 7.628 20.652 11.762 4.124 5.296 5.256 13.594 5.256 21.252 0 27.098-68.902 50.622-139.024 50.622-32.374 0-67.74-17.038-67.74-37.078 0-24.154 15.876-42.472 50.632-50.702 12.944-3.552 29.45-4.724 41.222 0 7.668 2.354 14.204 25.386 24.804 25.386 18.268 0 41.222-16.506 41.222-30.65 0-25.336-31.272-34.204-66.026-34.194-47.708 0-160.776 26.548-160.776 90.16 0 41.822 49.442 65.958 107.782 65.958 79.54 0 191.514-14.696 226.28-79.502 28.76-1.576 54.066-7.904 76.166-17.904-3.74 63.28 34.736 101.56 70.988 101.56 40.66 0 99.542-25.376 127.25-50.12 35.346 27.66 75.456 39.52 113.776 39.52 42.364 0 79.394-6.476 101.196-20.582 26.164 24.48 63.074 36.172 107.85 37.078 51.676 1.092 123.874-9.438 164.338-25.898 23.74 26.794 83.312 26.488 106.658 26.488 48.92 0 128.41-14.814 171.434-28.346 17.678-5.876 29.49-10.552 38.87-14.656 14.008-7.018 21.586-13.544 22.796-20.878 6.86 5.168 13.888 10.186 20.72 14.952-30.060 19.44-64.158 49.48-63.586 70.102 0 16.496 24.154 32.344 48.94 32.344 30.030 0 123.096-46.498 123.096-77.14 0-12.924-2.984-24.764-9.478-34.784 35.366-4.704 77.818-7.58 97.268-14.066 20.030-5.916 30.050-11.822 30.050-18.878-3.562-3.542-7.708-5.324-15.386-5.324-61.864 0-98.38 5.916-139.602 18.278-40.63-20.012-71.292-37.158-71.292-61.882-0.012-12.208 11.71-29.64 34.202-51.786v0zM2171.262 304.492c10.314 11.092 30.070 33.998 48.112 63.508-15.816-10.364-39.224-25.080-68.99-41.892 2.876-2.382 5.818-4.754 8.88-7.106 5.126-3.96 8.986-9.088 11.998-14.51zM853.12 435.964c-50.77 0-51.892 41.626-51.892 46.488 0 24.312 11.388 33.998 53.516 69.65 29.726 24.854 44.796 37.836 44.796 63.222 0 23.22-16.172 46.99-48.044 46.99-40.502 0-64.846-39.442-64.846-55.662 0-4.832 1.122-9.656 2.738-13.988l-4.36-0.6c-3.258 8.642-3.266 10.286-3.266 27.030 0 2.688 1.092 13.456 3.77 31.822 49.708 18.908 51.38 19.47 71.35 19.47 28.1 0 67.522-18.308 67.522-61.518 0-29.726-14.558-47.038-62.1-86.46-27-22.682-39.974-32.996-39.974-51.364 0-17.836 15.65-26.42 32.936-26.42 34.018 0 42.708 34.056 42.708 39.452 0 3.778-1.644 7.55-3.258 11.32l4.29 1.634c2.698-5.946 3.77-9.194 3.77-16.21l-0.522-17.846c0-6.486 0.030-6.998 1.112-15.1l-13.544-4.882c-15.116-5.396-25.344-7.028-36.702-7.028zM607.36 438.178c-8.092 0-11.91 0.482-17.324 1.566v4.882c4.32-0.532 7.618-0.512 11.398-0.512 4.32 0 8.112 0 12.432 0.512 9.184 8.112 11.32 12.992 11.32 31.912l0.020 150.104c0 23.75-2.678 27.542-9.694 34.568-0.216 0.030-0.444 0.050-0.67 0.078-24.726-35.68-99.346-49.698-181.062-55.446-51.844-3.552-148.5 4.154-180.324 5.324-20.632-3.532-52.994-1.22-77.73 5.846-18.268 4.104-41.862 6.526-64.256 10.068-22.382 4.114-57.13 10.6-69.502 41.822-2.944 5.896 2.364 12.362 11.172 12.944 19.45-1.182 47.718-12.974 100.152-18.268-15.926 68.92-21.802 128.44-18.278 191.486 4.704 71.872 23.604 108.39 47.748 108.97 21.802-0.59 63.656-14.726 61.282-28.878-1.742-10.030-15.356-11.732-20.060-21.164-5.896-12.372-8.83-24.804-10.59-37.758 42.404 2.364 90.16 8.82 120.214 14.726 66.578 12.954 126.63 28.878 178.472 44.196 111.364 31.822 200.964 52.414 214.518 52.414 14.136 0 37.088-7.58 36.498-14.656 0.59-12.974-19.41-17.708-68.91-35.976-68.33-24.746-214.458-70.092-319.334-93.046 162.606-15.916 248.044-85.456 248.644-155.008 0-8.102-1.88-15.396-5.324-22.058 7.786-0.58 15.944-1.26 18.87-1.26 5.394 0 32.434 2.146 38.94 2.146 5.384 0 5.936-0.010 9.184-1.102v-5.404c-3.778 0.542-7.618 1.102-11.398 1.102s-6.95-0.58-10.728-1.102c-4.32-4.32-10.296-12.402-10.296-24.292l-0.008-170.16c0-13.504 6.998-22.648 20.504-22.648 5.936 0 7.048 0 11.91 0.512v-4.882c-3.778-0.532-9.744-1.566-14.066-1.566-4.31 0-27.020 2.156-32.414 2.156-4.32-0.002-26.438-2.148-31.31-2.148v0zM1043.206 438.178c-8.112 0-12.412 1.024-16.21 1.566v4.882c4.862-0.542 8.692-1.102 13.544-1.102 3.248 0 6.978 0.050 10.216 0.59 9.744 10.816 11.398 17.294 11.398 32.414l0.010 153.362c0 14.588-0.010 24.884-12.432 31.912-0.542 0.552-8.13 1.566-10.296 1.566-3.248 0-6.458-0.522-9.694-0.522v5.394c1.624 0 3.778 0.61 5.394 0.61 5.404 0 27.542-2.236 39.974-2.236 17.274 0 92.366 1.674 116.136 2.236 4.32-7.58 13.476-20.582 16.732-24.372 2.176-2.166 9.754-15.65 11.92-32.936h-4.892c0 7.56-3.248 15.65-10.286 23.76-3.238 3.77-12.934 8.624-22.658 12.954-12.422 5.384-27.58 11.378-55.14 11.388-19.982 0-38.87-3.266-38.87-19.46l0.010-172.832c0-12.412 5.354-24.362 21.026-24.362 3.258 0 7.058 0.522 10.296 0.522v-4.812c-3.778-0.542-5.384-0.522-9.184-0.522-14.036 0-30.778 2.668-36.714 2.668-8.092-0.010-23.262-2.668-30.28-2.668zM2058.154 448.386c84.796 0 103.706 74 103.706 115.034 0 20.848-3.956 37.108-10.364 49.816-1.704 0.758-3.356 1.506-5.108 2.372-23.948 11.96-45.012 26.596-61.508 41.212-11.172 1.664-20.75 1.714-26.212 1.714-49.688 0-49.668-8.13-49.668-21.094l-0.010-176.092c0.010-11.88 0.010-12.962 49.164-12.962zM1388.904 478.152l31.39 77.72h-59.962l28.572-77.72zM2144.458 624.732c-10.59 14.126-24.706 22.372-38.644 27.158 7.728-6.222 20.13-15.012 38.644-27.158zM349.16 644.044c14.706-0.118 30.002 0.216 45.75 1.26 97.81 6.458 147.842 25.316 149.012 68.32 3.532 91.332-250.426 107.26-335.842 111.402-4.124-48.94-8.19-122.534 24.804-172.036 33.132-3.986 72.21-8.63 116.276-8.946zM1999.806 666.102c10.256 0 55.632 1.624 72.926 1.624 0.236 0 0.482 0.010 0.738 0-16.408 16.772-26.054 32.492-26.054 42.728 0 20.178 15.708 38.338 35.306 54.618-0.798 0.188-1.614 0.492-2.284 0.818-56.558 22.982-113.668 30.592-164.928 31.162-56.548 0.61-77.748-3.522-85.416-17.688 10.62-3.522 30.65-14.086 45.978-18.22 79.54-21.772 120.144-43.644 120.144-65.436 0-8.948-19.952-20.286-40.19-28.19 2.068 0.158 4.3 0.216 6.586 0.216 5.924 0.002 26.398-1.622 37.194-1.632v0zM1882.498 692.816c30.65 0 45.978 5.246 45.978 15.846 0 12.362-31.812 27.118-109.562 40.64-1.792-4.704-0.040-11.122 2.894-15.836 15.294-27.686 40.66-40.65 60.69-40.65zM2136.388 804.73c14.154 10.6 24.144 19.43 24.144 28.278 0 10.6-7.628 19.39-23.544 19.39-13.564 0-23.032-7.618-22.442-22.342 0-10.020 9.47-18.248 21.842-25.326z" />
</svg>
