<?xml version="1.0" encoding="utf-8"?>
<!-- Generator: Adobe Illustrator 18.0.0, SVG Export Plug-In . SVG Version: 6.00 Build 0)  -->
<!DOCTYPE svg PUBLIC "-//W3C//DTD SVG 1.1//EN" "http://www.w3.org/Graphics/SVG/1.1/DTD/svg11.dtd">
<svg version="1.1" id="Layer_4" xmlns="http://www.w3.org/2000/svg" xmlns:xlink="http://www.w3.org/1999/xlink" x="0px" y="0px"
	 viewBox="0 0 62.8 55.6" enable-background="new 0 0 62.8 55.6" xml:space="preserve">
<g>
	<path fill="#231F20" d="M8.3,0H56v35.7H8.3V0L8.3,0z M12.3,4v27.8H52V4H12.3z"/>
	<path fill="#231F20" d="M0,55.6c10.5,0,20.9,0,31.4,0c10.5,0,20.9,0,31.4,0c-1.8-3.4-3.4-6.4-4.8-9.2c-1.3-2.5-2.5-4.7-3.5-6.7
		c-7.7,0-15.4,0-23.1,0c-7.7,0-15.4,0-23.1,0c-1.1,2-2.2,4.3-3.5,6.7C3.4,49.2,1.8,52.2,0,55.6z"/>
</g>
</svg>
