<?xml version="1.0" encoding="utf-8"?>
<!-- Generated by IcoMoon.io -->
<!DOCTYPE svg PUBLIC "-//W3C//DTD SVG 1.1//EN" "http://www.w3.org/Graphics/SVG/1.1/DTD/svg11.dtd">
<svg version="1.1" xmlns="http://www.w3.org/2000/svg" xmlns:xlink="http://www.w3.org/1999/xlink" width="1650" height="1024" viewBox="0 0 1650 1024">
<g>
</g>
	<path d="M92.11 928.29c6.89 0 12.834 3.1 17.906 9.304 5.042 6.218 7.564 13.964 7.564 23.268 0 9.578-2.538 17.508-7.624 23.818-5.072 6.326-11.244 9.472-18.47 9.472-7.304 0-13.444-3.070-18.41-9.228-4.966-6.172-7.456-14.162-7.456-23.924 0-10.006 2.856-18.15 8.586-24.49 4.994-5.488 10.968-8.22 17.904-8.22zM91.362 931.664c-4.752 0-8.57 2.094-11.428 6.28-3.574 5.194-5.378 12.818-5.378 22.856 0 10.282 1.864 18.182 5.562 23.74 2.84 4.2 6.6 6.31 11.276 6.31 4.996 0 9.090-2.292 12.346-6.922 3.238-4.598 4.874-11.886 4.874-21.832 0-10.77-1.788-18.822-5.362-24.108-2.862-4.198-6.818-6.324-11.89-6.324v0zM169.126 933.162v24.75h9.67c2.2 0 3.834-0.596 4.858-1.742s1.712-3.468 2.064-6.89h1.452v21.328h-1.452c-0.016-2.446-0.306-4.232-0.81-5.378-0.504-1.162-1.208-2.032-2.11-2.598-0.902-0.58-2.246-0.856-4.002-0.856l-9.67 0.002v19.784c0 3.192 0.184 5.302 0.504 6.31 0.26 0.764 0.81 1.452 1.65 2.002 1.13 0.748 2.354 1.1 3.59 1.1h1.91v1.712h-22.764v-1.712h1.88c2.186 0 3.788-0.764 4.782-2.262 0.626-1.008 0.948-3.376 0.948-7.166v-40.668c0-3.208-0.184-5.286-0.52-6.326-0.26-0.748-0.794-1.436-1.604-1.972-1.116-0.748-2.324-1.116-3.604-1.116h-1.88v-1.728h39.494l0.504 13.84-1.364 0.006c-0.672-2.932-1.482-5.088-2.368-6.478-0.902-1.376-2.002-2.368-3.314-2.978-1.33-0.626-3.36-0.948-6.126-0.948l-11.718-0.016zM318.192 928.29v21.802h-1.452c-0.458-4.186-1.3-7.502-2.522-9.992-1.222-2.476-2.948-4.43-5.194-5.898-2.232-1.468-4.568-2.2-6.968-2.2-2.718 0-4.966 0.978-6.722 2.964-1.772 1.972-2.672 4.2-2.672 6.692 0 1.942 0.566 3.682 1.682 5.27 1.62 2.324 5.47 5.408 11.55 9.288 4.95 3.146 8.34 5.562 10.144 7.272 1.834 1.682 3.208 3.666 4.186 5.958 0.978 2.292 1.468 4.69 1.468 7.212 0 4.766-1.558 8.876-4.674 12.346-3.116 3.452-7.12 5.164-12.024 5.164-1.544 0-2.994-0.138-4.338-0.382-0.81-0.184-2.492-0.748-5.026-1.712-2.552-0.978-4.156-1.468-4.828-1.468-0.658 0-1.176 0.23-1.574 0.688-0.352 0.474-0.642 1.422-0.826 2.872h-1.452v-21.618h1.452c0.672 4.552 1.59 7.944 2.734 10.174 1.162 2.232 2.902 4.11 5.27 5.592 2.368 1.514 4.95 2.232 7.762 2.232 3.254 0 5.852-1.024 7.732-3.054 1.896-2.048 2.84-4.476 2.84-7.242 0-1.558-0.352-3.132-1.086-4.706-0.718-1.574-1.834-3.040-3.346-4.414-1.008-0.932-3.788-2.886-8.326-5.912-4.538-3.024-7.778-5.438-9.686-7.228-1.91-1.788-3.376-3.774-4.37-5.958-0.994-2.17-1.482-4.552-1.482-7.15 0-4.522 1.452-8.432 4.384-11.704 2.918-3.254 6.632-4.888 11.138-4.888 2.826 0 5.806 0.826 8.952 2.46 1.468 0.764 2.492 1.162 3.086 1.162 0.672 0 1.238-0.26 1.666-0.748 0.444-0.458 0.78-1.436 1.040-2.872l1.482-0.002zM394.748 971.632h-20.548l-3.604 9.93c-0.886 2.446-1.33 4.262-1.33 5.47 0 0.962 0.382 1.818 1.162 2.538s2.43 1.176 4.98 1.422v1.712h-16.714v-1.712c2.216-0.474 3.65-1.070 4.292-1.804 1.33-1.514 2.826-4.522 4.414-9.060l18.668-51.852h1.376l18.47 52.388c1.498 4.216 2.84 6.952 4.064 8.204 1.208 1.254 2.902 1.942 5.072 2.124v1.712h-20.946v-1.712c2.124-0.122 3.544-0.55 4.292-1.254 0.748-0.718 1.116-1.59 1.116-2.598 0-1.376-0.534-3.514-1.558-6.478l-3.206-9.030zM393.646 968.194l-8.998-25.468-9.228 25.468h18.226zM446.936 929.71h14.392l32.466 47.254v-36.33c0-3.88-0.352-6.28-1.1-7.242-0.948-1.3-2.492-1.956-4.568-1.956h-1.85l0.002-1.726h18.47v1.728h-1.88c-2.232 0-3.834 0.794-4.766 2.414-0.566 0.994-0.872 3.238-0.872 6.768v53.106h-1.39l-35-50.724v38.776c0 3.85 0.352 6.28 1.070 7.242 0.978 1.3 2.522 1.956 4.568 1.956h1.88v1.712h-18.47l-0.002-1.714h1.85c2.262 0 3.864-0.794 4.812-2.414 0.58-0.994 0.872-3.238 0.872-6.754v-43.802c-1.544-2.154-2.704-3.544-3.498-4.232-0.794-0.672-1.956-1.314-3.498-1.896-0.764-0.306-1.91-0.412-3.452-0.412l-0.006-1.754h-0.030zM539.306 992.716v-1.712h2.002c2.232 0 3.818-0.856 4.766-2.568 0.58-1.008 0.872-3.314 0.872-6.86v-40.7c0-3.942-0.366-6.386-1.1-7.38-1.008-1.376-2.538-2.032-4.538-2.032h-2.002v-1.728h21.602c7.928 0 13.948 1.070 18.106 3.208 4.124 2.124 7.442 5.698 9.96 10.68s3.774 10.74 3.774 17.28c0 8.754-2.246 16.088-6.738 21.97-5.026 6.57-12.696 9.854-23.010 9.854l-23.694 0.004zM554.446 988.164c3.314 0.872 6.096 1.3 8.326 1.3 6.066 0 11.092-2.522 15.064-7.564 4.002-5.042 5.99-11.902 5.99-20.548 0-8.678-1.986-15.568-5.99-20.594-3.988-4.996-9.12-7.518-15.384-7.518-2.354 0-5.012 0.444-8.020 1.36l0.014 53.564zM664.538 971.632h-20.534l-3.604 9.93c-0.886 2.446-1.33 4.262-1.33 5.47 0 0.962 0.382 1.818 1.162 2.538s2.43 1.176 4.996 1.422v1.712h-16.714v-1.712c2.2-0.474 3.65-1.070 4.308-1.804 1.33-1.514 2.81-4.522 4.414-9.060l18.668-51.852h1.36l18.486 52.388c1.482 4.216 2.826 6.952 4.048 8.204 1.222 1.254 2.902 1.942 5.072 2.124v1.712h-20.93v-1.712c2.094-0.122 3.528-0.55 4.278-1.254 0.748-0.718 1.13-1.59 1.13-2.598 0-1.376-0.534-3.514-1.574-6.478l-3.236-9.030zM663.438 968.194l-8.998-25.468-9.228 25.468h18.226zM763.736 975.314l1.284 0.306-4.522 17.112h-41.082v-1.712h1.986c2.232 0 3.834-0.872 4.798-2.598 0.55-0.994 0.81-3.284 0.81-6.876v-40.654c0-3.942-0.352-6.386-1.086-7.38-1.024-1.376-2.538-2.032-4.538-2.032h-1.986v-1.728h24.016v1.728c-2.826-0.046-4.798 0.276-5.944 0.932-1.13 0.658-1.91 1.482-2.308 2.46-0.412 0.978-0.626 3.346-0.626 7.104v39.584c0 2.568 0.214 4.338 0.626 5.286 0.306 0.672 0.794 1.13 1.436 1.452 0.658 0.32 2.704 0.49 6.112 0.49h3.864c4.094 0 6.936-0.366 8.586-1.086 1.65-0.718 3.146-1.986 4.492-3.788 1.364-1.878 2.722-4.704 4.082-8.6v0zM835.556 928.29v21.802h-1.468c-0.458-4.186-1.3-7.502-2.506-9.992-1.238-2.476-2.964-4.43-5.21-5.898-2.232-1.468-4.568-2.2-6.968-2.2-2.718 0-4.95 0.978-6.738 2.964-1.772 1.972-2.658 4.2-2.658 6.692 0 1.942 0.566 3.682 1.682 5.27 1.62 2.324 5.454 5.408 11.536 9.288 4.95 3.146 8.34 5.562 10.16 7.272 1.818 1.682 3.208 3.666 4.186 5.958 0.978 2.292 1.468 4.69 1.468 7.212 0 4.766-1.558 8.876-4.674 12.346-3.116 3.452-7.136 5.164-12.040 5.164-1.528 0-2.994-0.138-4.354-0.382-0.81-0.184-2.492-0.748-5.026-1.712-2.552-0.978-4.156-1.468-4.828-1.468-0.642 0-1.176 0.23-1.558 0.688-0.366 0.474-0.642 1.422-0.826 2.872h-1.468v-21.618h1.468c0.658 4.552 1.59 7.944 2.734 10.174 1.162 2.232 2.902 4.11 5.27 5.592 2.368 1.514 4.934 2.232 7.762 2.232 3.268 0 5.852-1.024 7.732-3.054 1.91-2.048 2.84-4.476 2.84-7.242 0-1.558-0.352-3.132-1.086-4.706s-1.834-3.040-3.346-4.414c-1.008-0.932-3.804-2.886-8.326-5.912-4.538-3.024-7.762-5.438-9.686-7.228-1.91-1.804-3.376-3.774-4.37-5.958-0.994-2.17-1.498-4.552-1.498-7.15 0-4.522 1.452-8.432 4.384-11.704 2.918-3.254 6.646-4.888 11.154-4.888 2.826 0 5.79 0.826 8.952 2.46 1.468 0.764 2.476 1.162 3.086 1.162 0.688 0 1.254-0.26 1.666-0.748 0.458-0.458 0.78-1.436 1.054-2.872l1.5-0.002zM968.428 952.168h16.424v1.712c-2.262 0.214-3.956 0.81-5.012 1.788-1.086 0.962-2.78 3.942-5.072 8.83-2.278 4.934-4.874 9.532-7.762 13.81 2.324 3.222 4.4 5.454 6.218 6.754 1.834 1.268 3.666 1.926 5.516 1.926 1.804 0 3.346-0.58 4.584-1.728 1.254-1.162 2.154-2.872 2.672-5.134l1.452 1.254c-0.962 4.338-2.522 7.594-4.674 9.656-2.124 2.078-4.628 3.1-7.472 3.1-2.14 0-4.292-0.672-6.508-2.064-2.2-1.39-4.598-3.696-7.228-6.982-3.238 3.39-6.142 5.76-8.738 7.090-2.598 1.314-5.378 1.956-8.31 1.956-4.308 0-7.7-1.36-10.252-4.078-2.522-2.75-3.804-5.99-3.804-9.762s1.146-7.502 3.422-11.214c2.278-3.728 6.54-7.61 12.804-11.612-1.222-3.208-2.064-5.866-2.492-7.912-0.428-2.078-0.672-4.048-0.672-5.928 0-5.302 1.636-9.334 4.934-12.132 2.552-2.17 5.438-3.254 8.722-3.254 3.086 0 5.622 1.086 7.578 3.268 1.956 2.2 2.932 4.874 2.932 8.066 0 3.268-0.948 6.142-2.856 8.632-1.88 2.46-5.224 5.18-10.022 8.096 3.314 7.014 6.754 13.428 10.374 19.25 4.598-6.494 6.89-11.978 6.89-16.424 0-1.436-0.398-2.704-1.176-3.818-0.566-0.84-1.39-1.33-2.46-1.498l0.002-1.648h-0.014zM959.536 982.404c-3.436-5.562-5.852-9.64-7.166-12.208-1.33-2.582-2.81-5.776-4.384-9.578-3.116 2.14-5.484 4.492-7.060 7.060-1.59 2.582-2.368 5.378-2.368 8.356 0 3.33 0.902 6.248 2.688 8.754 1.804 2.492 4.232 3.742 7.304 3.742 1.636 0 3.222-0.382 4.752-1.162 1.514-0.748 3.59-2.43 6.234-4.964zM953.456 953.344c3.254-1.818 5.668-3.88 7.272-6.204s2.4-4.904 2.4-7.762c0-2.232-0.596-4.078-1.728-5.516-1.176-1.482-2.628-2.2-4.338-2.2-2.278 0-4.002 0.948-5.148 2.826-1.162 1.88-1.742 3.696-1.742 5.516 0 1.498 0.214 3.192 0.672 5.072s1.312 4.632 2.612 8.268v0zM1111.046 960.572c3.666 0.932 6.418 2.4 8.25 4.46 2.522 2.84 3.788 6.326 3.788 10.45 0 3.116-0.84 6.126-2.492 9.014-1.666 2.84-3.956 4.934-6.876 6.248-2.886 1.314-7.334 1.972-13.336 1.972h-25.040v-1.712h1.986c2.232 0 3.804-0.84 4.782-2.506 0.612-1.086 0.902-3.39 0.902-6.922v-40.684c0-3.896-0.366-6.356-1.13-7.38-1.008-1.376-2.522-2.032-4.552-2.032h-1.986v-1.728h22.948c4.262 0 7.686 0.366 10.282 1.116 3.896 1.1 6.89 3.070 8.968 5.912 2.048 2.856 3.086 6.080 3.086 9.792 0 3.162-0.826 5.99-2.414 8.494-1.636 2.434-4.018 4.298-7.166 5.506v0zM1090.528 958.050c0.948 0.244 2.064 0.366 3.3 0.504 1.238 0.122 2.614 0.168 4.094 0.168 3.818 0 6.676-0.474 8.586-1.498 1.926-0.962 3.376-2.43 4.4-4.476 1.024-2.002 1.544-4.2 1.544-6.6 0-3.696-1.284-6.83-3.804-9.426-2.522-2.614-6.204-3.91-11.092-3.91-2.598 0-4.934 0.352-7.028 1.040v24.198zM1090.528 988.164c3.008 0.856 6.020 1.268 8.952 1.268 4.72 0 8.34-1.268 10.802-3.788 2.492-2.522 3.712-5.638 3.712-9.364 0-2.43-0.566-4.798-1.682-7.060s-2.932-4.032-5.47-5.332c-2.538-1.314-5.668-1.972-9.396-1.972-1.604 0-2.994 0.030-4.14 0.092-1.13 0.062-2.078 0.184-2.764 0.32l0.002 25.836h-0.016zM1176.268 933.162v24.886h11.658c3.040 0 5.056-0.55 6.050-1.62 1.36-1.406 2.124-3.942 2.292-7.518h1.452v21.94h-1.452c-0.382-3.054-0.748-5.026-1.1-5.898-0.474-1.086-1.254-1.926-2.308-2.568-1.086-0.596-2.718-0.932-4.934-0.932h-11.658v20.762c0 2.794 0.106 4.492 0.32 5.072 0.198 0.626 0.55 1.086 1.070 1.468 0.52 0.336 1.514 0.534 2.978 0.534h8.998c2.994 0 5.194-0.276 6.54-0.748 1.344-0.504 2.672-1.482 3.91-2.918 1.604-1.926 3.268-4.828 4.966-8.692h1.558l-4.568 15.812h-40.882v-1.728h1.896c1.238 0 2.414-0.352 3.528-1.054 0.856-0.504 1.422-1.254 1.728-2.232 0.29-0.994 0.444-3.024 0.444-6.096v-40.914c0-4.002-0.352-6.462-1.024-7.38-0.948-1.254-2.506-1.85-4.69-1.85h-1.88v-1.728h40.882l0.596 13.796h-1.544c-0.534-3.33-1.146-5.592-1.804-6.83s-1.65-2.186-2.964-2.84c-1.024-0.444-2.886-0.688-5.5-0.688l-14.558-0.036zM1277.208 971.632h-20.564l-3.59 9.93c-0.886 2.446-1.314 4.262-1.314 5.47 0 0.962 0.366 1.818 1.13 2.538 0.78 0.718 2.43 1.176 4.996 1.422v1.712h-16.73v-1.712c2.232-0.474 3.65-1.070 4.324-1.804 1.314-1.514 2.826-4.522 4.414-9.060l18.668-51.852h1.36l18.486 52.388c1.498 4.216 2.826 6.952 4.048 8.204 1.208 1.254 2.902 1.942 5.056 2.124v1.712h-20.93v-1.712c2.124-0.122 3.544-0.55 4.292-1.254 0.748-0.718 1.1-1.59 1.1-2.598 0-1.376-0.52-3.514-1.574-6.478l-3.172-9.030zM1276.092 968.194l-8.998-25.468-9.228 25.468h18.226zM1378.712 928.29l1.208 21.42h-1.208c-1.604-6.418-3.926-11.030-6.936-13.84s-6.6-4.216-10.802-4.216c-3.514 0-6.692 1.070-9.548 3.192-2.856 2.11-5.072 5.484-6.708 10.144-1.62 4.644-2.43 10.434-2.43 17.34 0 5.684 0.764 10.618 2.292 14.804 1.528 4.17 3.864 7.396 6.936 9.624 3.086 2.232 6.616 3.346 10.602 3.346 3.436 0 6.462-0.872 9.12-2.628 2.642-1.758 5.516-5.224 8.678-10.434l1.208 0.948c-2.658 5.592-5.76 9.716-9.304 12.314-3.544 2.614-7.762 3.896-12.636 3.896-8.784 0-15.598-3.864-20.426-11.626-3.59-5.76-5.394-12.528-5.394-20.32 0-6.31 1.176-12.070 3.544-17.34s5.638-9.35 9.792-12.238c4.17-2.872 8.708-4.338 13.658-4.338 3.834 0 7.624 1.1 11.352 3.346 1.086 0.672 1.88 1.008 2.338 1.008 0.704 0 1.314-0.29 1.834-0.886 0.672-0.84 1.162-2.002 1.468-3.482h1.36l0.002-0.034zM1432.46 958.92h24.658v-18.014c0-3.238-0.198-5.348-0.52-6.372-0.26-0.764-0.81-1.436-1.636-1.986-1.116-0.748-2.308-1.1-3.544-1.1h-1.88v-1.728h22.688v1.728l-1.892 0.002c-1.254 0-2.43 0.32-3.56 1.054-0.826 0.49-1.39 1.238-1.696 2.262-0.306 0.994-0.428 3.054-0.428 6.158v40.638c0 3.192 0.168 5.286 0.49 6.31 0.26 0.764 0.81 1.452 1.59 1.986 1.162 0.748 2.354 1.116 3.604 1.116h1.88v1.712h-22.688v-1.712h1.88c2.154 0 3.742-0.764 4.736-2.262 0.658-1.008 0.978-3.39 0.978-7.182v-19.188h-24.658v19.188c0 3.176 0.184 5.302 0.52 6.31 0.26 0.764 0.81 1.452 1.636 2.002 1.116 0.748 2.308 1.1 3.544 1.1h1.91v1.712h-22.734l-0.002-1.68h1.88c2.216 0 3.788-0.764 4.766-2.278 0.642-0.994 0.948-3.36 0.948-7.15v-40.654c0-3.222-0.152-5.348-0.504-6.356-0.26-0.78-0.794-1.436-1.59-1.986-1.146-0.764-2.338-1.116-3.604-1.116h-1.88l-0.002-1.724h22.734v1.712h-1.91c-1.254 0-2.43 0.352-3.544 1.054-0.826 0.49-1.376 1.254-1.682 2.262-0.32 0.994-0.474 3.054-0.474 6.158l0.002 18.024h-0.016zM1522.644 933.162v24.886h11.672c3.040 0 5.042-0.55 6.050-1.62 1.376-1.406 2.14-3.942 2.278-7.518h1.468v21.94h-1.468c-0.366-3.054-0.734-5.026-1.086-5.898-0.458-1.086-1.238-1.926-2.308-2.568-1.054-0.596-2.704-0.932-4.92-0.932h-11.672v20.762c0 2.794 0.106 4.492 0.32 5.072 0.214 0.626 0.566 1.086 1.086 1.468 0.52 0.336 1.514 0.534 2.964 0.534h9.014c2.994 0 5.194-0.276 6.54-0.748 1.36-0.504 2.672-1.482 3.926-2.918 1.604-1.926 3.284-4.828 4.966-8.692h1.574l-4.584 15.812h-40.898v-1.728l1.88 0.006c1.268 0 2.43-0.352 3.56-1.054 0.856-0.504 1.406-1.254 1.712-2.232 0.29-0.994 0.428-3.024 0.428-6.096v-40.914c0-4.002-0.336-6.462-1.024-7.38-0.948-1.254-2.476-1.85-4.69-1.85h-1.88v-1.728h40.898l0.596 13.796h-1.544c-0.534-3.33-1.162-5.592-1.804-6.83-0.688-1.238-1.65-2.186-2.964-2.84-1.040-0.444-2.872-0.688-5.5-0.688l-14.59-0.042zM1623.646 928.29v21.802h-1.452c-0.444-4.186-1.314-7.502-2.506-9.992-1.222-2.476-2.932-4.43-5.194-5.898s-4.584-2.2-6.968-2.2c-2.718 0-4.95 0.978-6.722 2.964-1.788 1.972-2.672 4.2-2.672 6.692 0 1.942 0.566 3.682 1.682 5.27 1.62 2.324 5.454 5.408 11.55 9.288 4.95 3.146 8.34 5.562 10.144 7.272 1.818 1.682 3.238 3.666 4.186 5.958 0.978 2.292 1.482 4.69 1.482 7.212 0 4.766-1.558 8.876-4.674 12.346-3.132 3.452-7.15 5.164-12.024 5.164-1.558 0-3.008-0.138-4.354-0.382-0.794-0.184-2.476-0.748-5.026-1.712-2.552-0.978-4.156-1.468-4.842-1.468-0.642 0-1.146 0.23-1.528 0.688-0.382 0.474-0.658 1.422-0.856 2.872h-1.452v-21.618h1.452c0.688 4.552 1.59 7.944 2.75 10.174 1.146 2.232 2.902 4.11 5.27 5.592 2.354 1.514 4.95 2.232 7.778 2.232 3.254 0 5.836-1.024 7.716-3.054 1.91-2.048 2.84-4.476 2.84-7.242 0-1.558-0.352-3.132-1.086-4.706-0.688-1.574-1.804-3.040-3.33-4.414-1.040-0.932-3.804-2.886-8.326-5.912-4.552-3.024-7.778-5.438-9.702-7.228-1.91-1.804-3.36-3.774-4.37-5.958-0.962-2.17-1.482-4.552-1.482-7.15 0-4.522 1.468-8.432 4.4-11.704 2.902-3.254 6.616-4.888 11.138-4.888 2.81 0 5.79 0.826 8.968 2.46 1.468 0.764 2.476 1.162 3.070 1.162 0.672 0 1.238-0.26 1.65-0.748 0.428-0.458 0.78-1.436 1.040-2.872l1.45-0.002zM135.392 601.802h-62.61v245.010h20.778v-106.35h34.696c52.862 0 70.722-31.58 70.722-69.33-0.016-41.522-18.838-69.33-63.586-69.33zM128.914 721.902h-35.354v-101.568h35.352c31.794 0 49.286 14.054 49.286 50.768 0.002 37.768-21.738 50.8-49.284 50.8zM249.228 693.088h-0.642v-28.494h-19.448v182.218h19.448v-113.926c0-35.336 20.106-51.792 41.51-51.792 2.918 0 6.172 0.336 9.41 1.024v-20.594c-2.262-0.704-4.552-1.024-6.814-1.024-20.106-0.014-35.996 12.312-43.464 32.588zM320.588 664.594h19.464v182.218h-19.464zM320.588 601.802h19.464v35.016h-19.464zM410.438 846.812h22.060l45.406-182.218h-20.748l-35.046 158.874h-0.626l-38.272-158.874h-20.778zM597.27 816.592v-107.724c0-28.83-12.988-48.386-48.66-48.386-36.316 0-53.198 20.93-53.198 58.316h19.464c0-26.416 10.038-41.174 33.092-41.174 17.508 0 29.836 8.234 29.836 31.564 0 21.298-2.918 24.718-16.546 28.846l-36.666 10.97c-24.322 7.228-34.696 26.43-34.696 50.446 0 31.58 13.612 51.47 43.786 51.47 19.128 0 36.652-6.86 44.428-30.876h0.658v6.172c0 18.868 9.732 22.658 24.964 22.658 2.598 0 5.516-0.688 9.074-2.078v-15.078h-5.514c-6.768-0.016-10.022-4.812-10.022-15.126v0zM577.82 782.31c0 32.618-16.21 51.47-39.89 51.47-16.882 0-27.24-14.392-27.24-35.688 0-21.634 10.038-32.266 29.532-37.752l16.21-4.46c7.792-2.078 18.806-5.836 20.748-12.008h0.642l-0.002 38.438zM665.072 614.164h-19.448v50.432h-23.696v17.172h23.696v135.192c0 24.382 10.038 31.946 36.316 31.946 6.494 0 11.366-0.688 13.642-2.078v-17.158c-4.216 1.39-8.112 2.064-12.008 2.064-12.65 0-18.486-4.798-18.486-19.218v-130.746h30.494v-17.172h-30.494v-50.434h-0.016zM767.234 850.922c32.45 0 52.54-25.742 55.472-64.518h-19.464c-3.238 31.916-15.904 47.362-36.33 47.362-19.128 0-36.652-16.134-36.652-68.612v-8.586h94.066v-7.548c0-60.744-17.188-88.52-55.472-88.52-37.95 0-59.354 31.9-59.354 95.044 0 68.612 21.404 95.378 57.734 95.378v0zM766.93 677.64c23.97 0 35.994 16.47 36.636 61.752h-73.302c0.64-45.282 12.648-61.752 36.666-61.752v0zM922.594 851.014h26.844l100.666-389.996h-21.694l-91.882 363.764h-1.052l-91.882-363.764h-21.696zM1078.992 565.366h19.604v285.648h-19.604zM1078.992 461.018h19.604v55.718h-19.604zM1155.382 461.018h19.618v389.996h-19.618zM1222.544 461.018h19.6v389.996h-19.6zM1437.318 816.592v-182.416c0-40.96-14.436-75.382-73.806-75.382-63.006 0-76.436 49.164-76.436 87.938h19.632c0-39.31 13.412-69.362 58.85-69.362 29.44 0 52.142 10.924 52.142 62.792 0 24.062-3.086 35.52-26.324 42.074l-58.33 16.928c-38.21 10.924-54.726 35.474-54.726 78.62 0 44.246 20.656 79.75 67.634 79.75 36.146 0 62.99-22.932 70.752-52.448h0.994v18.044c0 22.398 14.988 31.152 23.254 31.152 8.754 0 16.5-1.636 20.656-4.904v-16.408c-3.62 2.186-7.762 2.734-12.406 2.734-6.722 0.002-11.886-5.422-11.886-19.112v0zM1417.702 743.398c0 57.368-22.184 95.608-68.138 95.608-34.070 0-49.578-24.016-49.578-61.186 0-33.856 11.366-53.534 42.854-62.806l39.768-11.458c20.12-6.020 27.348-7.656 34.070-19.128h1.024v58.97zM1582.916 703.004l-41.296-16.362c-26.858-10.94-40.286-26.248-40.286-56.268 0-37.69 23.756-52.984 52.128-52.984 44.414 0 50.614 34.404 50.614 60.088v8.172h19.6v-8.722c0-34.97-10.328-78.114-70.232-78.114-42.854 0-73.806 26.232-73.806 73.762 0 36.574 17.036 57.322 50.584 71.53l39.768 16.944c29.944 12.544 40.272 31.12 40.272 58.422 0 31.67-16.53 59.538-56.282 59.538-44.9 0-60.41-29.5-60.41-69.912v-9.274h-19.6v7.64c0 33.322 5.164 90.094 80.010 90.094 42.854 0 77.978-30.586 77.978-78.62 0.014-38.81-16.514-62.828-49.042-75.934zM330.978 337.024c-24.246 0.030-44.108 19.892-45.832 45.084l-0.122 1.682h91.896l-0.122-1.682c-1.712-25.194-21.588-45.054-45.82-45.084v0zM288.292 380.642c1.13-10.756 5.822-20.334 12.774-27.516l26.002 27.516h-38.776zM329.892 379.77l-26.934-28.494c7.258-6.646 16.638-10.71 26.934-10.984v39.478zM332.476 340.308c10.19 0.352 19.494 4.476 26.69 11.108l-26.69 28.234v-39.342zM335.194 380.642l25.85-27.348c6.86 7.136 11.504 16.668 12.62 27.348h-38.47zM723.388 446.412c14.636-2.216 27.668 4.094 35.994 4.736 8.020 0.626-27.042-21.588-32.222-23.438 9.090-0.412 28.142 3.956 39.494 10.252 10.022 3.65 27.638 12.238 33.78 15.782l-0.612-2.384c-2.506-3.086-6.554-7.624-12.070-12.222 3.192 1.666 6.738 3.452 10.236 5.21l-0.596-2.324h9.578c-5.806-5.286-13.322-11.398-21.94-16.638-15.292-9.364-20.182-13.596-32.694-15.782 3.346-0.612 42.212 5.438 54.802 12.116 13.2 4.674 35.55 16.928 37.4 19.218 1.208-0.366-12.65-20.41-35.108-29.914-4.568-2.124-9.12-3.956-13.596-5.622 12.682 1.36 26.66 4.14 33.642 8.508 6.662 2.872 16.134 7.958 23.086 14.146 7.090 6.050 10.924 13.064 11.198 12.864 0.398 0.704-2.672-12.636-13.336-24.46 2.704 1.498 5.348 3.070 7.686 4.782 7.548 5.316 12.406 11.428 12.482 11.352 1.024 0.244-9.792-24.46-34.056-35.214-1.13-0.596-2.278-1.1-3.406-1.62 3.238 0.658 6.586 1.528 9.916 2.598 12.728 3.39 25.010 12.62 31.412 18.196 6.554 5.484 16.164 14.116 21.802 23.422 5.608 8.524 6.326 17.464 6.448 18.516 0.122-0.886 2.292-7.944-0.734-18.136-2.84-11.062-11.336-24.122-22.886-33.902-6.356-5.79-13.23-10.206-20.12-13.582 13.764 2.552 28.112 6.632 35.322 12.008 7.61 3.896 18.074 11.168 25.406 19.28 7.564 8.004 13.352 27.318 13.612 27.226-0.32 0.046 2.094-8.386-0.428-21.772-1.146-6.6-4.446-14.040-9.442-20.976 6.294 3.36 12.514 7.41 17.31 12.33 9.732 8.892 10.984 20.67 11.214 22.428 0.076-1.604 1.926-11.092-4.966-22.796-7.396-12.942-52.464-44.52-120.694-44-15.446-1.070-30.31 0.214-44.26 2.84-3.804-1.544-8.418-2.872-13.536-2.978-5.668-0.198-11.076 0.106-15.874 0.688 6.172-1.1 11.26-6.968 27.088-6.784 7.196-0.534 22.81 2.552 22.81 2.552s-8.402-5.5-21.252-9.578c-8.982-2.856-25.896-1.972-25.896-1.972s7.334-6.662 30.998-4.078c16.608 2.384 33.414 11.536 33.414 11.536l-29.622-19.402c0 0 13.75-1.482 19.158-0.566 8.83 0.336 22.55 8.036 22.658 8.432 0.138 0.030-5.744-8.432-12.070-11.412 10.71 1.146 22.994 5.24 23.024 5.866 0.504 0-14.528-12.574-34.268-14.33-4.338-0.49-8.57-0.704-12.62-0.84 6.968-5.776 41.952 0.612 41.998 2.048 0.642 0.030-3.498-4.904-10.694-8.678 10.084-0.596 24.504 1.406 24.628 2.552 0.55 0.016-4.246-4.584-12.1-7.99 10.298-0.138 25.010 1.238 27.668 2.324-5.928-3.59-68.75-36.146-114.66-0.29-14.376 9.61-29.164 28.218-40.96 45.97 3.346-19.158 3.758-43.558-3.834-73.394-16.47-64.64-75.198-66.152-74.786-65.788 0.626-0.612 15.706 6.508 21.404 12.956 2.032 1.544 6.754 6.112 9.288 9.12-12.666-9.242-31.366-6.952-31.12-6.83 0.382-0.32 20.196 8.478 26.858 14.178 8.158 7.288 13.49 17.646 13.49 17.646s-4.766-3.666-13.504-10.618c-12.208-10.068-24.672-5.102-24.46-4.858 0.412-0.336 16.79 7.318 23.3 13.412 4.66 3.376 16.836 20.074 16.836 20.074s-9.916-8.616-13.14-9.792c-8.922-3.146-20.014 2.17-20.014 2.17s15.064 4.752 20.228 9.716c9.59 8.15 9.742 14.888 9.742 14.888s-2.476-2.14-3.804-3.192c-9.35-7.7-22.030-3.33-21.756-3.314 4.95 1.3 26.324 20.534 26.324 20.534l-19.86-2.216c0 0 11.23 8.57 16.394 17.158 2.658 4.43 4.72 12.498 4.72 12.498s-19.51-15.37-19.418-15.384c0.062 0.016 22.046 34.070 10.466 44.214-2.002-1.36-19.464-42.794-52.112-62.76-47.758-34.344-103.874 4.476-108.96 8.586 2.43-1.344 16.256-3.834 26.034-4.446-7.060 4.14-11.122 9.304-10.602 9.258 0-1.222 13.474-4.354 23.132-4.414-6.418 4.446-9.808 9.916-9.182 9.824-0.152-1.482 32.42-10.71 39.69-5.148-3.88 0.366-7.854 0.962-11.918 1.772-18.562 3.284-31.456 17.57-30.968 17.524-0.030-0.672 11.198-5.852 21.236-7.838-5.668 3.604-10.328 12.91-10.19 12.85 0.062-0.398 12.238-9.442 20.61-10.466 5.026-1.376 18.274-0.826 18.274-0.826l-25.972 22.55c0 0 14.942-10.848 30.448-14.56 22.214-4.414 29.944 2.048 29.944 2.048s-16.21 0.306-24.428 3.942c-11.734 5.18-19.112 11.596-19.112 11.596s14.482-4.384 21.39-4.338c15.018-1.314 20.518 4.43 26.508 5.18-4.614-0.276-9.792-0.214-15.156 0.428-12.162 1.208-20.838 10.19-20.838 10.19s27.654-6.294 32.664-1.528c-8.036 2.4-13.994 5.822-15.078 10.084 0.32-0.55 34.848-9.9 46.552 5.194 0.168 0.214-6.662-3.436-17.296-2.354-7.318 0.764-14.268 7.318-14.224 7.272 0.030-0.030 15.11-2.43 20.41 1.13 9.762 6.676 8.616 12.682 10.832 17.004-1.742 0.138-46.46-24.918-100.68-22.382l-95.472-88.442v-86.030l28.952 21.74 13.048-19.708-1.268-0.932-140.168-105.47c0.704-1.956 1.176-4.032 1.192-6.218-0.030-8.448-5.576-15.46-13.336-18.426l-6.646-67.756-3.054 0.046-5.18 67.282c-8.508 2.598-14.82 9.87-14.834 18.852 0 1.986 0.428 3.88 1.024 5.684l-146.392 106.946 13.032 19.692 25.91-18.898v85.326l-185.060 169.080 21.772 26.476 13.094-11.964 26.462 0.016v53.808h2.948v-53.84l26.338 0.030v52.938l2.992 0.002-0.016-52.938 19.6 0.030 0.398-0.948c11.75-27.088 55.078-41.342 88.564-41.25 33.26-0.076 74.418 13.856 86.35 40.654l0.428 0.948 8.432 0.030v54.328h2.934v-54.314l26.354 0.076v53.396h2.966v-53.396l7.12 0.030 0.412-0.962c9.35-21.48 36.284-34.526 63.724-38.99-4.14 4.996-6.86 9.304-7.9 12.36-4.262 12.054-1.146 20.35-0.826 21.802-0.062-1.62-0.81-12.636 6.386-22.612 2.978-4.644 6.998-8.876 11.244-12.712 0.474-0.062 0.948-0.076 1.422-0.122-2.826 6.722-4.37 13.474-4.37 19.204-0.092 12.712 3.314 19.968 3.040 19.968 0.244 0.062 2.338-18.73 7.762-27.486 2.476-4.17 5.608-8.31 8.846-12.054 5.224 0.184 10.526 0.658 15.858 1.514-3.728 7.578-6.036 15.324-6.524 21.924-1.086 9.9 1.956 15.92 2.216 16.714-0.076-0.962-0.826-9.304 2.764-18.15 2.446-6.586 6.554-13.14 10.496-18.73 3.956 0.932 7.884 2.018 11.704 3.3-0.688 2.4-0.872 3.818-0.658 3.712 0.046 0.016 0.748-1.3 1.986-3.268 2.17 0.748 4.262 1.558 6.356 2.43-1.024 4.568-1.116 7.456-0.994 7.104 0.168 0.092 1.1-2.582 3.040-6.248 12.682 5.652 23.498 13.596 30.234 23.726-38.546 24.78-40.96 64.854-40.96 64.854s6.158-7.396 16.058-19.616c0.412 6.204 4.628 21.908 4.706 21.68-0.398-0.336 1.162-16.638 3.59-22.566 1.146-4.584 9.228-18.090 8.478-16.76-7.288 11.612 4.736 35.062 5.012 34.572-0.49-0.55 9.976-38.608 9.976-38.608s1.008 33.566 1.070 33.2c-0.398-0.566 13.626-42.106 15.034-43.74-0.49 2.14-0.168 6.814 0.352 11.55v37.262h2.964v-26.508c2.43-5.866 9.074-20.564 12.406-27.882l1.62-0.016-2.094 27.18c0 0 3.008-11.046 14.392-24.306l0.016 50.69h2.966v-53.594l19.402-0.030c-1.13 8.754 2.232 16.654 2.368 16.484-0.122-0.184 2.43-5.348 6.968-11.81l6.508 6.066c-1.314 2.978-2.186 5.042-2.186 4.996-0.030-0.076 1.116-1.604 3.1-4.14l1.086 1.008 21.618-26.308c9.288-9.106 19.25-17.096 26.522-18.288 0.626 1.054-8.126 11.322-10.862 14.82-5.668 6.968-20.534 38.99-20.64 39.204-0.030 0.244 21.022-22.322 21.022-22.322s1.59 20.334-20.548 44.796c0 0 10.084-2.614 25.010-22.108-9.028 24.138-20.258 44.628-20.212 44.612 0-0.076 16.668-10.236 17.234-11.076-0.214 0.596-15.324 34.588-15.324 34.588s4.338 5.592 18.684-15.614c-0.29 3.36-4.37 13.704-8.004 22.444h23.238c1.024-2.43 2.048-5.026 3.054-7.9 24.414-68.016 1.13-107.296 3.3-113.742 17.678 13.658 24.842 49.424 19.738 75.044 0 0 8.494-19.586 8.478-30.906 8.83 30.616 3.742 56.084 3.176 56.298 0.856 1.086 9.242-11.412 11.398-24.826 5.714 6.722 1.452 46.322 1.268 46.444 0.458 0.444 12.284-27.44 11.75-23.284 5.056 16.836-3.254 39.936-3.712 40.118 0.688 0.626 14.804-11.826 16.24-23.59-0.504 10.342-2.598 41.204-2.598 41.204s22.948-24.29 9.808-80.576c-10.756-46.154-48.92-67.176-48.446-68.52 11.704 2.718 26.874 4.186 47.834 36.024-0.902-1.972-8.172-46.536-9.518-48.844 1.208-2.384 24.108 66.81 22.382 59.264 4.706-13.964 3.758-52.31 0.81-56.482-0.138-0.198-0.29-0.428-0.428-0.642 1.422 0.81 7.686 12.85 8.294 16.164 3.238 10.542 5.424 58.576 5.224 58.79 2.522-8.096 5.99-56.496 3.56-61.906 0.534 1.268 3.85 9.106 4.46 12.468 2.278 7.182 5.668 20.472 6.586 35.52 1.36 14.804 1.926 27.348 1.666 27.608 0.428 0.352 6.248-27.668 7.732-37.492 0.826 13.474 1.574 42.716 1.514 42.808 0.244 0.214 9.686-14.040 9.364-23.94 0.092-1.88 0.444-10.48 0.336-13.14 3.238 4.798 4.828 15.598 4.95 20.472 0.626 15.568-2.46 27.914-2.46 27.99 0.046 0.030 8.28-8.768 9.838-18.364l-23.544-91.164c-29.054-13.026-59.914-17.67-80.234-19.564v0zM765.692 383.238c-2.734 0.78-5.424 1.558-8.066 2.4-0.184-0.046-0.32-0.076-0.49-0.122 1.33-1.346 4.584-2.018 8.556-2.278zM661.162 434.94c0.168 0.52 0.32 1.070 0.504 1.574-0.626-0.412-1.268-0.856-1.88-1.268 0.352-0.14 0.856-0.23 1.376-0.306zM594.596 446.014l-5.224-4.842c9.838-5.164 20.64-9.656 25.514-10.48-6.432 4.034-13.446 9.244-20.29 15.322v0zM603.32 458.466l3.086 2.872c-2.948 0.918-6.080 1.88-9.578 3.024 1.954-2.062 4.2-4.122 6.492-5.896v0zM579.868 420.104c0.428-0.214 0.962-0.444 1.59-0.718 3.162-0.214 6.386-0.336 9.456-0.428-4.934 2.048-10.434 5.012-16.088 8.722l-4.262-3.956c4.064-1.864 7.41-3.192 9.304-3.62v0zM567.4 425.19l4.69 4.338c-5.776 3.988-11.626 8.708-17.25 14.086-1.33 1.254-2.598 2.538-3.818 3.834l-8.892-8.294c7.444-4.81 17.296-10.128 25.27-13.964zM534.876 432.372l-1.742-1.604c2.978-1.192 6.020-2.324 9.014-3.314-2.414 1.528-4.844 3.19-7.272 4.918zM541.766 401.434c-10.13 0.764-20.534 2.506-31.028 5.592-0.81 0.168-1.574 0.382-2.384 0.566l-169.416-158.202v-35.888l202.828 187.932zM531.666 433.748h-5.394c1.176-0.55 2.4-1.1 3.636-1.636l1.758 1.636zM338.938 256.478v-2.706l12.742 11.902h-43.954l15.17-13.856v4.66h16.042zM206.128 286.424v-17.478h47.162l-19.096 17.478h-28.066zM230.602 289.708l-24.474 22.352v-22.352h24.474zM206.128 265.676v-17.448h69.85l-19.096 17.448h-50.754zM206.128 244.93v-17.432h92.522l-19.082 17.432h-73.44zM210.314 224.228l23.954-17.448h87.068l-19.096 17.448h-91.926zM238.746 203.494l23.908-17.432h133.926l23.238 17.432h-80.896v-6.784h-16.042v6.784h-84.134zM338.22 147.838v-5.592l26.4 19.83h-69.010l28.218-20.578v6.326h14.392zM326.898 144.57v-35.492h8.234l0.016 35.49-8.25 0.002zM368.974 165.348l23.238 17.432h-125.018l23.908-17.432h77.872zM422.354 286.424l-18.836-17.478h44.168v17.478h-25.332zM447.67 289.708v20.166l-21.772-20.166h21.772zM399.956 265.676l-18.822-17.448h66.534v17.448h-47.712zM377.59 244.93l-18.822-17.432h88.902v17.432h-70.080zM355.21 224.228l-16.286-15.064v-2.368h85.296l23.254 17.448-92.264-0.016zM335.836 200.028v53.166h-9.824v-53.166h9.824zM355.194 268.946l18.684 17.478h-88.84l19.096-17.478h51.060zM377.406 289.708l18.668 17.448h-133.728l19.096-17.448h95.964zM399.606 310.41l18.654 17.448h-64.748c-7.044-2.902-14.682-4.552-22.704-4.552-7.99 0-15.644 1.636-22.672 4.552h-68.46l19.082-17.448h140.848zM391.218 372.59h74.938l18.668 17.448h-91.5c0.016-0.184 0.016-0.352 0.016-0.55 0.016-5.884-0.746-11.506-2.122-16.898v0zM390.378 369.29c-1.896-6.28-4.644-12.146-8.126-17.432h61.722l18.668 17.432h-72.264zM390.102 389.472c0 1.176-0.030 2.338-0.106 3.514h-118.374c-0.046-1.176-0.092-2.338-0.092-3.514 0.062-34.65 26.538-62.684 59.264-62.73 32.772 0.060 59.248 28.080 59.308 62.73v0zM379.928 348.558c-5.316-7.136-11.964-13.094-19.57-17.448h61.432l18.654 17.448h-60.516zM301.278 331.126c-7.64 4.338-14.254 10.312-19.586 17.448h-64.732l19.096-17.448h65.222zM279.384 351.842c-3.482 5.302-6.248 11.154-8.112 17.432h-76.984l19.096-17.432h66zM270.402 372.59c-1.344 5.408-2.124 11.030-2.124 16.882 0 0.198 0.016 0.366 0.016 0.55h-96.71l19.096-17.448h79.722zM268.416 393.322c0.030 0.504 0.016 1.008 0.062 1.544l0.106 1.59h124.436l0.106-1.59c0.030-0.52 0.030-1.024 0.062-1.544h95.166l16.256 15.17c-2.872 0.688-5.714 1.468-8.448 2.262h-347.264l19.082-17.448h100.436zM499.308 430.080c2.81-1.62 5.622-3.040 8.356-4.278-0.918 0.704-1.834 1.406-2.734 2.17-2.46 1.788-4.69 3.742-6.722 5.79h-4.766c1.894-1.344 3.85-2.628 5.866-3.682zM488.43 229.528l-9.472 14.3-140.724-105.6 0.002-21.754 150.194 113.054zM331.206 47.738l4.812 49.028c-1.636-0.352-3.284-0.612-5.012-0.612-1.208 0-2.368 0.152-3.528 0.32l3.728-48.736zM331.008 99.422c10.342 0.016 18.442 7.61 18.454 16.684 0 1.498-0.306 2.886-0.688 4.262l-10.542-7.928 0.004-6.63h-14.392v6.234l-10.756 7.854c-0.32-1.222-0.534-2.492-0.55-3.788 0.016-9.078 8.112-16.672 18.47-16.688zM177.91 243.844l-9.472-14.3 155.406-113.528v21.496l-145.934 106.332zM40.072 505.796l-17.678-21.542 300.514-274.572v37.782l-282.836 258.332zM422.248 454.28c-28.952 3.85-58.33 16.882-69.468 40.454l-43.924-0.138c-13.672-28.218-55.138-41.51-88.718-41.586-33.826 0.076-77.35 13.612-90.964 42.182l-72.738-0.076 63.648-58.116h321.904c-8.128 5.944-14.73 11.872-19.74 17.28v0zM123.69 433.748l21.588-19.692h340.74c-15.37 5.484-28.6 12.406-39.402 19.692h-322.926zM484.428 428.186c-2.14 1.696-4.232 3.59-6.31 5.562h-5.576c3.836-1.972 7.868-3.852 11.886-5.562zM468.738 444.458c-2.568 3.314-4.798 6.846-6.784 10.434-4.874-0.81-9.778-1.36-14.606-1.62 2.688-2.84 5.362-5.348 7.746-7.288 2.614-2.994 6.722-6.036 11.55-8.936h8.234c-2.108 2.292-4.184 4.72-6.14 7.41zM482.016 459.842c-3.498-1.162-7.028-2.2-10.648-3.070 1.054-1.406 2.11-2.826 3.040-4.018 3.208-4.2 8.464-10.404 14.788-15.72h5.974c-6.954 8.080-11.064 16.896-13.154 22.808zM489.5 462.636c-1.728-0.734-3.498-1.436-5.27-2.064 1.436-2.032 3.208-4.354 5.362-6.676 1.818-2.018 3.91-3.988 6.050-5.882-3.054 5.212-4.95 10.346-6.142 14.622v0zM561.488 494.552h-0.382c0.276-0.58 0.458-0.994 0.458-0.994l-0.076 0.994zM523.646 488.792c-7.12-10.816-18.32-19.096-31.334-24.948 0.948-1.544 2.002-3.192 3.238-4.798 5.194-6.982 12.758-13.458 18.196-17.386 1.604-1.558 3.818-3.132 6.372-4.628h8.448c-16.668 13.048-24.52 32.312-23.878 32.236-0.658-1.040 19.096-17.936 30.020-24.78 1.3-1.070 2.886-2.262 4.69-3.514l9.426 8.8c-12.3 13.49-19.738 27.286-19.906 27.21 0.046 0.076 15.262-11.536 25.682-20.288-7.288 9.274-10.816 17.708-10.602 17.6-0.23-0.444 7.884-7.228 16.408-13.704l13.018 12.162c-20.934 2.548-37.158 8.476-49.778 16.038v0zM575.194 470.016l-12.192-11.398c3.65-2.718 7.242-5.256 10.098-7.090 3.054-2.672 7.912-5.776 13.29-8.754l5.79 5.394c-7.82 7.228-13.534 15.752-16.986 21.848v0zM593.756 459.398c-1.162 2.43-1.972 4.752-2.568 6.814-3.314 1.1-6.768 2.354-10.404 3.696 4.156-3.328 9-7.226 12.972-10.51v0zM596.522 494.492l-17.126 0.030c2.658-2.598 5.638-5.21 8.982-7.808l8.172 7.61c0.002 0.076-0.014 0.122-0.028 0.168zM597.546 490.886l-6.54-6.112c6.676-4.858 14.574-9.594 24.138-13.734-5.652 5.41-12.358 2.582-17.598 19.846v0zM613.114 505.414l-5.958-5.546c3.956-5.302 9.090-11.092 15.078-15.614 0.016-0.014-5.378 12.498-9.12 21.16v0zM618.538 456.114c-1.254 0.794-2.414 1.666-3.498 2.568-1.91 0.534-3.62 1.054-5.088 1.558l-3.91-3.62c1.864-1.146 3.696-2.124 5.438-2.492 3.926-2.552 11.536-4.078 19.020-4.874-3.928 1.878-7.96 4.124-11.962 6.86v0zM643.5 438.284c-7.044-0.26-16.256 0.046-26.232 2.994 7.166-4.69 13.994-8.554 16.898-9.364 0.642-0.366 1.65-0.886 2.872-1.498 4.048 1.498 8.218 3.162 12.346 5.056-2.386 0.184-4.706 1.82-5.884 2.812v0zM660.704 452.31c0-0.016 0-0.016-0.016-0.030-2.522-0.046-5.18 0-7.912 0.184 1.13-0.276 2.094-0.398 2.764-0.412 1.3-0.352 3.818-1.040 6.906-1.59l1.024 1.972c-0.934-0.094-1.852-0.124-2.766-0.124v0zM668.998 416.758c0.474 0.55 0.918 1.024 1.284 1.436 0.062 0.198 0.092 0.366 0.152 0.566-0.442-0.656-0.93-1.33-1.436-2.002v0zM684.092 416.606c0.672-4.156 1.254-8.432 1.712-12.3 0.092 0.122 0.152 0.214 0.152 0.214 0.016-0.244 0-0.688-0.016-1.284 0.534-4.966 0.856-9.15 0.81-11.108-0.016-0.32-0.016-0.734-0.030-1.162 0.84 1.528 1.59 2.886 2.17 4.048-1.038 6.712-2.536 14.334-4.798 21.592zM693.002 470.43c-0.474-1.1-0.932-2.2-1.406-3.284 0.994 0.352 2.018 0.718 3.008 1.086 0.658 0.718 1.376 1.544 2.11 2.46 0.504 1.558 1.008 3.146 1.498 4.798-1.682-1.716-3.41-3.412-5.21-5.060zM700.99 454.526c-0.030-0.138-0.106-0.244-0.168-0.366l4.354 0.49c0.566 0.978 1.176 2.032 1.804 3.222-1.804-1.148-3.82-2.262-5.99-3.346z" />
</svg>
