<svg id="Layer_1" data-name="Layer 1" xmlns="http://www.w3.org/2000/svg" viewBox="0 0 103.6 68.01"><title>together-nest</title><path d="M102.3,60.06l1.31,1.17a79.11,79.11,0,0,1-1.83-7.86c-0.53-2.57-1-5.07-1.56-7.53a8.07,8.07,0,0,0-.45-1.73,2.39,2.39,0,0,1-.17-0.71,6.51,6.51,0,0,0-.23-1,29.47,29.47,0,0,1-11.61-8.64q-0.5-.61-0.95-1.23a29.59,29.59,0,0,1-3.51-6.25,24.29,24.29,0,0,1-.84-2.42c-0.12-.41-0.22-0.8-0.3-1.16S82,21.86,82,21.52c0-.15,0-0.29,0-0.42-0.26-3.95,4-4.63,4-4.63l-0.1,0a4.66,4.66,0,0,0-3.21,5.21c0.05,0.33.12,0.65,0.2,1,0,0.11,0,.22.07,0.32,0.11,0.44.24,0.88,0.38,1.31s0.3,0.85.46,1.27a24.41,24.41,0,0,0,3.21,5.56q0.59,0.78,1.23,1.52A48.2,48.2,0,0,0,99.7,42.1l0.54,0.24a2.19,2.19,0,0,0,.86.25c0.23,0,.15-0.05,0-0.18s-0.14-.23-0.23-0.34a10.14,10.14,0,0,1-2-4.63c-0.07-.91-0.1-1.83-0.16-2.75a31.19,31.19,0,0,0-1.65-7.6,30.77,30.77,0,0,0-5.49-9.79,23.3,23.3,0,0,0-3.16-3.19,16.31,16.31,0,0,1-3-3.78A15.46,15.46,0,0,0,83,7.54a8.67,8.67,0,0,0-1.52-1.18C81,6.1,80.43,6,80,5.72c-1.49-.88-4.16-0.62-5.78-0.27a9,9,0,0,0-1.49.46,7.15,7.15,0,0,0-2.84,2,6.18,6.18,0,0,0-1.1,1.95,4.67,4.67,0,0,0-.17.67,2.39,2.39,0,0,0,.06,1.57c0.25,0.3.34-.06,0.54-0.19a0.74,0.74,0,0,1,.8.1,10.47,10.47,0,0,0,1.25.89,3,3,0,0,1,.49.3c0.29,0.23.57,0.49,0.85,0.73a3.06,3.06,0,0,1,1.06,1.55,4,4,0,0,1,.06,1c0,0.35,0,.69,0,1,0,0.16,0,.32,0,0.48s0,0.17,0,.25,0,0.24,0,.36q0,1,.12,1.92c0,0.18,0,.36.05,0.55S74,21.65,74,21.92l0,0.19c0,0.26.08,0.52,0.15,0.79,0.16,0.7.37,1.38,0.59,2.06a38.54,38.54,0,0,0,1.46,3.77l0.14,0.32q0.36,0.82.81,1.67l0,0.06c0.14,0.26.3,0.51,0.45,0.77q0.7,1.21,1.51,2.34c0.36,0.5.73,1,1.12,1.46,0.65,0.79,1.32,1.56,2,2.29l0,0c0.26,0.26.52,0.5,0.79,0.75L84,39.19q0.61,0.54,1.24,1.05c0.83,0.68,1.68,1.31,2.54,1.89a43.12,43.12,0,0,0,5.61,3.21,2.26,2.26,0,0,1,1.31.81,0.09,0.09,0,0,0,.06.06,31,31,0,0,0,3.06,9.07c0.64,1.21,2.59,4.71,2.69,4.5a1.86,1.86,0,0,0-.1-1s1.34,2.1,2.12,3.1Z"/><path d="M36.73,12.48c0.14-.59.75-0.88,1.94-2.29A2.7,2.7,0,0,1,40.37,9c0.59-.08,1.81-0.16,2.22.38a0.76,0.76,0,0,0,.13.15c0.23,0.18.17-2.45-.21-3.59-0.07-.2-0.13-0.41-0.19-0.62a7.7,7.7,0,0,0-1.44-2.64A7.06,7.06,0,0,0,37.61.47,7.6,7.6,0,0,0,35.44,0a9.68,9.68,0,0,0-2.67.21,12.2,12.2,0,0,0-3,1.09A11,11,0,0,0,26.83,3.5a28.15,28.15,0,0,0-1.88,2.2c-0.62.8-1.22,1.67-1.81,2.58a32.83,32.83,0,0,0-9.48,10.59,43.62,43.62,0,0,0-3.82,8.93c-0.77,2.57-1.22,5.3-2.63,7.62a15.66,15.66,0,0,1-1.38,1.75l-0.88,1a2.63,2.63,0,0,0-.76,1,4.58,4.58,0,0,0,1.69-.37l0.4-.1a59.79,59.79,0,0,0,13.29-8.07A37,37,0,0,0,25,25.18a24.24,24.24,0,0,0,4.43-8.26,5.58,5.58,0,0,0-3.07-6.65l-0.12-.05s5,1.42,4.09,6.08a24.79,24.79,0,0,1-3.59,7.93A35.74,35.74,0,0,1,24,28a35.79,35.79,0,0,1-3,3.13c-0.58.53-1.19,1-1.82,1.56A35.35,35.35,0,0,1,7.08,39a0.87,0.87,0,0,1,0,.48C4.91,49.73,2.58,54.85.67,63.34,0.38,64.64.25,66,.08,67.29,0.08,67.32,0,68,0,68s1.59,0,4.54-5.67L3.84,66S10.06,56.43,12,46.4c1.74-.68,3.36-1.4,4.88-2.15,0.61-.3,1.2-0.61,1.77-0.92a47.4,47.4,0,0,0,5.6-3.54c0.42-.31.83-0.63,1.22-0.95s0.93-.76,1.37-1.14c0.28-.24.56-0.48,0.82-0.72a36.34,36.34,0,0,0,2.55-2.61c0.56-.63,1.06-1.25,1.54-1.88a31.46,31.46,0,0,0,3.15-5l0.19-.36c0.21-.43.38-0.85,0.56-1.27q0.39-.91.68-1.76c0.06-.16.13-0.33,0.18-0.49l0.07-.24c0.19-.61.35-1.2,0.48-1.75,0.06-.26.12-0.52,0.17-0.76s0.1-.53.15-0.78a14.25,14.25,0,0,0,.13-3.23C36.92,14,36.59,13.06,36.73,12.48Z"/><path d="M67,29.66a20.93,20.93,0,0,0-1.16-2.11A11,11,0,0,0,63,24.65c-0.27-.51-0.54-1-0.82-1.42a12.17,12.17,0,0,0-.86-1.16A3.88,3.88,0,0,0,60,21a5.21,5.21,0,0,0-1.46-.42,5.69,5.69,0,0,0-1.35,0,4.52,4.52,0,0,0-1.15.26,3.49,3.49,0,0,0-1.76,1.07,4.43,4.43,0,0,0-.84,1.4c0,0.11-.09.23-0.14,0.33a4.93,4.93,0,0,0-.46,2l0.09-.06a1.38,1.38,0,0,1,1.16.1,1.29,1.29,0,0,1,.65.81,4.23,4.23,0,0,1,.58,1.32,6.07,6.07,0,0,1-.42,3.35,7.16,7.16,0,0,0-.26,1.93,12.43,12.43,0,0,0,.48,2.41A21,21,0,0,0,57.25,39a25.58,25.58,0,0,0,2.93-.78,11.8,11.8,0,0,1-2.4-8.18,13,13,0,0,0,3,8,38.41,38.41,0,0,0,7.61-3.82A9,9,0,0,0,68,32C67.67,31.19,67.34,30.41,67,29.66Z"/><path d="M49.8,26.1a4,4,0,0,0-1.06-1A3.18,3.18,0,0,0,47,24.55a3.73,3.73,0,0,0-1,.08,5.66,5.66,0,0,0-1.18.4,7.36,7.36,0,0,0-1.27.75A5.18,5.18,0,0,0,42.31,27a12.89,12.89,0,0,0-.7,1.11A13.9,13.9,0,0,0,41,29.35a9.46,9.46,0,0,0-2.24,2.73,11.85,11.85,0,0,0-1.06,6.07l1.18,0.32a29.4,29.4,0,0,0,5,.93,27.2,27.2,0,0,0,2.69-7,26,26,0,0,1-2.31,7l0.42,0q1.12,0.09,2.23.14a5.67,5.67,0,0,1,.29-0.54,5.23,5.23,0,0,0,.47-1.48c0.07-.29.1-0.58,0.16-0.87a18.38,18.38,0,0,0,.39-2.28,23.48,23.48,0,0,0,0-3.51,1.42,1.42,0,0,1,.07-1,2.88,2.88,0,0,1,.27-0.24,2.25,2.25,0,0,0,.4-0.79,1.17,1.17,0,0,1,.59-0.78A1.61,1.61,0,0,1,50.68,28l0.1,0A3.8,3.8,0,0,0,50,26.37Z"/><path d="M83.57,41.62l-0.12.16-0.28.63L82.8,43l-0.4.61-0.51.58-0.54.56-0.5.59-0.58.56-0.54.6-0.62.56-0.67.51,0.11-.71,0.2-.72L79,44.75l0.1-.73,0.77-.37,0.68-.39,0.62-.43,0.71-.36L82.5,42,83,41.49l0.23-.21-0.76-.66-0.21.13-0.65.44-0.64.5-0.8.32-0.79.48,0.12-1.37-0.1-.65V40.23a12.77,12.77,0,0,1-1.23,2l-0.13.7-0.24,1.45-0.16.74-0.18.75-0.16.77-0.19.79-0.32.78L76.37,49l-0.76.49-0.86.41-0.83.47-0.9.37L72.09,51l-0.92.36-0.89.44-1.07.27-0.27.17-1.31.32L67,52.74l-1.21.41-0.62.05-1.46.22-0.38.21-0.86.07-0.78.18-0.28,0-2.24.21L58,54.22l1.15-1.74,0.78-.65,0.76-.67h0L61,51.06l1.34-.29,1.3-.41,1.25-.42L66,49.33l1.3-.39,1-.65,1.14-.48,0.91-.67,1-.55,0.08,0-0.06.06-0.64.6L69.48,48.4l-0.81.51-0.73.58-0.66.68-0.78.6-0.9.47-0.69.58,0.81-.13,0.87-.27,0.89-.21L68.32,51h0l0.7-.62,0.73-.6,0.77-.54,0.7-.59L71.85,48l0.63-.62,1.2-1.3,0.54-.69,1.16-1.29L76,43.44l0.94-1.31,0.61-1.05,0.36-.55,0.59-.81,0.41-.77,0.31-.66,0.31-.6c-0.37-.42-0.71-0.84-1.06-1.27L78.31,37l-0.21.63-0.34.61-0.38.62-0.47.6-0.28.66L76,40.69l-1,.37-1,.38-1.07.33-1.09.36-1.16.21-1.12.35L68.32,43l-1.21.14-1.2.24-1.21.18-1.21.19L61.73,44l1.66-.62,1.07-.55,1.12-.45,1-.57,1-.48,1-.54,1-.49,0.92-.52,0.88-.54,1-.46L73,38.17l0.75-.49,0.77-.47,0.68-.49,0.61-.53,0.74-.43,0.54-.51,0-.52,0-.09c-0.14-.2-0.28-0.4-0.41-0.6l-0.2.14L76,34.69l-0.58.51-0.73.44L74,36.13l-0.62.52-0.69.51-0.79.46-0.74.51-0.9.49-0.85.54-0.9.53-1,.48-1,.47-1,.49-1,.49-1.09.49-0.93-.29-2-.37-1-.24,1.19-.35,1.15-.35L63,40.22l1.09-.38L66.12,39l1.81-1,0.86-.48,0.88-.45,0.79-.5,0.76-.5,1.37-1,0.55-.54L73.58,34l0.53-.58L74.85,33l0.72-.48,0.17-.07c-0.13-.23-0.28-0.45-0.4-0.69-0.24-.45-0.46-0.93-0.68-1.4l-0.06.17-0.36.5L74,31.5l-0.18.55-0.4.53L73,33.11l-0.48.53L72,34.15l-0.57.53-0.64.51L70,35.71l-0.85.43-0.74.52-0.85.47-0.92.43L65.77,38l-1,.42-1,.44-1,.42-1.1.35L60.54,40l-1.16.25-1.13.37L57,40.75,55.81,41l-1.21.17-1.22.24H52.14l-1.24.12H49.71l-1.25.13-1.17-.1-1.24,0L45,41.45l-1.17-.08-1-.22L41.68,41l-1-.23-1-.26-0.89-.29-0.92-.28-0.81-.34-0.78-.36-0.68-.4L35,38.42,34.44,38l-0.55-.43-0.58-.42-0.46-.46-0.19-.54-0.3-.49-0.21-.33Q31.6,36,31,36.6L31.23,37l0.8,1,0.47,0.47L33,38.86l0.63,0.42L35.19,40l0.63,0.45,0.82,0.34,1.9,0.55,0.89,0.32,1,0.22,1,0.21,2.25,0.27L45,42.43l1.11,0.16,1.24,0h1.24l1.18,0.08,2.5-.17,1.26-.14,1.79-.24,1.14,0,1.15-.09L58.7,42l1.12,0.08,2.09,0.7-1.36.54-2.42.92-0.31.11-0.91.25-1,.37-0.51,0-1.71.57L53,45.89l-1.57.32-0.79.23-1.7.45-0.39,0-1.42.37-1.3.15-1.32.23L43.17,48l-1.35.22-1.32.11-1.35.17-1.31.06-1-.38-0.9-.41-0.73-.5-0.69-.51-0.71-.48-0.68-.5-1.24-1-0.63-.49-0.5-.55-0.32-.59-0.67-.73,1.36,0.39L32,43.12l1,0.29,1.05,0.26,1,0.26,1.17,0.17,2.31,0.37,1.11,0.24L42,45l1.14,0.13,1.12,0.15,1.18,0.07h1.23l1.2,0.06L49,45.52l1.11-.26,1.13-.3,1.11-.24L53,44.5l-0.78-.05L51,44.56l-1.21,0-1.12-.15-1.17-.05-1.26,0-2.3-.21L42.8,44l-1.1-.15-1.14-.14-2.21-.36-0.93-.31-1.1-.16-1-.24-0.92-.29-1-.24-0.92-.28-1-.24-0.94-.26L29.77,41l-0.84-.36-0.69-.4L27.49,40,27.38,40c-0.37.31-.75,0.62-1.15,0.93L26.34,41l0.88,0.31,0.21,0.59,0.34,0.52,0.32,0.53,0.4,0.52L28.77,44l1.16,1.13-1.62.08-1.39.2-1.29,0H24.34l-1.32,0-1.23-.07-1.13-.17L20,45c-0.56.31-1.14,0.62-1.73,0.92l0.22,0.17,0.69,0.45L19.77,47l0.65,0.48,1,0.28,0.71,0.49,1.1,0.22,0.92,0.36,1,0.29,0.38,0.56,0,0.78-0.06.84h0l0.15,0.75,0.08,0.8,0.05,0.86,0.25,0.75,0.33,0.73L26.79,56l0.6,0.56,0.36,0.79,0.58,0.6,0.79,0.45,0.7,0.54,0.67,0.6,0.9,0.34,0.78,0.53,1,0.2L34.12,61l1.08,0.13,1,0.28,1.06,0.19,1.17,0,1.06,0.24,1.13-.07-0.81-.51-1.3-1.29-1-.17-1.08,0-1-.24-0.92-.29-0.84-.39-0.84-.35L32,58.13l-1.43-1L30,56.53,29.36,56l-0.54-.58-0.41-.66-0.28-.73-0.26-.71-0.33-.66L27.35,52l-0.05-.77-0.16-.71,0.07-.79V49.46l0.32,0.06,1.14,0.19H30l1.19,0.17,1.38-.08,1.31,0,1.27,0.05,1.39-.12,1.35-.08,1.36-.12,1.39-.16L42,49.3l1.37-.22,1.4-.32,1.34-.13,1.35-.32,1.4-.38,1.38-.2,1.34-.46,1.34-.3,1.31-.42,1.31-.37,1.29-.34,1.24-.54,1.38-.11,1.32,0L62.08,45l1.33-.28,1.31-.13L66,44.43l1.28-.28,1.27-.25,1.22-.2L71,43.42l2.25-.72,1.43-.35-0.86.76-0.66.66-0.82.58L71.53,45l-0.82.64-2,1.07-2,1.17-1.2.42-1.17.49-1.23.36L62,49.57,60.7,50l-1.32.29L58,50.51l-1.33.16-1.36.28L54,51.09l-1.31,0-1.31,0L50,51.14l-1.32,0L47.41,51l-1.19-.2L44.9,50.7l-1.12-.24-1.33.17L40.08,51l0.85,0.21L42,51.49l1.28,0.19L44.49,52l1.37,0.07,1.21,0.28,1.38,0,1.35,0.08,1.43-.08,1.4,0,1.4-.07,1.43-.17,1.4-.11,1.41-.23,0.16,0L58.23,52,56.9,53.39l-0.56.8h-1.1l-1.09,0-1.08,0H52l-1.09,0-1-.15-1-.18-1-.1-0.93-.2-1-.13L45,53.14l-0.86-.29-0.88-.23-0.93-.14-0.83-.31-0.78-.35-0.88-.19-0.45-.22,0.1,0.47L40,52.38l0.41,0.57,0.35,0.64h0l0.8,0.33,1,0.12,0.86,0.3,0.91,0.22,1,0.13,0.95,0.18L47.1,55.2h1.13l1.06,0.16,1.08,0.12,1.1,0,1.09,0.11h1.12l1.09,0.13,1.13-.09L57,55.74l1.15-.12-1.07.46-1,.43L55,57l-1.09.38-1.07.52-1.12.34-1.14.22-1.12.43-1.15.21-1.14.24L46,59.45l-1.16.17L44,59.24l-0.64-.65-0.79-.47-0.71-.55L41.14,57l-0.56-.66-0.51-.67L39.51,55l-0.19-.15L38.65,54l-0.21-.47-0.67-.71-0.18-.32,0-.05-0.12-.24h0a4.85,4.85,0,0,1-1.88-.29l-0.1,0,0.23,0.72,0.53,0.61L36.49,54l0.4,0.74,0.55,0.66,0.48,0.72,0.53,0.71,0.68,0.61,0.6,0.68,0.7,0.62,0.69,0.64,0.85,0.72,1,0.66,1.1,0.79,1,0.32,0.85,0.57,1,0.38,1,0.32,1,0.3,1,0.39L51,64.08l1.15,0.09,1.17,0,1.12,0.24,1.2-.12,1.16,0.15,1.24-.32,1.18,0,1.18-.26,1.19-.29,1.14-.44,1.19-.28,1.13-.46,1.1-.53,1-.64,1-.59,1-.67,0.92-.7,1-.64,0.82-.76,0.84-.72,0.62-.89,0.79-.72,0.55-.88,0.66-.79,0.51-.84,0.54-.8-1.75.83-0.87.45h0l-0.56.77L72.45,55l-0.65.78-0.72.76-0.82.69-0.91.61-0.87.65-0.86.72-1,.57-1.07.42-1,.55-1.06.48-1.1.41-1.13.24-1.14.16L59,62.35l-1.15.11-1.17.22-2.2-.2-2.23-.08-1-.27-1-.31-1-.2-0.94-.4-1-.32,1.23-.36,2.35-.46L52,59.72l1.13-.47,1.18-.43,1.18-.39,1.12-.51,1.09-.57,1.16-.4,1.06-.56,1-.65L62,55.14l1.15,0,1.08-.28,1.09-.25,1.09-.2,1-.33,1.1-.16,1-.45,1.06-.27,1-.3,0.88-.49,1-.31,0.92-.39,0.83-.51,0.87-.45,0.83-.47,0.79-.5,0.82-.47,0.67-.58,0.69-.56,0.76-.48L81.2,47l0.7-.53,0.5-.63,0.47-.64,0.54-.59L83.8,44l0.3-.67,0.44-.61,0.05-.27C84.26,42.17,83.91,41.9,83.57,41.62ZM33,48.65l-1.23-.08-1.14-.16-1.2-.1-1.11-.17L27.11,48,26,47.85l-1-.26-1-.28L23.12,47l-1.06-.2-0.94-.53h1.51l1.14,0.07,1,0.17,1.17,0,1.3-.12,1.2,0,1.23-.08L31,46.14l0.62,0.53L33,47.61l0.72,0.45,0.73,0.6H33Z"/><path d="M39.25,21.85l4-1.58c1-.32,2.06-0.59,3-0.84s2.2-.52,3.23-0.71c1.66-.32,3.22-0.53,4.68-0.68s2.62-.19,3.81-0.2a29.93,29.93,0,0,1,10.62,1.63,13.63,13.63,0,0,1,1.9.85L70.7,20.4l0.14,0,0.6-.07a3.07,3.07,0,0,0,.14-0.47L71,19.54l-0.26-.12a5.65,5.65,0,0,0-2-.87l-1.38-.37A1,1,0,0,0,67.07,18a5.79,5.79,0,0,0-1-.31c-0.81-.1-3.22-0.57-3.87-0.64L61.9,17a20.91,20.91,0,0,0-2.43-.13,1.16,1.16,0,0,0-.27,0,1.08,1.08,0,0,1-.34,0q-0.52,0-1,0c-0.54,0-2.06.06-2.16,0.09a1.82,1.82,0,0,1-.37.05,3.43,3.43,0,0,1-.47,0,0.62,0.62,0,0,0-.2,0c-0.08,0-.14.08-0.22,0.1s-0.06-.06-0.15-0.09a0.58,0.58,0,0,0-.21,0,2.38,2.38,0,0,1-.35,0l-0.31,0c-1.12,0-7.56,1.4-7.72,1.45s-0.26.11-.4,0.15l-0.3.08c-0.41.11-.82,0.26-1.23,0.36s-0.76.23-1.1,0.35l-0.38.14c-0.11.05-.24,0-0.35,0.08C41.22,20,40.55,20.11,40,20.4a2.75,2.75,0,0,0-.36.2,0.17,0.17,0,0,1-.14,0,0.1,0.1,0,0,0-.1.07,0.09,0.09,0,0,1-.05,0,0.36,0.36,0,0,0-.12.06,2.57,2.57,0,0,1-.21,1l0.16,0Z"/></svg>