<?xml version="1.0" encoding="utf-8"?>
<!-- Generated by IcoMoon.io -->
<!DOCTYPE svg PUBLIC "-//W3C//DTD SVG 1.1//EN" "http://www.w3.org/Graphics/SVG/1.1/DTD/svg11.dtd">
<svg version="1.1" xmlns="http://www.w3.org/2000/svg" xmlns:xlink="http://www.w3.org/1999/xlink" width="36" height="32" viewBox="0 0 36 32">
<path fill="#444444" d="M21.61 0.038c-0.267 0.067-0.541 0.235-0.699 0.43-0.095 0.116-2.102 3.239-2.172 3.378-0.182 0.361-0.174 0.831 0.018 1.196 0.041 0.077 0.578 0.788 1.226 1.625 0.634 0.819 1.147 1.496 1.139 1.502-0.008 0.008-0.142 0.047-0.298 0.087-1.129 0.3-2.387 0.876-3.476 1.589-1.952 1.277-3.393 2.88-4.329 4.817-0.843 1.745-1.23 3.644-1.161 5.713 0.057 1.68 0.472 3.334 1.224 4.866 0.209 0.426 0.515 0.963 0.547 0.963 0.014 0 0.148-0.036 0.3-0.081 0.967-0.286 2.002-0.875 2.768-1.575l0.132-0.12-0.126-0.213c-0.618-1.036-0.993-2.168-1.143-3.453-0.041-0.34-0.032-1.425 0.010-1.798 0.195-1.642 0.762-3.012 1.755-4.232 0.367-0.452 0.985-1.040 1.496-1.425 1.204-0.908 2.712-1.528 4.191-1.727 0.543-0.073 1.303-0.061 1.976 0.032 3.423 0.474 6.246 2.975 7.073 6.266 0.395 1.577 0.33 3.198-0.191 4.726-0.387 1.141-1.021 2.172-1.887 3.068-1.121 1.161-2.606 2.012-4.195 2.404-0.665 0.164-1.216 0.233-1.879 0.233h-0.44l-0.197 0.247c-0.815 1.027-1.763 1.944-2.774 2.681-0.134 0.097-0.245 0.178-0.249 0.182-0.020 0.020 0.796 0.239 1.204 0.324 1.554 0.32 3.202 0.334 4.74 0.038 4.844-0.934 8.65-4.74 9.584-9.584 0.267-1.384 0.282-2.934 0.043-4.307-0.515-2.945-2.057-5.555-4.384-7.413-1.305-1.044-2.876-1.828-4.497-2.245-0.126-0.032-0.229-0.065-0.229-0.075 0-0.008 0.521-0.687 1.157-1.51 1.259-1.621 1.291-1.668 1.346-1.982 0.016-0.089 0.028-0.197 0.028-0.241 0-0.148-0.055-0.395-0.12-0.533-0.034-0.075-0.525-0.857-1.090-1.737-0.92-1.433-1.044-1.619-1.19-1.765-0.128-0.13-0.199-0.182-0.334-0.249-0.306-0.15-0.201-0.144-2.604-0.142-1.986 0-2.158 0.004-2.294 0.036zM24.858 2.841c-0.47 0.95-0.875 1.765-0.898 1.81l-0.043 0.081-0.894-1.802c-0.492-0.991-0.894-1.804-0.894-1.808s0.807-0.008 1.791-0.008h1.794l-0.857 1.727zM22.489 3.208c0.48 0.971 0.873 1.769 0.871 1.771-0.006 0.004-3.526-0.764-3.534-0.772s1.765-2.766 1.777-2.766c0.006 0 0.403 0.794 0.886 1.767zM27.126 2.813c0.833 1.297 0.898 1.402 0.875 1.402-0.006 0-0.792 0.168-1.749 0.375s-1.745 0.373-1.753 0.371c-0.008-0.004 0.379-0.796 0.859-1.765 0.48-0.967 0.88-1.751 0.888-1.743 0.008 0.010 0.403 0.622 0.88 1.36zM21.835 5.269c0.969 0.211 1.765 0.387 1.769 0.391s0.004 0.873 0.002 1.931l-0.006 1.925-1.763-2.276c-2.075-2.679-1.844-2.375-1.8-2.365 0.020 0.004 0.829 0.182 1.798 0.393zM26.052 7.178c-0.979 1.263-1.791 2.31-1.806 2.327-0.024 0.024-0.028-0.261-0.024-1.915l0.006-1.944 1.794-0.389c0.987-0.213 1.798-0.385 1.8-0.381 0.004 0.002-0.792 1.038-1.769 2.302zM11.562 7.673c-0.756 0.055-1.226 0.114-1.769 0.221-2 0.397-3.84 1.285-5.466 2.637-0.338 0.282-1.175 1.119-1.457 1.457-1.516 1.822-2.452 3.928-2.756 6.195-0.087 0.64-0.103 0.906-0.103 1.637 0 0.738 0.018 1.027 0.103 1.662 0.308 2.292 1.283 4.459 2.819 6.264 0.253 0.298 1.023 1.068 1.321 1.321 1.982 1.686 4.311 2.659 6.933 2.896 0.442 0.041 1.623 0.032 2.057-0.010 2.039-0.211 3.861-0.857 5.553-1.976 3.056-2.018 5.085-5.289 5.47-8.82 0.099-0.9 0.099-1.869 0-2.746-0.126-1.131-0.43-2.272-0.884-3.324-0.225-0.523-0.719-1.469-0.766-1.469-0.057 0-0.598 0.152-0.831 0.235-0.821 0.286-1.605 0.758-2.237 1.35l-0.16 0.148 0.116 0.201c0.588 1.017 0.959 2.189 1.098 3.468 0.051 0.452 0.051 1.404 0.002 1.814-0.051 0.409-0.085 0.608-0.176 0.983-0.58 2.408-2.254 4.519-4.459 5.624-1.186 0.594-2.406 0.878-3.79 0.878-0.578 0-0.922-0.028-1.455-0.118-3.064-0.519-5.644-2.744-6.621-5.711-0.318-0.965-0.468-2.037-0.415-2.949 0.093-1.589 0.49-2.959 1.208-4.159 0.973-1.627 2.58-2.898 4.515-3.565 1.141-0.393 2.406-0.576 3.305-0.476l0.103 0.012 0.245-0.302c0.563-0.689 1.181-1.315 1.877-1.897 0.237-0.199 0.8-0.628 1.003-0.764 0.059-0.039 0.105-0.077 0.105-0.085 0-0.006-0.103-0.045-0.227-0.083-0.853-0.268-1.704-0.436-2.641-0.521-0.239-0.022-1.425-0.043-1.621-0.028z"></path>
</svg>
