<?xml version="1.0" encoding="utf-8"?>
<!-- Generator: Adobe Illustrator 17.1.0, SVG Export Plug-In . SVG Version: 6.00 Build 0)  -->
<!DOCTYPE svg PUBLIC "-//W3C//DTD SVG 1.1//EN" "http://www.w3.org/Graphics/SVG/1.1/DTD/svg11.dtd">
<svg version="1.1" id="Layer_1" xmlns="http://www.w3.org/2000/svg" xmlns:xlink="http://www.w3.org/1999/xlink" x="0px" y="0px"
	 viewBox="0 0 306 306" enable-background="new 0 0 306 306" xml:space="preserve">
<path d="M153,25c34.19,0,66.334,13.314,90.51,37.49C267.686,86.666,281,118.81,281,153s-13.314,66.334-37.49,90.51
	C219.334,267.686,187.19,281,153,281s-66.334-13.314-90.51-37.49C38.314,219.334,25,187.19,25,153s13.314-66.334,37.49-90.51
	S118.81,25,153,25 M153,9C73.471,9,9,73.471,9,153s64.471,144,144,144s144-64.471,144-144S232.529,9,153,9L153,9z"/>
<g id="Surf">
	<path fill-rule="evenodd" clip-rule="evenodd" d="M138.573,191.186c1.381-0.113,3.012-0.018,4.18,0.623
		c7.585,4.168,14.407,9.319,19.646,16.324c0.698,0.929,1.165,2.027,1.836,3.223c-0.592-0.009-0.826,0.06-0.92-0.025
		c-6.455-5.808-13.584-10.402-22.023-12.869c-1.637-0.478-3.2-1.767-4.399-3.053C135.168,193.564,136.064,191.392,138.573,191.186z"
		/>
	<path fill-rule="evenodd" clip-rule="evenodd" d="M102.385,201.753c-5.697,0.164-11.369,1.522-17.029,2.476
		c-2.235,0.376-4.365,1.063-6.622,0.003c-2.531-1.189-2.332-3.727-1.634-5.347c1.036-2.407,7.36-4.856,11.841-5.127
		c7.403-0.448,14.86-0.479,22.111,1.391c5.373,1.385,10.751,2.886,15.941,4.834c8.231,3.093,16.485,6.24,23.461,11.866
		c-4.675-1.545-9.305-3.262-14.037-4.602C125.293,204.098,114.016,201.417,102.385,201.753z"/>
	<path fill-rule="evenodd" clip-rule="evenodd" d="M76.894,222.925c1.079-1.342,2.636-2.583,4.012-3.148
		c6.819-2.801,13.288-6.529,20.597-8.041c7.443-1.541,14.882-1.835,22.698,0.236c0.914,0.611,0.262,0.838-0.057,0.836
		c-10.677-0.086-21.525,3.416-30.195,9.444c-2.716,1.887-5.43,3.775-8.166,5.628c-1.025,0.694-2.05,1.454-3.186,1.897
		c-2.01,0.784-4.331,0.005-5.532-1.603C75.727,226.381,75.636,224.488,76.894,222.925z"/>
	<path fill-rule="evenodd" clip-rule="evenodd" d="M104.532,170.454c4.607,0.162,8.49,2.059,12.203,5.213
		c-4.046-0.689-7.685-1.308-11.32-1.928c-0.401-0.069-0.868-0.1-1.17-0.243c0,0-1.466-0.452-1.327-1.79
		C103.057,170.368,104.532,170.454,104.532,170.454z"/>
	<g>
		<path id="path4798" d="M173.869,84.883c5.948-3.015,8.305-10.293,5.29-16.243c-3.015-5.95-10.275-8.355-16.226-5.341
			c-5.982,3.031-8.339,10.309-5.324,16.259C160.624,85.509,167.885,87.914,173.869,84.883"/>
		<path id="path4796" d="M129.083,184.973c45.823-3.242,79.203-8.519,126.065-16.262c0.88-0.283,1.358-1.241,1.051-2.171
			c-0.282-0.881-1.258-1.391-2.173-1.132c-73.791,12.209-135.008,15.345-149.014,15.967c-1.421,0.105-2.511,1.353-2.389,2.725
			c0.122,1.414,1.273,2.429,2.659,2.299c3.465-0.158,6.896-0.34,10.199-0.537l-5.498,11.389c-0.268,2.021,1.139,3.705,3.158,3.972
			c1.506,0.18,3.046-0.702,3.784-1.957L129.083,184.973L129.083,184.973L129.083,184.973z"/>
		<path id="path4800" d="M159.349,124.709l17.211-22.876l31.194,8.8c1.415,0.45,3.01,0.36,4.41-0.35
			c2.853-1.486,3.972-4.982,2.508-7.786c-0.774-1.533-2.17-2.547-3.718-2.972l-44.547-12.52c-1.509-0.466-3.103-0.662-4.695-0.572
			l-27.931,3.539l-18.646-10.116c-1.409-0.72-3.069-0.842-4.667-0.278c-2.961,1.111-4.504,4.454-3.377,7.447
			c0.464,1.24,1.318,2.241,2.392,2.905l19.034,10.352c0.843,0.372,1.76,0.604,2.699,0.557l15.267-1.446l-15.497,21.29
			c-2.098,3.133-2.682,7.117-1.529,10.812l9.794,19.088l-14.931,18.525c-1.632,2.158-2.09,5.095-0.874,7.736
			c1.703,3.767,6.141,5.411,9.9,3.691c1.19-0.521,2.175-1.327,2.89-2.303l18.25-22.686c1.224-1.747,1.68-4.005,1.102-6.193
			l-6.067-11.9l23.888,6.395l9.663,26.591c0.074,0.147,0.122,0.327,0.205,0.49c1.714,3.782,6.158,5.442,9.942,3.731
			c3.539-1.628,5.208-5.65,3.972-9.305l-10.964-30.377c-0.06-0.114-0.091-0.261-0.159-0.392c-0.951-2.038-2.665-3.443-4.655-4.053
			L159.349,124.709z"/>
	</g>
</g>
<g id="Lazy" display="none">
	<g display="inline">
		<path fill-rule="evenodd" clip-rule="evenodd" d="M93.13,162.048c0-2.4-0.135-4.809,0.025-7.198
			c0.363-5.397,3.233-8.622,8.45-8.92c5.262-0.301,10.558-0.177,15.831-0.014c1.311,0.039,2.665,0.819,3.875,1.482
			c1.463,0.802,2.752,1.918,4.19,2.768c11.143,6.589,22.962,7.54,35.228,3.965c2.766-0.808,6.894-2.082,7.859-5.225
			c0.884-2.887,2.997-3.154,5.608-3.116c8.397,0.121,15.358-0.048,23.755,0.075c7.477,0.108,11.245,4.059,11.436,11.692
			c0.054,2.158,0.008,4.319,0.008,6.479c-0.003,8.736,0.025,8.982-8.549,9.96c-7.589,0.867-15.243,1.452-22.874,1.542
			c-18.237,0.217-36.483,0.355-54.712-0.052c-9.024-0.201-18.009-1.76-27.028-2.527c-2.575-0.219-3.239-1.425-3.143-3.71
			c0.099-2.395,0.023-4.798,0.023-7.198C93.119,162.048,93.124,162.048,93.13,162.048z"/>
		<path fill-rule="evenodd" clip-rule="evenodd" d="M168.693,140.175c7.392-5.504,13.242-10.457,19.717-14.376
			c2.516-1.522,6.565-1.394,9.705-0.841c11.909,2.101,23.755,4.578,35.577,7.132c5.099,1.102,6.326,2.993,6.267,8.006
			c-0.065,5.241-2.144,7.764-7.353,7.463c-5.42-0.314-10.8-1.449-16.172-2.371c-3.273-0.561-6.343-1.521-9.23-3.493
			c-1.778-1.214-4.485-1.422-6.784-1.455C190.394,140.092,180.365,140.175,168.693,140.175z"/>
		<path fill-rule="evenodd" clip-rule="evenodd" d="M127.435,104.315c0.037,9.387-5.805,15.191-15.192,15.095
			c-8.152-0.083-14.987-7.074-14.801-15.211c0.205-8.934,8.726-15.288,15.285-14.86C121.706,89.926,127.401,95.282,127.435,104.315z
			"/>
		<path fill-rule="evenodd" clip-rule="evenodd" d="M120.147,140.73c-1.235-1.272-2.147-3.118-2.575-4.854
			c-0.464-1.888-0.008-4.227,2.147-4.764c1.638-0.409,3.841-0.142,5.304,0.687c2.668,1.514,4.815,3.94,7.463,5.503
			c7.288,4.301,15.021,5.835,23.263,2.872c1.117-0.402,2.26-0.824,3.424-0.971c3.439-0.433,5.116,0.581,6.168,3.523
			c0.824,2.305-0.476,5.116-3.475,6.022C161.866,148.747,137.739,157.94,120.147,140.73z"/>
		<path fill-rule="evenodd" clip-rule="evenodd" d="M142.259,136.279c-5.633-0.174-9.59-2.773-13.676-6.089
			c-1.449-1.178-3.382-2.642-5.088-3.081c-6.058-1.553-9.885,2.198-9.261,8.912c0.104,1.14,1.095,2.4-0.982,2.29
			c-1.064-0.056-2.935-0.554-3.008-1.064c-0.591-3.98-1.441-8.087,1.691-11.582c3.081-3.44,9.809-4.21,14.447-1.081
			C131.827,128.257,136.98,132.362,142.259,136.279z"/>
	</g>
	<path display="inline" d="M98.561,196.517l-1.503-0.472c-1.269-0.399-2.538-0.797-3.81-1.19c-1.272-0.393-2.547-0.772-3.824-1.151
		c-7.285-2.162-14.165-4.203-20.032-8.787c-1.491-1.164-2.977-2.82-4.418-4.92c-1.424-2.075-1.199-4.056,0.684-6.057
		c1.067-1.13,2.147-2.25,3.228-3.369l1.505-1.56c0.447-0.467,0.529-1.177,0.2-1.733c-0.265-0.445-0.74-0.706-1.241-0.706
		c-0.124,0-0.25,0.016-0.377,0.051c-2.862,0.78-5.358,2.071-7.42,3.841c-2.769,2.376-4.28,5.122-4.373,7.942
		c-0.093,2.872,1.289,5.787,3.993,8.432c1.421,1.388,3.236,2.68,5.549,3.95c6.005,3.297,12.95,5.82,21.861,7.939
		c2.06,0.49,4.165,0.872,6.196,1.243c0.934,0.17,1.866,0.34,2.794,0.52c0.093,0.018,0.186,0.026,0.276,0.026
		c0.653,0,1.238-0.445,1.399-1.101l0.143-0.593l0.141-0.589C99.712,197.494,99.287,196.744,98.561,196.517z"/>
	<path display="inline" d="M245.358,176.434c-1.849-1.993-4.181-3.561-6.934-4.661c-0.174-0.069-0.355-0.103-0.535-0.103
		c-0.442,0-0.869,0.203-1.148,0.569c-0.391,0.516-0.391,1.23,0.003,1.745l1.314,1.72c0.946,1.235,1.891,2.471,2.825,3.717
		c1.643,2.201,1.638,4.194-0.011,6.094c-1.672,1.923-3.337,3.398-4.95,4.385c-0.048,0.03-0.096,0.064-0.143,0.1
		c-6.23,4.947-25.269,7.79-36.646,9.489c-2.974,0.444-5.544,0.827-7.322,1.162c-1.314,0.246-2.625,0.498-3.937,0.75l-1.534,0.295
		c-0.746,0.144-1.252,0.841-1.159,1.594l0.073,0.598l0.076,0.608c0.09,0.726,0.709,1.263,1.427,1.263
		c0.039,0,0.076-0.001,0.113-0.004c0.946-0.073,1.888-0.136,2.834-0.198c2.065-0.136,4.198-0.278,6.3-0.529
		c18.35-2.2,32.442-5.223,41.891-8.988c2.454-1.002,4.404-2.079,5.974-3.297c2.989-2.319,4.694-5.058,4.927-7.921
		C249.028,182.011,247.837,179.11,245.358,176.434z"/>
	<path display="inline" d="M79.283,180.461c2.15,1.286,5.02,2.871,8.141,3.712c5.431,1.465,10.952,2.552,16.107,3.508
		c8.661,1.603,15.845,2.35,22.604,2.35c2.673,0,5.33-0.12,7.896-0.358c0.74-0.068,1.306-0.688,1.308-1.431
		c0-0.743-0.563-1.366-1.303-1.437c-2.172-0.212-4.345-0.418-6.52-0.623c-4.834-0.455-9.832-0.926-14.731-1.479
		c-8.675-0.978-16.948-2.936-24.585-5.818c-2.184-0.826-3.343-1.619-3.641-2.496c-0.355-1.043,0.27-2.812,1.97-5.569
		c0.332-0.538,0.273-1.23-0.144-1.705c-0.281-0.319-0.678-0.491-1.083-0.491c-0.2,0-0.4,0.041-0.588,0.126
		c-0.518,0.231-0.976,0.428-1.396,0.608c-0.872,0.373-1.624,0.697-2.344,1.097c-1.14,0.637-1.975,1.245-2.628,1.913
		c-1.429,1.468-2.057,2.956-1.866,4.424C76.666,178.226,77.608,179.46,79.283,180.461z"/>
	<path display="inline" d="M171.397,203.409c-0.374,0-0.746,0.004-1.12,0.007c-0.363,0.004-0.729,0.007-1.092,0.007
		c-0.411,0-0.822-0.004-1.232-0.019c-3.593-0.127-7.192-0.247-10.789-0.368c-10.099-0.338-11.892-0.689-22.151-1.172
		c-4.1-0.193-9.469-0.567-14.647-1.763c-2.327-0.537-4.44-0.798-6.466-0.798l0,0c-1.534,0-3.002,0.146-4.491,0.446
		c-0.681,0.138-1.168,0.742-1.156,1.437c0.014,0.695,0.521,1.283,1.204,1.397c17.565,2.931,26.099,4.417,42.426,4.417
		c6.585,0,13.186-0.24,19.622-0.714c0.771-0.056,1.362-0.715,1.334-1.489C172.809,204.022,172.171,203.409,171.397,203.409z"/>
	<path display="inline" d="M215.021,168.518c0.847,0.319,1.604,0.592,2.299,0.841c1.393,0.502,2.49,0.898,3.557,1.382l0.523,0.236
		c1.52,0.684,3.09,1.391,4.356,2.373c1.308,1.014,1.97,1.907,2.018,2.728c0.039,0.666-0.326,1.385-1.092,2.138
		c-0.248,0.246-0.417,0.532-0.566,0.784c-0.056,0.096-0.11,0.191-0.172,0.282c-0.132,0.201-0.157,0.455-0.065,0.677
		c0.093,0.222,0.29,0.383,0.526,0.429c0.115,0.022,0.236,0.061,0.357,0.096c0.265,0.081,0.566,0.173,0.884,0.173
		c0.149,0,0.293-0.02,0.425-0.061c4.404-1.351,5.164-3.773,5.023-5.567c-0.143-1.86-1.959-4.025-3.565-4.88
		c-2.842-1.512-6.382-3.395-10.831-3.395c-1.165,0-2.366,0.13-3.574,0.384c-0.312,0.066-0.546,0.331-0.571,0.651
		C214.532,168.109,214.72,168.405,215.021,168.518z"/>
	<path display="inline" d="M178.544,187.821h-28.173c-0.552,0-1.052,0.313-1.294,0.807l-0.281,0.57
		c-0.222,0.446-0.197,0.976,0.068,1.4c0.262,0.424,0.726,0.682,1.224,0.682h28.455c0.785,0,1.427-0.632,1.438-1.419l0.006-0.416
		v-0.172c0.003-0.384-0.149-0.753-0.419-1.025S178.927,187.821,178.544,187.821z"/>
</g>
<g id="Slide" display="none">
	<g display="inline">
		<path fill="#FFFFFF" d="M117.332,179.525c0.734-0.43,1.521-0.856,2.385-1.335c4.581-2.502,8.087-3.666,14.765-3.542
			c1.677-4.853,2.485-10.096,2.532-15.991c-0.971-0.396-1.967-0.823-3.007-1.314c-4.175,2.801-8.174,4.123-12.177,4.018
			c-4-0.142-7.787-1.692-11.612-4.722c-2.364,1.602-4.936,2.396-7.824,2.361c-2.891-0.053-5.957-0.899-9.342-2.608
			C99.133,163.678,105.652,172.502,117.332,179.525z"/>
		<path fill="#FFFFFF" d="M172.828,173.873c6.682-0.141,10.382,1.815,14.943,4.317c1.521,0.842,2.804,1.527,3.975,2.352
			c9.467-6.116,15.265-14.396,22.655-23.675c-2.785,1.339-5.342,1.798-7.824,1.41c-2.485-0.405-4.777-1.638-6.963-3.771
			c-3.453,3.278-6.8,5.058-10.219,5.427c-3.419,0.352-6.75-0.741-10.151-3.295c-3.025,2.171-5.895,3.537-8.699,4.131
			C170.727,165.627,171.426,169.988,172.828,173.873z"/>
	</g>
	<g display="inline">
		<path d="M241.69,123.378l-16.551-0.002c-0.862,10.933-4.14,21.129-9.264,30.104c-2.801,1.261-5.311,1.923-7.572,1.977
			c-3.65,0.07-6.523-1.428-8.689-4.494c-2.801,3.277-5.992,5.04-9.57,5.428c-3.647,0.317-7.54-0.741-11.965-3.314
			c-2.651,1.876-5.164,3.159-7.618,3.861c-0.081-5.899-1.183-12.588,2.754-19.262c4.143-7.138,15.387-15.049,21.834-21.834
			c6.379-6.802,13.501-14.098,16.336-18.485c2.732-4.335,1.624-5.904,0.194-7.49c-1.533-1.691-5.567-3.719-8.845-2.344
			c-3.297,1.357-6.591,6.185-10.625,10.609c-4.143,4.424-9.71,11.983-13.57,15.737c-3.859,3.648-5.445,4.863-9.251,6.291
			c-3.844,1.393-8.318,2.115-13.569,2.168h-3.928c-5.27-0.053-9.745-0.775-13.57-2.168c-3.859-1.428-5.445-2.643-9.251-6.291
			c-3.893-3.754-9.482-11.314-13.57-15.737c-4.09-4.424-7.384-9.251-10.628-10.609c-3.328-1.375-7.365,0.653-8.845,2.344
			c-1.48,1.586-2.573,3.154,0.194,7.49c2.819,4.388,9.87,11.684,16.32,18.485c6.398,6.785,17.641,14.697,21.834,21.834
			c3.556,6.234,2.972,12.265,2.801,17.913c-1.349-0.501-2.754-1.092-4.228-1.788c-4.443,2.784-8.477,4.123-12.18,4.017
			c-3.716-0.158-7.028-1.691-10.01-4.74c-4.228,2.097-8.193,3.066-11.965,2.837c-2.972-0.208-5.783-1.121-8.465-2.752
			c-4.98-8.828-8.177-18.827-9.058-29.536l0.006-0.014l-15.74,0.072c2.417,29.396,19.04,54.433,42.772,68.637
			c-3.438,8.982-8.249,25.562-8.739,32.478c-0.512,7.595,3.947,9.921,6.679,10.238c2.766,0.265,6.064-1.656,9.639-8.458
			c2.766-5.342,5.576-18.418,8.739-26.616c9.108,3.167,18.881,4.887,29.025,4.887c10.282,0,20.17-1.771,29.381-5.017
			c3.182,8.19,6.007,21.375,8.789,26.746c3.556,6.802,6.872,8.723,9.639,8.458c2.732-0.317,7.172-2.643,6.679-10.238
			c-0.497-6.967-5.377-23.742-8.817-32.676C222.866,177.834,239.377,152.762,241.69,123.378z M179.244,156.638
			c3.4,2.554,6.732,3.647,10.151,3.295c3.419-0.369,6.766-2.15,10.219-5.427c2.186,2.133,4.477,3.366,6.963,3.771
			c2.482,0.388,5.039-0.07,7.824-1.41c-7.39,9.279-13.189,17.559-22.655,23.675c-1.171-0.825-2.454-1.51-3.975-2.352
			c-4.562-2.502-8.262-4.459-14.943-4.317c-1.402-3.884-2.101-8.246-2.283-13.104C173.349,160.176,176.219,158.809,179.244,156.638z
			 M102.395,159c2.888,0.035,5.461-0.759,7.824-2.361c3.825,3.03,7.612,4.58,11.612,4.722c4.003,0.105,8.002-1.216,12.177-4.018
			c1.04,0.491,2.036,0.918,3.007,1.314c-0.047,5.895-0.855,11.138-2.532,15.991c-6.679-0.123-10.185,1.04-14.765,3.542
			c-0.865,0.478-1.652,0.905-2.385,1.335c-11.68-7.023-18.2-15.847-24.279-23.133C96.438,158.1,99.504,158.946,102.395,159z"/>
		<path d="M153.838,114.846c9.729,0,17.622-6.711,17.622-14.978c0-8.269-7.893-14.979-17.622-14.979
			c-9.726,0-17.622,6.711-17.622,14.979C136.216,108.135,144.112,114.846,153.838,114.846z"/>
	</g>
</g>
<g id="Pirate" display="none">
	<path display="inline" d="M248.909,147.825c-0.219-2.28-2.466-22.465-13.298-29.213c-3.529-2.201-6.422-2.483-8.544-2.483
		c-0.405,0-0.803,0.01-1.196,0.023c-0.285,0.008-0.567,0.017-0.848,0.017c-1.163,0-3.881,0-12.637-14.758
		c-14.159-23.864-29.08-32.697-29.713-33.063c-6.376-3.688-12.293-7.826-12.856-8.245c-2.822-2.121-9.19-4.599-17.834-4.599
		c-1.44,0-2.921,0.068-4.407,0.204c-4.961,0.45-11.801-3.208-13.903-4.539l-4.82-3.109c-1.581-1.02-3.596-1.112-5.259-0.24
		c-0.435,0.226-0.827,0.509-1.175,0.836c-0.178-0.089-0.364-0.167-0.55-0.235c-1.643-0.591-3.463-0.327-4.866,0.701l-3.89,2.852
		c-4.071,2.982-8.515,6.042-9.467,6.529c-0.832,0.408-8.238,4.119-11.561,8.274c-1.812,2.264-3.099,5.684-6.054,14.815
		c-0.575,1.776-1.072,3.311-1.386,4.149c-1.572,4.193-4.949,10.895-6.504,12.45c-3.215,3.215-5.718,7.219-8.615,11.854l-0.194,0.31
		c-0.666,1.062-1.353,2.161-2.077,3.283c-4.059,6.312-8.685,22.715-10.005,27.591c-0.757,2.786,0.89,5.658,3.678,6.417l6.269,1.703
		c0.513,0.139,1.034,0.173,1.556,0.154c0.41,0.74,0.989,1.389,1.734,1.867c3.103,1.999,5.048,3.626,6.765,5.061
		c2.507,2.094,4.874,4.073,8.983,5.603c0.538,0.26,2.185,1.436,3.165,2.14c1.626,1.164,3.161,2.261,4.452,2.927
		c0.948,0.49,1.142,0.78,1.721,1.637c0.633,0.945,1.593,2.374,3.405,3.547c1.113,0.721,2.305,1.301,3.459,1.863
		c0.612,0.298,1.51,0.732,2.139,1.101c-0.141,0.601-0.372,1.371-0.546,1.95c-0.782,2.591-2.073,6.872-0.343,10.847
		c-1.39,3.395-1.448,7.293,0.017,10.459c1.982,4.275,6.442,6.425,11.495,5.353c0.782,0.369,1.622,0.617,2.503,0.738
		c-0.033,0.119-0.062,0.238-0.091,0.358c-0.886,4.015,0.062,6.386,1.154,8.794c-0.29,0.704-0.583,1.424-0.886,2.201
		c-3.236,1.987-6.525,6.682-5.995,17.64c0.352,7.28,3.769,10.195,7.473,11.775c0.066,0.246,0.145,0.496,0.24,0.753
		c1.498,4.127,6.662,8.802,12.562,11.366c1.841,0.8,3.699,0.654,5.201-0.267c3.025,1.326,6.438,1.561,8.478,1.561
		c2.338,0,8.184-0.33,11.929-3.397c0.707-0.578,1.233-1.314,1.552-2.123c3.157-0.985,5.772-2.803,6.372-5.765
		c0.327-1.608-0.12-3.274-1.208-4.504c-0.923-1.047-2.222-1.674-3.6-1.757c-0.459-2.441-2.685-4.324-5.247-4.337
		c-0.741-0.003-2.181-0.251-3.19-0.815c5.975-2.732,11.321-7.72,16.203-15.074c5.197-7.845,10.576-15.959,9.409-28.397l-0.203-2.068
		c-0.207-2.004-0.368-3.773-0.418-5.323c1.854,1.797,4.258,3.317,7.564,3.904c1.221,0.214,2.636,0.323,4.212,0.323
		c3.265,0,6.691-0.463,9.169-1.241c10.94-3.447,17.358-12.439,17.453-23.995c0.712-0.207,1.436-0.411,2.177-0.619
		c5.073-1.431,10.315-2.907,14.668-5.598l0.948-0.397c0.571-0.24,1.076-0.582,1.519-0.987c0.463,0.131,0.939,0.197,1.415,0.197
		c0.741,0,1.477-0.155,2.168-0.47l7.137-3.246C247.899,152.163,249.124,150.049,248.909,147.825z M230.256,153.334
		c-5.371,3.465-13.133,4.825-19.878,7.076c1.419,11.391-3.744,19.71-13.567,22.804c-2.958,0.928-7.92,1.279-10.903,0.754
		c-5.47-0.968-7.162-5.92-10.108-9.663c-4.912,4.488-3.608,11.726-2.95,18.789c0.993,10.604-3.443,17.295-8.565,25.024
		c-4.684,7.06-11.101,13.934-20.676,15.067c-0.881,0.817-1.328,1.788-1.461,2.811c0.041,0.367,0.124,0.755,0.298,1.145
		c0.732,1.647,1.159,1.405,2.698,2.402c0.161,0.104,0.261,0.175,0.323,0.219c-0.327-0.268-1.626-1.484-1.374-3.171
		c0.513-3.428,0.658-1.206,3.587,2.259c2.541,3.002,7.038,3.273,7.957,3.273c0.91,0-4.237,2.235-7.311,1.082
		c-0.923-0.346-4.258-1.892-4.258-1.892l-0.819-0.908c0.944,1.6,2.338,2.96,3.72,3.616c3.525,3.037,9.628,2.734,13.597,2.43
		c-0.319,1.576-7.634,4.268-16.174,0.913c-3.968-1.699-4.634-1.728-7.634-4.882c-1.734-2.367-2.867-4.6-3.658-7.327
		c-1.229,2.747-2.056,6.247,7.667,13.452c1.957,1.403,5.76,3.642,13.687,2.725c-3.351,2.747-12.81,3.051-16.418,0.269
		c-4.328-3.342-6.906-5.902-8.995-8.423c-0.24,0.116-0.331,0.459-0.211,1.112c0.592,3.24,7.597,9.343,5.412,8.393
		c-6.227-2.708-10.7-7.96-9.79-9.784c0.587-1.171,0.501-3.544,0.29-5.504c-0.579-0.815-1.192-1.667-1.87-2.583
		c-0.815-1.098-1.365-2.648-1.672-4.395c-0.199,0.227-0.397,0.455-0.563,0.672c-0.807,1.045-0.778,1.116-0.869,2.494
		c-0.091,1.409,0.087,1.574,0.24,2.3c0.161,0.782,0.137,1.671,1.188,2.632c2.59,2.371,2.23,2.764,1.51,2.521
		c-2.855-0.956-5.321-2.067-5.594-7.7c-0.509-10.482,2.627-13.009,4.916-13.486c0.815-2.4,1.638-4.202,2.429-6.205
		c-1.502-3.509-2.412-4.486-1.734-7.566c1.407-2.795,6.691-4.379,8.677-1.264c0.492-1.903,2.661-3.44,4.556-3.727
		c1.953-0.293,4.237,0.005,4.758,2.502c1.076-1.567,0.579-2.637,4.113-2.897c2.292-0.139,2.71,0.572,3.79,1.904
		c1.539-1.979,5.358-3.615,8.888-0.955c1.523-3.445,0.004-10.027,0.89-13.247c-2.685,0.93-5.205,2.536-9.26,3.062
		c-2.392,3.346-7.423,10.06-10.895,3.419c-1.837,1.265-4.887,3.211-7.357,1.229c-1.552,2.7-5.147,3.334-7.084,0.504
		c-1.134,2.178-5.445,4.313-7.626,1.473c-8.668,3.65-10.154-5.74-6.298-10.287c-4.514-3.998,0.828-10.34-0.037-14.288
		c-0.563-2.553-5.255-3.827-8.015-5.615c-2.181-1.411-1.895-3.539-5.565-5.436c-2.089-1.079-6.376-4.64-8.069-5.273
		c-5.925-2.215-6.959-5.123-14.871-10.214c1.125-5.582,3.186-14.584,5.147-18.954c1.845-4.112,4.469-12.197,8.122-15.975
		c3.637-3.754,6.144-7.035,8.362-12.213c2.317-5.406,2.656-6.708,4.853-11.063c1.966-3.897,2.239-9.296,5.785-12.131
		c1.937-1.549,4.796-3.751,8.859-4.766c1.27,16.138,6.558,25.237,12.479,26.82c7.555-3.648,9.248-15.176,9.289-26.897
		c-0.67-1.028,1.494-0.952,2.181-0.732c7.349,2.367,14.507,0.829,20.916,3.124c11.66,4.177,18.541,11.439,27.04,20.339
		c4.129,4.319,5.751,9.712,9.583,14.219c5.76,6.766,9.21,10.81,9.947,11.971c2.114,3.375,5.064,7.894,7.853,11.46
		c3.927,5.009,8.251-1.098,12.388,4.215c3.41,4.366,5.313,10.166,5.486,16.376L230.256,153.334z M236.562,151.573
		c0,0-0.389-12.587-5.838-19.465c-5.449-6.877-14.139-0.593-16.865-6.692c-2.722-6.098-8.048-10.696-16.48-24.451
		C188.941,87.212,176.797,78.5,176.797,78.5c-2.218-1.283-12.326-7.748-14.023-9.018c-0.794-0.598-5.809-2.849-14.13-2.094
		c-5.962,0.543-12.31-1.761-16.514-3.749c-0.211,5.467-0.554,13.101-0.865,14.759c-0.161,0.87-0.323,2.007-0.488,3.212
		c-0.732,5.264-1.105,7.906-3.434,8.945c-1.121,0.5-2.404,0.38-3.43-0.315c-1.506-1.02-2.094-2.612-3.939-10.643
		c-0.199-0.865-0.376-1.627-0.513-2.18c-0.319-1.271-2.098-8.335-3.318-13.176c-2.603,1.839-5.784,4.017-7.282,4.767
		c-2.847,1.423-6.587,3.811-7.613,5.096c-0.857,1.204-3.017,7.885-4.055,11.097c-0.633,1.95-1.175,3.634-1.56,4.658
		c-1.154,3.083-5.325,12.757-9.198,16.626c-2.267,2.268-4.444,5.75-6.964,9.782c-0.753,1.2-1.527,2.442-2.346,3.714
		C74.348,124.3,70.007,139,68.567,144.3l-6.269-1.702c0.554-2.049,5.54-20.194,9.36-26.13c0.803-1.248,1.564-2.467,2.3-3.645
		c2.731-4.368,5.09-8.141,7.882-10.933c2.615-2.614,6.368-10.743,7.704-14.311c0.331-0.886,0.856-2.504,1.461-4.379
		c2.52-7.784,3.865-11.531,5.164-13.156c2.582-3.226,9.492-6.702,9.786-6.848c1.593-0.798,7.129-4.719,10.249-7.004l3.89-2.852
		l1.183,4.679c0,0,2.644,10.485,3.893,15.461c0.219-3.788,0.468-9.774,0.654-15.295l0.19-5.731l4.82,3.108
		c0.091,0.059,9.533,6.058,17.221,5.355c9.968-0.91,16.543,1.805,18.62,3.367c0.919,0.689,7.014,4.91,13.377,8.591
		c0,0,14.209,8.238,27.834,31.206c15.305,25.803,16.005,13.391,24.958,18.97c8.95,5.58,10.853,25.277,10.853,25.277L236.562,151.573
		z"/>
	<path display="inline" d="M190.787,172.328c5.288,0.412,7.547-3.736,7.609-8.739c-3.79-0.031-7.837,1.763-11.441,2.695
		C187.754,168.723,188.854,170.895,190.787,172.328z"/>
	<path display="inline" d="M205.467,158.001c-0.807-1.37-5.458-5.158-6.273-1.436c-0.48,2.18,3.765,4.914,3.562,8.227
		c-0.294,4.859-5.871,10.536-10.055,10.923c-1.816,0.173-4.92-0.572-6-1.195c-2.16-1.252-2.392-4.176-3.29-6.772
		c-1.059,0.349-2.251,0.587-2.996,1.219c-1.456,4.552,3.869,10.561,9.024,11.117c10.928,1.177,18.562-9.127,17.122-18.693
		C206.44,160.542,205.984,158.879,205.467,158.001z"/>
	<path display="inline" d="M153.622,135.37c4.775,2.006,9.98,4.6,12.827,6.505c2.007,1.343,3.761,3.679,4.105,5.802
		c2.967,0.739,5.871,2.054,9.277,3.608c2.921,1.335,8.039,4.841,10.907,3.12c0.736-1.121,0.794-2.499,0.807-4.603
		c-3.906-6.498-9.227-13.463-16.129-19.09c-7.129-5.815-15.347-9.133-25.923-10.591c-4.874-0.671-10.816-2.951-16.633-2.377
		c-2.739,0.27-6.136,0.612-9.264,0.752c-2.607,0.117-5.88-0.339-8.176,0.504c-2.718,1.002-2.938,4.191-4.345,6.794
		c7.82,2.401,15.872,4.595,23.188,7.447C137.924,128.257,146.964,132.571,153.622,135.37z"/>
	<path display="inline" d="M167.02,151.564c-5.156,3.675-8.871,8.138-16.605,8.518c-9.748,0.472-14.772-8.792-16.129-17.881
		c-0.331-2.219,0.074-4.087-1.378-5.082c-7.812-2.892-15.69-5.727-26.452-5.986c-1.916,2.256-3.608,4.162-3.798,7.034
		c-0.277,4.255,1.775,7.885,1.667,12.105c-0.095,3.647-2.404,9.945-0.24,12.837c2.342,3.122,8.938,3.378,10.373,6.755
		c1.903,4.454-2.83,9.694-0.646,13.382c0.931,0.951,4.278-0.985,4.498,1.647c1.634-1.828,5.545-2.874,6.273-0.282
		c0.886-2.216,5.404-3.486,6.811-0.744c1.775-1.172,3.021-2.809,5.992-2.924c1.158,0.422,1.758,1.344,3.004,1.689
		c3.012-3.988,7.013-2.007,8.18,1.673c0.567,1.442,1.725,2.257,3.045,2.434c1.386,0.189,3.36-0.112,3.769-0.604
		c0.414-0.498,2.106-2.043,2.106-2.043v-0.042c2.619-2.137,4.386-5.55,7.58-5.681c0.811,3.157-2.309,8.483-2.859,12.198
		c-1.349,9.188-2.975,15.593-9.124,19.83c1.043-2.946,3.852-7.005-0.112-8.048c-3.575,1.235-2.478,5.192-5.342,6.849
		c-0.604-1.32-0.025-3.159-0.224-4.223c-0.194-1.031-1.134-1.665-2.988-1.343c-1.055,0.184-2.127,0.708-2.59,1.496
		c-0.923,1.566-0.712,4.278-2.102,5.303c-2.342-1.146,1.324-6.836-2.015-6.786c-2.673,0.41-5.391,0.982-4.804,5.349
		c0.12,0.857,1.121,2.47-0.534,2.667c-1.001-1.995-1.113-5.168-2.698-5.888c-0.654-0.296-1.465-0.122-2.839,0.499
		c-1.32,0.786-1.568,1.417-0.869,4.032c0.521,1.958,0.852,2.243,1.742,3.312c-1.705,1.723-4.009,8.976,0.873,8.227
		c3.405-0.523,3.484-4.828,6.529-4.377c1.092,0.784,0.405,1.701,0.554,3.389c1.804,2.17,3.662,0.439,5.449-0.742
		c2.342-3.41,3.865-8.82,9.79-8.26c-1.949,4.187-7.601,8.946-3.778,14.542c5.809-1.555,9.26-6.296,12.239-10.447
		c3.004-4.181,6.807-7.712,8.052-13.397c1.059-4.837-0.319-7.96-0.31-13.208c0.012-6.596,1.816-11.815,4.047-16.965
		c-0.542-0.346-0.881-0.159-1.365,0.002c-2.652,0.913-9.951,1.17-11.983,2.455c-0.558,0.355-0.91,0.848-1.142,1.426
		c-0.037,0.046-0.07,0.091-0.091,0.171c-0.48,1.671-0.397,3.899-3.273,4.04c-0.815,0.039-1.626-1.11-1.738-2.648
		c-0.05-0.664-0.149-1.089-0.265-1.38c-0.43-2.393-1.084-4.558,1.043-6.194c1.866-1.434,5.938-0.786,8.991-0.992
		c6.099-0.41,9.649-0.924,13.158-2.935c0.794-0.457,8.971-4.005,10.535-5.847C181.332,155.445,173.686,153.941,167.02,151.564z
		 M111.43,158.004c-0.827-4.244,2.185-14.633-0.857-16.224c-1.671-0.873-1.759-0.026-3.529-0.95
		c-1.216-5.249,15.674-5.173,16.857-1.11c-0.285,6.304-1.2,15.623-4.56,19.715C116.929,162.371,112.295,162.437,111.43,158.004z
		 M128.982,174.608c-1.25,0.833-3.476,4.001-5.168,3.647c-1.597-0.334-1.51-3.505-1.378-4.839
		c0.616-6.063,3.501-12.347,7.047-15.278c0.273,0,0.546,0,0.819-0.003c1.754,2.273-0.604,4.18,0.836,6.78
		c1.014,1.84,5.478,1.466,5.735,3.862C137.208,171.917,131.175,173.15,128.982,174.608z"/>
	<path display="inline" d="M144.18,183.983c-1.994,0.158-1.713,3.396-3.778,3.977c-0.77-0.849-0.799-2.359-1.374-3.386
		c-4.427-1.212-5.619,2.406-6.525,5.101c-1.316-1.676-1.063-3.916-3.281-4.107c-2.934-0.25-4.084,3.183-5.714,4.857
		c-1.353-1.737-0.927-4.362-3.55-3.866c-1.874,0.354-2.193,2.171-3.401,3.597c-0.352-1.059,0.877-2.193-0.418-3.343
		c-3.802,0.354-5.565,5.241-3.248,7.888c1.15,0.792,2.114,0.287,2.714-0.429c0.679-0.808,0.6-2.257,1.825-2.585
		c0.004,2.085,0.046,4.018,2.003,4.453c2.851,0.633,3.836-2.206,4.853-4.345c0.323,2.186,0.873,3.482,3.322,3.355
		c2.834-0.145,2.88-2.336,4.353-4.263c0.439,1.71,0.426,2.26,1.916,3.035c4.258-0.181,3.972-2.821,6.529-4.507
		c-0.327,1.842-0.207,3.51,1.647,4.726C146.989,194.796,149.236,183.592,144.18,183.983z"/>
</g>
</svg>
