<?xml version="1.0" encoding="utf-8"?>
<!-- Generated by IcoMoon.io -->
<!DOCTYPE svg PUBLIC "-//W3C//DTD SVG 1.1//EN" "http://www.w3.org/Graphics/SVG/1.1/DTD/svg11.dtd">
<svg version="1.1" xmlns="http://www.w3.org/2000/svg" xmlns:xlink="http://www.w3.org/1999/xlink" width="32" height="32" viewBox="0 0 32 32">
<path fill="#444444" d="M7.165 3.007l0.011 3.011 1.344 0.011 1.34 0.007v-6.035h-2.702l0.007 3.007zM22.147 3.007l0.011 3.011 1.344 0.011 1.34 0.007v-6.035h-2.702l0.007 3.007zM2.667 3.158c-0.607 0.063-1.154 0.295-1.642 0.698-0.393 0.323-0.8 0.986-0.944 1.53-0.060 0.235-0.063 0.705-0.063 12.193v11.947l0.081 0.281c0.302 1.049 1.049 1.789 2.105 2.098l0.27 0.077h27.053l0.281-0.081c1.049-0.302 1.789-1.049 2.098-2.105l0.077-0.27v-11.947c0-11.488-0.003-11.958-0.063-12.193-0.144-0.544-0.551-1.207-0.944-1.53-0.379-0.312-0.814-0.53-1.295-0.649-0.228-0.053-0.474-0.063-1.933-0.077l-1.677-0.014v3.821l-0.081 0.119c-0.042 0.063-0.119 0.137-0.165 0.161-0.067 0.035-0.607 0.046-2.326 0.046-2 0-2.256-0.007-2.361-0.056-0.067-0.032-0.14-0.091-0.165-0.133-0.032-0.053-0.046-0.582-0.060-2.003l-0.018-1.93h-9.789l-0.018 1.93c-0.014 1.421-0.028 1.951-0.060 2.003-0.025 0.042-0.098 0.102-0.165 0.133-0.105 0.049-0.361 0.056-2.361 0.056-1.719 0-2.26-0.011-2.326-0.046-0.046-0.025-0.123-0.098-0.165-0.161l-0.081-0.119v-3.814l-1.498 0.003c-0.828 0.003-1.621 0.018-1.765 0.032zM29.888 19.726l-0.011 9.098-0.081 0.147c-0.126 0.239-0.291 0.4-0.516 0.509l-0.211 0.098h-26.14l-0.211-0.098c-0.225-0.109-0.389-0.27-0.516-0.509l-0.081-0.147-0.011-9.098-0.007-9.095h27.789l-0.007 9.095zM11.449 13.874c-1.172 0.225-2.193 0.965-2.747 1.996-0.074 0.14-0.168 0.337-0.207 0.439-0.467 1.193-0.295 2.73 0.411 3.656 0.256 0.337 1.088 1.137 5.477 5.277l1.628 1.533 0.267-0.26c0.147-0.144 1.102-1.049 2.126-2.011 3.825-3.604 4.54-4.295 4.751-4.604 0.716-1.056 0.832-2.561 0.288-3.775-0.249-0.547-0.737-1.161-1.228-1.533-0.319-0.242-0.937-0.54-1.354-0.653-0.312-0.084-0.414-0.095-0.947-0.095-0.519-0.004-0.632 0.007-0.877 0.077-0.379 0.109-0.986 0.407-1.368 0.681-0.382 0.267-1.151 1.025-1.446 1.421l-0.214 0.288-0.204-0.27c-0.242-0.323-0.853-0.958-1.172-1.218-0.523-0.425-1.056-0.716-1.597-0.881-0.267-0.077-0.396-0.095-0.825-0.105-0.333-0.007-0.597 0.004-0.761 0.035z"></path>
</svg>
