<?xml version="1.0" encoding="utf-8"?>
<!-- Generator: Adobe Illustrator 17.1.0, SVG Export Plug-In . SVG Version: 6.00 Build 0)  -->
<!DOCTYPE svg PUBLIC "-//W3C//DTD SVG 1.1//EN" "http://www.w3.org/Graphics/SVG/1.1/DTD/svg11.dtd">
<svg version="1.1" xmlns="http://www.w3.org/2000/svg" xmlns:xlink="http://www.w3.org/1999/xlink" x="0px" y="0px"
	 viewBox="240.6 78.6 738 713.4" enable-background="new 240.6 78.6 738 713.4" xml:space="preserve">
<g id="share" display="none">
	<g display="inline">
		<g>
			<defs>
				<path id="SVGID_1_" d="M649.9,663.4c-42.9,24.8-98.2,10.2-123-32.7c-24.8-42.9-10.2-98.2,32.7-123c42.9-24.8,98.2-10.2,123,32.7
					C708.6,583.3,693.9,638.6,649.9,663.4L649.9,663.4z M547.3,484C524.7,501,520.2,510,520.2,510L365.6,269.7l56.4-37.2
					l161.3,240.3C583.4,471.6,560.8,472.8,547.3,484L547.3,484z M356.6,402.8V194.1l190.7,83.5L356.6,402.8L356.6,402.8z M689.4,510
					c0,0-4.5-9-27.1-25.9c-14.7-10.2-36.1-12.4-36.1-12.4l161.3-240.3l56.4,37.2L689.4,510L689.4,510z M853,402.8L662.3,277.6
					L853,194.1V402.8L853,402.8z"/>
			</defs>
			<use xlink:href="#SVGID_1_"  overflow="visible" fill="#231F20"/>
			<clipPath id="SVGID_2_">
				<use xlink:href="#SVGID_1_"  overflow="visible"/>
			</clipPath>
		</g>
		<g>
			<path fill="#231F20" d="M520.2,510c0,0,4.5-9,27.1-25.9c13.1-10.9,34.7-12.3,36-11.4L481.4,320.9l65.9-43.3l-190.7-83.5v208.7
				l66.5-43.7L520.2,510z"/>
			<path fill="#231F20" d="M583.3,472.7L583.3,472.7C583.4,472.7,583.3,472.7,583.3,472.7z"/>
			<path fill="#231F20" d="M853,194.1l-190.7,83.5l65.4,42.9L626.2,471.6c0,0,21.4,2.3,36.1,12.4c22.6,16.9,27.1,25.9,27.1,25.9
				l96.7-151.1l66.9,43.9V194.1z"/>
			<path fill="#231F20" d="M559.7,507.7c-42.9,24.8-57.5,80.1-32.7,123c24.8,42.9,80.1,57.5,123,32.7c44-24.8,58.7-80.1,32.7-123
				C657.8,497.6,602.5,482.9,559.7,507.7z"/>
		</g>
	</g>
</g>
<g id="chat" display="none">
	<g display="inline">
		<defs>
			<path id="SVGID_3_" d="M847.6,594.9h-47.4v72.9h-12.1l-49.8-72.9H631.4c-15.8,0-25.5-12.1-25.5-25.5v-23.1h150.7
				c25.5,0,43.7-21.9,43.7-41.3V400.5h48.6c13.4,0,23.1,9.7,23.1,25.5v142.1C871.9,582.7,864.6,594.9,847.6,594.9L847.6,594.9z
				 M739.5,522H375c-24.3,0-35.2-17-35.2-40.1V242.6c0-23.1,14.6-36.4,32.8-36.4h368.1c23.1,0,35.2,14.6,35.2,34v245.4
				C775.9,503.8,762.6,522,739.5,522L739.5,522z M709.1,277.8H404.2c-9.7,0-17,0-17,8.5c0,9.7,7.3,15.8,17,15.8h304.9
				c9.7,0,17-6.1,17-15.8C726.1,277.8,718.8,277.8,709.1,277.8L709.1,277.8z M709.1,350.7H404.2c-9.7,0-17,0-17,8.5
				c0,9.7,7.3,15.8,17,15.8h304.9c9.7,0,17-6.1,17-15.8C726.1,350.7,718.8,350.7,709.1,350.7L709.1,350.7z M709.1,423.6H404.2
				c-9.7,0-17,0-17,8.5c0,9.7,7.3,15.8,17,15.8h304.9c9.7,0,17-6.1,17-15.8C726.1,423.6,718.8,423.6,709.1,423.6L709.1,423.6z
				 M457.6,618l-21.9,24.3V522h96L457.6,618L457.6,618z"/>
		</defs>
		<use xlink:href="#SVGID_3_"  overflow="visible" fill="#231F20"/>
		<clipPath id="SVGID_4_">
			<use xlink:href="#SVGID_3_"  overflow="visible"/>
		</clipPath>
	</g>
</g>
<g id="camera">
	<g>
		<g>
			<g>
				<defs>
					<path id="SVGID_5_" d="M835.1,651.2H376.2c-31.7,0-49.4-20.3-49.4-50.7V324.2c0-30.4,15.2-54.5,49.4-54.5h116.6l12.7-25.4
						c6.3-15.2,22.8-25.4,36.8-25.4h124.2c13.9,0,33,10.1,39.3,25.4l12.7,25.4h116.6c30.4,0,49.4,16.5,49.4,53.2V598
						C884.5,628.4,865.5,651.2,835.1,651.2L835.1,651.2z M605.6,295c-83.7,0-152.1,68.5-152.1,152.1S522,599.2,605.6,599.2
						s152.1-68.5,152.1-152.1S689.3,295,605.6,295L605.6,295z M606.9,552.3c-57,0-103.9-46.9-103.9-103.9s46.9-103.9,103.9-103.9
						s103.9,46.9,103.9,103.9C709.6,505.4,663.9,552.3,606.9,552.3L606.9,552.3z"/>
				</defs>
				<use xlink:href="#SVGID_5_"  overflow="visible" fill="#231F20"/>
				<clipPath id="SVGID_6_">
					<use xlink:href="#SVGID_5_"  overflow="visible"/>
				</clipPath>
			</g>
		</g>
	</g>
</g>
<g id="mail" display="none">
	
		<image display="inline" overflow="visible" width="44" height="32" xlink:href="CEF018D71F791B2D.jpg"  transform="matrix(10.6001 0 0 10.6001 373.1977 295.1216)">
	</image>
	<g display="inline">
		<defs>
			<path id="SVGID_7_" d="M837.8,634.6H383.5c-33.6,0-50.3-19.1-50.3-51.1V278.9c0-29.6,19.9-47.2,48.8-47.2h452.8
				c40.6,0,51.9,21.5,51.9,52.7v300.7C886.6,613.2,870.6,634.6,837.8,634.6L837.8,634.6z M838.6,256.9L609.9,439.5L381.1,256.9
				l-23-0.2l0.5,24.2l251.2,205.6l251.2-205.6l0.5-24.2L838.6,256.9L838.6,256.9z"/>
		</defs>
		<use xlink:href="#SVGID_7_"  overflow="visible" fill-rule="evenodd" clip-rule="evenodd" fill="#231F20"/>
		<clipPath id="SVGID_8_">
			<use xlink:href="#SVGID_7_"  overflow="visible"/>
		</clipPath>
	</g>
</g>
<g id="edit" display="none">
	<g display="inline">
		<g>
			<defs>
				<path id="SVGID_9_" d="M857.8,272.7L624,506.4c-2.5,2.5-4.9,3.7-8.7,4.9l-92.7,47c0,0-16.1,17.3-28.4,27.2h-23.5
					c0,0-1.2-13.6,0-23.5c9.9-9.9,27.2-28.4,27.2-28.4l47-91.5c0-2.5,1.2-4.9,3.7-8.7l233.7-233.7c9.9-9.9,27.2-13.6,37.1-3.7
					l39.6,38.3C870.1,244.3,867.6,264.1,857.8,272.7L857.8,272.7z M421.2,239.3c-13.6,0-24.7,11.1-24.7,24.7v346.2
					c0,13.6,11.1,24.7,24.7,24.7h346.2c13.6,0,24.7-11.1,24.7-24.7v-230l49.5-49.5V635c0,30.9-22.3,49.5-49.5,49.5H396.5
					c-29.7,0-48.2-19.8-48.2-50.7V240.6c0-29.7,19.8-50.7,47-50.7h351.2L697,239.3H421.2L421.2,239.3z"/>
			</defs>
			<use xlink:href="#SVGID_9_"  overflow="visible" fill="#231F20"/>
			<clipPath id="SVGID_10_">
				<use xlink:href="#SVGID_9_"  overflow="visible"/>
			</clipPath>
		</g>
	</g>
</g>
<g id="people" display="none">
	<g display="inline">
		<g>
			<g>
				<defs>
					<path id="SVGID_11_" d="M918.6,627.9v56.8H802.4l0,0H686.3c0-25.8,0-71,0-71c0-25.8-6.5-47.7-21.9-58.1
						c21.9-12.9,47.7-25.8,47.7-25.8v-24.5c0,0-32.3-28.4-46.5-78.7c-9-5.2-16.8,2.6-18.1-43.9c0-20.6,12.9-20.6,12.9-20.6
						c0-1.3,0-5.2,0-37.4c0-20.6,2.6-31,12.9-37.4l0,0c0,0-6.5-41.3,77.4-42.6l0,0l0,0l0,0c101.9,0,89,85.2,89,80
						c0,31,0,36.1,0,37.4c0,0,14.2,0,12.9,19.4c-1.3,46.5-9,40-16.8,43.9c-14.2,50.3-47.7,78.7-47.7,78.7v24.5l90.3,41.3
						C879.9,571.2,918.6,585.4,918.6,627.9L918.6,627.9z M299.2,684.7v-71c0-46.5,42.6-61.9,42.6-61.9l86.5-40v-32.3
						c0,0-27.1-21.9-41.3-77.4c-9-5.2-20.6-6.5-21.9-58.1c-1.3-23.2,12.9-20.6,12.9-20.6c0-1.3,0-7.7,0-42.6
						c0-21.9,2.6-33.6,15.5-41.3l0,0c0,0-5.2-45.2,87.7-46.5l0,0l0,0l0,0c116.1,0,101.9,94.2,101.9,87.7c0,34.8,0,41.3,0,42.6
						c0,0,14.2-2.6,12.9,20.6c-1.3,50.3-12.9,52.9-23.2,58.1c-15.5,55.5-42.6,77.4-42.6,77.4v32.3l86.5,40c0,0,42.6,15.5,42.6,61.9
						v71L299.2,684.7L299.2,684.7z"/>
				</defs>
				<use xlink:href="#SVGID_11_"  overflow="visible" fill="#231F20"/>
				<clipPath id="SVGID_12_">
					<use xlink:href="#SVGID_11_"  overflow="visible"/>
				</clipPath>
			</g>
		</g>
	</g>
</g>
<g id="Layer_7">
</g>
</svg>
