<?xml version="1.0" encoding="utf-8"?>
<!-- Generated by IcoMoon.io -->
<!DOCTYPE svg PUBLIC "-//W3C//DTD SVG 1.1//EN" "http://www.w3.org/Graphics/SVG/1.1/DTD/svg11.dtd">
<svg version="1.1" xmlns="http://www.w3.org/2000/svg" xmlns:xlink="http://www.w3.org/1999/xlink" width="1058" height="1024" viewBox="0 0 1058 1024">
<g>
</g>
	<path d="M463.702 842.582c-26.998-48.778-47.754-84.618-62.292-107.588l-23.074-36.146-17.408-26.556c-38.024-59.22-77.654-108.134-118.886-146.772 23.518-19.456 45.43-29.184 65.776-29.184 24.952 0 47.172 9.148 66.628 27.444 19.456 18.296 43.998 53.146 73.626 104.516 33.69-109.466 76.492-213.264 128.478-311.432 28.74-53.418 54.34-89.326 76.834-107.794 22.494-18.432 52.36-27.682 89.532-27.682 19.764 0 44.134 3.038 73.182 9.148-74.65 60.11-134.314 131.55-179.028 214.288s-102.502 228.694-173.362 437.76z" />
</svg>
