<?xml version="1.0" encoding="utf-8"?>
<!-- Generator: Adobe Illustrator 17.1.0, SVG Export Plug-In . SVG Version: 6.00 Build 0)  -->
<!DOCTYPE svg PUBLIC "-//W3C//DTD SVG 1.1//EN" "http://www.w3.org/Graphics/SVG/1.1/DTD/svg11.dtd">
<svg version="1.1" id="Layer_1" xmlns="http://www.w3.org/2000/svg" xmlns:xlink="http://www.w3.org/1999/xlink" x="0px" y="0px"
	 viewBox="0 0 96 107" enable-background="new 0 0 96 107" xml:space="preserve">
<path d="M78.6,65.7L49.3,48.3v-4.1c3.6-0.9,6.2-4.1,6.2-7.9c0-4.5-3.7-8.2-8.2-8.2c-4.5,0-8.2,3.7-8.2,8.2c0,1.1,0.2,2.2,0.6,3.1
	l0.1,0.2c0.6,0.8,1.8,1.1,2.7,0.5c1-0.6,1.3-1.9,0.7-2.8c-0.1-0.3-0.1-0.6-0.1-1c0-2.3,1.8-4.1,4.1-4.1c2.3,0,4.1,1.8,4.1,4.1
	c0,2.2-1.6,4.4-3.8,4.6c-2,0.5-2,0.3-1.9,3.4c0,0,0,0,0,0v4.1L16.6,65.7c0,0-3,2-2.5,5.6c0,0,0.3,5.9,5.7,7h26.1h0.1h3h0.1h26.1
	c5.4-1.1,5.8-7,5.8-7C81.6,67.8,78.6,65.7,78.6,65.7z M74.6,73.4H49h-3.1H20.3c0,0-4.5-1.7-0.7-4.5L45.8,53h0.1H49h0.1l26.2,15.8
	C79.1,71.7,74.6,73.4,74.6,73.4z"/>
</svg>
