<?xml version="1.0" encoding="utf-8"?>
<!-- Generator: Adobe Illustrator 17.1.0, SVG Export Plug-In . SVG Version: 6.00 Build 0)  -->
<!DOCTYPE svg PUBLIC "-//W3C//DTD SVG 1.1//EN" "http://www.w3.org/Graphics/SVG/1.1/DTD/svg11.dtd">
<svg version="1.1" id="Layer_1" xmlns="http://www.w3.org/2000/svg" xmlns:xlink="http://www.w3.org/1999/xlink" x="0px" y="0px"
	 viewBox="0 0 96 107" enable-background="new 0 0 96 107" xml:space="preserve">
<g>
	<path d="M70.4,52.3c-0.1-0.8-0.1-1.6-0.2-2.4c-0.5-3.9-2.2-6.4-6.3-7.5c-3.6-0.9-6.9-2.8-9.8-4.1c-2.7,0.6-3.7,1.5-6.1,1.4
		c-2.4,0-3.4-0.9-6.1-1.4c-2.9,1.3-6.2,3.2-9.8,4.1c-4.2,1.1-5.9,3.6-6.3,7.5c-0.1,0.8-0.1,1.6-0.2,2.4c-0.7,4.8-2.3,15.4-2.3,20.2
		c0,9.6,4.4,10.7,7.3,14.7c0.5,0.7,0.8,1.8,0.8,2.7c0.1,1.6,33.2,1.6,33.3,0c0.1-0.9,0.3-2,0.8-2.7c2.9-4.1,7.3-5.1,7.3-14.7
		C72.7,67.6,71.1,57,70.4,52.3z M47.9,44c2.5-0.1,4.1-1.3,3.7,1.1c-0.9,5-2,13-3.7,18.1c-1.8-5.1-2.9-13-3.7-18.1
		C43.8,42.7,45.5,43.9,47.9,44z M29.7,81.5c-2-2.7-1.5-4.8,2.8-7.7c-1,4.2,2.5,4.3,4.1,5.9C33,83.2,31.3,83.6,29.7,81.5z M36.9,71.8
		c-0.7,0-1.3-0.6-1.3-1.3s0.6-1.3,1.3-1.3h22.7c0.7,0,1.3,0.6,1.3,1.3s-0.6,1.3-1.3,1.3H36.9z M36.9,76.2c-0.7,0-1.3-0.6-1.3-1.3
		c0-0.7,0.6-1.3,1.3-1.3h22.7c0.7,0,1.3,0.6,1.3,1.3c0,0.7-0.6,1.3-1.3,1.3H36.9z M66.2,81.5c-1.6,2.1-3.3,1.7-6.9-1.8
		c1.6-1.7,5.1-1.7,4.1-5.9C67.7,76.7,68.2,78.8,66.2,81.5z"/>
	<path d="M42.3,22.1c1-2.5,2.2-2.4,5.7-2.3c3.4-0.1,4.7-0.2,5.7,2.3c0.5,1.1,0.8,2.3,1.2,3.4c1.4-2.1,0.1-7.4-1.5-8.3
		c-1-0.5-2.7-1.4-5.4-1.4c-2.7,0-4.4,0.9-5.4,1.4c-1.6,0.9-2.9,6.2-1.5,8.3C41.4,24.4,41.8,23.2,42.3,22.1z"/>
	<path d="M47.9,34.9c-2.1,0.1-3.5-0.3-4.6-1.4c0.9,3,2.3,4.1,4.6,3.9c2.4,0.2,3.7-1,4.7-3.9C51.5,34.5,50,35,47.9,34.9z"/>
</g>
</svg>
