<?xml version="1.0" encoding="utf-8"?>
<!-- Generated by IcoMoon.io -->
<!DOCTYPE svg PUBLIC "-//W3C//DTD SVG 1.1//EN" "http://www.w3.org/Graphics/SVG/1.1/DTD/svg11.dtd">
<svg version="1.1" xmlns="http://www.w3.org/2000/svg" xmlns:xlink="http://www.w3.org/1999/xlink" width="5710" height="1024" viewBox="0 0 5710 1024">
<g>
</g>
	<path d="M5474.774 513.092c-37.896-11.854-72.956-37.688-117.248-19.43-8.686 3.574-23.97 9.234-27.162 6.204-25.678-24.342-57.292-9.286-85.512-11.144-16.454-1.076-33.86 12.94-50.688 12.652-19.778-0.338-39.276-12.644-59.080-13.070-76.792-1.666-153.72 1.354-230.444-1.258-77.382-2.63-154.042 3.688-232.622-11.254-73.546-13.998-153.208-6.326-229.662-1.562-37.256 2.318-73.328-27.508-109.94-1.44-58.324-29.974-121.734-9.154-182.558-14.326-32.628-2.776-65.822 0.182-98.722-0.686-31.318-0.816-61.91 2.726-93.036-12.894-17.548-8.834-18.952 6.89-5.12 17.442-4.364 3.488-11.818 10.526-12.618 9.962-20.262-14.388-43.598-14.936-67.748-14.476-32.908 0.626-65.848 0.166-98.774 0.166s-65.856 0-98.78 0-65.848 0-98.774 0c-35.676 0-71.342 0-107.016 0-32.924 0-65.988-1.702-98.738 0.496-31.294 2.092-65.068-10.77-93.652 10.736-28.186-16.202-59.764-11.49-90.286-10.882-20.548 0.426-40.682-4.286-61.276 11.134-12.298 9.234-43.754 13.556-44.126-20.098-0.016-2.134-13.512-4.928-20.956-5.692-2.040-0.2-7.472 8.236-6.994 8.652 22.814 19.856 8.444 22.336-11.76 19.256-11.74-1.806-29.618-13.912-32.89-10.908-23.474 21.512-51.816 11.542-77.398 11.646-214.008 0.868-428.068-1.492-642.030 1.492-83.006 1.164-167.71-16.236-249.292 11.836-80.896-28.958-165.16-5.24-247.462-12.626-16.298-1.466-38.156-6.214-48.318 0.988-24.636 17.46-53.952 23.066-72.886 7.342-31.474-26.12-49.55 24.958-71.602 5.622-20.714-18.154-35.492-0.086-52.926 0.12-9.232 0.096-26.034-4.572-26.588-8.538-3.992-28.594-19.846-29.252-35.536-10.64-18.318 21.738-41.334 19.75-65.554 19.716-41.16-0.036-82.318 0-123.48 0s-82.31 0-123.48 0c-41.16 0-83.5-5.39-123.114 1.63-34.452 6.108-70.76 12.8-103.26 11.342-152.254-6.822-302.462 21.678-467.326 16.254-58.488 8.166-132.478-13.39-202.414 15.116-14.198 5.798-45.046-12.922-40.596 18.64 2.924 20.75 26.842 10.664 40.882 10.692 274.388 0.606 548.76 0.442 823.148 0.46 21.904 0 52.346-8.106 64.164 1.778 39.588 33.072 92.75-7.524 129.45 24.664 41.95-21.538 87.76-7.768 131.61-11.932 3.974-0.374 7.428-5.12 11.126-7.828-4.46-2.24-8.878-6.292-13.39-6.386-27.422-0.59-54.888 0.2-82.292-0.694-5.78-0.2-11.352-5.606-17.010-8.61 4.59-1.952 9.146-5.442 13.788-5.562 24.68-0.554 49.378-0.252 74.084-0.252 27.44 0 54.872 0 82.302 0 24.696 0 49.534 1.476 74.048-0.408 25.558-1.97 55.132 10.934 75.412-14.188 12.41 22.302 38.59-5.544 52.398 11.664 13.762-35.32 43.242 15.986 65.744-10.12 9.278-10.76 46.836-1.778 71.532-1.778 219.508 0 439.010 0 658.52 0 19.204 0 41.472-5.528 56.858 1.388 19.716 8.852 26.51-30.426 47.764-5.746 5.078 5.918 29.644 0.98 43.894-2.932 21.166-5.822 45.454 13.928 55.956 5.58 27.31-21.774 45.238 11.646 70.82 3.202 21.774-7.184 48.788-1.494 73.476-1.494 27.44 0 55.166 2.274 82.258-0.496 52.57-5.354 107.364 14.692 158.728-13.034 8.010-4.33 27.664 12.73 41.654 12.304 12.842-0.39 25.644-26.206 39.346-8.27 15.196 19.88 22.242-10.136 36.856 0.174 17.33 12.22 45.976-16.678 64.806 8.852 0.538 0.73 13.112-8.452 19.672-8.010 13.408 0.894 31.996 11.55 38.73 6.856 17.296-12.036 29.93-21.304 46.636-1.442 33.714-25.774 77.886 27.544 109.82-11.76 90.546 0 181.092-0.504 271.628 0.642 11.446 0.148 30.156 15.422 33.020 12.784 28.178-26.086 62.734-12.61 93.288-12.678 449.986-1.068 899.974 0.068 1349.952-1.918 47.632-0.2 95.084 23.082 142.952 1.51 3.654-1.64 11.838-0.14 14.744 2.612 25.236 24.004 57.128 6.648 85.364 11.342 5.078 0.85 11.586-5.32 17.444-8.27-3.878-3.514-7.082-8.756-11.74-10.222z" />
</svg>
