<?xml version="1.0" encoding="utf-8"?>
<!-- Generated by IcoMoon.io -->
<!DOCTYPE svg PUBLIC "-//W3C//DTD SVG 1.1//EN" "http://www.w3.org/Graphics/SVG/1.1/DTD/svg11.dtd">
<svg version="1.1" xmlns="http://www.w3.org/2000/svg" xmlns:xlink="http://www.w3.org/1999/xlink" width="1024" height="1024" viewBox="0 0 1024 1024">
<g>
</g>
	<path d="M512 27.396c-267.64 0-484.574 216.934-484.574 484.564 0 267.66 216.934 484.632 484.574 484.632s484.574-216.982 484.574-484.632c0-267.63-216.934-484.564-484.574-484.564zM488.584 156.614h45.964v60.222c93.048 10.076 169.434 58.494 175.76 166.198h-110.718c-0.888-41.308-29.734-74.954-65.044-74.954l0.002 138.326c12.548 3.062 25.9 6.23 40.004 10.144 152.276 42.148 155.426 128.714 155.426 181.142 0 44.622-39.926 153.040-195.42 163.414v66.26h-45.858v-66.26c-115.798-8.714-182.784-72.096-194.55-194.608h110.892c-0.88 57.828 35.878 93.716 83.65 102.96l-0.002-163.116c-5.448-2.376-15.060-4.656-25.098-6.946-78.142-21.166-156.286-51.558-156.286-155.484 0-106.998 87.572-161.676 181.276-167.066l0.002-60.232zM488.67 308.088c-35.29 0.010-70.376 21.832-70.376 64.87 0 34.352 20.354 50.716 70.376 62.492v-127.362zM534.596 559.568v149.91c38.246-3.778 84.452-26.364 84.452-76.336-0.002-41.56-22.732-56.292-84.452-73.574z" />
</svg>
