<?xml version="1.0" encoding="utf-8"?>
<!-- Generated by IcoMoon.io -->
<!DOCTYPE svg PUBLIC "-//W3C//DTD SVG 1.1//EN" "http://www.w3.org/Graphics/SVG/1.1/DTD/svg11.dtd">
<svg version="1.1" xmlns="http://www.w3.org/2000/svg" xmlns:xlink="http://www.w3.org/1999/xlink" width="28" height="32" viewBox="0 0 28 32">
<path fill="#444444" d="M13.033 0.012c-0.582 0.026-1.067 0.053-1.38 0.079-4.107 0.321-7.603 1.449-9.687 3.127-0.276 0.221-0.753 0.692-0.954 0.942-0.463 0.574-0.779 1.205-0.913 1.824-0.089 0.418-0.099 0.864-0.024 1.075 0.022 0.059 0.958 1.873 2.082 4.030s2.043 3.928 2.043 3.935c0 0.008-0.911 1.636-2.023 3.62s-2.045 3.648-2.068 3.697c-0.114 0.225-0.11 0.099-0.103 2.942 0.006 2.575 0.008 2.608 0.049 2.823 0.061 0.315 0.132 0.562 0.233 0.818 0.668 1.688 2.388 2.881 4.405 3.056 0.312 0.028 18.261 0.028 18.573 0 1.666-0.146 3.157-0.992 3.995-2.267 0.323-0.495 0.523-0.992 0.643-1.607 0.041-0.215 0.043-0.248 0.049-2.823 0.008-2.843 0.012-2.717-0.103-2.942-0.024-0.049-0.956-1.713-2.068-3.697s-2.023-3.612-2.023-3.62c0-0.008 0.919-1.778 2.043-3.935s2.060-3.971 2.082-4.030c0.105-0.29 0.047-0.921-0.134-1.473-0.16-0.491-0.44-0.986-0.826-1.455-0.203-0.244-0.664-0.698-0.931-0.913-1.437-1.157-3.529-2.051-6.128-2.616-1.323-0.288-2.648-0.461-4.308-0.564-0.333-0.020-2.22-0.039-2.524-0.026zM25.789 6.788c0 0.004-0.954 1.855-2.12 4.115s-2.12 4.113-2.12 4.121c0 0.006 1.013 1.84 2.25 4.073 1.238 2.232 2.256 4.071 2.26 4.083 0.008 0.020-2.415 0.026-12.080 0.026s-12.088-0.006-12.080-0.026c0.004-0.012 1.021-1.851 2.26-4.083 1.236-2.234 2.25-4.066 2.25-4.073s-0.954-1.861-2.12-4.121c-1.165-2.26-2.12-4.111-2.12-4.115s5.314-0.006 11.81-0.006c6.497 0 11.81 0.002 11.81 0.006zM12.636 9.62c-0.136 0.043-0.27 0.134-0.347 0.233-0.108 0.14-1.009 1.556-1.053 1.652-0.061 0.136-0.071 0.315-0.028 0.477 0.041 0.154 0.032 0.14 0.797 1.096 0.31 0.388 0.566 0.712 0.57 0.722 0.002 0.008-0.045 0.026-0.108 0.039-0.201 0.045-0.737 0.231-1.002 0.347-1.771 0.783-3.095 2.358-3.547 4.215-0.106 0.434-0.154 0.763-0.181 1.25l-0.014 0.242h2.429l0.010-0.085c0.006-0.045 0.016-0.162 0.022-0.26 0.053-0.842 0.53-1.83 1.169-2.417 0.751-0.69 1.636-1.043 2.626-1.043s1.875 0.353 2.626 1.043c0.639 0.588 1.116 1.575 1.169 2.417 0.006 0.099 0.016 0.215 0.022 0.26l0.010 0.085h2.429l-0.014-0.242c-0.028-0.487-0.075-0.816-0.181-1.25-0.451-1.857-1.776-3.433-3.547-4.215-0.264-0.116-0.8-0.302-1.002-0.347-0.063-0.014-0.11-0.032-0.108-0.039 0.004-0.010 0.26-0.333 0.57-0.722 0.765-0.956 0.755-0.942 0.797-1.096 0.043-0.162 0.034-0.341-0.028-0.477-0.043-0.097-0.944-1.512-1.053-1.652-0.077-0.101-0.213-0.189-0.353-0.235-0.11-0.034-0.205-0.036-1.343-0.034-1.122 0-1.236 0.004-1.337 0.036z"></path>
</svg>
