<?xml version="1.0" encoding="utf-8"?>
<!-- Generated by IcoMoon.io -->
<!DOCTYPE svg PUBLIC "-//W3C//DTD SVG 1.1//EN" "http://www.w3.org/Graphics/SVG/1.1/DTD/svg11.dtd">
<svg version="1.1" xmlns="http://www.w3.org/2000/svg" xmlns:xlink="http://www.w3.org/1999/xlink" width="1556" height="1024" viewBox="0 0 1556 1024">
<g>
</g>
	<path d="M294.87 616.028c-23.254 26.652-98.544 81.814-159.544 92.242-0.27 0.052-0.556 0.070-0.842 0.070-8.666 0-25.856-17.286-30.662-30.83-0.86-2.428-1.978-6.758 0.17-8.502 35.882-29.070 100.796-61.422 117.718-61.422 0.884 0 1.398 0.104 1.668 0.18 0.948 0.334 3.178 3.166 4.384 4.692 2.638 3.346 4.658 5.916 7.93 5.974 4.078-0.426 9.784-1.51 12.27-5.922 1.878-3.342 1.516-7.676-1.258-13.528-0.632-1.052-63.476-105.788-77.9-164.998-7.044-28.812 9.83-58.976 51.574-92.212 38.094-30.34 86.022-40.55 102.038-40.55 3.956 0 5.4 0.544 5.746 0.708 6.73 3.212 14.676 8.842 16.636 13.166-0.34 1.082-1.738 3.71-3.704 6.624-12.956 19.264-54.086 55.22-76.502 69.028-3.488 2.142-8.18 0.030-12.728-2.234-3.85-1.914-7.87-3.884-11.726-3.248-5.688 0.954-10.458 4.4-13.41 9.708-2.854 5.12-3.524 11.324-1.692 15.798 10.48 25.646 22.972 49.93 35.050 73.406 15.244 29.626 31.008 60.264 42.202 92.944 5.712 16.658 5.43 24.196-7.414 38.906zM1473.63 585.692c4.22 1.674 11.58 6.712 14.628 9.24-39.344 59.040-80.21 90.522-124.588 96.18-3.218-2.318-12.552-14.734-12.54-18.28 12.798-10.568 33.066-36.11 40.382-53.71 7.208-17.402 7.32-24.3 5.864-34.914-0.83-6.044-3.534-7.32-5.664-7.32-1.352 0-2.698 0.568-4.008 1.698l-1.212 1.246c-16.588 23.932-30.656 42.012-43.008 55.262-36.494 39.158-55.506 45.314-62.656 47.632-8.21 2.626-16.040 3.96-23.284 3.96-22.708 0-36.11-12.948-43.348-23.816-5.81-8.684-7.584-18.062-8.878-24.91-1.182-6.232-2.112-11.16-6.524-11.16-1.23 0-2.468 0.474-4.214 1.826-43.118 46.572-65.248 56.348-76.222 56.348-1.122 0-2.206-0.104-3.206-0.31-19.414-4.044-21.966-18.988-24.214-32.17-1.772-10.416-3.604-21.188-15.148-21.188-1.346 0-2.82 0.158-4.384 0.474-31.14 6.272-72.43 50.75-81.212 60.546-5.676-3.366-21.292-12.58-28.65-16.448-0.118-2.778 0.404-10.048 0.702-14.184 0.668-9.34 0.696-9.696-0.386-10.866l-0.89-0.942-2.318 0.012-0.802 0.638c-21.574 17.186-36.836 25.19-48.034 25.19-4.178 0-7.828-1.082-11.836-3.5-14.962-9.040-21.394-21.778-28.848-38.79l-1.984-4.518-3.012 3.908c-18.958 24.57-62.224 54.81-77.466 61.176 0 0-0.118 0.030-0.392 0.030-7.93 0.006-39.516-17.016-41.634-40.018l-0.328-3.558-3.424 1.024c-6.502 1.944-11.808 3.236-16.6 3.242-8.456 0-17.712-3.428-28.046-28.292l-0.872-2.1c-5.014-12.060-9.352-22.47-13.506-35.126l-1.896-5.77-3.33 5.078c-21.598 32.966-68.064 89.152-95.566 104.508 0 0.006-0.228 0.112-0.848 0.112-6.248 0-22.978-9.17-28.618-16.794-1.304-1.76-1.476-2.79-1.376-3.12 3.29-10.772 11.486-51.34 12.17-61.726l0.668-10.186-5.964 8.286c-3.166 4.394-7.19 9.31-11.622 14.178-1.142 1.2-3.020 3.406-5.478 6.302-12.75 15.010-46.63 54.904-68.234 54.91v0c-1.070 0-2.108-0.104-3.078-0.304-19.426-4.044-21.966-19.128-24.208-32.43-1.766-10.516-3.6-21.382-15.174-21.382-1.34 0-2.81 0.152-4.358 0.468-31.99 6.46-75.15 53.628-82.364 61.726-2.948-1.176-10.386-6.122-15.484-9.504-4.546-3.024-8.878-5.898-12.020-7.648-0.118-2.738 0.42-9.93 0.726-14.020 0.69-9.262 0.714-9.626-0.374-10.796l-0.89-0.948-2.096 0.012-0.69 0.404c-14.68 8.618-21.89 14.856-25.764 18.204-1.042 0.902-2.108 1.826-2.744 2.266-0.516-0.492-1.34-1.452-2.146-2.382-1.28-1.492-2.968-3.446-5.318-5.868 5.142-6.542 28.632-30.13 40.838-41.516 9.1-8.478 17.49-18.714 26.368-29.55 11.744-14.318 25.056-30.55 42.47-45.488 20.44-17.542 44.044-30.96 64.758-36.8 9.222-2.58 20.516 15.148 28.554 27.854 0.69 1.094 1.362 2.154 2.020 3.178-0.446 0.17-0.92 0.35-1.376 0.522-2.978 1.1-7.478 2.778-12.78 5.616-42.246 22.604-60.762 38.104-94.32 78.948l4.084 4.142c15.932-12.692 26.554-16.238 35.092-19.1 10.602-3.546 17.736-5.94 24.786-22.816l7.174-0.012 31.522 0.022c-0.070 0.398-0.146 0.83-0.234 1.28-1.046 5.794-2.798 15.494-2.054 21.406 1.388 10.878 6.834 22.774 17.952 23.522 12.728 0.884 26.664-10.596 45.308-29.632 12.814-14.692 27.618-37.948 39.608-62.218 3.008-6.084 5.688-12 7.94-16.986 2.5-5.524 4.658-10.298 5.588-11.85 0 0 0.216-0.094 0.808-0.094 7.144 0 27.778 11.298 34.366 16.658 0.006 0.252 0.022 0.532 0.070 0.83-2.224 24.22-9.882 57.578-14.008 75.554l-3.278 14.382 6.886-6.268c32.598-29.69 52.488-58.684 64.372-76.010 6.038-8.802 11.738-17.11 14.172-17.76 0.34-0.094 0.784-0.14 1.292-0.14 2.874 0 6.892 1.428 8.064 1.902 1.538 1.766 3.464 11.756 5.16 20.586 3.646 18.918 9.152 47.518 21.868 71.808 2.288 4.358 5.518 9.362 10.276 9.362 5.394 0 9.478-6.326 14.634-15.23 12.142-20.31 36.794-46.010 65.95-68.748 14.418-11.258 35.402-23.658 51.018-30.158l1.504-0.626 0.258-1.608c7.402-45.91 41.65-116.864 76.42-143.098 4.266-3.194 15.946 0 21.018 5.342 1.276 1.34 1.978 2.662 1.926 3.622-2.61 49.104-18.444 100.328-48.414 156.584l-0.426 0.802c-8.97 16.83-16.718 31.358-17.986 40.86-3.758 28.074 2.136 48.884 16.15 57.092 4.078 2.4 8.618 3.616 13.488 3.616 14.26 0 28.568-10.34 37.146-19.942 6.506-6.858 12.74-14.482 19.332-22.55 11.34-13.874 24.19-29.602 40.796-43.832 20.458-17.554 44.060-30.966 64.758-36.804 9.256-2.61 20.492 15.12 28.526 27.8 0.702 1.106 1.382 2.188 2.054 3.23-0.446 0.17-0.914 0.344-1.368 0.516-2.978 1.106-7.478 2.786-12.786 5.624-42.288 22.626-60.802 38.128-94.32 78.948l4.084 4.15c15.94-12.692 26.56-16.244 35.098-19.106 10.602-3.546 17.736-5.94 24.786-22.816l7.168-0.012 31.516 0.022c-0.076 0.42-0.158 0.884-0.252 1.368-1.1 6.15-2.778 15.436-2.036 21.318 1.388 10.878 6.828 22.774 17.934 23.522l0.68 0.022c13.74 0 46.354-29.146 60.768-44.752l0.778-0.842v-1.142c-0.006-6.57 0.38-11.51 0.83-17.214 0.362-4.652 0.762-9.744 1.012-16.49 2.544-68.472 42.744-153.588 87.784-185.866 4.688-3.354 11.304-5.278 18.164-5.278 9.34 0 20.176 3.78 22.598 14.388 12.774 56.128-29.504 127.472-62.406 176.258-4.068 6.028-7.314 10.89-10.206 15.224-4.874 7.314-8.736 13.102-13.84 20.416-8.158 11.674-0.638 37.502 4.366 45.958 4.512 7.618 11.194 11.474 19.854 11.474 19.526 0 43.494-20.426 50.368-26.688 19.662-17.906 39.246-41.668 53.744-65.22 0.736-1.224 1.34-2.2-3.278-11.27 1.154-1.47 3.17-4.002 5.664-7.126 7.36-9.256 19.222-24.166 24.892-31.926 14.208 8.52 31.206 29.86 35.396 40.368 9.112 22.944 7.228 46.67-5.746 72.528-3.726 7.438-4.682 8.994-6.584 12.076l-0.516 0.842 3.996 4.036c12.948-7.764 30.96-28.426 41.726-40.774 2.5-2.92 5.084-5.892 6.46-7.32zM1244.22 529.994l0.662 6.84 4.476-5.22c22.13-25.804 51.17-83.15 48.198-117.93l-0.516-6.050-4.412 4.172c-26.63 25.208-51.51 85.956-48.408 118.186zM863.402 545.188l-5.39 3.786c-29.702 20.872-59.088 44.482-63.762 83.072-0.286 2.388 1.44 5.566 3.154 7.502 1.95 2.188 4.2 3.346 6.524 3.346 1.346 0 2.646-0.392 3.85-1.164 20.592-13.112 44.162-32.902 52.446-42.464l0.602-0.69 0.1-0.914c0.292-2.756 0.176-5.594 0.030-9.192-0.286-6.97-0.72-17.502 1.644-36.746l0.802-6.536zM291.096 599.018c-35.338-115.496-74.728-171.212-74.728-171.212zM293.894 598.162c-35.068-114.618-74.74-171.488-75.138-172.044l-4.776 3.376c0.392 0.556 39.562 56.766 74.326 170.382l5.588-1.714zM894.934 562.96c42.786-79.294 55.384-157.332 55.384-157.332zM953.204 406.088l-5.77-0.93c-0.122 0.772-13.008 78.456-55.074 156.408l5.156 2.778c42.528-78.814 55.564-157.468 55.688-158.258zM1231.578 469.22c0 0-21.382 54.12-21.382 120.826zM1234.294 470.298l-5.442-2.146c-0.216 0.544-21.586 55.402-21.586 121.904h5.85c0-65.344 20.966-119.222 21.176-119.754zM1430.31 580.49c2.504-23.92-27.702-61.68-27.702-61.68zM1404.894 516.986l-4.57 3.658c0.298 0.362 29.426 37.082 27.080 59.55l5.816 0.608c2.598-24.832-27.062-62.236-28.328-63.816zM465.358 599.316c0 0-7.554 25.178 5.026 39.030zM472.556 636.378c-11.304-12.446-4.464-35.986-4.39-36.22l-5.606-1.68c-0.328 1.094-7.876 26.934 5.664 41.832l4.33-3.932zM594.996 621.978c20.146-56.642 17.636-84.332 17.636-84.332zM615.542 537.384l-5.828 0.522c0.022 0.276 2.154 27.918-17.478 83.090l5.512 1.966c20.136-56.594 17.9-84.424 17.794-85.576zM811.488 559.040c0 0-27.69 16.366-54.126 66.706zM812.98 561.556l-2.978-5.032c-1.16 0.686-28.714 17.374-55.232 67.87l5.184 2.722c25.652-48.878 52.756-65.396 53.026-65.558zM1075.808 528.836c0 0-32.732 13.85-84.342 79.294zM1076.954 531.526l-2.294-5.39c-1.358 0.584-34.010 14.898-85.496 80.176l4.592 3.622c50.362-63.862 82.868-78.276 83.196-78.41zM1298.572 664.764c40.274-28.946 69.222-71.74 69.222-71.74zM1370.218 594.668l-4.844-3.282c-0.286 0.42-29.118 42.686-68.51 71.002l3.416 4.752c40.228-28.918 69.644-72.038 69.936-72.47zM1445.064 672.516c-2.592 2.376-4.032 5.254-4.352 8.618-0.298 3.37 0.638 6.238 2.778 8.644 2.158 2.364 4.94 3.564 8.344 3.564 3.37 0 6.342-1.2 8.936-3.564 2.58-2.4 4.014-5.266 4.33-8.644 0.276-3.358-0.638-6.238-2.81-8.618-2.146-2.352-4.926-3.564-8.308-3.564-3.366-0.006-6.36 1.206-8.918 3.564zM1461.99 691.106c-2.996 2.778-6.448 4.15-10.356 4.15-3.92 0-7.134-1.368-9.632-4.15-2.492-2.756-3.54-6.102-3.212-10 0.356-3.884 2.048-7.198 5.014-9.942 3.020-2.768 6.424-4.114 10.356-4.114 3.884 0 7.086 1.346 9.614 4.114 2.504 2.734 3.61 6.056 3.258 9.942-0.386 3.896-2.042 7.25-5.044 10zM1456 675.818c-0.662-0.362-1.726-0.538-3.258-0.538h-2.33l-0.516 5.518h2.48c1.142 0 2.060-0.104 2.638-0.334 1.1-0.432 1.704-1.212 1.808-2.388 0.1-1.118-0.164-1.872-0.824-2.258zM1453.29 673.36c1.932 0 3.324 0.18 4.196 0.55 1.544 0.674 2.242 1.954 2.060 3.908-0.122 1.358-0.72 2.422-1.784 3.060-0.596 0.344-1.346 0.584-2.33 0.756 1.188 0.17 2 0.686 2.504 1.498s0.674 1.608 0.608 2.388l-0.070 1.106c-0.036 0.362-0.082 0.756-0.082 1.164 0 0.398 0.048 0.662 0.104 0.802l0.094 0.194h-2.638c0-0.022 0-0.104-0.036-0.136 0-0.058 0-0.118 0-0.194l-0.036-0.48 0.104-1.224c0.17-1.796-0.24-2.96-1.142-3.524-0.55-0.344-1.52-0.504-2.984-0.504h-2.112l-0.562 6.056h-2.674l1.358-15.43h5.418zM210.424 731.668c0-1.076-0.596-1.498-1.394-1.498-2.996 0-21.586 0.854-63.16 0.854-3.194 0-6.19 0-9.994 0-3.588-0.216-7.794-0.216-13.586-0.432-0.596 0-0.596 0.432-0.596 0.65 0 1.088 0.194 2.58 0.796 2.802l8.596 1.944c1.206 0.216 1.796 1.076 1.796 3.032 0.404 7.134 1 49.86 1 58.082 0 8.846 0.808 51.598 0.608 59.14-0.2 2.17-0.608 2.592-2 3.032l-8.192 1.726c-0.602 0.204-1.2 1.726-1.2 2.81 0 0.42 0 0.638 0.602 0.638 6.6-0.216 15.992-0.42 25.776-0.42 11.2 0 22.194 0.204 28.386 0.42 0.404 0 0.602-0.216 0.602-0.638 0-1.088-0.602-2.604-1.188-2.604l-13.6-2.158c-1.394-0.204-2.388-0.626-2.388-3.020 0-4.746 0.59-43.814 0.79-50.948 0-1.292 0.398-1.944 1.802-1.944 11.398-0.854 31.182-2.158 39.574-3.020 1.2-0.216 1.596-2.592 1.596-3.682 0-0.204-0.204-0.42-0.398-0.42-7.198 0-32.37-0.854-42.364-1.292 0-6.478 1-45.338 1.592-57.426 0-1.726 0.602-2.388 2.2-2.388 3.202 0 20.984 1.75 29.38 3.464 2.388 0.432 3.394 1.088 4.196 3.020 3.394 6.928 6.4 13.61 9.392 20.516 0.204 0.65 0.398 0.65 0.802 0.65 0.596 0 2.4-1.076 2.4-1.944l-1.826-28.94zM297.574 865.736c39.966 0 61.164-28.696 61.164-74.26 0-36.274-18.994-62.17-54.378-62.17-39.976 0-63.36 31.082-63.36 74.044 0 40.586 20.996 62.388 56.366 62.388h0.204zM301.178 861.646c-17.986 0-28.79-29.152-28.79-60.674 0-42.1 10.596-67.784 27.578-67.784 17.794 0 26.982 30.446 26.982 61.966 0 40.134-7.19 66.49-25.578 66.49h-0.194zM393.906 731.030c-0.596 0-0.596 0.216-0.596 0.638 0 1.292 0.398 2.82 0.994 2.82l6.788 1.498c2 0.446 2.802 1.52 2.4 3.682-0.596 7.108-4.39 36.478-4.592 64.32 0 49.872 21.586 61.75 51.164 61.75 33.978 0 55.758-20.504 55.964-63.248 0-27.854-1.796-47.29-2.996-63.476-0.204-1.954 0.398-2.58 2-3.032l5.986-1.292c0.608-0.204 1.2-1.51 1.2-3.032 0-0.42-0.194-0.638-0.596-0.638h-47.772c-0.596 0-0.596 0.216-0.596 0.638 0 1.088 0.194 2.82 0.994 2.82l9.186 1.498c1.394 0.446 2.206 1.076 2.4 3.248 1.596 14.458 2 41.452 2 63.898 0 43.622-6.198 58.514-23.382 58.514-15.394 0-24.786-18.79-24.786-57.426 0-25.266 0.398-46.198 2.194-65.418 0.204-1.944 1.006-2.592 2.604-2.81l8.994-1.498c0.608 0 0.994-1.532 0.994-3.044 0-0.42 0-0.42-0.596-0.42h-49.948zM539.004 731.030c-0.596 0-0.596 0.216-0.596 0.638 0 1.292 0.398 2.82 0.994 3.032l7.998 1.738c2.194 0.42 2.802 1.932 2.996 4.308 0.398 6.7 1.596 49.006 1.796 58.514 0.204 12.076 1.404 50.298 1.404 56.548 0 2.376-0.802 3.032-2.194 3.236l-10.192 2.388c-0.608 0-1.006 1.51-1.006 2.376 0 0.42 0 0.638 0.398 0.638 3.394-0.216 9.602-0.42 16.594-0.42 7.794 0 14.986 0.204 17.986 0.42 0.596 0 0.596-0.216 0.596-0.638 0-1.088-0.386-2.158-0.994-2.376l-12.804-2.388c-1.394-0.41-2.194-1.076-2-3.236 0.204-13.6 2-59.368 2.81-75.564 0-1.714 0-4.090 0.194-7.108l0.994-0.216c0.802 1.292 2.206 3.67 2.996 4.962 15.804 22.88 44.39 64.332 60.78 85.712 1.596 2.146 3.394 2.592 5.19 2.592 2.4 0 7.198-1.088 9.392-1.738 0.802-0.42 1.2-0.854 1.2-1.726 0.204-7.77 1.2-52.674 1.808-64.764 0.596-15.974 2.194-49.222 2.79-56.572 0.398-3.658 1.212-4.734 3.202-5.18l7.396-1.714c0.608-0.216 1.006-1.954 1.006-2.82 0-0.42 0-0.638-0.608-0.638h-38.574c-0.398 0-0.398 0.216-0.398 0.638 0 0.866 0.398 2.604 0.994 2.82l10.994 1.714c2 0.446 3.008 1.52 3.202 4.102 1.596 15.324 2.4 68.228 2.802 84.412 0 3.032 0.204 6.262 0.204 9.712l-0.812 0.65c-1.188-2.158-2.388-4.522-3.6-6.906-14.388-23.106-48.156-80.744-58.754-96.080-0.398-0.65-1.006-1.076-2-1.076h-34.184zM694.904 737.062c1.596 0.228 2 1.088 2 3.248 0.204 6.688 0.812 47.076 0.812 56.56 0.194 9.076 0.79 50.744 0.386 59.152 0 2.388-0.994 3.020-2.388 3.248l-8.802 1.932c-0.596 0-1.006 1.52-1.006 2.604 0 0.42 0 0.638 0.608 0.638 5.202-0.216 13.394-0.42 21.188-0.42 4.592 0 17.588 0.42 23.586 0.42 41.37 0 72.352-27.196 72.352-73.826 0-40.814-25.382-60.878-69.164-60.878-17.386 0-40.362 1.714-49.568 3.020-0.596 0-0.596 0.432-0.596 0.866 0 1.076 0.596 2.58 1.2 2.58l9.386 0.86zM732.284 860.57c-4.196 0-6.8-1.532-6.8-3.896-0.386-6.466 1.596-104.49 3.008-119.164 0.194-2.604 0.994-3.682 4.592-3.682 25.588 0 39.58 23.106 39.58 57.426 0 53.978-22.792 69.316-40.17 69.316h-0.21zM883.59 730.592c-7.988 0-10.596 1.076-12.388 6.262-8.994 26.342-29.784 92.616-39.58 118.528-0.994 2.58-2 3.452-3.6 3.884l-4.996 1.726c-0.596 0.204-0.994 2.158-0.994 2.81 0 0.42 0 0.638 0.398 0.638 3.992-0.216 9.988-0.42 16.788-0.42 7.988 0 15.986 0.204 20.984 0.42 0.398 0 0.608 0 0.608-0.42 0-1.304-0.608-2.82-1.2-2.82l-10.398-2.158c-1.394-0.41-2.194-1.076-2-3.658 1.2-7.77 5.004-25.254 6.198-31.522 0.204-1.076 0.802-1.726 1.404-1.726 10.386-0.866 33.576-1.52 42.57-1.738 2.194 7.35 9.59 28.068 11.796 35.19 0.398 1.738 0.194 3.248-1.394 3.452l-10.802 1.954c-0.608 0.204-1.2 1.726-1.2 3.032 0 0.204 0 0.42 0.596 0.42 5.408-0.216 16.196-0.42 27.396-0.42 9.988 0 19.592 0.42 23.78 0.42 0.398 0 0.596-0.216 0.596-0.42 0-1.52-0.398-2.592-0.994-2.82l-7.396-2.158c-1.2-0.41-2.206-1.486-2.592-2.802-7.998-26.548-28.596-101.042-34.986-124.356-0.204-0.432-0.994-0.854-1.596-0.854-4.4-0.216-9.794-0.432-16.788-0.432h-0.21zM874.192 747.654c1.2 3.020 2 5.6 2.604 7.542 5.394 19.438 15.782 50.744 19.188 61.106-8.606 0.216-29.99-0.65-39.174-1.944-0.608 0-1.2-0.662-1.006-1.52 3.802-14.892 10.192-39.93 15.19-57.854 0.398-1.944 1.006-4.102 2-7.338h1.2zM1067.476 731.452c0-1.076-0.398-1.51-1.2-1.51-1.394 0-5.6 0.228-13.99 0.432-8.404 0.432-20.996 0.65-39.174 0.65-18.79 0-31.382-0.432-39.784-0.65-8.18-0.432-11.99-0.638-13.586-0.638-0.994 0-1.394 0.638-1.394 1.51l-2 31.738c0 0.65 1.808 1.726 2.4 1.726 0.398 0 0.596-0.216 0.802-0.65l9.186-21.586c1.2-2.58 2.4-3.884 4.4-4.536 6.8-1.944 20.586-3.032 23.99-3.236 0.194 11.006 1.006 51.164 1.006 59.808 0.194 10.146 0.994 52.89 0.79 61.522 0 2.158-0.204 2.81-1.596 3.020l-10.18 2.158c-0.608 0-1.006 1.738-1.006 2.82 0 0.204 0 0.42 0.596 0.42 4.4-0.216 14.196-0.42 24.786-0.42 11.586 0 22.592 0.204 26.982 0.42 0.608 0 0.608-0.216 0.608-0.638 0-1.304-0.41-2.604-1.006-2.604l-9.988-1.932c-1.404-0.228-2.206-0.638-2.206-2.802 0-8.644 0.608-49.018 0.802-61.106 0.398-11.44 1.2-47.918 1.808-60.662 3.6 0.204 17.588 1.292 24.376 3.452 2 0.65 3.008 1.944 4.002 4.318l8.788 21.808c0.204 0.216 0.41 0.432 0.608 0.432 0.802 0 2.4-0.866 2.4-1.726l-1.218-31.546zM1096.252 731.030c-0.398 0-0.398 0.216-0.398 0.638 0 1.738 0.398 3.032 1.006 3.236l7.59 1.532c1.608 0.42 2.206 1.932 2.206 4.308 0.398 6.248 0.802 40.158 0.994 55.694 0.204 14.698 0.802 51.176 0.608 59.808 0 1.944-0.398 2.592-1.808 2.802l-9.186 1.954c-0.608 0.204-1.006 1.726-1.006 2.81 0 0.42 0 0.638 0.398 0.638 4.592-0.216 13.586-0.42 23.99-0.42 11.188 0 21.99 0.204 25.382 0.42 0.398 0 0.596-0.216 0.596-0.638 0-0.866-0.386-2.376-1.188-2.604l-8.204-1.932c-1.394-0.432-2.182-0.854-2.182-2.592 0-2.81 0.584-49.86 0.79-57.866 0.204-9.93 0.802-45.552 1.796-59.362 0-1.726 0.608-2.802 2-3.020l7.806-1.532c0.79-0.204 0.994-2.146 0.994-3.020 0-0.638 0-0.854-0.398-0.854h-51.79zM1236.366 865.736c39.976 0 61.164-28.696 61.164-74.26 0-36.274-18.994-62.17-54.366-62.17-39.976 0-63.36 31.082-63.36 74.044 0 40.586 20.984 62.388 56.354 62.388h0.204zM1239.964 861.646c-17.986 0-28.79-29.152-28.79-60.674 0-42.1 10.596-67.784 27.588-67.784 17.794 0 26.982 30.446 26.982 61.966 0 40.134-7.198 66.49-25.588 66.49h-0.194zM1326.298 731.030c-0.596 0-0.596 0.216-0.596 0.638 0 1.292 0.398 2.82 1.006 3.032l7.988 1.738c2.194 0.42 2.802 1.932 3.008 4.308 0.398 6.7 1.586 49.006 1.796 58.514 0.204 12.076 1.394 50.298 1.394 56.548 0 2.376-0.802 3.032-2.194 3.236l-10.192 2.388c-0.608 0-1.006 1.51-1.006 2.376 0 0.42 0 0.638 0.398 0.638 3.406-0.216 9.602-0.42 16.594-0.42 7.794 0 14.99 0.204 17.986 0.42 0.608 0 0.608-0.216 0.608-0.638 0-1.088-0.398-2.158-1.006-2.376l-12.792-2.388c-1.404-0.41-2.194-1.076-2-3.236 0.194-13.6 2-59.368 2.802-75.564 0-1.714 0-4.090 0.194-7.108l0.994-0.216c0.812 1.292 2.206 3.67 3.008 4.962 15.792 22.88 44.378 64.332 60.768 85.712 1.596 2.146 3.394 2.592 5.19 2.592 2.4 0 7.198-1.088 9.404-1.738 0.79-0.42 1.188-0.854 1.188-1.726 0.204-7.77 1.2-52.674 1.808-64.764 0.596-15.974 2.194-49.222 2.79-56.572 0.398-3.658 1.212-4.734 3.212-5.18l7.384-1.714c0.608-0.216 1.006-1.954 1.006-2.82 0-0.42 0-0.638-0.596-0.638h-38.584c-0.398 0-0.398 0.216-0.398 0.638 0 0.866 0.398 2.604 1.006 2.82l10.984 1.714c2 0.446 3.008 1.52 3.202 4.102 1.596 15.324 2.4 68.228 2.802 84.412 0 3.032 0.204 6.262 0.204 9.712l-0.802 0.65c-1.2-2.158-2.4-4.522-3.6-6.906-14.388-23.106-48.168-80.744-58.766-96.080-0.398-0.65-0.994-1.076-2-1.076h-34.19zM142.874 974.082c20.568 0 32.406-24.080 32.406-42.844 0-11.532-6.014-19.362-17.76-19.362-20.264 0.094-32.71 23.67-32.71 42.64 0 12.036 6.424 19.568 17.964 19.568h0.1zM144.478 972.174c-7.432 0-11.134-7.432-11.134-17.156 0-16.858 9.028-41.334 22.874-41.334 7.724 0 10.538 7.624 10.538 16.448 0 16.466-8.128 42.048-22.17 42.048h-0.104zM228.516 928.23c-1.304 0.104-2.012 0.596-2.218 2.012-0.492 2.3-2 8.214-2.802 10.732-3.312 10.122-12.446 28.684-19.964 28.684-2.81 0-3.92-2.206-3.92-7.222 0-8.718 3.524-23.37 5.73-32.1 0.398-1.596-0.104-2.604-1.51-2.604-3.512 0-8.42 1.2-10.936 2.604-0.104 0.104-0.194 0.104-0.194 0.31 0 0.398 0.398 0.89 0.89 0.802 1.316-0.398 2.722-0.708 3.716-0.708 1.006 0 1.51 0.608 1.212 1.704-2.71 9.234-6.32 22.182-6.32 31.008 0 7.028 2.504 10.638 7.016 10.638 9.234 0 17.46-12.844 21.078-20.468 0.504-1.212 0.802-2.112 1.404-3.416h0.398c-0.31 1.304-0.504 2.412-0.708 3.524-0.994 4.512-2.802 13.042-3.61 16.946-0.094 0.608-0.194 1.404-0.194 1.808 0 0.902 0.504 1.608 1.704 1.608 4.014 0 8.836-1.006 11.234-2.412 0.204 0 0.31-0.104 0.31-0.298 0-0.398-0.398-0.902-0.902-0.708-1.404 0.504-2.616 0.708-3.622 0.708-0.696 0-1.1-0.398-0.89-2.012 0.398-2.902 2.3-13.54 3.406-19.064 1.106-6.524 3.108-17.050 4.014-21.772 0.104-0.298-0.104-0.504-0.398-0.504l-3.92 0.204zM282.74 927.726c-9.426 0-16.652 13.944-20.158 22.568-0.398 0.902-0.802 1.908-1.212 2.81h-0.398c0.204-0.802 0.504-1.908 0.708-2.81 1.404-6.32 3.61-15.554 4.512-19.866 0.398-1.704-0.104-2.71-1.51-2.71-4.114 0-9.724 1.596-12.036 2.914-0.204 0.094-0.31 0.094-0.31 0.298 0 0.504 0.608 0.994 1.106 0.902 1.2-0.504 2.71-0.902 3.61-0.902 0.696 0 1.2 0.398 1.006 1.896-0.504 3.020-1.808 11.142-2.914 17.566-1.404 7.828-3.008 17.256-3.908 22.674-0.104 0.298 0.094 0.608 0.398 0.608l3.716-0.204c1.304 0 1.808-0.596 2.1-1.808 0.504-2.412 2.1-8.526 2.914-11.030 4.014-11.85 11.532-27.69 18.958-27.69 0.902 0 1.808 0.094 2.31 0.398 0.504 0.194 0.994 0.298 1.404 0.298 1.596 0 3.512-2.604 3.512-4.412 0-0.204-0.104-0.41-0.31-0.504-0.696-0.608-1.704-1.006-3.406-1.006h-0.094zM370.476 925.614c0-8.214-6.020-13.336-18.66-13.336-7.724 0-16.248 0.902-19.268 1.304-0.194 0-0.298 0.104-0.298 0.298 0 0.608 0.204 1.106 0.608 1.106l3.704 0.194c0.608 0.104 0.914 0.504 0.812 1.416-0.398 2.698-2.71 15.648-4.722 27.18-1.704 10.134-3.802 22.482-4.512 26.092-0.194 1.006-0.696 1.2-1.404 1.404l-4.114 0.902c-0.298 0.104-0.504 0.708-0.504 1.106 0 0.194 0 0.194 0.204 0.194 2.206-0.104 5.312-0.194 8.632-0.194 3.3 0 6.928 0.094 10.538 0.194 0.194 0 0.298-0.104 0.298-0.298 0-0.398-0.204-1.006-0.398-1.006l-5.922-1.106c-0.708-0.094-1.006-0.398-0.802-1.498 0.994-5.224 3.108-16.056 4.206-20.778 0.902 0.104 2.71 0.204 4.318 0.204 14.342 0 27.292-10.936 27.292-23.284v-0.094zM362.152 925.714c0 10.638-8.526 21.476-18.86 21.476-2.516 0-4.026-0.398-3.814-1.51 1.404-7.42 4.512-22.266 6.126-29.496 0.398-1.498 1.404-2.206 4.81-2.206 7.624 0 11.738 4.722 11.738 11.632v0.104zM416.996 927.726c-9.438 0-16.664 13.944-20.17 22.568-0.398 0.902-0.802 1.908-1.2 2.81h-0.398c0.194-0.802 0.492-1.908 0.696-2.81 1.404-6.32 3.61-15.554 4.512-19.866 0.398-1.704-0.104-2.71-1.51-2.71-4.114 0-9.724 1.596-12.036 2.914-0.204 0.094-0.298 0.094-0.298 0.298 0 0.504 0.596 0.994 1.1 0.902 1.2-0.504 2.71-0.902 3.61-0.902 0.708 0 1.2 0.398 1.006 1.896-0.504 3.020-1.808 11.142-2.914 17.566-1.404 7.828-3.008 17.256-3.908 22.674-0.104 0.298 0.104 0.608 0.398 0.608l3.716-0.204c1.304 0 1.808-0.596 2.1-1.808 0.504-2.412 2.112-8.526 2.914-11.030 4.014-11.85 11.532-27.69 18.958-27.69 0.902 0 1.808 0.094 2.31 0.398 0.504 0.194 1.006 0.298 1.404 0.298 1.596 0 3.512-2.604 3.512-4.412 0-0.204-0.104-0.41-0.298-0.504-0.708-0.608-1.704-1.006-3.416-1.006h-0.088zM443.44 974.082c14.846 0 25.78-16.248 25.78-30.802 0-9.34-5.12-15.554-15.050-15.554-14.342 0-25.78 16.248-25.78 31.094 0 9.532 5.518 15.256 14.95 15.256h0.1zM444.844 972.274c-5.418 0-8.526-5.326-8.526-12.948 0-12.832 6.916-29.796 16.754-29.796 5.612 0 8.214 5.418 8.214 12.744 0 12.34-6.32 30-16.356 30h-0.088zM496.974 953.302c0.194-1.1 0.398-2.3 0.696-3.406 1.51-6.32 3.622-15.648 4.512-19.462 0.31-1.704-0.194-2.71-1.596-2.71-4.114 0-9.738 1.596-12.036 2.914-0.204 0.094-0.31 0.094-0.31 0.298 0 0.398 0.504 0.994 1.106 0.802 1.304-0.398 2.802-0.802 3.61-0.802 0.696 0 1.2 0.504 0.902 2.012-0.608 4.412-1.908 11.93-2.81 16.946-1.006 6.226-3.212 18.87-4.114 23.178-0.104 0.398 0.104 0.608 0.298 0.608l3.92-0.204c1.304 0 1.808-0.802 2.1-2.206 0.398-2.012 2.1-8.432 2.914-10.936 3.406-9.724 12.744-26.894 19.656-26.894 3.020 0 4.026 2.914 4.026 7.828 0 7.624-3.524 24.080-5.12 31.702-0.104 0.398 0 0.708 0.298 0.708l4.014-0.204c1.404 0 1.808-0.802 2.012-2.012 0.398-1.596 2.012-8.116 3.008-11.532 3.416-10.432 12.446-26.49 19.268-26.49 3.008 0 4.014 2.914 4.014 7.93 0 6.928-3.406 23.978-4.81 29.796-0.104 0.504-0.204 1.106-0.204 1.51 0 0.696 0.504 1.404 1.808 1.404 3.008 0 7.624-0.802 10.24-2.412 0.194 0 0.194-0.104 0.194-0.204 0-0.398-0.298-0.89-0.696-0.802-1.404 0.504-2.81 0.708-3.814 0.708-1.1 0-1.404-0.504-1.1-1.714 2.206-9.122 5.816-23.272 5.816-32 0-6.020-1.808-9.93-6.126-9.93-9.83 0-18.262 14.242-21.368 20.574-0.504 1.1-1.1 2.504-1.51 3.512h-0.492c0.194-1.106 0.492-2.31 0.696-3.312 0.708-3.61 1.304-7.724 1.304-11.030 0-5.828-1.808-9.738-6.116-9.738-9.942 0-18.766 15.244-22.376 22.47-0.398 0.812-1.006 2.112-1.51 3.212l-0.304-0.112zM588.73 927.726c-4.014 0-9.626 1.596-11.93 2.914-0.204 0.094-0.31 0.094-0.31 0.298 0 0.398 0.504 0.994 1.006 0.902 1.304-0.504 2.81-0.902 3.61-0.902s1.2 0.504 1.006 2.012c-0.504 3.108-1.596 10.022-3.008 18.15-1.316 7.624-3.020 17.46-3.312 19.772-0.104 0.504-0.204 1.304-0.204 1.704 0 0.802 0.398 1.51 1.808 1.51 3.212 0 7.93-0.802 10.538-2.412 0.104 0 0.204-0.104 0.204-0.204 0-0.398-0.31-0.89-0.708-0.802-1.51 0.504-3.008 0.708-4.114 0.708-1.006 0-1.304-0.608-1.1-1.808 0.696-3.416 2.504-11.644 3.704-18.068 1.51-7.314 3.524-16.448 4.522-21.066 0.398-1.808-0.204-2.71-1.608-2.71h-0.104zM588.73 912.478c-3.108 0-4.916 2.698-4.916 5.004 0 2.218 1.908 3.622 3.814 3.622 3.008 0 4.916-2.516 4.916-4.926 0-1.498-0.902-3.704-3.716-3.704h-0.1zM615.086 974.082c10.334 0 19.866-6.020 19.866-14.846 0-5.224-3.814-8.432-9.632-11.644-4.616-2.604-7.432-5.014-7.432-9.028 0-4.308 3.716-8.836 10.24-8.836 4.014 0 6.524 3.524 7.016 7.828 0 0.204 0.104 0.204 0.31 0.204 0.696 0 1.304-0.104 1.51-0.504 0.596-1.106 0.994-2.71 0.994-4.114 0-3.512-2.504-5.418-8.228-5.418-9.532 0-18.958 6.618-18.958 14.446 0 4.616 3.512 7.93 9.028 10.732 5.224 2.616 8.836 5.326 8.836 9.842 0.104 5.214-4.616 9.222-11.544 9.222-4.916 0-7.924-3.108-8.42-8.128 0-0.194-0.104-0.298-0.398-0.298-0.504 0-1.212 0.204-1.404 0.696-0.504 1.006-0.902 2.81-1.006 4.424 0 3.802 2.81 5.418 9.134 5.418h0.088zM685.77 966.552c0-0.194-0.104-0.398-0.298-0.298-2.206 1.304-5.518 2.914-7.624 3.512-1.404 0.504-3.814 1.006-5.922 1.006-6.126 0-10.036-4.114-10.036-11.632 0-2.412 0.504-5.624 0.994-7.724 6.332 0.492 12.65-0.504 17.67-2.412 6.010-2.4 9.724-7.122 9.724-12.34 0-4.81-3.61-8.924-10.732-8.924-14.148 0-25.484 18.56-25.484 32.914 0 9.122 5.624 13.442 13.75 13.442 3.802 0 6.010-0.504 7.326-0.902 3.704-1.404 8.022-3.814 10.334-5.326 0.298-0.194 0.298-0.802 0.298-1.2v-0.118zM677.942 929.728c3.716 0 5.12 3.224 5.12 6.824 0 4.616-3.212 8.73-7.52 10.744-3.312 1.704-7.724 2.71-12.24 2.31 2.4-11.042 8.32-19.964 14.548-19.964l0.094 0.088zM706.034 965.85c-2.604 0-4.206 2.31-4.206 4.512 0 1.808 1.394 3.212 3.3 3.212 2.722 0 4.114-2.31 4.114-4.22 0-1.51-0.902-3.512-3.108-3.512h-0.1zM784.424 974.082c20.574 0 32.412-24.080 32.412-42.844 0-11.532-6.020-19.362-17.76-19.362-20.264 0.094-32.71 23.67-32.71 42.64 0 12.036 6.424 19.568 17.964 19.568h0.094zM786.034 972.174c-7.432 0-11.128-7.432-11.128-17.156 0-16.858 9.016-41.334 22.868-41.334 7.724 0 10.538 7.624 10.538 16.448 0 16.466-8.138 42.048-22.17 42.048h-0.104zM870.066 928.23c-1.304 0.104-2.012 0.596-2.206 2.012-0.504 2.3-2.012 8.214-2.81 10.732-3.3 10.122-12.434 28.684-19.964 28.684-2.81 0-3.908-2.206-3.908-7.222 0-8.718 3.512-23.37 5.716-32.1 0.398-1.596-0.104-2.604-1.498-2.604-3.524 0-8.432 1.2-10.948 2.604-0.094 0.104-0.194 0.104-0.194 0.31 0 0.398 0.398 0.89 0.902 0.802 1.304-0.398 2.71-0.708 3.716-0.708s1.498 0.608 1.2 1.704c-2.71 9.234-6.32 22.182-6.32 31.008 0 7.028 2.504 10.638 7.016 10.638 9.234 0 17.46-12.844 21.078-20.468 0.504-1.212 0.802-2.112 1.404-3.416h0.398c-0.298 1.304-0.504 2.412-0.696 3.524-1.006 4.512-2.81 13.042-3.61 16.946-0.104 0.608-0.204 1.404-0.204 1.808 0 0.902 0.504 1.608 1.704 1.608 4.014 0 8.836-1.006 11.234-2.412 0.204 0 0.31-0.104 0.31-0.298 0-0.398-0.398-0.902-0.902-0.708-1.404 0.504-2.604 0.708-3.61 0.708-0.708 0-1.106-0.398-0.902-2.012 0.398-2.902 2.31-13.54 3.406-19.064 1.106-6.524 3.108-17.050 4.014-21.772 0.104-0.298-0.094-0.504-0.398-0.504l-3.926 0.204zM924.308 927.726c-9.426 0-16.652 13.944-20.17 22.568-0.398 0.902-0.802 1.908-1.2 2.81h-0.398c0.194-0.802 0.504-1.908 0.696-2.81 1.404-6.32 3.61-15.554 4.512-19.866 0.41-1.704-0.094-2.71-1.498-2.71-4.114 0-9.738 1.596-12.048 2.914-0.194 0.094-0.298 0.094-0.298 0.298 0 0.504 0.596 0.994 1.1 0.902 1.212-0.504 2.71-0.902 3.622-0.902 0.696 0 1.2 0.398 0.994 1.896-0.492 3.020-1.808 11.142-2.902 17.566-1.404 7.828-3.020 17.256-3.92 22.674-0.104 0.298 0.104 0.608 0.398 0.608l3.716-0.204c1.304 0 1.808-0.596 2.112-1.808 0.492-2.412 2.1-8.526 2.902-11.030 4.014-11.85 11.544-27.69 18.958-27.69 0.902 0 1.82 0.094 2.31 0.398 0.504 0.194 1.006 0.298 1.404 0.298 1.608 0 3.512-2.604 3.512-4.412 0-0.204-0.094-0.41-0.298-0.504-0.696-0.608-1.704-1.006-3.406-1.006h-0.1zM962.126 954.62c0 12.744 8.228 19.462 19.462 19.462 3.61 0 6.126-0.31 7.53-0.708 3.406-1.006 8.32-3.008 10.936-4.412 0.298-0.104 0.504-0.608 0.504-1.304 0-0.298-0.118-0.398-0.31-0.298-2.902 1.1-6.116 2.206-8.924 2.71-1.304 0.398-3.61 0.696-5.922 0.696-8.432 0-14.75-5.624-14.75-17.156 0-10.638 4.722-24.482 12.744-32.902 4.114-4.026 9.234-6.73 13.54-6.73 2.81 0 4.014 0.608 4.926 1.51 0.492 0.504 0.696 1.006 0.89 1.908 0.608 3.212 1.316 6.916 2.012 10.432 0 0.194 0.104 0.298 0.31 0.298 0.298 0 0.994-0.398 1.1-0.802l1.404-12.744c0.104-0.504 0-0.708-0.298-1.006-1.714-1.1-4.522-1.704-8.432-1.704-7.924 0-15.542 3.406-21.368 8.32-9.222 8.228-15.348 22.078-15.348 34.32v0.112zM1055.404 933.942h-0.41c-0.298-0.596-0.696-1.304-1.2-1.908-1.608-2.1-4.114-4.308-9.532-4.308-15.154 0-25.19 21.668-25.19 35.016 0 6.916 2.914 11.34 8.632 11.34 8.936 0 16.26-10.638 20.972-19.568 0.504-0.902 1.006-2.112 1.51-3.212l0.298 0.104c-0.194 0.994-0.504 2.31-0.802 3.61-1.212 5.716-2.81 13.442-3.212 16.046-0.104 0.608-0.194 1.212-0.194 1.608 0 0.802 0.596 1.404 1.896 1.404 3.212 0 7.432-0.708 10.134-2.31 0.104-0.104 0.194-0.204 0.194-0.31 0-0.298-0.298-0.802-0.696-0.696-1.304 0.398-2.902 0.696-4.014 0.696-0.902 0-1.106-0.596-0.902-1.704 0.608-3.008 2.31-10.334 3.212-14.846 1.404-6.524 4.616-21.078 5.612-25.278 0.204-1.006-0.994-1.608-1.394-1.608-0.204 0-0.31 0.104-0.398 0.204l-4.518 5.716zM1044.364 929.528c4.916 0 7.122 5.12 7.724 8.332 0.094 0.696 0.094 1.394 0.094 2.206 0 0.902-0.298 2.412-0.802 3.802-3.512 9.942-12.036 25.694-19.462 25.694-3.212 0-5.014-3.020-5.014-8.128 0-10.134 6.63-31.908 17.362-31.908h0.1zM1110.642 927.726c-9.426 0-16.652 13.944-20.158 22.568-0.41 0.902-0.812 1.908-1.212 2.81h-0.398c0.194-0.802 0.504-1.908 0.696-2.81 1.404-6.32 3.622-15.554 4.512-19.866 0.41-1.704-0.094-2.71-1.498-2.71-4.114 0-9.738 1.596-12.048 2.914-0.194 0.094-0.298 0.094-0.298 0.298 0 0.504 0.608 0.994 1.106 0.902 1.2-0.504 2.71-0.902 3.61-0.902 0.696 0 1.2 0.398 0.994 1.896-0.504 3.020-1.796 11.142-2.902 17.566-1.404 7.828-3.020 17.256-3.92 22.674-0.104 0.298 0.104 0.608 0.398 0.608l3.716-0.204c1.304 0 1.808-0.596 2.112-1.808 0.492-2.412 2.1-8.526 2.902-11.030 4.014-11.85 11.544-27.69 18.97-27.69 0.902 0 1.808 0.094 2.31 0.398 0.504 0.194 0.994 0.298 1.394 0.298 1.608 0 3.524-2.604 3.524-4.412 0-0.204-0.104-0.41-0.31-0.504-0.696-0.608-1.704-1.006-3.406-1.006h-0.094zM1140.788 927.726c-4.014 0-9.626 1.596-11.93 2.914-0.204 0.094-0.31 0.094-0.31 0.298 0 0.398 0.504 0.994 1.006 0.902 1.304-0.504 2.81-0.902 3.61-0.902 0.812 0 1.212 0.504 1.006 2.012-0.504 3.108-1.596 10.022-3.008 18.15-1.304 7.624-3.020 17.46-3.312 19.772-0.104 0.504-0.204 1.304-0.204 1.704 0 0.802 0.41 1.51 1.808 1.51 3.212 0 7.93-0.802 10.538-2.412 0.104 0 0.204-0.104 0.204-0.204 0-0.398-0.298-0.89-0.708-0.802-1.498 0.504-3.008 0.708-4.102 0.708-1.006 0-1.316-0.608-1.106-1.808 0.696-3.416 2.504-11.644 3.716-18.068 1.498-7.314 3.512-16.448 4.512-21.066 0.398-1.808-0.204-2.71-1.608-2.71h-0.112zM1140.788 912.478c-3.108 0-4.902 2.698-4.902 5.004 0 2.218 1.896 3.622 3.802 3.622 3.008 0 4.916-2.516 4.916-4.926 0-1.498-0.902-3.704-3.716-3.704h-0.1zM1169.854 950.4c0.298-1.304 0.802-3.406 1.1-4.916 2.31-10.432 5.518-25.694 7.93-36.928 0.298-1.404-0.204-2.012-1.51-2.012-3.312 0-10.432 1.404-12.638 2.218-0.204 0.094-0.31 0.194-0.31 0.298 0 0.504 0.41 1.006 1.006 1.006 1.106-0.204 2.914-0.41 4.114-0.41 0.608 0 1.006 0.608 0.812 1.82-0.708 4.412-3.416 18.654-4.722 26.478-1.714 9.234-5.014 27.292-6.424 34.822-0.104 0.504 0.902 0.902 1.304 0.902 0.31 0 0.31-0.204 0.398-0.31l4.114-6.116c0.31-0.608 0.708-0.608 1.006-0.104 2.516 3.814 5.73 6.824 11.44 6.824 15.348 0 24.88-22.88 24.88-35.12 0-6.424-2.516-11.128-7.93-11.128-9.222 0-17.952 11.34-22.568 19.362-0.492 0.902-0.994 2.1-1.704 3.416l-0.298-0.1zM1189.614 932.642c3.512 0 4.81 3.212 4.81 7.93 0 8.526-6.32 31.498-17.050 31.498-4.81 0-7.93-4.22-8.924-7.828-0.398-0.994-0.504-2-0.504-2.802 0-1.106 0.398-2.516 0.802-3.61 4.014-10.346 13.646-25.19 20.766-25.19h0.1zM1228.502 950.4c0.298-1.304 0.802-3.406 1.1-4.916 2.31-10.432 5.518-25.694 7.93-36.928 0.298-1.404-0.204-2.012-1.51-2.012-3.312 0-10.432 1.404-12.638 2.218-0.204 0.094-0.31 0.194-0.31 0.298 0 0.504 0.41 1.006 1.006 1.006 1.106-0.204 2.914-0.41 4.114-0.41 0.608 0 1.006 0.608 0.812 1.82-0.708 4.412-3.416 18.654-4.722 26.478-1.704 9.234-5.014 27.292-6.424 34.822-0.094 0.504 0.902 0.902 1.304 0.902 0.298 0 0.298-0.204 0.398-0.31l4.114-6.116c0.31-0.608 0.708-0.608 1.006-0.104 2.504 3.814 5.716 6.824 11.44 6.824 15.348 0 24.88-22.88 24.88-35.12 0-6.424-2.504-11.128-7.93-11.128-9.222 0-17.952 11.34-22.568 19.362-0.504 0.902-1.006 2.1-1.704 3.416l-0.298-0.1zM1248.262 932.642c3.512 0 4.81 3.212 4.81 7.93 0 8.526-6.32 31.498-17.050 31.498-4.81 0-7.93-4.22-8.936-7.828-0.398-0.994-0.492-2-0.492-2.802 0-1.106 0.398-2.516 0.802-3.61 4.014-10.346 13.646-25.19 20.766-25.19h0.1zM1308.912 966.552c0-0.194-0.094-0.398-0.298-0.298-2.206 1.304-5.506 2.914-7.624 3.512-1.404 0.504-3.814 1.006-5.922 1.006-6.126 0-10.036-4.114-10.036-11.632 0-2.412 0.504-5.624 1.006-7.724 6.32 0.492 12.638-0.504 17.66-2.412 6.020-2.4 9.724-7.122 9.724-12.34 0-4.81-3.6-8.924-10.732-8.924-14.148 0-25.484 18.56-25.484 32.914 0 9.122 5.624 13.442 13.75 13.442 3.814 0 6.020-0.504 7.326-0.902 3.716-1.404 8.022-3.814 10.334-5.326 0.298-0.194 0.298-0.802 0.298-1.2v-0.118zM1301.094 929.728c3.716 0 5.108 3.224 5.108 6.824 0 4.616-3.202 8.73-7.52 10.744-3.312 1.704-7.724 2.71-12.24 2.31 2.4-11.042 8.332-19.964 14.548-19.964l0.104 0.088zM1364.26 933.942h-0.398c-0.31-0.596-0.708-1.304-1.212-1.908-1.596-2.1-4.114-4.308-9.532-4.308-15.144 0-25.178 21.668-25.178 35.016 0 6.916 2.914 11.34 8.632 11.34 8.924 0 16.248-10.638 20.96-19.568 0.504-0.902 1.006-2.112 1.51-3.212l0.298 0.104c-0.194 0.994-0.492 2.31-0.802 3.61-1.2 5.716-2.802 13.442-3.212 16.046-0.094 0.608-0.194 1.212-0.194 1.608 0 0.802 0.608 1.404 1.908 1.404 3.212 0 7.432-0.708 10.122-2.31 0.104-0.104 0.204-0.204 0.204-0.31 0-0.298-0.31-0.802-0.696-0.696-1.316 0.398-2.914 0.696-4.026 0.696-0.902 0-1.1-0.596-0.902-1.704 0.608-3.008 2.31-10.334 3.212-14.846 1.404-6.524 4.616-21.078 5.624-25.278 0.204-1.006-1.006-1.608-1.404-1.608-0.204 0-0.298 0.104-0.398 0.204l-4.518 5.716zM1353.224 929.528c4.916 0 7.122 5.12 7.724 8.332 0.104 0.696 0.104 1.394 0.104 2.206 0 0.902-0.298 2.412-0.802 3.802-3.512 9.942-12.048 25.694-19.474 25.694-3.202 0-5.004-3.020-5.004-8.128 0-10.134 6.618-31.908 17.35-31.908h0.1zM1423.42 927.726c-10.036 0-19.964 15.648-23.78 23.284-0.398 0.696-0.902 2-1.596 3.3l-0.41-0.094c0.31-1.006 0.708-2.616 1.006-3.716 1.404-6.226 3.416-15.256 4.424-20.070 0.398-1.704-0.204-2.71-1.608-2.71-4.114 0-9.626 1.596-11.942 2.914-0.194 0.094-0.398 0.094-0.398 0.298 0 0.398 0.504 0.994 1.106 0.902 1.304-0.504 2.81-0.902 3.61-0.902 0.708 0 1.2 0.398 1.006 2.012-0.608 3.704-1.808 10.732-2.914 16.754-1.006 6.424-3.512 20.060-4.114 23.272-0.104 0.398 0 0.608 0.298 0.608l3.814-0.104c1.404 0 1.808-0.596 2.112-1.808 0.696-2.902 2.3-9.234 3.406-11.942 4.014-10.334 14.042-26.184 20.766-26.184 3.108 0 4.014 2.81 4.014 7.724 0 7.924-3.406 23.178-4.916 29.894-0.104 0.608-0.194 1.106-0.194 1.51 0 0.802 0.504 1.404 1.908 1.404 2.902 0 7.624-0.802 10.228-2.412 0.104 0 0.204-0.104 0.204-0.204 0-0.398-0.41-0.89-0.708-0.802-1.51 0.504-2.81 0.708-3.908 0.708-1.006 0-1.316-0.504-1.006-1.714 2.1-8.214 5.922-23.476 5.922-32 0-6.214-2.012-9.93-6.226-9.93h-0.104zM1448.696 966.754c-2.31 0-3.512 2.1-3.512 4.014 0 1.51 1.006 2.81 2.81 2.81 2.206 0 3.512-1.808 3.512-3.814 0-1.404-0.902-3.008-2.71-3.008h-0.1zM511.098 199.498c18.438-17.056 24.676-113.278 29.526-138.328 3.868-19.258 7.442-20.188 5.108-21.966-2.334-1.772-11.228 18.040-16.998 33.112-6.378 16.658-14.852 83.302-35.894 104.242-10.164 10.426-68.052 17.086-100.966 23.606-34.634 7.034-50.924 16.478-52.136 18.666-1.212 2.194 58.89 3.048 105.888-2.586 32.1-3.792 49.842-2.294 65.472-16.746zM577.828 88.504c4.77 43.214 49.732 84.466 85.946 97.69 44.658 16.308 111.796 3.358 137.824 0.018 21.482-2.756 28.1-2.71 28.1-2.71s-11.936-6.19-67.35-2.814c-38.538 2.288-85.74-10.262-107.754-23.024-27.38-15.868-54.096-46.25-66.636-71.44-11.304-22.74-7.718-36.934-10.574-38.736-2.866-1.808-2.564 13.242 0.446 41.018zM841.342 192.494c0 0-16.928 16.658-39.65 25.572-22.65 9.134-47.596 24.816-57.46 41.726-9.788 17.228-14.060 54.758-0.686 78.016 13.294 23.020 42.516 58.602 69.334 65.992 8.812 2.346 11.744 2.592 8.398-0.632-1.86-1.796-25.214-13.318-41.234-37.396-12.804-19.396-17.454-56.788-14.974-74.558 4.99-35.704 24.99-42.018 40.428-55.81 12.17-10.574 34.278-32.060 36.46-36.22 2.188-4.15-0.614-6.688-0.614-6.688zM539.6 542.474c8.24-5.114 32.814-34.798 55.764-56.67 15.946-14.822 50.292-49.662 73.494-52.668 10.732-1.416 49.392 3.634 81.154 4.57 22.33 0.44 41.57-1.236 52.364-4.706 23.066-7.414 33.43-10.784 32.212-12.898-1.23-2.1-13.054 0.446-31.482 4.118-13.182 2.626-24.184 0.93-49.902-5.342-25.846-6.694-76.15-22.972-99.076-21.002-22.96 1.866-56.606 43.084-74.15 64.728-9.25 11.662-21.44 34.588-32.826 53.442-10.028 16.946-20.386 27.606-19.958 30.416 0.426 2.81 4.184 1.148 12.404-3.992zM344.468 235.706c-1.018 3.382 79.954 39.216 103.296 57.478 11.304 8.73 52.686 42.582 61.972 90.008 8.244 41.996 1.23 115.894 1.704 125.794 0.948 19.35-0.012 22.92 3.126 23.676 3.126 0.736 9.352-44.296 12.066-63.084 2.778-18.632 22.452-94.348-4.476-133.986-63.042-94.4-176.666-103.242-177.684-99.884zM603.692 235.866c-6.384-0.158-10.894 4.734-10.070 10.966 0.836 6.22 6.642 11.352 13.026 11.452 6.36 0.076 10.86-4.85 10.048-11.018-0.808-6.144-6.63-11.246-13.002-11.398zM584.424 209.054c-5.776-0.258-9.872 4.060-9.122 9.672 0.748 5.606 6.010 10.316 11.796 10.51 5.758 0.186 9.836-4.166 9.118-9.702-0.73-5.56-5.992-10.234-11.792-10.48zM572.778 182.19c-5.238-0.316-8.936 3.512-8.274 8.532 0.686 5.032 5.436 9.334 10.65 9.596 5.224 0.264 8.924-3.568 8.274-8.56-0.644-4.986-5.43-9.256-10.65-9.568zM566.932 157.070c-4.284-0.316-7.296 2.702-6.77 6.758 0.538 4.068 4.418 7.59 8.672 7.882 4.242 0.282 7.268-2.756 6.74-6.782-0.522-4.026-4.4-7.548-8.644-7.858zM562.258 131.17c-3.482-0.322-5.94 2.072-5.506 5.348 0.426 3.266 3.564 6.156 7.034 6.454 3.476 0.292 5.926-2.118 5.5-5.36-0.414-3.258-3.546-6.132-7.028-6.442zM560.894 105.436c-2.832-0.298-4.844 1.596-4.506 4.224 0.344 2.626 2.896 4.996 5.722 5.278 2.802 0.282 4.834-1.602 4.494-4.23-0.328-2.616-2.896-4.974-5.712-5.272zM651.334 256.146c-1.848-5.904-8.326-9.888-14.452-8.9-6.116 0.994-9.544 6.658-7.666 12.658 1.878 5.974 8.35 9.958 14.446 8.894 6.108-1.076 9.532-6.73 7.672-12.65zM675.576 242.26c-1.638-5.224-7.456-8.772-12.974-7.916-5.53 0.86-8.654 5.84-6.992 11.124 1.656 5.272 7.484 8.812 12.978 7.894 5.494-0.908 8.618-5.886 6.988-11.1zM700.908 232.552c-1.44-4.616-6.652-7.746-11.628-6.998-4.986 0.748-7.824 5.126-6.35 9.788 1.446 4.658 6.658 7.794 11.628 6.992 4.95-0.808 7.806-5.174 6.35-9.784zM723.324 224.414c-1.704-3.546-6.184-5.566-10.036-4.47-3.834 1.088-5.566 4.892-3.844 8.468 1.692 3.588 6.174 5.576 9.994 4.454 3.834-1.118 5.566-4.902 3.884-8.448zM749.328 216.398c-1.346-2.826-4.99-4.424-8.104-3.552s-4.536 3.874-3.182 6.712c1.358 2.844 4.99 4.424 8.086 3.534 3.12-0.878 4.546-3.874 3.202-6.694zM776.876 209.99c-1.082-2.234-4.008-3.5-6.536-2.81-2.528 0.68-3.704 3.072-2.616 5.318 1.082 2.258 4.002 3.504 6.524 2.802 2.534-0.69 3.704-3.072 2.626-5.312zM600.052 314.304c5.506 3.698 12.522 2.556 15.67-2.5 3.154-5.032 1.236-12.066-4.278-15.746-5.512-3.698-12.564-2.658-15.706 2.376-3.16 5.056-1.224 12.176 4.312 15.868zM595.072 343.098c4.95 3.282 11.24 2.142 14.020-2.504 2.802-4.64 1.070-11.036-3.892-14.314-4.956-3.29-11.252-2.242-14.060 2.4-2.786 4.646-1.012 11.112 3.932 14.418zM587.192 369.312c4.448 2.932 10.064 1.826 12.552-2.452 2.48-4.266 0.902-10.070-3.54-13.014-4.464-2.936-10.1-1.902-12.58 2.352-2.5 4.288-0.902 10.164 3.568 13.112zM578.782 393.902c3.592 2.37 8.132 1.416 10.118-2.118 1.996-3.528 0.686-8.298-2.92-10.654-3.6-2.37-8.138-1.452-10.134 2.072-2 3.524-0.668 8.338 2.936 10.702zM570.222 418.528c3.16 1.368 6.566-0.118 7.624-3.324 1.058-3.202-0.62-6.91-3.78-8.274-3.154-1.388-6.576 0.070-7.63 3.29-1.052 3.218 0.638 6.94 3.786 8.308zM558.812 441.994c2.556 1.094 5.302-0.158 6.144-2.802 0.866-2.65-0.532-5.676-3.090-6.77-2.552-1.112-5.308 0.122-6.144 2.768-0.854 2.65 0.55 5.706 3.090 6.804zM443.714 242.472c0.596-2.668-1.13-5.786-3.88-6.974-2.738-1.17-5.442 0.036-6.028 2.714-0.608 2.68 1.142 5.81 3.88 6.992 2.734 1.164 5.436-0.058 6.028-2.734zM474.538 245.332c0.768-3.248-1.358-7.010-4.722-8.432-3.376-1.416-6.722 0.070-7.462 3.324-0.756 3.27 1.382 7.052 4.752 8.462 3.346 1.404 6.688-0.1 7.432-3.354zM505.318 250.682c0.942-3.956-1.644-8.52-5.794-10.212-4.142-1.71-8.262 0.122-9.198 4.084-0.948 3.984 1.656 8.59 5.776 10.27 4.142 1.686 8.274-0.176 9.216-4.142zM535.576 256.964c0.674-4.996-2.996-10.258-8.192-11.786-5.184-1.55-9.918 1.286-10.58 6.314-0.644 5.032 3.036 10.356 8.198 11.856 5.184 1.486 9.912-1.382 10.574-6.384zM563.328 265.994c0.83-5.464-3.13-11.246-8.872-12.938-5.734-1.686-11.058 1.362-11.862 6.882-0.812 5.518 3.17 11.352 8.9 13.014 5.73 1.65 11.012-1.476 11.832-6.956zM590.702 276.976c0.842-6.028-3.588-12.288-9.93-14.020-6.36-1.72-12.206 1.784-13.048 7.864-0.854 6.102 3.61 12.424 9.946 14.114 6.336 1.662 12.154-1.914 13.032-7.958zM741.47 386.084c-1.89 1.766-1.896 4.682-0.030 6.506 1.872 1.826 4.908 1.836 6.81 0.076 1.866-1.772 1.896-4.668 0.018-6.482-1.86-1.814-4.908-1.854-6.8-0.1zM716.888 369.88c-2.334 2.158-2.334 5.794-0.006 8.098 2.334 2.318 6.098 2.412 8.438 0.24 2.318-2.17 2.346-5.776 0.018-8.074-2.322-2.306-6.108-2.422-8.448-0.264zM696.052 352.988c-2.896 2.65-2.88 7.168 0.018 10.082 2.884 2.914 7.584 3.1 10.468 0.446s2.884-7.134 0.006-10.028c-2.902-2.902-7.59-3.126-10.492-0.496zM673.856 333.858c-3.588 3.236-3.564 8.842 0.042 12.528 3.6 3.674 9.42 3.996 12.99 0.762 3.58-3.236 3.568-8.806-0.018-12.446-3.61-3.67-9.438-4.050-13.014-0.842zM652.452 313.502c-4.014 3.534-3.98 9.808 0.070 13.996 4.032 4.172 10.516 4.646 14.506 1.082 4.002-3.552 3.984-9.76-0.048-13.898-4.026-4.16-10.526-4.706-14.528-1.182zM632.254 290.248c-4.464 3.868-4.412 10.866 0.104 15.622 4.512 4.734 11.76 5.376 16.226 1.48 4.458-3.884 4.43-10.814-0.070-15.5-4.506-4.722-11.792-5.442-16.26-1.602z" />
</svg>
