<?xml version="1.0" encoding="utf-8"?>
<!-- Generated by IcoMoon.io -->
<!DOCTYPE svg PUBLIC "-//W3C//DTD SVG 1.1//EN" "http://www.w3.org/Graphics/SVG/1.1/DTD/svg11.dtd">
<svg version="1.1" xmlns="http://www.w3.org/2000/svg" xmlns:xlink="http://www.w3.org/1999/xlink" width="2570" height="1024" viewBox="0 0 2570 1024">
<g>
</g>
	<path d="M816.426 841.198c0 5.498-1.618 10.16-4.854 13.968-3.428 4.046-7.852 6.068-13.374 6.068h-20.44v-56.112l-7.948-7.876h22.322c5.044 0 9.258 1.426 12.66 4.282 3.69 2.998 5.52 7.042 5.52 12.136 0 3.808-1.144 7.21-3.474 10.16 3.142 1.618 5.52 4.092 7.186 7.424 1.572 3.002 2.402 6.31 2.402 9.95v0zM801.864 813.736c0-2.474-1.19-4.474-3.57-5.854-2.118-1.31-4.688-1.95-7.686-1.95h-4.164v15.61h4.164c2.998 0 5.568-0.596 7.686-1.856 2.38-1.474 3.57-3.45 3.57-5.95zM808.074 841.412c0-3.26-1.096-5.878-3.26-7.948-2.166-1.974-4.854-2.974-8.162-2.974h-10.256v21.798h10.256c3.308 0 5.998-1.024 8.162-3.070 2.166-1.998 3.26-4.616 3.26-7.806zM890.982 861.236h-27.152v-56.112l-7.924-7.876h35.076v8.686h-18.442v15.848h15.372v8.71h-15.372v22.036h18.442v8.708zM977.244 861.236h-9.020v-24.606h-15.562v24.606h-8.662v-45.88c0-5.068 1.426-9.282 4.258-12.66 3.046-3.712 7.114-5.544 12.136-5.544 5.068 0 9.162 1.856 12.374 5.544 2.998 3.404 4.52 7.59 4.52 12.66l-0.044 45.88zM968.224 816.926c0-3.022-0.596-5.616-1.832-7.758-1.474-2.38-3.452-3.546-5.926-3.546-2.45 0-4.378 1.19-5.854 3.546-1.334 2.142-1.95 4.734-1.95 7.758v11.018h15.562v-11.018zM1062.244 861.236h-8.186c-8.806 0-15.824-3.284-21.106-9.828-4.83-5.998-7.258-13.398-7.258-22.178 0-8.782 2.45-16.206 7.258-22.226 5.282-6.498 12.302-9.78 21.106-9.78h8.186v8.686h-9.4c-5.782 0-10.398 2.428-13.754 7.328-3.022 4.33-4.496 9.66-4.496 15.99 0 6.306 1.474 11.638 4.496 15.968 3.38 4.902 7.972 7.328 13.754 7.328h9.4v8.712zM1154.788 861.236h-8.782v-30.746h-15.824v30.746h-8.662v-56.112l-7.996-7.876h16.658v24.534h15.824v-24.534h8.758l0.024 63.988zM1311.676 813.642c0 5.402-1.712 9.33-5.164 11.78 3.452 2.070 5.164 5.402 5.164 9.922v25.89l-8.828 0.002v-25.818c0-3.332-2.094-4.926-6.306-4.926h-9.446v30.746h-8.662v-56.112l-7.972-7.876h23.868c5.116 0 9.282 1.474 12.492 4.402 3.236 3.020 4.854 7.016 4.854 11.99zM1303.182 813.642c0-2.212-0.642-4.068-2.046-5.474-1.334-1.498-3.118-2.236-5.354-2.236h-8.686v15.61h8.114c5.33 0 7.972-2.618 7.972-7.9v0zM1392.084 861.236h-27.152v-56.112l-7.948-7.876h35.1v8.686h-18.442v15.848h15.372v8.71h-15.372v22.036l18.442-0.002v8.71zM1478.346 861.236h-33.268v-8.71h24.582v-22.036h-24.582v-33.244h33.268v8.686h-24.582v15.848h24.582v39.456zM1583.978 829.23c0 9.612-2.642 17.468-7.9 23.438-4.926 5.592-11.47 8.4-19.656 8.4-4.282 0-8.376-0.858-12.182-2.594-4.046-1.808-7.4-4.33-9.898-7.544-4.474-5.736-6.736-12.992-6.736-21.678 0-8.876 2.428-16.324 7.21-22.274 5.068-6.402 11.946-9.566 20.584-9.66h0.238c4.64 0 9.020 1.024 13.064 3.046 4.234 2.188 7.566 5.188 9.994 9.020 3.472 5.662 5.282 12.23 5.282 19.846v0zM1575.102 829.254c0-5.902-1.31-10.994-3.998-15.252-3.404-5.498-8.448-8.306-15.11-8.376h-0.476c-0.048 0-0.096 0-0.142 0-6.092 0-10.78 2.428-14.23 7.4-3.022 4.378-4.544 9.804-4.544 16.23 0 6.402 1.474 11.732 4.474 16.086 3.452 4.926 8.234 7.424 14.398 7.472h0.382c0.142 0.072 0.286 0.072 0.334 0.072 6.092 0 10.874-2.498 14.326-7.472 3.108-4.382 4.586-9.76 4.586-16.16v0zM1674.808 813.642c0 5.402-1.76 9.33-5.258 11.78 3.474 2.070 5.258 5.402 5.258 9.922v25.89h-8.876v-25.818c0-3.332-2.094-4.926-6.33-4.926h-9.424v30.746h-8.638v-56.112l-7.996-7.876h23.892c5.116 0 9.306 1.474 12.492 4.402 3.238 3.022 4.88 7.018 4.88 11.992zM1666.24 813.642c0-2.212-0.69-4.068-2.046-5.474-1.356-1.498-3.118-2.236-5.354-2.236h-8.686v15.61h8.090c5.356 0 7.996-2.618 7.996-7.9v0zM1758.238 805.932h-12.374v55.302h-8.686v-55.302h-12.23v-8.686h33.268l-0.002 8.686zM1844.762 861.236h-33.268v-8.71h24.582v-22.036h-24.582v-33.244h33.268v8.686h-24.63v15.848h24.63v39.456zM440.518 750.988c-9.636-1.286-19.99-1.904-31.054-1.904-2.998 0-6.020 0.048-9.138 0.166-17.372 0.524-33.79 2.308-49.378 5.402-65.202 12.802-116.030 31.91-152.462 57.278 0.214 1.642 0.976 5.306 2.26 10.66 4.306 1.31 7.328 2.070 8.972 2.404 19.68-14.398 54.684-27.508 105.228-39.596 19.37-4.664 36.86-7.186 52.4-7.638 1.88-0.096 3.784-0.096 5.64-0.096 23.938 0 43.928 4.974 59.896 15.062l0.262 0.12 0.166 0.286c7.304 11.638 11.184 22.87 11.494 33.742 0 0.524 0 1.048 0 1.57 0 12.612-4.496 24.272-13.374 34.862-17.182 20.606-32.864 36.622-47.19 47.996l-0.096 0.096-0.096 0.024c-51.972 27.724-103.252 42.356-153.724 43.904-3.212 0.12-6.378 0.166-9.518 0.166-17.822 0-35.124-1.57-51.828-4.734-70.032-13.064-117.292-65.702-117.198-157.342 0-1.712 0-3.428 0.024-5.164 0.452-22.178 10.112-53.066 34.862-88.856 17.87-25.818 39.334-50.686 64.392-74.696 69.342-66.296 131.856-100.516 187.824-102.252l0.762-0.024 0.404 0.642c9.186 15.49 18.014 28.578 26.462 39.286l13.612-0.404c9.424-16.73 20.344-35.076 32.744-54.946 2.95-4.806 4.45-9.85 4.45-15.228 0-0.31 0-0.596 0-0.904-0.382-11.614-8.424-24.13-24.772-37.384-65.060 8.638-126.5 34.862-184.374 78.742-40.548 30.746-99.040 71.080-144.136 143.992-25.272 40.858-41.81 101.872-41.788 140.422 0 1.334 0.024 2.618 0.048 3.904 0.404 13.278 2.618 25.416 6.64 36.242 15.8 42.69 48.664 85.404 124.598 113.414 19.3 7.114 40.716 8.852 63.108 8.852 6.14 0 12.374-0.12 18.632-0.334 36.408-1.096 75.434-8.090 116.984-21.13 74.672-23.438 133.878-60.846 150.178-130.024 1.426-6.020 2.188-11.876 2.188-17.324 0-6.236-1.024-11.898-3.212-16.658-11.778-25.678-33.314-38.886-60.892-42.596v0zM523.828 611.090c-2.76 7.758-6.378 12.444-10.852 14.088-1.784 0.62-3.736 0.738-5.902 0.404-6.402-0.976-14.136-1.808-23.152-2.498-24.344 8.734-44.926 23.082-61.704 43.072l-49.044 58.324c-15.658 5.592-28.27 4.258-37.932-3.998-6.354-5.45-13.492-16.824-21.488-34.218 0.714-7.21 2.474-12.136 5.306-14.778 1.998-1.808 6.876-4.164 14.73-6.948 6.474 2.712 10.922 7.282 13.23 13.754 0.738 2.022 1.404 5.116 1.998 9.352 0.62 4.164 1.286 7.282 1.998 9.306 1.784 4.996 4.474 8.948 8.044 11.852 4.854-1.12 7.948-1.926 9.186-2.356l31.624-34.552c12.398-13.612 23.534-24.534 33.434-32.744 16.872-14.088 33.22-24.010 49.068-29.626 11.97-4.306 24.534-5.926 37.764-4.854 1.504 2.944 2.716 5.134 3.692 6.42zM671.080 683.024c-6.876 6.876-12.374 10.304-16.372 10.304-4.282 0-8.638-3.142-13.16-9.4-3.070-4.306-6.804-8.734-11.208-13.35-2.712-2.904-6.306-4.306-10.66-4.306-2.974 0-5.52 0.452-7.662 1.262-9.114 3.474-22.632 10.922-40.548 22.44-18.846 12.066-32.386 20.038-40.548 23.82-16.276 7.566-31.078 11.47-44.476 11.732-7.376 0.096-13.278-2.832-17.798-8.9-4.022-5.354-6.044-11.852-6.044-19.584 0-12.898 10.898-27.414 32.744-43.572 21.106-15.514 38.932-23.296 53.35-23.296 1.664 0 3.332 0.12 4.996 0.358 2.142 2.832 3.452 7.020 3.904 12.444-5.212 6.852-12.398 11.876-21.512 14.944-4.758 1.426-13.23 4.092-25.44 7.972-20.156 6.544-29.816 17.942-28.984 34.194 3.69 5.568 8.52 8.352 14.564 8.352 3.452 0 7.186-0.858 11.232-2.474 11.47-4.64 25.010-11.922 40.548-21.892 7.21-4.616 20.25-12.85 39.144-24.748 11.47-7.114 22.464-10.636 32.886-10.636 1.664 0 3.332 0.12 4.974 0.334 17.206 6.522 26.89 10.422 29.032 11.566 11.35 6.16 17.038 13.656 17.038 22.436zM879.916 719.956c-0.786 0.834-2.046 1.832-3.712 2.998-5.544-4.022-12.564-11.876-20.988-23.606-7.352-10.374-15.372-17.752-24.010-22.274-15.658-0.596-29.674 1.38-42 5.878-8.090 2.974-18.49 8.568-31.316 16.872-15.038 9.732-26.986 16.73-35.742 21.036h-8.568c-6.972-7.042-12.66-17.062-17.038-30.078-4.022-11.876-6.044-23.32-6.044-34.314l4.974-2.332c1.76-0.858 5.044-1.262 9.756-1.262 4.996 5.092 8.852 11.256 11.566 18.49l0.548 1.45c1.286 3.642 3.618 10.042 6.924 19.18 5.116-0.096 14.826-4.734 29.174-13.85 16.252-10.328 28.436-16.706 36.646-19.228 4.734-0.738 9.4-1.072 13.874-1.072 15.776 0 30.174 4.092 43.238 12.278 16.704 10.428 27.626 27.062 32.718 49.834zM1038.756 653.828c-5.258 22.774-16.776 40.764-34.6 53.922-17.846 13.182-38.55 19.608-62.18 19.37-19.204-0.12-34.79-5.616-46.76-16.538-6.758-6.164-10.16-13.516-10.16-22.060 0-6.736 2.046-14.326 6.236-22.726 8.21-12.23 19.752-22.108 34.694-29.532 14.374-7.258 29.126-10.874 44.286-10.874 5.236 6.544 7.828 12.042 7.828 16.538 0 1.88-0.5 3.618-1.426 5.164-5.212 8.782-18.49 15.228-39.858 19.394-8.662 1.642-14.826 3.498-18.49 5.474-5.688 1.95-10.018 6.758-12.992 14.588-0.238 9.566 1.38 16.944 4.806 22.060 4.022 6.164 10.66 9.162 19.942 8.852 16.944-0.31 33.766-3.356 50.496-9.020 25.392-15.538 37.836-38.742 37.36-69.58-0.5-30.84-8.9-59.11-25.272-84.834-6.876-4.474-16.848-7.876-29.912-10.136-14.54-2.498-23.82-4.592-27.748-6.426-8.496-3.666-13.588-10.232-15.134-19.752-1.048-6.14-0.166-10.352 2.688-12.588 1.904-1.688 6.14-2.928 12.802-3.76 25.842 0 50.090 19.394 72.77 58.158 20.416 35.052 30.624 66.462 30.624 94.306zM1382.564 430.974c-15.42-9.828-43.738-19.704-84.668-29.554-2.76-0.072-5.616-0.096-8.52-0.096-29.794 0-67.438 2.474-112.938 7.282-49.924 5.282-84.026 19.346-102.444 41.976 1.214 7.9 5.974 22.822 14.23 44.546 5.020 13.326 10.684 19.514 16.3 19.418 0.286 0 0.524 0 0.834-0.048 3.642-0.334 7.828-3.118 12.374-8.544-1.334-5.712-2.736-13.706-4.306-24.034l-0.12-0.524 0.476-0.31c31.648-22.392 76.316-36.124 133.996-41.216 9.684-0.858 19.038-1.31 28.080-1.31 44.88 0 81.86 10.614 110.868 31.84l0.142 0.072 0.048 0.096c9.114 11.804 14.184 22.702 15.206 32.84 0.096 1.144 0.19 2.284 0.19 3.428 0 8.21-2.974 15.8-8.876 22.584-24.868 28.816-70.556 47.996-137.018 57.706-15.562 2.332-28.578 3.974-39.050 4.996-7.114 0.69-12.73 1.072-16.896 1.072h-0.81l-0.024-0.786c-0.62-8.59-0.928-19.87-0.928-33.838 0-6.688 0.072-14.040 0.214-21.988 0-0.5 0-0.952 0-1.45 0-2.594-0.096-5.020-0.31-7.186-1.76-16.896-9.282-24.796-23.296-24.868-1.12 0-2.236 0.048-3.452 0.166-1.88 3.856-2.928 10.232-2.904 18.942 0 7.638 0.762 17.158 2.308 28.436 3.404 24.868 5.402 41.144 5.974 48.83l0.072 0.858-26.27 2.546c-9.446 0.928-15.99 2.832-19.442 5.498 1.096 9.446 4.474 13.588 10.28 13.612 0.404 0 0.81-0.024 1.286-0.072 1.546-0.142 4.068-0.762 7.424-1.832 3.452-1.096 5.974-1.712 7.782-1.926 1.144-0.12 2.26-0.19 3.404-0.19 5.83 0 11.28 1.546 16.3 4.64l0.382 0.238 0.048 0.404c2.594 24.462 4.354 47.878 5.236 70.222 0.762 16.538 18.132 128.214 34.242 189.038 5.164 19.752 10.446 34.338 14.468 38.050 12.066-2.142 21.392-6.33 28.010-12.444l-0.762-8.020c-19.060-30.748-51.328-238.418-55.61-281.894l-0.12-0.81 0.81-0.142c67.010-10.566 110.438-19.18 130.142-25.794 55.54-18.584 85.38-47.402 90.118-86.524-3.358-33.412-17.492-57.946-42.48-73.936v0zM1280.55 714.364c-4.734 6.14-7.924 9.306-9.636 9.424-1.688 0.12-4.806-0.048-9.424-0.572-5.736-8.496-8.876-20.678-9.4-36.478-0.142-7.328-0.476-20.392-1-39.192 2.498 0 4.402-0.214 5.688-0.572 2.736 6.14 7.638 17.254 14.684 33.34 6.066 13.776 9.088 25.152 9.088 34.050v0zM1501.666 722.122c-0.882 0.904-2.284 1.998-4.092 3.332-6.14-4.45-13.85-13.136-23.152-26.080-8.090-11.398-16.92-19.538-26.438-24.51-17.3-0.642-32.72 1.498-46.284 6.45-8.924 3.284-20.392 9.494-34.528 18.632-16.586 10.684-29.746 18.442-39.358 23.152h-9.424c-7.734-7.71-14.016-18.728-18.87-33.126-4.426-13.088-6.64-25.7-6.64-37.884l5.498-2.522c1.926-0.904 5.52-1.404 10.756-1.404 5.474 5.616 9.732 12.42 12.73 20.392l0.596 1.57c1.45 4.046 3.998 11.090 7.662 21.154 5.616-0.142 16.324-5.212 32.124-15.3 17.894-11.376 31.362-18.418 40.382-21.154 5.258-0.81 10.374-1.214 15.3-1.214 17.42 0 33.316 4.496 47.688 13.54 18.442 11.59 30.482 29.892 36.050 54.972v0zM1629.904 641.618c-6.14 13.992-15.158 26.89-27.056 38.67-13.612 13.422-27.008 21.154-40.192 23.13-2.498-2.332-3.76-4.688-3.76-7.066 0-1.546 0.596-3.212 1.808-4.902 9.258-9.282 17.894-18.394 25.89-27.462 4.426-5.092 6.282-11.28 5.474-18.584-13.35 1.426-25.746 7.138-37.264 17.014-12.278 10.636-18.442 22.37-18.442 35.314 6.426 16.23 18.822 29.222 37.264 39.026l51.59 21.798c-0.286 1.57-0.428 3.928-0.428 7.042-32.816-1.426-58.896-7.9-78.218-19.394-11.018-6.522-18.87-15.276-23.558-26.27-1.808-4.164-2.736-8.806-2.736-13.922 0-7.972 2.236-16.92 6.688-26.866 1.57-6.26 7.4-14.254 17.468-23.916 19.060-18.442 37.74-29.532 56.040-33.364 2.498-0.5 4.974-0.762 7.424-0.762 8.138 0 15.348 3.022 21.56 9.020 1.214 2.88 1.76 5.378 1.76 7.448 0.044 1.644-0.432 3.024-1.312 4.046v0zM1858.588 695.78c-7.566 7.566-13.564 11.376-18.036 11.376-4.688 0-9.518-3.452-14.492-10.398-3.452-4.712-7.472-9.59-12.374-14.708-3.022-3.142-6.924-4.688-11.756-4.688-3.308 0-6.092 0.428-8.448 1.404-10.042 3.76-24.962 12.018-44.664 24.678-20.822 13.374-35.742 22.084-44.76 26.27-17.894 8.4-34.242 12.66-49.044 12.944-8.090 0.12-14.588-3.166-19.562-9.828-4.474-5.854-6.688-13.064-6.688-21.56 0-14.23 12.042-30.246 36.076-48.020 23.296-17.158 42.904-25.7 58.848-25.7 1.856 0 3.666 0.142 5.474 0.382 2.38 3.142 3.808 7.71 4.33 13.73-5.758 7.59-13.66 13.088-23.7 16.492-5.258 1.522-14.588 4.474-28.080 8.806-22.226 7.21-32.91 19.728-31.934 37.67 3.998 6.116 9.4 9.186 16.038 9.186 3.808 0 7.9-0.882 12.374-2.712 12.682-5.092 27.604-13.136 44.712-24.13 7.996-5.116 22.346-14.206 43.118-27.246 12.682-7.852 24.772-11.78 36.29-11.78 1.808 0 3.618 0.142 5.474 0.404 18.966 7.162 29.554 11.398 31.982 12.754 12.538 6.732 18.822 15.012 18.822 24.674v0zM2009.812 670.888c-1.31 7.686-6.45 15.038-15.468 21.964-7.424 5.758-15.706 9.922-24.724 12.54-4.83 1.45-9.352 2.142-13.516 2.142-4.474 0-8.876-0.762-13.35-2.356-8.448-2.998-13.754-10.828-15.848-23.51 1.31-0.904 2.688-2.166 4.282-3.736 14.778 4.068 27.842 8.472 39.216 13.35 1.808 0.786 3.452 1.214 4.926 1.214 8.876 0 14.684-12.468 17.42-37.432-4.188-7.352-9.020-12.492-14.492-15.49-3.308-1.832-10.090-4.164-20.392-6.876-30.078 0-48.616 8.52-55.682 25.676-4.592 11.136-6.876 23.224-6.876 36.29 0 21.154 7.066 50.496 21.202 88.022 11.756 31.22 19.014 52.090 21.75 62.538 0.548 10.090 0.786 18.442 0.786 25.13 0 8.352-4.188 13.278-12.54 14.684-10.446-10.47-17.158-28.248-20.038-53.304-0.5-4.616-2.428-24.51-5.664-59.848-15.062-34.766-21.846-65.678-20.344-92.758 1.404-27.056 24.534-47.688 69.39-61.966 39.972-0.030 59.962 17.89 59.962 53.726v0zM2157.802 666.892c-1.356 7.686-6.45 15.014-15.514 21.964-7.424 5.782-15.658 9.946-24.724 12.54-4.782 1.45-9.352 2.166-13.468 2.166-4.474 0-8.924-0.786-13.374-2.38-8.448-2.998-13.802-10.852-15.848-23.51 1.31-0.928 2.736-2.188 4.282-3.736 14.778 4.068 27.842 8.52 39.216 13.35 1.856 0.81 3.474 1.214 4.926 1.214 8.876 0 14.684-12.468 17.42-37.456-4.188-7.328-9.020-12.492-14.492-15.468-3.26-1.856-10.042-4.14-20.392-6.876-30.078 0-48.616 8.568-55.682 25.676-4.544 11.136-6.876 23.2-6.876 36.29 0 21.202 7.066 50.52 21.202 88.046 11.756 31.22 19.060 52.114 21.75 62.514 0.5 10.066 0.786 18.49 0.786 25.13 0 8.376-4.188 13.326-12.54 14.73-10.422-10.47-17.158-28.248-19.99-53.35-0.548-4.568-2.428-24.486-5.664-59.848-15.062-34.766-21.846-65.678-20.392-92.712 1.45-27.104 24.534-47.734 69.438-61.966 39.898-0.074 59.936 17.82 59.936 53.682v0zM2208.464 455.746c-15.514 29.674-23.32 62.132-23.32 97.446 0 3.284 0.142 7.52 0.382 12.73 1.712 35.194 2.642 72.65 2.736 112.39 0 5.854 0.786 14.708 2.38 26.484 0.428 2.998 0.596 5.616 0.596 7.828 0 5.878-0.976 11.066-2.974 15.468-3.712 0.62-7.020 1-9.756 1-3.26-3.808-5.164-11.684-5.712-23.7-0.096-6.020-0.19-11.946-0.19-17.656 0-13.73 1.024-35.194 2.974-64.536l0.382-5.45c0.786-11.898 1.31-20.774 1.57-26.508-1.166-14.73-3.618-36.266-7.258-64.512-0.882-7.090-1.404-13.944-1.404-20.56 0-18.346 3.808-33.53 11.566-45.712 1.31-0.904 6.282-3.974 14.92-9.234 3.404-2.094 6.14-3.142 8.234-3.142 3.232 0.002 4.874 2.548 4.874 7.664v0zM2321.4 608.898c-6.188 13.992-15.158 26.89-27.104 38.622-13.612 13.444-27.008 21.202-40.192 23.152-2.474-2.356-3.712-4.664-3.712-7.042 0-1.57 0.596-3.26 1.76-4.902 9.306-9.306 17.894-18.418 25.89-27.486 4.496-5.068 6.282-11.28 5.52-18.584-13.374 1.474-25.794 7.138-37.264 17.062-12.278 10.59-18.442 22.346-18.442 35.266 6.378 16.252 18.822 29.246 37.264 39.026l51.59 21.774c-0.286 1.546-0.428 3.928-0.428 7.090-32.816-1.45-58.896-7.9-78.266-19.394-10.922-6.544-18.822-15.324-23.51-26.27-1.808-4.188-2.736-8.828-2.736-13.922 0-7.996 2.236-16.944 6.688-26.914 1.522-6.282 7.352-14.23 17.42-23.916 19.060-18.394 37.788-29.508 56.040-33.316 2.498-0.524 5.020-0.786 7.472-0.786 8.090 0 15.3 3.022 21.56 8.996 1.166 2.88 1.76 5.402 1.76 7.472 0.024 1.67-0.38 3.026-1.31 4.072v0zM1822.892 207.574c52.708-67.606 117.032-55.85 137.328-75.91-63.108-4.64-115.268 13.374-153.748 53.636 2.928-25.368 3.070-49.758-0.786-68.272-9.352 13.588-19.608 33.434-28.722 55.682-20.63-54.184-63.536-91.496-126.144-110.558 12.968 28.77 89.832 40.668 107.13 148.084-30.532-81.050-94.352-136.876-187.776-165.242 19.204 42.594 132.926 60.252 158.96 218.878 14.872-5.758 32.91-7.496 51.544-3.928 13.35 2.57 25.32 7.52 35.362 14.088 79.812-115.030 182.136-94.78 213.572-125.834-82.456-6.136-152.25 13.806-206.72 59.376v0zM1868.39 364.988c-13.754-40.168-36.124-69.39-67.106-87.688-11.114-4.474-22.178-7.258-33.102-8.376-25.462-2.546-49.45 3.832-71.816 19.108-32.244 21.916-54.804 55.826-67.486 101.776 3.618 0.382 7.71 0.072 12.374-1 11.066-12.802 16.538-32.22 40.62-53.16 32.292-28.128 59.586-41.88 81.932-41.12 3.022-0.19 6.188-0.19 9.306 0.096 45.498 4.164 77.624 60.444 71.626 125.786-5.95 65.298-47.688 114.888-93.186 110.748-45.498-4.188-77.576-60.468-71.626-125.786 1.024-11.47 3.212-22.464 6.33-32.792-9.21 10.47-19.322 26.508-28.626 47.118-18.346 40.858-2.188 81.956 13.66 114.176 16.492 34.1 68.272 37.55 109.178 41.692 32.34-5.498 56.612-21.368 72.84-47.664 8.924-14.54 15.372-29.054 19.322-43.452 10.944-39.46 9.562-79.294-4.24-119.462v0zM2189.808 786.586l-1.024-1.024-1.428 0.31c-0.238 0.072-0.882 0.12-1.712 0.12h-1.904l-0.596 1.808c-0.786 2.498-1.262 5.068-1.262 7.59 0 3.594 0.882 7.21 2.498 10.756 2.474 5.306 4.234 10.256 5.354 14.778 0.142 2.26 0.19 4.426 0.19 6.45 0 3.904-0.19 7.424-0.548 10.59-0.334 1.642-0.882 2.522-2.688 3.546-1.712 0.882-4.734 1.522-8.876 1.522-4.378-1.522-7.566-3.974-9.898-7.424-1.404-2.022-3.26-6.14-5.258-12.136-2.188-6.498-4.092-11.090-5.902-14.040l-0.808-1.24h-5.26l-5.258 15.944c-2.236 6.758-3.76 11.398-4.544 14.016-1.712 3.474-2.88 5.806-3.474 7.114-0.5 1.024-0.738 2.142-0.738 3.332 0 1.974 0.738 3.832 1.904 5.664l0.786 1.214h1.45c0 0 0.048 0 0.096 0 3.070 0 5.758-1.904 7.424-4.616 1.76-2.736 2.928-6.426 3.856-11.114 0.738-4.616 1.262-7.804 1.522-9.542 0.19-0.928 0.334-1.736 0.5-2.498 1.12 2.356 2.142 4.688 3.118 6.948l0.096 0.214 0.096 0.166c3.070 5.020 6.78 9.78 11.114 14.398 3.308 3.498 7.566 5.45 12.182 5.426 2.142 0 4.426-0.382 6.736-1.144l0.428-0.166 0.428-0.334c5.306-4.378 9.4-8.806 12.136-13.374 2.498-4.092 3.618-9.114 3.618-14.848 0-6.498-1.356-13.754-3.952-21.678-2.122-6.28-5.548-11.872-10.402-16.728v0zM2217.15 794.558l0.048 0.334 0.096 0.334c0.976 2.57 3.166 3.308 5.402 3.784l0.882 0.214 0.834-0.404c25.7-12.92 45.212-21.774 58.562-26.532 3.998-0.62 6.592-1.144 8.376-1.904l1.57-0.738v-1.712c0.048-0.142 0.096-0.334 0.19-0.62l0.548-1.688-1.45-1.12c-1.356-1.024-2.546-1.072-3.856-1.096-2.688 0-6.236 0.666-10.97 1.926-7.114 1.95-14.778 4.33-23.152 7.258-10.422 3.666-18.538 6.736-24.582 9.258-6.044 2.546-9.756 4.354-11.898 6.116l-1.024 0.904 0.096 1.334c0.138 1.426 0.28 2.9 0.328 4.352v0zM2266.17 839.056c-1.712 0.286-3.404 0.5-5.020 0.5-5.806 0-11.994-1.904-18.538-5.878-1.522-1.594-1.95-2.856-1.95-3.166 0-0.12 0-0.166 0-0.166 0-0.928 0.142-2.046 0.476-3.308 4.64-4.258 14.184-7.328 28.484-8.424l1.024-0.096 0.69-0.762c0.882-0.882 1.214-2.094 1.214-3.166-0.096-1.974-0.882-3.76-2.142-6.828l-0.976-2.142-2.236 0.666c-5.164 1.57-9.946 3.166-14.374 4.782-2.594 0.882-4.878 1.736-6.688 2.356 0.976-1.832 2.236-3.88 3.666-6.282 2.428-3.88 3.856-7.376 3.856-10.708 0-1.426-0.286-2.808-0.882-4.022l-0.548-1.286-1.45-0.214c-0.382-0.048-0.69-0.096-1.024-0.096-5.758 0.31-9.66 5.236-13.754 13.088-2.88 5.782-5.068 11.376-6.498 16.73-3.404 1.498-5.998 2.712-7.948 3.642-1.12 0.524-1.95 0.928-2.594 1.31-0.69 0.404-1.024 0.548-1.712 1.144l-0.882 0.928 0.142 1.334c0.382 2.308 0.596 3.88 1.998 5.426l0.786 0.81h1.12c2.428-0.048 5.354-1 9.47-2.712 0.548 1.262 0.928 2.45 1.166 3.452l0.19 0.69 0.5 0.524c7.424 7.662 15.99 11.756 25.272 11.756h0.048c1.76 0 3.474-0.12 5.212-0.358 10.684-1.664 21.368-5.164 32.078-10.47l1.214-0.572 0.238-1.38c0.142-0.762 0.286-1.31 0.334-1.38l2.642-5.83-5.998 2.284c-9.64 3.662-18.514 6.256-26.606 7.824v0zM2370.802 818.164v-0.572l-0.238-0.5c-1.664-3.974-5.402-6.522-9.898-7.258-1.856-0.286-3.856-0.452-6.044-0.452-2.594 0-5.068 0.214-7.4 0.596-9.47 1.522-17.062 4.092-22.726 7.804l-1.214 0.81v1.426c0.048 0.882 0.142 1.214 0.382 2.26l0.238 1.498 1.522 0.5c0.786 0.214 1.166 0.382 1.998 0.5l0.976 0.12 0.786-0.548c2.142-1.522 6.876-3.236 13.898-4.688 2.546-0.524 4.83-0.762 6.736-0.762 3.070 0 5.306 0.548 7.020 1.57 0.596 1.096 0.786 2.022 0.786 2.784 0 1.144-0.334 2.022-1.31 3.118-2.332 2.618-4.426 4.616-6.188 5.998-6.972 3.452-13.706 5.092-20.226 5.092-2.736 0-5.45-0.286-7.9-0.834-8.544-1.998-12.826-7.9-13.468-20.56-0.048-0.166-0.048-0.166 0-0.238-0.048-2.188 1.356-5.782 4.688-10.256 2.498-3.356 5.45-6.616 8.924-9.732 9.020-8.138 16.872-12.182 23.296-12.706 0.976 1.736 1.998 3.236 2.974 4.568l0.786 1.048h4.974l0.738-1.31c1.404-2.26 2.974-4.712 4.782-7.496 0.738-1.096 1.166-2.45 1.166-3.76 0-2.998-1.808-5.402-4.378-7.52l-0.786-0.714-1.166 0.072c-9.66 0.976-18.918 4.568-27.508 10.756-6.044 4.306-13.064 10.922-21.25 19.918l-0.19 0.238-0.142 0.334c-4.474 8.21-6.828 15.228-6.828 21.346 0 2.118 0.286 4.092 0.928 5.998 2.38 7.042 8.686 12.898 18.322 17.966l0.238 0.166 0.238 0.072c3.808 1.096 7.9 1.664 12.23 1.664 5.402 0 11.114-0.904 17.158-2.594 11.208-3.070 19.204-9.874 23.2-19.942l0.238-0.642-0.096-0.69c-0.17-1.664-0.266-3.188-0.266-4.448v0zM2390.694 807.956l-0.19-1.024-0.834-0.596c-1.618-1.286-3.712-1.926-5.902-1.926h-2.236l-0.382 2.188c-0.286 1.688-0.476 3.642-0.476 5.83 0 4.282 0.596 9.494 1.712 15.73 1.76 9.352 3.618 15.896 6.092 20.108l0.786 1.262h1.474c0.928 0 1.808-0.166 2.784-0.382l1.404-0.334 1.522-4.282-0.096-0.642c-2.23-15.872-4.134-27.842-5.658-35.932zM2454.232 834.274l-1.474-0.238-0.976 1.144c-0.882 1-2.498 1.76-5.52 1.76-3.856 0-8.044-0.834-12.636-2.522-4.64-1.736-8.328-3.904-11.066-6.45-1.474-1.38-1.808-2.356-1.808-2.76 0-0.19 0.048-0.358 0.142-0.548l22.774-13.374 0.334-0.666c1.356-2.736 2.142-5.306 2.142-7.758 0.096-4.188-2.474-7.804-6.378-9.756-5.616-2.998-12.588-4.758-20.822-5.498-4.282-0.358-8.686-0.5-13.254-0.5-3.904 0-7.52 0.12-10.78 0.334-7.21 0.548-11.946 0.952-14.278 1.096l-0.238 0.024-0.286 0.048c-2.284 0.596-4.046 1.096-5.354 1.474-1.356 0.358-1.856 0.5-2.594 0.834-3.166 1.736-4.426 5.188-4.378 8.876v1.38l1.166 0.81c1.856 1.166 3.904 1.38 6.592 1.426h0.286l0.286-0.096c8.972-1.974 18.728-3.76 29.27-5.354 3.26-0.5 6.45-0.762 9.612-0.762 6.33 0 12.444 1.024 18.442 3.046 0.5 1 0.69 1.904 0.69 2.522 0 1.096-0.382 1.95-1.904 3.166-2.284 1.784-6.092 4.212-11.352 7.138-5.474 3.070-9.518 5.52-12.136 7.544-2.284 1.664-3.808 4.164-3.76 6.924 0 2.188 0.834 4.258 2.236 6.188l0.19 0.286 0.286 0.262c10.684 8.806 23.32 13.278 37.55 13.278h0.048c3.118 0 6.33-0.214 9.612-0.642l1.522-0.214 0.596-1.426c0.286-0.714 0.69-1.808 1.262-3.356l0.19-0.452v-7.044h-2.642c-0.806-0.048-1.402-0.096-1.592-0.144zM2467.248 767.098l-0.976-1.144-1.474 0.238c-3.998 0.62-7.424 2.594-8.448 6.26-0.19 1-0.142 1.522-0.19 3.022-0.048 1.426-0.048 3.404-0.048 5.95v0.238l0.048 0.262c1.214 6.544 1.998 10.756 2.332 12.612 1.214 7.638 1.904 12.706 1.904 14.588 0.19 3.904 0.238 8.186 0.238 12.992 0.19 6.212 0.286 9.922 2.784 12.706l1.904 1.808 1.808-1.856c1.618-1.736 2.332-3.952 2.974-7.114 1.072-5.402 1.808-12.018 2.332-20.108l0.428-6.924-2.642-0.166 2.642 0.12c0.048-0.548 0.048-1.474 0.048-2.904 0-2.784-0.048-7.21-0.19-13.422-0.19-6.998-1.904-12.828-5.474-17.158v0zM2544.396 831.038c-0.976-0.048-1.998-0.072-2.974-0.072-5.306 0-10.59 0.62-15.99 1.856-6.236 1.426-11.852 2.212-16.872 2.356-6.688-1.024-11.018-2.188-11.852-2.808-0.286-0.404-0.976-2.904-0.928-6.9 0-0.738 0-1.498 0.048-2.308 0.548-1.426 1.618-4.306 3.212-8.544 5.020-13.016 8.638-23.438 10.97-31.41 0.882-3.26 1.404-5.616 1.404-7.614-0.048-1.048-0.048-2.046-0.928-3.308l-0.928-1.144-1.404 0.12c-9.068 0.714-14.54 7.972-15.158 18.49l-0.928 11.47-4.64 16.872c-1.904 6.924-3.070 12.826-3.356 17.846v0.642l0.238 0.548c1.998 4.52 6.378 7.282 11.898 7.924 2.474 0.382 4.83 0.524 7.114 0.524 6.876 0 15.42-1.38 25.89-4.046l17.468-4.474v-2.070c0.048-0.12 0.096-0.334 0.19-0.596l0.928-3.236-3.402-0.118z" />
</svg>
