<?xml version="1.0" encoding="utf-8"?>
<!-- Generator: Adobe Illustrator 16.0.0, SVG Export Plug-In . SVG Version: 6.00 Build 0)  -->
<!DOCTYPE svg PUBLIC "-//W3C//DTD SVG 1.1//EN" "http://www.w3.org/Graphics/SVG/1.1/DTD/svg11.dtd">
<svg version="1.1" id="Foreground" xmlns="http://www.w3.org/2000/svg" xmlns:xlink="http://www.w3.org/1999/xlink" x="0px" y="0px"
	 width="191.996px" height="54.026px" viewBox="0 0 191.996 54.026" enable-background="new 0 0 191.996 54.026"
	 xml:space="preserve">
<g>
	<path fill-rule="evenodd" clip-rule="evenodd" d="M31.1,45.608h-6.051c-0.695,0-1,0.524-0.676,1.166l2.504,4.723
		c0.555,1.149,1.579,1.222,2.346,0.075l2.553-4.798C32.1,46.133,31.795,45.608,31.1,45.608"/>
	<path fill-rule="evenodd" clip-rule="evenodd" d="M21.898,24.644c1.275,0.153,3.053,0.887,5.085,1.753h8.345
		c0.695,0,1.233-0.569,1.195-1.266l-0.538-5.476c-0.1-0.689-0.751-1.253-1.447-1.253H21.609c-0.695,0-1.348,0.564-1.447,1.253
		l-0.368,3.742c0.304,0.603,0.222,1.184,0.268,1.388C20.098,24.939,20.762,24.507,21.898,24.644"/>
	<path fill-rule="evenodd" clip-rule="evenodd" d="M24.86,8.4h6.427c0.695,0,1.005-0.527,0.686-1.172l-2.624-5.007
		c-0.6-1.228-1.991-1.154-2.61,0.096l-2.564,4.912C23.855,7.873,24.164,8.4,24.86,8.4"/>
	<path fill-rule="evenodd" clip-rule="evenodd" d="M34.468,35.569c0.267-0.156,0.606-0.405,0.795-0.494
		c0.413-0.194,0.648-0.667,0.662-0.76c0,0,0.382-0.742,0.104-0.981c-0.088-0.075-4.353,2.061-4.498,2.235
		C31.277,35.87,33.863,35.922,34.468,35.569"/>
	<path d="M33.061,29.869c0.909,0.197,2.086-1.181,3.114-2.019c-0.215-0.217-0.515-0.353-0.851-0.353h-5.727
		c0.354,0.144,0.711,0.287,1.072,0.428C32.67,28.699,32.743,29.8,33.061,29.869"/>
	<path d="M31.775,9.338H24.37c-0.695,0-1.464,0.535-1.707,1.189l-1.766,5.548c-0.181,0.673,0.239,1.225,0.937,1.225h12.479
		c0.696,0,1.118-0.551,0.938-1.225l-1.766-5.548C33.24,9.873,32.473,9.338,31.775,9.338"/>
	<path fill-rule="evenodd" clip-rule="evenodd" d="M29.99,37.6c0.248,0.108,0.112-0.212,2.559-0.611
		c1.178,0.142,1.472-0.189,1.566-0.318h-4.127C29.55,37.192,29.775,37.508,29.99,37.6"/>
	<path fill-rule="evenodd" clip-rule="evenodd" d="M25.88,41.154c-1.282-0.954-3.308-3.99-3.595-4.288
		c-0.047-0.049-0.208-0.117-0.438-0.193c-0.656,0.036-1.039,0.569-0.859,1.217l1.84,5.594c0.251,0.651,1.021,1.183,1.719,1.183
		h7.054c0.694,0,1.468-0.532,1.718-1.183l1.042-3.164c-0.469,0.207-1.008,0.469-1.638,0.796
		C28.768,43.169,27.186,42.127,25.88,41.154"/>
	<path fill-rule="evenodd" clip-rule="evenodd" d="M48.086,18.331c-0.987,0-0.742,0.998-0.742,0.998
		c0.498,1.914,0.808,3.904,0.908,5.951c0,0,0.164,1.025,1.043,1.049h5.875c1.125-0.036,1.198-1.272,1.198-1.272
		c-0.11-2.048-0.44-3.597-0.971-5.503c-0.001,0-0.503-1.195-1.765-1.223H48.086"/>
	<path fill-rule="evenodd" clip-rule="evenodd" d="M55.114,27.429h-5.819c-0.457,0.001-0.717,0.238-0.865,0.483
		c1.324,1.283,2.641,2.751,3.658,4.162c1.393,1.933,0.889,2.255,0.549,2.644c-0.086,0.097-0.454,0.415-1.228,0.784h2.224
		c1.344-0.014,1.725-1.294,1.725-1.294c0.539-1.91,0.883-3.462,1.003-5.517C56.36,28.691,56.405,27.434,55.114,27.429"/>
	<path fill-rule="evenodd" clip-rule="evenodd" d="M43.199,10.256c1.546,2.08,2.312,3.629,3.133,5.887c0,0,0.423,1.061,1.535,1.087
		h5.49c1.495,0,0.949-1.322,0.949-1.322c-0.941-2.346-1.979-3.708-3.641-5.761C50.009,9.43,48.68,9.269,48.68,9.269h-4.619
		C42.617,9.274,43.199,10.256,43.199,10.256"/>
	<path d="M32.438,0.712c3.339,1.713,5.839,3.661,8.309,6.507c1.337,1.357,2.452,1.11,2.452,1.11h4.394c0,0,1.683,0.014,0.704-1.083
		C44.293,3.059,39.122,1.022,33.281,0"/>
	<path fill-rule="evenodd" clip-rule="evenodd" d="M30.551,1.566c1.076,1.562,1.906,4.089,2.729,5.661
		c-0.001,0,0.202,1.106,1.63,1.102h4.227c1.456,0.005,0.215-1.141,0.215-1.141c-2.385-2.609-4.739-4.355-7.897-5.918"/>
	<path fill-rule="evenodd" clip-rule="evenodd" d="M38.038,17.229h6.425c1.209,0.042,0.694-1.1,0.694-1.1
		c-0.827-2.073-1.89-4.026-3.157-5.825c0,0-0.283-1.031-1.765-1.036h-4.888c-1.125,0.005-0.566,1.027-0.566,1.027
		c0.768,1.885,1.406,3.837,1.906,5.843C36.688,16.139,36.939,17.216,38.038,17.229"/>
	<path fill-rule="evenodd" clip-rule="evenodd" d="M44.354,36.601h-3.599c0.368,0.198,0.665,0.348,0.825,0.413
		c0.449,0.178,1.759,0.657,3.255,0.987c0.054-0.126,0.109-0.249,0.161-0.375C44.995,37.626,45.479,36.586,44.354,36.601"/>
	<path fill-rule="evenodd" clip-rule="evenodd" d="M36.021,39.708c-0.406,1.31-0.873,2.594-1.397,3.847c0,0-0.812,1.047,0.614,1.043
		h4.503c1.233,0.004,1.892-1.033,1.892-1.033c0.717-0.972,1.373-1.993,1.963-3.057c-1.568-0.321-3.816-0.805-5.148-0.853
		C37.621,39.626,37.143,39.417,36.021,39.708"/>
	<path fill-rule="evenodd" clip-rule="evenodd" d="M37.324,34.619c0.072,0.266,0.935,0.875,1.488,0.882c0.555,0.004,5.98,0,5.98,0
		c0.619-0.007,0.951-0.305,1.127-0.585c0-0.066-0.002-0.123-0.004-0.165c-0.02-0.433,0.096-1.283-0.7-3.233
		c-0.874-2.144-2.555-2.205-3.944-1.821c-1.576,0.434-3.404,1.889-3.607,2.33c-0.205,0.44-0.41,2.221-0.41,2.221
		C37.254,34.248,37.248,34.353,37.324,34.619"/>
	<path fill-rule="evenodd" clip-rule="evenodd" d="M43.262,24.148c0.69,0.125,1.929,0.935,3.326,2.1
		c0.691-0.244,0.554-0.972,0.554-0.972c-0.101-2.038-0.413-4.024-0.919-5.929c-0.001,0-0.112-0.977-1.266-1.017h-6.754
		c-0.934-0.014-0.846,1.004-0.846,1.004c0.331,1.94,0.533,3.924,0.6,5.941c0,0.001,0.295,1.282,1.281,1.276h0.934
		c0.496-0.164,0.754-0.555,0.8-0.774C41.107,25.14,41.65,23.855,43.262,24.148"/>
	<path fill-rule="evenodd" clip-rule="evenodd" d="M47.302,45.567H42.91c0,0.001-1.117-0.246-2.452,1.11
		c-2.472,2.847-4.97,4.794-8.311,6.507c-1.094,0.57-0.672,0.913,0.844,0.712c5.843-1.021,11.011-3.059,15.015-7.246
		C48.986,45.553,47.302,45.567,47.302,45.567"/>
	<path fill-rule="evenodd" clip-rule="evenodd" d="M39.062,46.709c-0.001,0,1.239-1.145-0.215-1.142h-4.228
		c-1.428-0.003-1.631,1.102-1.631,1.102c-0.822,1.572-1.652,4.099-2.729,5.661c-0.357,0.604,0.044,0.642,0.904,0.3
		C34.321,51.063,36.676,49.317,39.062,46.709"/>
	<path fill-rule="evenodd" clip-rule="evenodd" d="M13.398,43.647c-1.297-1.843-2.387-3.844-3.234-5.969
		c-0.002,0-0.127-1.022-1.334-1.008H3.064c-1.263,0.04-0.893,1.34-0.893,1.34c0.889,2.09,2.023,3.83,3.371,5.623
		c0,0,0.35,1.037,1.914,1.033h5.709C14.073,44.67,13.398,43.647,13.398,43.647"/>
	<path fill-rule="evenodd" clip-rule="evenodd" d="M4.609,23.998c-0.283-0.364,0.15-0.746,0.01-0.88
		c-1.226-1.162-0.344-2.065-0.061-2.812c0.178-0.474,0.428-1.218,0.549-1.904H2.735c-1.263,0.025-1.767,1.221-1.767,1.221
		C0.44,21.529,0.109,23.077,0,25.125c0,0.001,0.072,1.234,1.197,1.272h4.656c-0.014-0.048-0.025-0.089-0.031-0.119
		C5.748,25.984,5.308,24.899,4.609,23.998"/>
	<path fill-rule="evenodd" clip-rule="evenodd" d="M6.517,29.414C6.429,28.68,6.29,28.023,6.16,27.498H1.252
		c-1.289,0.005-1.246,1.262-1.246,1.262c0.121,2.054,0.465,3.605,1.004,5.518c0,0,0.379,1.278,1.726,1.292h5.655
		c1.125-0.014,0.891-1.431,0.891-1.431c-0.057-0.592-0.174-0.747-0.596-1.381C7.998,32.316,6.726,31.158,6.517,29.414"/>
	<path fill-rule="evenodd" clip-rule="evenodd" d="M5.877,14.685c0.762-1.153,3.137-0.913,3.875-0.919
		c0.605-0.007,1.041-0.123,1.416-0.249c0.521-1.042,1.141-2.035,1.998-3.192c0,0,0.584-0.982-0.861-0.987H7.688
		c0,0-1.12,0.02-1.987,0.877c-1.661,2.054-2.697,3.414-3.638,5.761c0,0-0.55,1.323,0.947,1.323h2.138
		C5.009,16.507,5.1,15.86,5.877,14.685"/>
	<path fill-rule="evenodd" clip-rule="evenodd" d="M23.084,0.073c-5.84,1.021-11.01,3.06-15.014,7.246
		C7.092,8.415,8.994,8.4,8.994,8.4h4.172c0,0,1.117,0.247,2.453-1.11c2.472-2.847,4.971-4.794,8.31-6.505"/>
	<path fill-rule="evenodd" clip-rule="evenodd" d="M24.912,1.34c-3.158,1.565-5.514,3.312-7.896,5.92c0,0-1.24,1.146,0.215,1.141
		h4.227c1.43,0.006,1.631-1.102,1.631-1.102C23.91,5.728,24.74,3.2,25.816,1.64"/>
	<path fill-rule="evenodd" clip-rule="evenodd" d="M14.055,14.368c1.763-0.832,2.156-1.653,2.363-1.021
		c0.918,2.808-1.014,3.374-1.504,3.619c-0.217,0.108-0.359,0.174-0.508,0.334h3.922c1.098-0.014,1.352-1.092,1.352-1.092
		c0.5-2.006,1.139-3.956,1.906-5.842c-0.001,0,0.559-1.022-0.568-1.027h-4.886c-1.483,0.005-1.766,1.035-1.766,1.035
		c-0.633,0.899-1.214,1.837-1.741,2.808c0.002,0,0.004,0,0.005,0C14.021,13.262,13.306,14.722,14.055,14.368"/>
	<path fill-rule="evenodd" clip-rule="evenodd" d="M16.626,44.667h4.503c1.428,0.004,0.613-1.041,0.613-1.041
		c-0.802-1.919-1.471-3.907-1.995-5.954c-0.001,0-0.048-1.015-1.31-1.001h-6.424c-1.125-0.014-0.645,1.025-0.645,1.025
		c0.886,2.122,2.02,4.115,3.365,5.94C14.734,43.636,15.391,44.67,16.626,44.667"/>
	<path fill-rule="evenodd" clip-rule="evenodd" d="M10.109,33.189c-0.032,0.449,0.024,0.864,0.146,1.301
		c0,0,0.139,1.065,1.319,1.079h5.88c-1.023-0.282-4.688-1.318-5.945-2.011C10.626,33.072,10.146,32.997,10.109,33.189"/>
	<path fill-rule="evenodd" clip-rule="evenodd" d="M10.06,20.895c-0.114,0.008-0.2,0.014-0.271,0.024
		c-0.293,1.409-0.48,2.856-0.557,4.334c0.09,0.26,0.221,0.499,0.401,0.703c0.161,0.182,1.403,1.11,1.856,0.441
		c0.188-0.279,0.104-0.208,0.096-0.302c-0.037-0.514-0.641-0.625-0.666-0.959c-0.017-0.224,0.746-1.854,1.523-2.488
		c0.393-0.32,0.713-0.267,1.096,0.098c0.412,0.39,1.494-1.114,2.893-0.977c0.963,0.096,1.667,0.294,2.182,0.545
		c0.1-0.98,0.232-1.95,0.396-2.911c-0.001,0.001,0.086-1.017-0.847-1.001h-4.392c-0.031,0.066-0.064,0.137-0.1,0.212
		C12.632,20.85,10.629,20.847,10.06,20.895"/>
	<path fill-rule="evenodd" clip-rule="evenodd" d="M24.218,53.255c-3.339-1.712-5.837-3.66-8.309-6.507
		c-1.336-1.356-2.452-1.109-2.452-1.109H9.064c0,0-1.682-0.013-0.703,1.083c4.002,4.187,9.174,6.225,15.015,7.246
		C24.893,54.168,25.312,53.826,24.218,53.255"/>
	<path d="M23.378,46.742c0,0-0.201-1.106-1.63-1.103H17.52c-1.455-0.003-0.213,1.141-0.213,1.141
		c2.383,2.609,4.738,4.356,7.896,5.921c0.859,0.342,1.264,0.304,0.902-0.301C25.029,50.84,24.201,48.313,23.378,46.742"/>
	<path fill-rule="evenodd" clip-rule="evenodd" d="M8.196,23.261c0,0.001,1.098-2.53,0.11-2.888
		c-0.729-0.263-0.924,0.051-0.715,0.435c0.209,0.383,0.756,0.718,0.357,1.697C7.784,22.904,8.196,23.261,8.196,23.261"/>
	<path d="M47.521,36.599l5.781,0.002c1.263,0.041,0.892,1.341,0.892,1.341c-0.888,2.091-2.022,3.609-3.37,5.401
		c0,0-0.568,1.26-2.134,1.256h-5.491c-0.904,0.004-0.23-1.02-0.23-1.02c0.641-0.912,1.23-1.862,1.766-2.847
		c0.143,0.025,0.264,0.045,0.362,0.055c3.202,0.367,5.199,0.191,5.448-0.092c0.334-0.385,1.854-2.494-2.799-2.363
		c-0.574,0.016-1.185-0.033-1.791-0.124c0.084-0.199,0.1-0.416,0.18-0.618C46.135,37.59,46.313,36.586,47.521,36.599"/>
</g>
<g>
	<path d="M191.057,5.107c0.398,0.403,0.6,0.89,0.6,1.463c0,0.576-0.201,1.067-0.6,1.473c-0.4,0.406-0.889,0.608-1.461,0.608
		c-0.57,0-1.057-0.202-1.459-0.608c-0.398-0.406-0.6-0.897-0.6-1.473c0-0.573,0.203-1.061,0.604-1.463
		c0.402-0.405,0.889-0.609,1.455-0.609C190.166,4.498,190.654,4.702,191.057,5.107z M191.293,4.875
		c-0.469-0.467-1.033-0.7-1.697-0.7c-0.658,0-1.223,0.233-1.688,0.7c-0.469,0.469-0.703,1.034-0.703,1.695
		c0,0.667,0.234,1.235,0.697,1.705c0.465,0.471,1.029,0.707,1.693,0.707s1.229-0.236,1.697-0.707
		c0.471-0.471,0.703-1.04,0.703-1.705C191.996,5.907,191.764,5.341,191.293,4.875z M189.951,6.459
		c-0.098,0.039-0.242,0.059-0.439,0.059h-0.418V5.563h0.395c0.258,0,0.443,0.031,0.562,0.098c0.113,0.064,0.172,0.193,0.172,0.387
		C190.223,6.248,190.133,6.386,189.951,6.459z M188.629,7.882h0.465V6.842h0.363c0.25,0,0.42,0.028,0.518,0.086
		c0.166,0.097,0.248,0.3,0.248,0.604v0.21l0.012,0.085c0,0.012,0.004,0.02,0.006,0.03c0.002,0.007,0.004,0.017,0.006,0.025h0.432
		l-0.012-0.034c-0.012-0.021-0.02-0.067-0.023-0.135c-0.006-0.071-0.008-0.138-0.008-0.197V7.323c0-0.133-0.049-0.27-0.145-0.409
		c-0.096-0.14-0.246-0.225-0.451-0.258c0.16-0.027,0.289-0.069,0.379-0.127c0.174-0.111,0.26-0.286,0.26-0.52
		c0-0.331-0.139-0.556-0.408-0.668c-0.154-0.064-0.393-0.094-0.719-0.094h-0.922V7.882"/>
	<path d="M115.764,4.678l15.561,45.172l-43.441-0.006L96.6,22.75c3.447-0.021,7.566,0.043,11.354-0.014l-5.217,16.873l13.328-0.001
		l-11.76-34.903L115.764,4.678"/>
	<path d="M153.812,4.706h-20.031l-0.023,10.759l14.023,0v0.003c6.648,0,11.951,5.044,11.951,11.712
		c0,6.664-5.498,11.753-12.148,11.753h-3.113V22.498h-10.689v27.154h20.031c10.279-0.937,17.691-11.461,17.691-22.471
		C171.504,16.163,163.311,5.644,153.812,4.706"/>
	<path d="M93.947,18.812c0-7.838-6.506-13.966-14.251-14.227h-0.012c-0.065,0-16.685,0-16.685,0V15.3h15.244
		c1.932,0.119,3.475,1.542,3.475,3.512c0,2.007-1.588,3.642-3.572,3.722h-15.13v27.153h10.692V33.249l6.029-0.024
		C87.539,32.817,93.947,26.639,93.947,18.812"/>
	<rect x="174.18" y="4.706" width="11.07" height="44.959"/>
</g>
</svg>
