<?xml version="1.0" encoding="utf-8"?>
<!-- Generator: Adobe Illustrator 18.0.0, SVG Export Plug-In . SVG Version: 6.00 Build 0)  -->
<!DOCTYPE svg PUBLIC "-//W3C//DTD SVG 1.1//EN" "http://www.w3.org/Graphics/SVG/1.1/DTD/svg11.dtd">
<svg version="1.1" id="Layer_1" xmlns="http://www.w3.org/2000/svg" xmlns:xlink="http://www.w3.org/1999/xlink" x="0px" y="0px"
	 viewBox="0 0 287.1 93" enable-background="new 0 0 287.1 93" xml:space="preserve">
<path d="M282.9,72c0.7,0,1.4,0.3,1.8,0.8c0.5,0.5,0.7,1.2,0.6,1.9c-0.1,0.8-0.4,1.4-1,1.9c-0.6,0.5-1.2,0.8-2,0.8
	c-0.8,0-1.4-0.3-1.9-0.8c-0.5-0.5-0.7-1.2-0.6-1.9c0.1-0.7,0.4-1.4,1-1.9C281.5,72.3,282.2,72,282.9,72z M285.8,74.7
	c0.1-0.9-0.2-1.6-0.7-2.2c-0.6-0.6-1.3-0.9-2.1-0.9c-0.9,0-1.6,0.3-2.3,0.9c-0.7,0.6-1,1.3-1.1,2.2c-0.1,0.9,0.2,1.6,0.7,2.2
	c0.6,0.6,1.3,0.9,2.1,0.9c0.9,0,1.6-0.3,2.3-0.9C285.4,76.4,285.7,75.6,285.8,74.7z M283.6,74.1c0,0.3-0.2,0.4-0.4,0.5
	c-0.1,0.1-0.3,0.1-0.6,0.1H282l0.1-1.2h0.5c0.3,0,0.6,0,0.7,0.1C283.5,73.7,283.6,73.8,283.6,74.1z M281.6,73l-0.3,3.4h0.6l0.1-1.4
	h0.5c0.3,0,0.5,0,0.6,0.1c0.2,0.1,0.3,0.4,0.3,0.8l0,0.3v0.1c0,0,0,0,0,0c0,0,0,0,0,0h0.6l0,0c0,0,0-0.1,0-0.2c0-0.1,0-0.2,0-0.3
	l0-0.2c0-0.2,0-0.4-0.1-0.5c-0.1-0.2-0.3-0.3-0.6-0.3c0.2,0,0.4-0.1,0.5-0.2c0.2-0.1,0.4-0.4,0.4-0.7c0-0.4-0.1-0.7-0.5-0.9
	c-0.2-0.1-0.5-0.1-0.9-0.1H281.6z"/>
<g>
	<path d="M74.8,87.1c-2-0.3-5.1,0-7.8-0.7c-1.8-0.4-2.8-1.4-2.8-2.9c0-2.2,2.2-3.7,6.9-3.7c3.8,0,5.7,0.8,6.4,1.2v1.5l-0.1,0
		c-0.9-0.7-2.7-1.8-6.4-1.8c-4.3,0-5.4,1.3-5.4,2.4c0,1.1,0.7,1.7,2.1,1.9c2.1,0.4,5,0.2,7.5,0.5c2.2,0.3,3.4,1.2,3.4,3
		c0,2.5-2.3,4.4-7.7,4.4c-3.9,0-6.1-0.9-7.1-1.5v-1.7l0.1,0c1.5,1.3,3.5,2.3,7.1,2.3c4.5,0,6-1.3,6-2.9C77,88.1,76.3,87.3,74.8,87.1
		z"/>
	<path d="M91.5,86.8L91.5,86.8l0.1,0.9l-0.1,0.1c-2.2-0.1-4.9-0.1-7.7,0c0,1.5,0,4.2,0,4.2c2.1,0,6.4,0,10.1-0.1l0.1,0.1v1l-0.1,0.1
		c-3.3,0-8.9-0.1-11.7,0l-0.1-0.1c0.1-3.4,0.1-8.3,0-10.8l0.1-0.1c0,0,7.8,0,11.1,0l0.1,0.1v1l-0.1,0.1c-3.8-0.1-7.4-0.2-9.5-0.1
		c0,0,0,2.7,0,4C85.9,86.8,88.7,86.8,91.5,86.8z"/>
	<path d="M108.3,91.7L108.3,91.7l0.1,1l0,0.1c-3,0-8.2-0.1-11,0l-0.1-0.1c0.1-3.4,0.1-8.3,0-10.8l0.1-0.1h1.5l0.1,0.1
		c0,2-0.1,7.7,0,10C101.1,91.9,104.9,91.9,108.3,91.7z"/>
	<path d="M120.9,86.8L120.9,86.8l0.1,0.9l-0.1,0.1c-2.2-0.1-4.9-0.1-7.7,0c0,1.5,0,4.2,0,4.2c2.1,0,6.4,0,10.1-0.1l0.1,0.1v1
		l-0.1,0.1c-3.3,0-8.9-0.1-11.7,0l-0.1-0.1c0.1-3.4,0.1-8.3,0-10.8l0.1-0.1c0,0,7.8,0,11.1,0l0.1,0.1v1l-0.1,0.1
		c-3.8-0.1-7.4-0.2-9.5-0.1c0,0,0,2.7,0,4C115.4,86.8,118.2,86.8,120.9,86.8z"/>
	<path d="M133.3,93c-4.7,0-8.1-2-8.1-5.6c0-3.5,3.7-5.7,8-5.7c3.4,0,5.2,0.6,5.8,0.9v1.5l-0.1,0c-0.8-0.6-2.4-1.6-5.6-1.6
		c-3.8,0-6.2,1.6-6.2,4.8c0,3.2,2,4.7,6.2,4.7c2.9,0,4.5-0.6,5.9-1.8l0.1,0v1.3C138.6,92.1,136.5,93,133.3,93z"/>
	<path d="M147.2,92.7c0.1-3.3,0.1-7.4,0-10c-1.8,0-3.6,0.1-5.7,0.2l-0.1-0.1v-1l0.1-0.1c4.3,0,8.7,0,13.1,0l0.1,0.1v1l-0.1,0.1
		c-2-0.1-3.8-0.2-5.6-0.2c-0.1,3.7,0,6.5,0,10l-0.1,0.1L147.2,92.7L147.2,92.7z"/>
	<path d="M165.9,87.4c0,1.9,0,3.9,0,5.3l-0.1,0.1h-1.6l-0.1-0.1c0.1-4,0.1-9.7,0-12.7l0.1-0.1c1.5-0.1,3.4-0.3,6.4-0.3
		c4.6,0,8.1,0.8,8.1,3.9c0,2.1-2,3.2-5.1,3.6c1.5,1.6,3.2,3.2,6,5.5l0,0.1h-2.4c-1.4-1.5-3.4-3.4-5.6-5.2c-0.5,0-1,0-1.5,0
		C168.7,87.6,167.1,87.5,165.9,87.4z M165.9,86.4c0.9,0.1,2.1,0.3,4,0.3c5.4,0,7-1,7-3c0-2.3-1.9-2.9-6.7-2.9c-2,0-3.1,0.1-4.3,0.3
		C165.9,82.1,165.9,84.2,165.9,86.4z"/>
	<path d="M192.2,86.8L192.2,86.8l0.1,0.9l-0.1,0.1c-2.2-0.1-4.9-0.1-7.7,0c0,1.5,0,4.2,0,4.2c2.1,0,6.4,0,10.1-0.1l0.1,0.1v1
		l-0.1,0.1c-3.3,0-8.9-0.1-11.7,0l-0.1-0.1c0.1-3.4,0.1-8.3,0-10.8l0.1-0.1c0,0,7.8,0,11.1,0l0.1,0.1v1l-0.1,0.1
		c-3.8-0.1-7.4-0.2-9.5-0.1c0,0,0,2.7,0,4C186.7,86.8,189.5,86.8,192.2,86.8z"/>
	<path d="M203,92.8h-1.7c-1.1-2.9-2.9-7.2-4.8-10.9l0.1-0.1h1.8c1.4,3.6,2.6,6.4,4.1,9.6c1.7-3.5,3.1-6.5,4.3-9.6h1.6
		c1.3,3.3,2.8,6.8,4.1,9.6c1.5-3.1,3-6.3,4.3-9.6h1.3l0.1,0.1c-1.8,3.4-3,6.3-5.1,10.9h-1.6c-1.3-3.1-3.1-7.4-4.1-9.5
		C206.1,85.8,204.5,89.4,203,92.8z"/>
	<path d="M230.2,89.4c-2.4,0-5.9-0.1-8.6,0l-2.1,3.4h-1.3l-0.1-0.1c2.3-3.2,4.9-7.1,7.1-10.9h2c2.1,3.6,4.2,6.9,6.9,10.9l0,0.1h-2
		L230.2,89.4z M222.1,88.6c2,0,5,0,7.5,0c-1.1-1.8-2.4-3.9-3.7-5.9C224.4,84.8,223.2,86.8,222.1,88.6z"/>
	<path d="M238.5,88.2c0,1.6,0,3.2,0,4.5l-0.1,0.1h-1.5l-0.1-0.1c0.1-3.4,0.1-8.2,0-10.7l0.1-0.1c1.3-0.1,2.9-0.2,5.4-0.2
		c3.9,0,7.1,0.5,7.1,3.2c0,1.8-1.9,2.8-4.5,3.2c1.3,1.3,2.7,2.6,5.1,4.6l-0.1,0.1h-2.3c-1.2-1.3-2.9-2.8-4.7-4.4c-0.3,0-0.7,0-1,0
		C240.7,88.4,239.5,88.3,238.5,88.2z M238.5,87.3c0.7,0.1,1.7,0.2,3.2,0.2c4.6,0,6-0.8,6-2.6c0-2-1.6-2.4-5.7-2.4
		c-1.7,0-2.4,0.1-3.5,0.3C238.5,83.7,238.5,85.5,238.5,87.3z"/>
	<path d="M253,92.8c0.1-3.4,0.1-8.2,0-10.8l0.1-0.1c1.2-0.1,2.3-0.2,5.4-0.2c4.5,0,8.4,1.8,8.4,5.8c0,3.5-3.8,5.5-8.4,5.5
		C255.8,93,254.3,92.8,253,92.8L253,92.8z M254.7,91.8c0.8,0.1,1.7,0.3,3.6,0.3c4.8,0,6.9-1.7,6.9-4.6c0-3.2-2.2-4.9-6.9-4.9
		c-1.9,0-2.5,0.1-3.5,0.3C254.6,84.6,254.7,88.8,254.7,91.8z"/>
	<path d="M278.6,88c-1.7-0.3-4.3-0.1-6.6-0.6c-1.6-0.4-2.5-1.2-2.5-2.5c0-1.9,2-3.2,5.9-3.2c3.3,0,4.9,0.6,5.6,0.9V84l-0.1,0.1
		c-0.7-0.6-2.4-1.5-5.6-1.5c-3.4,0-4.6,1-4.6,2c0,0.9,0.6,1.4,1.7,1.6c1.8,0.4,4.3,0.2,6.4,0.5c1.8,0.2,3,1,3,2.5c0,2-2,3.8-6.6,3.8
		c-3.3,0-5.4-0.8-6.1-1.2v-1.4l0.1,0c1.3,1,3.1,1.8,6.1,1.8c3.8,0,5.1-1.1,5.1-2.4C280.4,88.8,279.9,88.2,278.6,88z"/>
</g>
<path fill-rule="evenodd" clip-rule="evenodd" d="M40.8,65.8c2.9-3.2,3-5,1.8-8.6C38.7,45.2,32,34.9,27.4,22.9
	c-0.6-1.4,0.4-4,2.7-4.4c1.5-0.2,3.4,2.1,5.2,1c4.7-2.9,13.4-10.4,16.2-14.4c0.3-0.4,1-1.5,0.9-1.8c-0.4-1.2-2.3-2.5-3.7-3.1
	c-1.9-0.9-14,1.2-23,8.3c-5.5,4.3-13.1,11.3-11.2,19.6C17.3,40.5,30,62.2,30,62.2c1.1,2.3-0.2,2.9-1.9,3.1c-0.6,0.1-1.5-1.9-2.3-2.2
	c-2.7-0.8-17.6,6.5-25.4,12.7c-2.3,1.8,3.9,9.6,6.8,9.2C20.3,82.8,36.2,71,40.8,65.8z M283.2,58.5c-0.3-0.1-6.5,7.8-10.3,10.1
	c0.5-0.8,0.7-1,1.5-2.7c2.8-5.3,3.4-10.4,1.5-15.4c-0.9-2.5-4.8-7.3-7.9-8.9c-1.5,2.1-7.2,8.9-7,8.8c0,0,0.9,1.9,0.8,2.1
	c-2.6,4.1-6.6,9.2-11.2,13.3c-3.1,2.8-10.7,8.4-13.6,3.3c-1-1.7-2.2-6.7-0.8-8.8c1.7-2.4,2.8-4,5.1-7.4c6.9-10,16.1-24.9,13.6-36.8
	c-0.8-3.9-6.4-4.2-9.3-2.2c-9.3,6.5-18.2,24-19.1,38.7c-0.2,3.1-0.5,4.5-0.5,7c-3.6,3.8-10.1,9.2-12.3,9c-2-0.1-2.9-2.4-3.1-4.3
	c-0.2-1.7,0.8-5.2,0.6-5.2c-2.5,0-6.2,0-9,0c-2.6,6.4-4.8,2.7-12.5,8.8c7-8.3,10.9-11.5,19.5-16.1c2.2-1.2,3.7-1.3,3.5-1.7
	c-1.8-2.9-4.5-7.9-7.1-7.1c-4.1,1.1-9.1,3.8-13.7,7.7c-5.5,4.6-8.9,9.8-12.7,13.7c-2.3,2.5-6.5,5.2-9.7,3.3c-3-1.8-3.6-6.3-2.8-11.2
	c0.3-1.9,2-5,3.9-8.4c5.6-10.2,9.8-21.2,10.7-32.5c0.1-1.6-3.9-3.7-5.7-2.4C168.6,18.5,161,33,159.2,43c-3.4,1.4-7.8,4-10.8,6.3
	c-5.9,4.5-11.2,9.8-14,14.3c-1.7,2.9-2.7,4-4.1,1.2c-4.2-8.2-4.2-18.8-5.5-19.3c0,0-1.5-0.6-2.3-0.4c-1.9,0.5-5.8,9.7-16.8,19.5
	c0.9-3.5,2.9-11.3,3.5-16.8c-0.1-0.2,0-0.4-0.1-0.4c-1.3-1.2-7.4-4.7-8.2-3.5c-0.5,0.8-1.6,3.3-3,6.1c-2.9,5.7-6.1,10.2-8.3,12.7
	c-3.8,3.8-6.6,6.1-8.9,5.9c-2-0.1-2.9-2.4-3.1-4.3c-0.2-1.7,0.8-5.2,0.6-5.2c-2.5,0-6.3,0-9.1,0c-2.6,6.4-4.8,2.7-12.5,8.8
	c7-8.3,10.9-11.5,19.6-16.1c2.2-1.2,3.7-1.3,3.5-1.7c-1.8-2.9-4.5-7.9-7.1-7.1c-4.1,1.1-9.1,3.8-13.7,7.7C52.5,56,48.9,62,44.5,66.1
	c-2.8,2.5-9.3,9-8.9,9.1c3.6,3.7,0.2,2.7,8.5-2.1c0.2-0.1-0.5,5-0.2,5.1c1.6,0.8,5.9,4.1,6.4,3.7c0,0,10.1-11.3,17.1-12.7
	c4.5-0.9,2.1,5.6,5.1,9.1c1.2-0.1,3.7,0.1,6.2,1.6c5.4-2,12.4-10.9,13.8-12.4c0.9-0.9,1.8-2,2.5-3c-0.2,2.1-2,10.4-2.7,12.6
	c-0.3,1,1.8,2.8,3.9,3.9l0.5-0.6h2.8l1.1,0.8c6.1-4.1,15.2-15.1,19.2-21c0.9,2.8,1.8,5.1,2.8,7.7c2.8,7.1,5.7,6.7,9.8,5.5
	c0.3,4,4.6,7.2,7.3,8.3l1.2-1.3h3.9c4.1-2.5,10.2-7.1,13.3-11.1c1.4,3.5,2.8,6.3,6,8.3c2.3,1.4,5.3,1.6,13.1-4.5
	c0.2-0.1-0.5,5-0.2,5.2c1,0.5,3.1,1.7,4.6,2.6l0.9-0.5h2.4c3.1-3.2,10.1-10,15.5-11c5.6-1.1,0.4,9.2,8.6,10.9
	c5,1,14.2-8.6,17.2-11.7c1.6-1.1,0.5,3.2,3,7c1.3,2,3.6,4.4,7.5,5c1.5-0.1,3.5-0.3,5.4-0.3c0.5-0.1,1-0.2,1.5-0.4
	c1.7-0.6,5.8-2,13.3-10c3.4-3.6,6.9-8.3,9.1-11.5c0,0,0.9-1.1,1.1,0.6c0.2,2.1,0.2,3.4-1.3,6.9c-1.6,3.6-5.9,8.8-8.4,10.9
	c-0.6,0.4,0.5,2.2,1.5,3.5c1.3,0,3,0.2,4.5,0.7c9.8-2.5,17.6-10.7,23.8-19.9C287.2,60.9,284.4,58.8,283.2,58.5z M247.1,23.8
	c0.5,6.9-5.6,18.5-10.2,23.9C236.4,41.1,241.8,28.7,247.1,23.8z M156.5,61.6c-1.6,1.8-6.5,5.9-10.8,8.6c-1,0.6-1.9-0.9-1.8-1.4
	c1-7.5,6.7-12.2,13.2-16.7C156.1,58.1,156.7,60,156.5,61.6z"/>
</svg>
