<?xml version="1.0" encoding="utf-8"?>
<!-- Generator: Adobe Illustrator 17.1.0, SVG Export Plug-In . SVG Version: 6.00 Build 0)  -->
<!DOCTYPE svg PUBLIC "-//W3C//DTD SVG 1.1//EN" "http://www.w3.org/Graphics/SVG/1.1/DTD/svg11.dtd">
<svg version="1.1" id="Layer_1" xmlns="http://www.w3.org/2000/svg" xmlns:xlink="http://www.w3.org/1999/xlink" x="0px" y="0px"
	 viewBox="0 0 1059 1024" enable-background="new 0 0 1059 1024" xml:space="preserve">
<g>
	<path d="M491.8,565.7l0.1,0.2C491.9,565.8,491.9,565.7,491.8,565.7z"/>
	<path d="M169.2,463.6l92.8-60.9l136.9,212.7l2.5,3.8l0,0l0,0c0,0,0,0,0,0c0.4-0.8,7.5-13.6,38.9-37.1
		c18.1-15.1,47.6-17.5,51.4-16.5c0.1,0,0.2,0.1,0.2,0.1l0,0c0,0,0.1,0,0.1,0.1L345.6,347.8l94.6-62.2l0,0l0,0L166.5,165.8v299.6v0
		l0,0v0L169.2,463.6z"/>
	<path d="M605.3,285.6L605.3,285.6L605.3,285.6l93.8,61.6l-16,23.8l-129.7,193c0,0,0,0,0.1,0l-0.1,0.1c0,0,30.7,3.2,51.8,17.8
		c32.4,24.3,38.9,37.2,38.9,37.2L783,402.3l96,63v-0.1V165.8L605.3,285.6z"/>
	<path d="M605.5,628.5c-40.5-33.7-99.5-40.4-147.6-12.6c-61.6,35.6-82.5,115-46.9,176.6c23.9,41.4,67.6,64.4,112.4,64.3
		c21.9,0,44.1-5.6,64.3-17.3c63.2-35.6,84.3-115,46.9-176.6C626.8,649.4,616.8,637.9,605.5,628.5z"/>
</g>
</svg>
