<svg id="Layer_1" data-name="Layer 1" xmlns="http://www.w3.org/2000/svg" viewBox="0 0 195.86 108.15"><title>together-nest-text</title><path d="M1023.18,261.56l1.31,1.17a79.11,79.11,0,0,1-1.83-7.86c-0.53-2.57-1-5.07-1.56-7.53a8.07,8.07,0,0,0-.45-1.73,2.39,2.39,0,0,1-.17-0.71,6.51,6.51,0,0,0-.23-1,29.47,29.47,0,0,1-11.61-8.64q-0.5-.61-0.95-1.23a29.59,29.59,0,0,1-3.51-6.25,24.29,24.29,0,0,1-.84-2.42c-0.12-.41-0.22-0.8-0.3-1.16s-0.16-.81-0.2-1.15c0-.15,0-0.29,0-0.42-0.26-3.95,4-4.63,4-4.63l-0.1,0a4.66,4.66,0,0,0-3.21,5.21c0.05,0.33.12,0.65,0.2,1,0,0.11,0,.22.07,0.32,0.11,0.44.24,0.88,0.38,1.31s0.3,0.85.46,1.27a24.41,24.41,0,0,0,3.21,5.56q0.59,0.78,1.23,1.52a48.2,48.2,0,0,0,11.54,9.43l0.54,0.24a2.19,2.19,0,0,0,.86.25c0.23,0,.15-0.05,0-0.18s-0.14-.23-0.23-0.34a10.14,10.14,0,0,1-2-4.63c-0.07-.91-0.1-1.83-0.16-2.75a31.19,31.19,0,0,0-1.65-7.6,30.77,30.77,0,0,0-5.49-9.79,23.3,23.3,0,0,0-3.16-3.19,16.31,16.31,0,0,1-3-3.78,15.46,15.46,0,0,0-2.48-2.8,8.67,8.67,0,0,0-1.52-1.18c-0.48-.26-1-0.35-1.51-0.63-1.49-.88-4.16-0.62-5.78-0.27a9,9,0,0,0-1.49.46,7.15,7.15,0,0,0-2.84,2,6.18,6.18,0,0,0-1.1,1.95,4.67,4.67,0,0,0-.17.67,2.39,2.39,0,0,0,.06,1.57c0.25,0.3.34-.06,0.54-0.19a0.74,0.74,0,0,1,.8.1,10.47,10.47,0,0,0,1.25.89,3,3,0,0,1,.49.3c0.29,0.23.57,0.49,0.85,0.73a3.06,3.06,0,0,1,1.06,1.55,4,4,0,0,1,.06,1c0,0.35,0,.69,0,1,0,0.16,0,.32,0,0.48s0,0.17,0,.25,0,0.24,0,.36q0,1,.12,1.92c0,0.18,0,.36.05,0.55s0.09,0.54.13,0.81l0,0.19c0,0.26.08,0.52,0.15,0.79,0.16,0.7.37,1.38,0.59,2.06a38.54,38.54,0,0,0,1.46,3.77l0.14,0.32q0.36,0.82.81,1.67l0,0.06c0.14,0.26.3,0.51,0.45,0.77q0.7,1.21,1.51,2.34c0.36,0.5.73,1,1.12,1.46,0.65,0.79,1.32,1.56,2,2.29l0,0c0.26,0.26.52,0.5,0.79,0.75l0.8,0.74q0.61,0.54,1.24,1.05c0.83,0.68,1.68,1.31,2.54,1.89a43.12,43.12,0,0,0,5.61,3.21,2.26,2.26,0,0,1,1.31.81,0.09,0.09,0,0,0,.06.06,31,31,0,0,0,3.06,9.07c0.64,1.21,2.59,4.71,2.69,4.5a1.86,1.86,0,0,0-.1-1s1.34,2.1,2.12,3.1Z" transform="translate(-873.03 -201.5)"/><path d="M957.61,214c0.14-.59.75-0.88,1.94-2.29a2.7,2.7,0,0,1,1.7-1.19c0.59-.08,1.81-0.16,2.22.38a0.76,0.76,0,0,0,.13.15c0.23,0.18.17-2.45-.21-3.59-0.07-.2-0.13-0.41-0.19-0.62a7.7,7.7,0,0,0-1.44-2.64,7.06,7.06,0,0,0-3.26-2.2,7.6,7.6,0,0,0-2.16-.45,9.68,9.68,0,0,0-2.67.21,12.2,12.2,0,0,0-3,1.09,11,11,0,0,0-2.93,2.18,28.15,28.15,0,0,0-1.88,2.2c-0.62.8-1.22,1.67-1.81,2.58a32.83,32.83,0,0,0-9.48,10.59,43.62,43.62,0,0,0-3.82,8.93c-0.77,2.57-1.22,5.3-2.63,7.62a15.66,15.66,0,0,1-1.38,1.75l-0.88,1a2.63,2.63,0,0,0-.76,1,4.58,4.58,0,0,0,1.69-.37l0.4-.1a59.79,59.79,0,0,0,13.29-8.07,37,37,0,0,0,5.43-5.45,24.24,24.24,0,0,0,4.43-8.26,5.58,5.58,0,0,0-3.07-6.65l-0.12-.05s5,1.42,4.09,6.08a24.79,24.79,0,0,1-3.59,7.93,36.24,36.24,0,0,1-5.8,6.87c-0.58.53-1.19,1-1.82,1.56a35.35,35.35,0,0,1-12,6.29,0.87,0.87,0,0,1,0,.48c-2.17,10.31-4.5,15.42-6.42,23.91-0.29,1.3-.42,2.63-0.58,3.95,0,0-.07.72-0.08,0.72s1.59,0,4.54-5.67l-0.7,3.68s6.23-9.59,8.15-19.62c1.74-.68,3.36-1.4,4.88-2.15,0.61-.3,1.2-0.61,1.77-0.92a47.4,47.4,0,0,0,5.6-3.54c0.42-.31.83-0.63,1.22-0.95s0.93-.76,1.37-1.14c0.28-.24.56-0.48,0.82-0.72a36.34,36.34,0,0,0,2.55-2.61c0.56-.63,1.06-1.25,1.54-1.88a31.46,31.46,0,0,0,3.15-5l0.19-.36c0.21-.43.38-0.85,0.56-1.27q0.39-.91.68-1.76c0.06-.16.13-0.33,0.18-0.49l0.07-.24c0.19-.61.35-1.2,0.48-1.75,0.06-.26.12-0.52,0.17-0.76s0.1-.53.15-0.78a14.25,14.25,0,0,0,.13-3.23C957.8,215.47,957.47,214.57,957.61,214Z" transform="translate(-873.03 -201.5)"/><path d="M987.86,231.17a20.93,20.93,0,0,0-1.16-2.11,11,11,0,0,0-2.82-2.9c-0.27-.51-0.54-1-0.82-1.42a12.17,12.17,0,0,0-.86-1.16,3.88,3.88,0,0,0-1.37-1,5.21,5.21,0,0,0-1.46-.42,5.69,5.69,0,0,0-1.35,0,4.52,4.52,0,0,0-1.15.26,3.49,3.49,0,0,0-1.76,1.07,4.43,4.43,0,0,0-.84,1.4c0,0.11-.09.23-0.14,0.33a4.93,4.93,0,0,0-.46,2l0.09-.06a1.38,1.38,0,0,1,1.16.1,1.29,1.29,0,0,1,.65.81,4.23,4.23,0,0,1,.58,1.32,6.07,6.07,0,0,1-.42,3.35,7.16,7.16,0,0,0-.26,1.93A12.43,12.43,0,0,0,976,237a21,21,0,0,0,2.16,3.52,25.58,25.58,0,0,0,2.93-.78,11.8,11.8,0,0,1-2.4-8.18,13,13,0,0,0,3,8,38.41,38.41,0,0,0,7.61-3.82,9,9,0,0,0-.4-2.22C988.55,232.69,988.22,231.91,987.86,231.17Z" transform="translate(-873.03 -201.5)"/><path d="M970.68,227.61a4,4,0,0,0-1.06-1,3.18,3.18,0,0,0-1.78-.52,3.73,3.73,0,0,0-1,.08,5.66,5.66,0,0,0-1.18.4,7.36,7.36,0,0,0-1.27.75,5.18,5.18,0,0,0-1.17,1.17,12.89,12.89,0,0,0-.7,1.11,13.9,13.9,0,0,0-.63,1.29,9.46,9.46,0,0,0-2.24,2.73,11.85,11.85,0,0,0-1.06,6.07l1.18,0.32a29.4,29.4,0,0,0,5,.93,27.2,27.2,0,0,0,2.69-7,26,26,0,0,1-2.31,7l0.42,0q1.12,0.09,2.23.14a5.67,5.67,0,0,1,.29-0.54,5.23,5.23,0,0,0,.47-1.48c0.07-.29.1-0.58,0.16-0.87a18.38,18.38,0,0,0,.39-2.28,23.48,23.48,0,0,0,0-3.51,1.42,1.42,0,0,1,.07-1,2.88,2.88,0,0,1,.27-0.24,2.25,2.25,0,0,0,.4-0.79,1.17,1.17,0,0,1,.59-0.78,1.61,1.61,0,0,1,1.19-.18l0.1,0a3.8,3.8,0,0,0-.78-1.66Z" transform="translate(-873.03 -201.5)"/><path d="M1004.46,243.13l-0.12.16-0.28.63-0.37.61-0.4.61-0.51.58-0.54.56-0.5.59-0.58.56-0.54.6-0.62.56-0.67.51,0.11-.71,0.2-.72,0.29-1.42,0.1-.73,0.77-.37,0.68-.39,0.62-.43,0.71-.36,0.58-.45,0.45-.53,0.23-.21-0.76-.66-0.21.13-0.65.44-0.64.5-0.8.32-0.79.48,0.12-1.37-0.1-.65v-0.24a12.77,12.77,0,0,1-1.23,2l-0.13.7-0.24,1.45-0.16.74-0.18.75-0.16.77-0.19.79-0.32.78-0.38.79-0.76.49-0.86.41-0.83.47-0.9.37-0.94.32-0.92.36-0.89.44-1.07.27-0.27.17-1.31.32-0.63.13-1.21.41-0.62.05-1.46.22-0.38.21-0.86.07-0.78.18-0.28,0-2.24.21-1.17.09L980,254l0.78-.65,0.76-.67h0l0.34-.11,1.34-.29,1.3-.41,1.25-.42,1.12-.61,1.3-.39,1-.65,1.14-.48,0.91-.67,1-.55,0.08,0-0.06.06-0.64.6-1.33,1.22-0.81.51-0.73.58-0.66.68-0.78.6-0.9.47-0.69.58,0.81-.13,0.87-.27,0.89-.21,0.85-.24h0l0.7-.62,0.73-.6,0.77-.54,0.7-.59,0.62-.64,0.63-.62,1.2-1.3,0.54-.69,1.16-1.29,0.58-.62,0.94-1.31,0.61-1.05,0.36-.55,0.59-.81,0.41-.77,0.31-.66,0.31-.6c-0.37-.42-0.71-0.84-1.06-1.27l-0.15.54-0.21.63-0.34.61-0.38.62-0.47.6-0.28.66-0.61.61-1,.37-1,.38-1.07.33-1.09.36-1.16.21-1.12.35-1.18.27-1.21.14-1.2.24-1.21.18-1.21.19-1.76.26,1.66-.62,1.07-.55,1.12-.45,1-.57,1-.48,1-.54,1-.49,0.92-.52,0.88-.54,1-.46,0.64-.56,0.75-.49,0.77-.47,0.68-.49,0.61-.53,0.74-.43,0.54-.51,0-.52,0-.09c-0.14-.2-0.28-0.4-0.41-0.6l-0.2.14-0.51.51-0.58.51-0.73.44-0.66.48-0.62.52-0.69.51-0.79.46-0.74.51-0.9.49-0.85.54-0.9.53-1,.48-1,.47-1,.49-1,.49-1.09.49-0.93-.29-2-.37-1-.24,1.19-.35,1.15-.35,1.16-.28,1.09-.38,2.06-.83,1.81-1,0.86-.48,0.88-.45,0.79-.5,0.76-.5,1.37-1,0.55-.54,0.44-.56,0.53-.58,0.73-.45,0.72-.48,0.17-.07c-0.13-.23-0.28-0.45-0.4-0.69-0.24-.45-0.46-0.93-0.68-1.4l-0.06.17-0.36.5-0.25.51-0.18.55-0.4.53-0.42.53-0.48.53-0.55.52-0.57.53-0.64.51-0.69.52-0.85.43-0.74.52-0.85.47-0.92.43-0.91.46-1,.42-1,.44-1,.42-1.1.35-1.14.32-1.16.25-1.13.37-1.24.18-1.21.24-1.21.17-1.22.24H973l-1.24.12H970.6l-1.25.13-1.17-.1-1.24,0-1.1-.14-1.17-.08-1-.22-1.08-.17-1-.23-1-.26-0.89-.29-0.92-.28-0.81-.34-0.78-.36-0.68-.4-0.63-.41-0.57-.43-0.55-.43-0.58-.42-0.46-.46-0.19-.54-0.3-.49-0.21-.33q-0.54.63-1.14,1.27l0.23,0.37,0.8,1,0.47,0.47,0.54,0.46,0.63,0.42,1.53,0.72L956.7,242l0.82,0.34,1.9,0.55,0.89,0.32,1,0.22,1,0.21,2.25,0.27,1.21,0.06,1.11,0.16,1.24,0h1.24l1.18,0.08,2.5-.17,1.26-.14,1.79-.24,1.14,0,1.15-.09,1.11,0.11,1.12,0.08,2.09,0.7-1.36.54-2.42.92-0.31.11-0.91.25-1,.37-0.51,0-1.71.57-0.72.28-1.57.32-0.79.23-1.7.45-0.39,0-1.42.37-1.3.15-1.32.23-1.34.28-1.35.22-1.32.11L960,250l-1.31.06-1-.38-0.9-.41-0.73-.5-0.69-.51-0.71-.48-0.68-.5-1.24-1-0.63-.49-0.5-.55-0.32-.59-0.67-.73,1.36,0.39,0.86,0.37,1,0.29,1.05,0.26,1,0.26,1.17,0.17,2.31,0.37,1.11,0.24,2.28,0.34,1.14,0.13,1.12,0.15,1.18,0.07h1.23l1.2,0.06,1.16,0.09,1.11-.26,1.13-.3,1.11-.24,0.69-.22-0.78-.05-1.27.11-1.21,0-1.12-.15-1.17-.05-1.26,0-2.3-.21-1.13-.12-1.1-.15-1.14-.14-2.21-.36-0.93-.31-1.1-.16-1-.24-0.92-.29-1-.24-0.92-.28-1-.24-0.94-.26-0.82-.33-0.84-.36-0.69-.4-0.75-.22-0.11-.07c-0.37.31-.75,0.62-1.15,0.93l0.1,0.05,0.88,0.31,0.21,0.59,0.34,0.52,0.32,0.53,0.4,0.52,0.27,0.57,1.16,1.13-1.62.08-1.39.2-1.29,0h-1.28l-1.32,0-1.23-.07-1.13-.17-0.65-.22c-0.56.31-1.14,0.62-1.73,0.92l0.22,0.17,0.69,0.45,0.59,0.52,0.65,0.48,1,0.28,0.71,0.49,1.1,0.22,0.92,0.36,1,0.29,0.38,0.56,0,0.78-0.06.84h0l0.15,0.75,0.08,0.8,0.05,0.86L947,256l0.33,0.73,0.38,0.73,0.6,0.56,0.36,0.79,0.58,0.6,0.79,0.45,0.7,0.54,0.67,0.6,0.9,0.34,0.78,0.53,1,0.2,0.91,0.4,1.08,0.13,1,0.28,1.06,0.19,1.17,0,1.06,0.24,1.13-.07-0.81-.51-1.3-1.29-1-.17-1.08,0-1-.24-0.92-.29-0.84-.39-0.84-.35-0.92-.27-1.43-1-0.51-.64-0.66-.49L949.7,257l-0.41-.66-0.28-.73-0.26-.71-0.33-.66-0.2-.72-0.05-.77L948,252l0.07-.79V251l0.32,0.06,1.14,0.19h1.36l1.19,0.17,1.38-.08,1.31,0,1.27,0.05,1.39-.12,1.35-.08,1.36-.12,1.39-.16,1.34-.09,1.37-.22,1.4-.32,1.34-.13,1.35-.32,1.4-.38,1.38-.2,1.34-.46,1.34-.3,1.31-.42,1.31-.37,1.29-.34,1.24-.54,1.38-.11,1.32,0,1.31-.12,1.33-.28,1.31-.13,1.29-.18,1.28-.28,1.27-.25,1.22-.2,1.18-.28,2.25-.72,1.43-.35-0.86.76-0.66.66-0.82.58-0.76.64-0.82.64-2,1.07-2,1.17-1.2.42-1.17.49-1.23.36-1.21.46-1.26.42-1.32.29-1.34.23-1.33.16-1.36.28-1.38.14-1.31,0-1.31,0-1.36.07-1.32,0-1.26-.14-1.19-.2-1.32-.07-1.12-.24-1.33.17-2.36.34,0.85,0.21,1.12,0.32,1.28,0.19,1.16,0.32,1.37,0.07,1.21,0.28,1.38,0,1.35,0.08,1.43-.08,1.4,0,1.4-.07,1.43-.17,1.4-.11,1.41-.23,0.16,0-0.22.23-1.33,1.42-0.56.8h-1.1l-1.09,0-1.08,0h-1.08l-1.09,0-1-.15-1-.18-1-.1-0.93-.2-1-.13-0.9-.24-0.86-.29-0.88-.23L963.2,254l-0.83-.31-0.78-.35-0.88-.19-0.45-.22,0.1,0.47,0.51,0.5,0.41,0.57,0.35,0.64h0l0.8,0.33,1,0.12,0.86,0.3,0.91,0.22,1,0.13,0.95,0.18L968,256.7h1.13l1.06,0.16,1.08,0.12,1.1,0,1.09,0.11h1.12l1.09,0.13,1.13-.09,1.12,0.06,1.15-.12-1.07.46-1,.43-1.06.45-1.09.38-1.07.52-1.12.34-1.14.22-1.12.43-1.15.21-1.14.24-1.14.15-1.16.17-0.89-.38-0.64-.65-0.79-.47-0.71-.55-0.68-.57-0.56-.66-0.51-.67-0.57-.69-0.19-.15-0.67-.86-0.21-.47-0.67-.71-0.18-.32,0-.05-0.12-.24h0a4.85,4.85,0,0,1-1.88-.29l-0.1,0,0.23,0.72,0.53,0.61,0.31,0.78,0.4,0.74,0.55,0.66,0.48,0.72,0.53,0.71,0.68,0.61,0.6,0.68,0.7,0.62,0.69,0.64,0.85,0.72,1,0.66L965,263l1,0.32,0.85,0.57,1,0.38,1,0.32,1,0.3,1,0.39,1.07,0.3,1.15,0.09,1.17,0,1.12,0.24,1.2-.12,1.16,0.15,1.24-.32,1.18,0,1.18-.26,1.19-.29,1.14-.44,1.19-.28L986,264l1.1-.53,1-.64,1-.59,1-.67,0.92-.7,1-.64,0.82-.76,0.84-.72,0.62-.89,0.79-.72,0.55-.88,0.66-.79,0.51-.84,0.54-.8-1.75.83-0.87.45h0l-0.56.77-0.77.69-0.65.78-0.72.76-0.82.69-0.91.61-0.87.65-0.86.72-1,.57-1.07.42-1,.55-1.06.48-1.1.41-1.13.24-1.14.16-1.12.29-1.15.11-1.17.22-2.2-.2-2.23-.08-1-.27-1-.31-1-.2-0.94-.4-1-.32,1.23-.36,2.35-.46,1.16-.36,1.13-.47,1.18-.43,1.18-.39,1.12-.51,1.09-.57,1.16-.4,1.06-.56,1-.65,1.05-.59,1.15,0,1.08-.28,1.09-.25,1.09-.2,1-.33,1.1-.16,1-.45,1.06-.27,1-.3,0.88-.49,1-.31,0.92-.39,0.83-.51,0.87-.45,0.83-.47,0.79-.5,0.82-.47,0.67-.58,0.69-.56,0.76-.48,0.55-.64,0.7-.53,0.5-.63,0.47-.64,0.54-.59,0.39-.65,0.3-.67,0.44-.61,0.05-.27C1005.14,243.67,1004.79,243.4,1004.46,243.13Zm-50.62,7-1.23-.08-1.14-.16-1.2-.1-1.11-.17-1.16-.13-1.14-.16-1-.26-1-.28-0.85-.35-1.06-.2-0.94-.53h1.51l1.14,0.07,1,0.17,1.17,0,1.3-.12,1.2,0,1.23-.08,1.35-.15,0.62,0.53,1.3,0.94,0.72,0.45,0.73,0.6h-1.46Z" transform="translate(-873.03 -201.5)"/><path d="M960.13,223.35l4-1.58c1-.32,2.06-0.59,3-0.84s2.2-.52,3.23-0.71c1.66-.32,3.22-0.53,4.68-0.68s2.62-.19,3.81-0.2A29.93,29.93,0,0,1,989.56,221a13.63,13.63,0,0,1,1.9.85l0.12,0.07,0.14,0,0.6-.07a3.07,3.07,0,0,0,.14-0.47l-0.58-.31-0.26-.12a5.65,5.65,0,0,0-2-.87l-1.38-.37a1,1,0,0,0-.35-0.17,5.79,5.79,0,0,0-1-.31c-0.81-.1-3.22-0.57-3.87-0.64l-0.29,0a20.91,20.91,0,0,0-2.43-.13,1.16,1.16,0,0,0-.27,0,1.08,1.08,0,0,1-.34,0q-0.52,0-1,0c-0.54,0-2.06.06-2.16,0.09a1.82,1.82,0,0,1-.37.05,3.43,3.43,0,0,1-.47,0,0.62,0.62,0,0,0-.2,0c-0.08,0-.14.08-0.22,0.1s-0.06-.06-0.15-0.09a0.58,0.58,0,0,0-.21,0,2.38,2.38,0,0,1-.35,0l-0.31,0c-1.12,0-7.56,1.4-7.72,1.45s-0.26.11-.4,0.15l-0.3.08c-0.41.11-.82,0.26-1.23,0.36s-0.76.23-1.1,0.35l-0.38.14c-0.11.05-.24,0-0.35,0.08-0.67.25-1.33,0.38-1.91,0.66a2.75,2.75,0,0,0-.36.2,0.17,0.17,0,0,1-.14,0,0.1,0.1,0,0,0-.1.07,0.09,0.09,0,0,1-.05,0,0.36,0.36,0,0,0-.12.06,2.57,2.57,0,0,1-.21,1l0.16,0Z" transform="translate(-873.03 -201.5)"/><path d="M947.59,307.57a0.24,0.24,0,0,1,.34-0.05,3.16,3.16,0,0,0,2,1c1.07,0,1.72-.52,1.72-1.23,0-.88-1-1.13-1.89-1.48-1.41-.56-2.53-1.18-2.53-2.53a2.43,2.43,0,0,1,2.74-2.34,3.88,3.88,0,0,1,2.55,1,0.25,0.25,0,0,1,.06.33l-0.42.55a0.23,0.23,0,0,1-.34.06,3,3,0,0,0-1.84-.82,1.33,1.33,0,0,0-1.54,1.19c0,0.74.71,1,1.72,1.43,1.29,0.52,2.69,1.12,2.69,2.59a2.66,2.66,0,0,1-2.91,2.38,3.94,3.94,0,0,1-2.77-1.26,0.18,0.18,0,0,1-.05-0.29Z" transform="translate(-873.03 -201.5)"/><path d="M963.23,301a0.16,0.16,0,0,1,.17.18v5.28a3.19,3.19,0,0,1-3.42,3.22,3.14,3.14,0,0,1-3.36-3.22v-5.28a0.17,0.17,0,0,1,.19-0.18h0.85a0.16,0.16,0,0,1,.17.18v5.19a2,2,0,0,0,2.15,2.14,2,2,0,0,0,2.2-2.14v-5.19a0.16,0.16,0,0,1,.17-0.18h0.87Z" transform="translate(-873.03 -201.5)"/><path d="M968.55,301a0.17,0.17,0,0,1,.17.17v8.24a0.17,0.17,0,0,1-.16.18h-0.83a0.18,0.18,0,0,1-.18-0.18v-8.24a0.16,0.16,0,0,1,.17-0.17h0.83Z" transform="translate(-873.03 -201.5)"/><path d="M979.35,301.15V302a0.17,0.17,0,0,1-.17.17h-2.59v7.24a0.16,0.16,0,0,1-.17.18h-0.62a0.39,0.39,0,0,1-.42-0.43v-7h-2.59a0.17,0.17,0,0,1-.18-0.17v-0.82a0.18,0.18,0,0,1,.18-0.18h6.39A0.16,0.16,0,0,1,979.35,301.15Z" transform="translate(-873.03 -201.5)"/><path d="M984.38,302.15v2.62h2.47a0.17,0.17,0,0,1,.18.18v0.81a0.17,0.17,0,0,1-.18.18h-2.47v2.46h4.26a0.17,0.17,0,0,1,.18.18v0.81a0.17,0.17,0,0,1-.18.18h-5.3a0.17,0.17,0,0,1-.18-0.18v-8.24a0.16,0.16,0,0,1,.17-0.17h5.31a0.17,0.17,0,0,1,.18.17V302a0.17,0.17,0,0,1-.18.17h-4.27Z" transform="translate(-873.03 -201.5)"/><path d="M993,307.57a0.24,0.24,0,0,1,.34-0.05,3.16,3.16,0,0,0,2,1c1.07,0,1.72-.52,1.72-1.23,0-.88-1-1.13-1.89-1.48-1.41-.56-2.53-1.18-2.53-2.53a2.43,2.43,0,0,1,2.74-2.34,3.88,3.88,0,0,1,2.55,1,0.24,0.24,0,0,1,.06.33l-0.42.55a0.23,0.23,0,0,1-.34.06,3,3,0,0,0-1.84-.82,1.33,1.33,0,0,0-1.54,1.19c0,0.74.71,1,1.72,1.43,1.29,0.52,2.69,1.12,2.69,2.59a2.66,2.66,0,0,1-2.91,2.38,3.94,3.94,0,0,1-2.77-1.26,0.18,0.18,0,0,1-.05-0.29Z" transform="translate(-873.03 -201.5)"/><path d="M880.54,290.59a0.42,0.42,0,0,0,.51.42v0.42h-3.58V291a0.45,0.45,0,0,0,.29-0.1,0.38,0.38,0,0,0,.13-0.31v-9.25h-3.84a0.79,0.79,0,0,0-.41.12,0.47,0.47,0,0,0-.2.44H873v-3.25h0.42a0.47,0.47,0,0,0,.2.44,0.79,0.79,0,0,0,.41.12h10.32a0.79,0.79,0,0,0,.41-0.12,0.47,0.47,0,0,0,.2-0.44h0.42v3.25H885a0.47,0.47,0,0,0-.2-0.44,0.79,0.79,0,0,0-.41-0.12h-3.84v9.25Z" transform="translate(-873.03 -201.5)"/><path d="M894.73,279.06a9.34,9.34,0,0,1,2.6.38,8.08,8.08,0,0,1,2.42,1.15,6.23,6.23,0,0,1,1.79,1.94,5.88,5.88,0,0,1,0,5.56,6.23,6.23,0,0,1-1.79,1.94,7.48,7.48,0,0,1-2.42,1.12,9.89,9.89,0,0,1-5.21,0A7.48,7.48,0,0,1,889.7,290a6.21,6.21,0,0,1-1.79-1.94,5.88,5.88,0,0,1,0-5.56,6.22,6.22,0,0,1,1.79-1.94,8.07,8.07,0,0,1,2.42-1.15A9.33,9.33,0,0,1,894.73,279.06Zm0,2.14a5.83,5.83,0,0,0-1.77.28,5.39,5.39,0,0,0-1.59.8,4.17,4.17,0,0,0-1.15,1.29,3.66,3.66,0,0,0,0,3.49,4.17,4.17,0,0,0,1.15,1.29,5.39,5.39,0,0,0,1.59.8,5.73,5.73,0,0,0,3.53,0,5.4,5.4,0,0,0,1.59-.8,4.17,4.17,0,0,0,1.15-1.29,3.66,3.66,0,0,0,0-3.49,4.17,4.17,0,0,0-1.15-1.29,5.4,5.4,0,0,0-1.59-.8A5.84,5.84,0,0,0,894.73,281.2Z" transform="translate(-873.03 -201.5)"/><path d="M916.26,283l-0.46-.14a0.88,0.88,0,0,0,0-.28,0.77,0.77,0,0,0-.43-0.63,4.24,4.24,0,0,0-1.09-.48,8.64,8.64,0,0,0-1.44-.29,12.56,12.56,0,0,0-1.48-.09,6.15,6.15,0,0,0-1.71.24,4.46,4.46,0,0,0-1.51.76,3.77,3.77,0,0,0-1.07,1.32,5,5,0,0,0,0,3.94,3.74,3.74,0,0,0,1.07,1.34,4.46,4.46,0,0,0,1.51.76,6.15,6.15,0,0,0,1.71.24,11.69,11.69,0,0,0,2.38-.22,15.08,15.08,0,0,0,1.8-.48v-2h-3a0.73,0.73,0,0,0-.49.14,0.93,0.93,0,0,0-.21.6h-0.42v-3h0.42a0.67,0.67,0,0,0,.21.5,0.91,0.91,0,0,0,.49.1h5.81v0.42a1.47,1.47,0,0,0-.58.16,0.5,0.5,0,0,0-.12.4v2.63a0.3,0.3,0,0,0,.14.3l0.33,0.16v0.37a8.4,8.4,0,0,1-1.62.88,10.79,10.79,0,0,1-1.72.55,10.36,10.36,0,0,1-1.74.24q-0.87,0-1.71,0a10.15,10.15,0,0,1-3-.41,6.4,6.4,0,0,1-2.29-1.21,5.49,5.49,0,0,1-1.48-2,6.8,6.8,0,0,1,0-5.23,5.6,5.6,0,0,1,1.48-2,6.6,6.6,0,0,1,2.29-1.24,9.65,9.65,0,0,1,3-.43,13.16,13.16,0,0,1,2,.14q0.93,0.14,1.65.31t1.2,0.33a2.9,2.9,0,0,0,.59.15,0.51,0.51,0,0,0,.33-0.09l0.23-.16,0.28,0.16Z" transform="translate(-873.03 -201.5)"/><path d="M932.75,281.71a0.43,0.43,0,0,0-.2-0.38,1.34,1.34,0,0,0-.69-0.13h-7.53v2.88h4.56a1.65,1.65,0,0,0,.72-0.13,0.68,0.68,0,0,0,.26-0.66h0.42v3.63h-0.42a0.74,0.74,0,0,0-.26-0.69,1.43,1.43,0,0,0-.72-0.15h-4.56v3.21h7.76a0.93,0.93,0,0,0,.57-0.16,0.52,0.52,0,0,0,.22-0.44h0.42v3.18h-0.42a0.34,0.34,0,0,0-.22-0.4,2.84,2.84,0,0,0-.57,0H921.27V291a0.45,0.45,0,0,0,.29-0.1,0.38,0.38,0,0,0,.13-0.31V280a0.38,0.38,0,0,0-.13-0.31,0.45,0.45,0,0,0-.29-0.1V279.2h10.6a1.16,1.16,0,0,0,.69-0.15,0.49,0.49,0,0,0,.2-0.41h0.42v3.07h-0.42Z" transform="translate(-873.03 -201.5)"/><path d="M942.54,290.59a0.42,0.42,0,0,0,.51.42v0.42h-3.58V291a0.45,0.45,0,0,0,.29-0.1,0.38,0.38,0,0,0,.13-0.31v-9.25h-3.84a0.79,0.79,0,0,0-.41.12,0.47,0.47,0,0,0-.2.44H935v-3.25h0.42a0.47,0.47,0,0,0,.2.44,0.79,0.79,0,0,0,.41.12h10.32a0.79,0.79,0,0,0,.41-0.12,0.47,0.47,0,0,0,.2-0.44h0.42v3.25H947a0.47,0.47,0,0,0-.2-0.44,0.79,0.79,0,0,0-.41-0.12h-3.84v9.25Z" transform="translate(-873.03 -201.5)"/><path d="M960.47,280a0.42,0.42,0,0,0-.51-0.42V279.2h3.58v0.42a0.44,0.44,0,0,0-.29.1,0.38,0.38,0,0,0-.13.31v10.55a0.38,0.38,0,0,0,.13.31,0.45,0.45,0,0,0,.29.1v0.42H960V291a0.42,0.42,0,0,0,.51-0.42v-4.37H953v4.37a0.38,0.38,0,0,0,.13.31,0.45,0.45,0,0,0,.29.1v0.42H949.9V291a0.38,0.38,0,0,0,.44-0.42V280a0.38,0.38,0,0,0-.44-0.42V279.2h3.51v0.42a0.44,0.44,0,0,0-.29.1,0.38,0.38,0,0,0-.13.31v4h7.48v-4Z" transform="translate(-873.03 -201.5)"/><path d="M978.61,281.71a0.43,0.43,0,0,0-.2-0.38,1.34,1.34,0,0,0-.69-0.13H970.2v2.88h4.56a1.64,1.64,0,0,0,.72-0.13,0.68,0.68,0,0,0,.26-0.66h0.42v3.63h-0.42a0.74,0.74,0,0,0-.26-0.69,1.43,1.43,0,0,0-.72-0.15H970.2v3.21H978a0.93,0.93,0,0,0,.57-0.16,0.52,0.52,0,0,0,.22-0.44h0.42v3.18h-0.42a0.34,0.34,0,0,0-.22-0.4,2.85,2.85,0,0,0-.57,0H967.13V291a0.45,0.45,0,0,0,.29-0.1,0.38,0.38,0,0,0,.13-0.31V280a0.38,0.38,0,0,0-.13-0.31,0.45,0.45,0,0,0-.29-0.1V279.2h10.6a1.16,1.16,0,0,0,.69-0.15,0.49,0.49,0,0,0,.2-0.41H979v3.07h-0.42Z" transform="translate(-873.03 -201.5)"/><path d="M989.8,279.2a9.55,9.55,0,0,1,2,.2,4.57,4.57,0,0,1,1.56.63,2.89,2.89,0,0,1,1,1.12,3.69,3.69,0,0,1,.35,1.69,3,3,0,0,1-.91,2.35,4.87,4.87,0,0,1-2.44,1.09l3.09,4.42a0.63,0.63,0,0,0,.38.28,2,2,0,0,0,.41,0v0.42h-4.35V291a0.86,0.86,0,0,0,.36-0.07,0.21,0.21,0,0,0,.15-0.19,0.53,0.53,0,0,0-.09-0.27q-0.09-.15-0.28-0.41l-2.56-3.63h-3.32v4.14a0.36,0.36,0,0,0,.15.31,1,1,0,0,0,.55.1v0.42h-4V291q0.67,0,.67-0.42V280q0-.42-0.67-0.42V279.2h7.95Zm-0.6,5.44a6.36,6.36,0,0,0,1.39-.13,2.46,2.46,0,0,0,.88-0.36,1.34,1.34,0,0,0,.46-0.55,1.75,1.75,0,0,0,0-1.37,1.34,1.34,0,0,0-.46-0.55,2.48,2.48,0,0,0-.88-0.36,6.4,6.4,0,0,0-1.39-.13h-4v3.44h4Z" transform="translate(-873.03 -201.5)"/><path d="M1004.7,291a0.38,0.38,0,0,0,.44-0.42V280a0.38,0.38,0,0,0-.44-0.42V279.2h4v0.42a0.19,0.19,0,0,0-.19.23,1.37,1.37,0,0,0,.46.65l6.67,6.93V280q0-.42-0.6-0.42V279.2h3.51v0.42a0.38,0.38,0,0,0-.44.42v10.55a0.38,0.38,0,0,0,.44.42v0.42h-3.77V291c0.2,0,.3-0.07.3-0.21a1.07,1.07,0,0,0-.37-0.53l-7.09-7.39v7.72a0.43,0.43,0,0,0,.53.42v0.42h-3.44V291Z" transform="translate(-873.03 -201.5)"/><path d="M1033.51,281.71a0.43,0.43,0,0,0-.2-0.38,1.34,1.34,0,0,0-.69-0.13h-7.53v2.88h4.56a1.65,1.65,0,0,0,.72-0.13,0.68,0.68,0,0,0,.26-0.66H1031v3.63h-0.42a0.74,0.74,0,0,0-.26-0.69,1.43,1.43,0,0,0-.72-0.15h-4.56v3.21h7.76a0.93,0.93,0,0,0,.57-0.16,0.52,0.52,0,0,0,.22-0.44h0.42v3.18h-0.42a0.34,0.34,0,0,0-.22-0.4,2.85,2.85,0,0,0-.57,0H1022V291a0.45,0.45,0,0,0,.29-0.1,0.38,0.38,0,0,0,.13-0.31V280a0.38,0.38,0,0,0-.13-0.31,0.45,0.45,0,0,0-.29-0.1V279.2h10.6a1.16,1.16,0,0,0,.69-0.15,0.49,0.49,0,0,0,.2-0.41h0.42v3.07h-0.42Z" transform="translate(-873.03 -201.5)"/><path d="M1037.8,287.59l0.23,0.12a0.74,0.74,0,0,0,.09.37,1.65,1.65,0,0,0,.64.55,6.49,6.49,0,0,0,1.09.48,9.5,9.5,0,0,0,1.29.34,6.55,6.55,0,0,0,1.21.13q0.39,0,1-.06a6.07,6.07,0,0,0,1.23-.24,3.45,3.45,0,0,0,1-.51,1,1,0,0,0,.44-0.86,0.87,0.87,0,0,0-.41-0.79,3,3,0,0,0-1.07-.37,11.53,11.53,0,0,0-1.51-.15q-0.85,0-1.73-.1a15.78,15.78,0,0,1-1.73-.23,4.79,4.79,0,0,1-1.51-.55,3,3,0,0,1-1.07-1,3.27,3.27,0,0,1-.41-1.73,3.23,3.23,0,0,1,.34-1.42,3.44,3.44,0,0,1,1-1.23,5.71,5.71,0,0,1,1.77-.87,8.38,8.38,0,0,1,2.51-.34,10.78,10.78,0,0,1,2.14.19,15.89,15.89,0,0,1,1.57.4q0.66,0.21,1.12.4a2.08,2.08,0,0,0,.76.19,0.64,0.64,0,0,0,.47-0.14l0.28,0.19-1.6,2.91-0.23-.09a1.29,1.29,0,0,0-.19-0.53A2,2,0,0,0,1046,282a5.37,5.37,0,0,0-1-.48,8.22,8.22,0,0,0-1.26-.34,7.05,7.05,0,0,0-2.41,0,5,5,0,0,0-1,.24,2.19,2.19,0,0,0-.73.43,0.86,0.86,0,0,0-.29.66,1,1,0,0,0,.41.84,3,3,0,0,0,1.07.42,10,10,0,0,0,1.51.19L1044,284a14.09,14.09,0,0,1,1.73.24,5,5,0,0,1,1.51.56,3,3,0,0,1,1.07,1,3.16,3.16,0,0,1,.41,1.7,3,3,0,0,1-.64,2,4.51,4.51,0,0,1-1.59,1.21,7.17,7.17,0,0,1-2.06.59,15.27,15.27,0,0,1-2.06.15,13.68,13.68,0,0,1-2.22-.15,8.26,8.26,0,0,1-1.49-.37,9.92,9.92,0,0,1-.94-0.4,1.4,1.4,0,0,0-.6-0.17,0.39,0.39,0,0,0-.3.19l-0.33-.19Z" transform="translate(-873.03 -201.5)"/><path d="M1058.17,290.59a0.42,0.42,0,0,0,.51.42v0.42h-3.58V291a0.45,0.45,0,0,0,.29-0.1,0.38,0.38,0,0,0,.13-0.31v-9.25h-3.84a0.79,0.79,0,0,0-.41.12,0.47,0.47,0,0,0-.2.44h-0.42v-3.25h0.42a0.47,0.47,0,0,0,.2.44,0.79,0.79,0,0,0,.41.12H1062a0.79,0.79,0,0,0,.41-0.12,0.47,0.47,0,0,0,.2-0.44H1063v3.25h-0.42a0.47,0.47,0,0,0-.2-0.44,0.79,0.79,0,0,0-.41-0.12h-3.84v9.25Z" transform="translate(-873.03 -201.5)"/><path d="M1068.89,280.42a2,2,0,1,1-2-2A2,2,0,0,1,1068.89,280.42Zm-3.54,0a1.52,1.52,0,0,0,1.54,1.57,1.51,1.51,0,0,0,1.5-1.56A1.52,1.52,0,1,0,1065.35,280.42Zm1.21,1h-0.46v-2a4,4,0,0,1,.76-0.06,1.23,1.23,0,0,1,.68.14,0.55,0.55,0,0,1,.19.43,0.5,0.5,0,0,1-.41.46v0a0.58,0.58,0,0,1,.36.48,1.49,1.49,0,0,0,.14.49h-0.49a1.71,1.71,0,0,1-.16-0.48,0.35,0.35,0,0,0-.41-0.31h-0.22v0.79Zm0-1.12h0.22c0.25,0,.46-0.08.46-0.29s-0.13-.3-0.42-0.3a1.07,1.07,0,0,0-.25,0v0.56Z" transform="translate(-873.03 -201.5)"/></svg>