<?xml version="1.0" encoding="utf-8"?>
<!-- Generated by IcoMoon.io -->
<!DOCTYPE svg PUBLIC "-//W3C//DTD SVG 1.1//EN" "http://www.w3.org/Graphics/SVG/1.1/DTD/svg11.dtd">
<svg version="1.1" xmlns="http://www.w3.org/2000/svg" xmlns:xlink="http://www.w3.org/1999/xlink" width="6582" height="1024" viewBox="0 0 6582 1024">
<g>
</g>
	<path d="M6341.3 225.754c-43.258 0-75.090 30.442-75.090 72.548 0 40.46 31.814 71.908 75.090 71.908 43.184 0 75.052-31.448 75.052-71.908 0-42.106-31.868-72.548-75.052-72.548zM6341.3 237.986c35.050 0 61.158 23.986 61.158 59.458 0 34.666-26.254 60.316-60.536 60.316-35.89 0-61.78-25.65-61.78-60.316 0-35.488 26.054-59.458 61.158-59.458zM6305.226 253.582c-2.45 0-4.004 1.134-4.004 2.742 0 0.822 1.5 1.462 2.34 1.462 6.528 0 9.032 0.97 9.032 5.906 0 4.15 0.86 9.964 0.86 22.362v17.918c0 13.236-0.86 19.070-0.86 23.2-0.842 4.938-0.694 5.046-8.008 5.046-1.664 0-3.364 0.676-3.364 2.322 0 1.664 1.7 1.7 3.364 1.7h4.004c1.682 0 9.69-0.86 12.268-0.86 4.022 0 11.262 0.86 12.852 0.86h3.584c1.628 0 3.164-0.914 3.164-2.542 0-1.646-1.098-1.482-2.742-1.482-2.396 0-6.418-0.86-8.008-1.682-0.878-0.804-1.5-1.628-1.5-18.138v-7.37h14.572l11.592 15.614c12.268 16.51 17.882 15.816 28.466 15.816 4.882 0 5.706-1.134 5.706-2.742 0-0.822-0.932-1.482-2.542-1.482-1.646 0-4.81-0.932-15.394-14.114l-13.914-17.278c12.194-9.908 14.754-16.638 14.754-24.882 0-19.802-20.276-22.362-34.154-22.362-6.528 0-9.946 1.060-17.278 1.060-2.45 0-8.904-1.060-10.548-1.060l-4.242 0.004v-0.018zM6335.594 261.188c13.018 0 20.222 8.244 20.222 19.802 0 8.282-3.274 12.322-7.37 14.772-2.468 1.7-5.558 2.542-8.008 2.542-4.9 0-9.8-0.86-12.25-2.542v-33.112c1.684-1.644 6.566-1.462 7.406-1.462v0zM2779.25 278.888c-5.23 0-6.966 7.278-6.966 33.13l-0.842 379.544c0 60.298-3.236 79.496-19.618 84.16-9.818 3.31-21.722 4.004-26.986 4.004-3.274 0-5.266 1.152-5.266 3.786 0 4.644 4.004 5.486 10.548 5.486 29.472 0 57.116-1.902 63.060-1.902 5.888 0 32.032 1.902 69.366 1.902 7.86 0 11.572-1.482 11.572-5.486 0-2.634-1.756-3.786-5.046-3.786-5.888 0-20.442-0.714-32.892-4.004-17.662-5.322-24.006-22.434-25.286-76.754l-8.648-317.562c20.954 23.858 94.854 107.396 170.784 190.202 69.42 75.492 163.8 173.034 171.004 179.634 34.702 35.104 42.436 42.38 47.664 42.38 4.572 0 5.888-3.31 5.888-47.024l1.5-388.174c0-39.748 2.414-54.428 24.024-59.036 7.88-1.974 12.56-1.902 15.816-1.902 4.572 0 7.168-1.974 7.168-4.626 0-3.986-4.406-4.644-11.61-4.644-26.84 0-48.67 1.902-55.874 1.902-7.204 0-38.43-1.902-67.886-1.902-7.88 0-13.054 0.694-13.054 4.644 0 2.652 0.658 4.626 5.248 4.626 5.248 0 20.076 0.732 31.85 3.402 20.296 5.284 25.102 19.764 25.742 62.84l7.168 336.522c-20.954-21.832-92.258-102.88-157.090-173.126-100.832-109.298-198.502-215.834-208.32-227.096-6.582-6.66-17.788-21.14-23.018-21.14zM3595.472 278.888c-50.408 0-115.476 4.444-174.388 41.54-58.286 37.098-109.224 112.040-109.224 218.048 0 82.77 38.066 153.8 78.034 188.904 72.694 64.284 165.738 70.866 215.488 70.866 37.976 0 96.61-7.222 138.532-29.728 7.88-4.644 8.648-6.052 8.648-35.854v-74.212c0-27.826-0.128-47.774 1.262-68.984 1.316-23.182 6.784-34.428 24.462-37.72 7.86-1.316 11.646-2.102 16.236-2.102 2.614 0 5.266-1.152 5.266-3.786 0-3.986-3.346-5.504-10.53-5.504-19.656 0-60.81 2.122-64.12 2.122-3.254 0-44.74-2.122-74.212-2.122-7.222 0-10.33 1.554-10.33 5.504 0 2.652 2.67 3.786 5.266 3.786 5.87 0 17.132 0.804 22.362 2.102 26.182 7.278 29.326 14.444 29.326 68.124v112.808c0 11.262-4.554 18.558-13.090 23.218-17.022 9.928-50.884 13.676-74.412 13.676-60.244 0-119.938-19.618-171.644-70.628-22.928-22.508-69.604-90.264-69.604-183.656 0-77.504 27.004-137.784 64.962-168.262 49.768-39.748 98.986-43.66 140.216-43.66 84.468 0 137.362 28.412 153.708 53.572 9.836 15.888 13.072 34.592 13.712 43.844 0.658 5.98 1.334 9.908 4.644 9.908 4.572 0 6.126-3.31 6.126-13.914 0-66.242 4.406-84.944 4.406-94.25 0-2.652-1.444-5.028-8.008-5.706-16.346-0.676-39.144-3.438-52.932-6.73-12.456-2.668-58.914-11.204-100.162-11.204v0zM3945.726 278.888c-3.932 0-6.528 4.498-7.168 11.81l-47.262 432.054c-2.614 25.194-4.554 51.048-26.126 55.050-9.854 1.956-14.37 1.902-19.636 1.902-3.274 0-6.51 1.17-6.51 3.146 0 4.662 4.426 6.126 10.988 6.126 17.662 0 49.348-1.902 55.234-1.902 5.248 0 36.494 1.902 60.738 1.902 7.824 0 11.792-1.462 11.792-6.126 0-1.956-2.45-3.146-5.046-3.146-3.95 0-13.968-0.732-25.102-3.382-9.8-1.974-17.096-10.512-17.096-20.442 0-11.28 0.22-23.346 0.86-33.952l26.162-307.234h2.506c7.222 17.9 80.576 176.798 86.462 188.722 3.292 6.62 59.548 121.274 76.552 153.708 12.45 23.858 15.87 30.35 20.46 30.35 5.87 0 7.752-5.834 21.502-34.994l160.456-344.55h1.902l31.43 343.928c1.316 11.902 0.714 23.164-2.542 23.84-3.274 0.658-4.644 1.974-4.644 4.626 0 3.328 3.292 5.412 18.356 6.748 24.224 1.974 95 2.542 109.444 2.542 7.86 0 13.694-2.122 13.694-6.126 0-2.634-1.974-3.164-5.284-3.164-6.528 0-23.602-0.202-42.6-6.108-28.138-9.288-32.782-46.348-35.416-70.226l-43.862-407.188c-1.316-12.578-3.182-17.918-7.806-17.918-4.59 0-7.26 4.554-9.908 10.548l-192.304 416.020-200.55-416.86c-3.26-7.272-5.782-9.704-9.676-9.704v0zM4769.116 278.888c-180.676 0-258.088 151.624-258.088 258.946 0 119.226 74.706 260.41 254.082 260.41 52.528 0 99.042-13.748 137.692-37.336 36.714 23.002 82.752 37.336 139.392 37.336 157.786 0 261.232-122.572 261.232-270.958 0-154.348-110.14-248.398-257.448-248.398-54.082 0-98.694 13.53-134.968 35.434-40.11-23.094-88.488-35.434-141.894-35.434v0zM5425.322 278.888c-5.212 0-7.186 7.278-7.186 33.13l-0.602 379.524c0 60.298-3.236 79.496-19.618 84.16-9.818 3.31-21.538 4.004-26.766 4.004-3.274 0-5.266 1.152-5.266 3.786 0 4.644 3.786 5.486 10.312 5.486 29.472 0 56.898-1.902 62.84-1.902s32.050 1.902 69.384 1.902c7.88 0 11.994-1.482 11.994-5.486 0-2.634-1.994-3.786-5.266-3.786-5.888 0-20.404-0.714-32.892-4.004-17.68-5.322-24.188-22.434-25.522-76.754l-8.428-317.562c20.954 23.858 94.836 107.396 170.784 190.202 69.42 75.492 163.8 173.034 171.022 179.634 34.72 35.104 42.636 42.38 47.866 42.38 4.608 0 5.706-3.31 5.706-47.024l1.462-388.174c0-39.748 2.67-54.428 24.242-59.036 7.88-1.974 12.378-1.902 15.614-1.902 4.59 0 7.186-1.974 7.186-4.626 0-3.986-4.644-4.644-11.828-4.644-26.858 0-48.25 1.902-55.434 1.902-7.186 0-38.614-1.902-68.106-1.902-7.88 0-13.31 0.694-13.31 4.644 0 2.652 0.714 4.626 5.266 4.626 5.248 0 20.514 0.732 32.27 3.402 20.314 5.284 24.864 19.764 25.522 62.84l6.948 336.522c-20.936-21.832-92.056-102.88-156.89-173.126-100.832-109.298-198.484-215.834-208.32-227.096-6.53-6.64-17.754-21.12-22.984-21.12zM6122.43 278.888c-83.208 0-135.388 48.488-135.388 119.354 0 45.032 15.816 85.95 85.182 143.598l29.326 24.682c56.294 47.044 75.272 73.444 75.272 119.134 0 42.38-30.79 88.144-93.63 88.144-43.862 0-86.992-18.668-96.792-67.704-1.974-9.268-1.902-18.466-1.902-24.444 0-5.284-0.732-7.37-4.644-7.37-3.274 0-4.626 3.438-5.266 10.75-0.64 10.604-3.402 37.080-3.402 70.226 0 17.9 0.768 20.46 9.928 25.084 26.802 13.236 56.934 17.918 87.722 17.918 35.36 0 70.738-7.952 98.878-27.808 45.178-32.472 55.452-82.916 55.452-110.084 0-52.968-18.248-93.794-95.512-155.39l-18.356-14.772c-62.858-49.676-79.916-73.554-79.916-111.346 0-48.378 35.36-76.954 80.538-76.954 60.226 0 77.888 28.12 81.836 35.434 3.932 7.278 7.988 24.92 8.628 32.892 0.658 5.322 1.354 8.648 5.284 8.648 3.254 0 4.426-4.554 4.426-15.176 0-45.032 2.742-66.9 2.742-70.226 0-3.31-1.298-4.626-6.546-4.626s-10.568-0.732-22.984-3.402c-16.32-4.002-35.354-6.562-60.876-6.562v0zM1235.732 282.91c-3.254 0-5.76 2.486-9.050 3.164-5.23 1.316-15.816 2.724-28.266 3.382-15.048 0.658-145.336 0.64-149.922 0.64l-26.986-1.262c-14.408-0.658-31.96-0.64-47.024-0.64-7.204 0-10.548 1.316-10.548 5.266 0 2.652 2.67 3.804 5.284 3.804 5.888 0 16.912 0.786 22.142 2.102 21.612 4.626 26.95 15.23 28.248 37.738 1.316 21.192 1.482 39.82 1.482 143.16v116.61c0 63.608-0.164 115.988-3.382 143.818-2.634 19.216-5.686 33.842-18.778 36.476-5.888 1.316-13.932 2.542-19.802 2.542-3.932 0-5.284 1.994-5.284 4.004 0 3.968 3.346 5.266 10.548 5.266 9.818 0 24.864-1.482 37.958-1.482 13.73-0.64 24.828-0.402 26.144-0.402 9.836 0 25.688 0.548 51.23 1.902 25.522 0.658 61.596 2.102 110.706 2.102 25.542 0 30.642 0.018 35.214-17.278 3.274-13.914 8.648-59 8.648-64.322 0-4.662-0.128-10.128-4.004-10.128-3.274 0-4.59 2.816-5.906 10.128-4.572 27.15-12.524 40.35-29.528 47.646-17.022 7.296-45.8 7.388-62.84 7.388-64.174 0-73.956-8.72-75.912-54.41-0.64-13.932 0-90.722 0-113.248v-58.196c0-2.652 1.152-4.644 4.426-4.644 11.134 0 76.168 1.188 93.83 3.164 25.542 2.652 31.32 13.932 33.952 23.218 2.614 8.61 2.524 15.322 2.524 21.922 0 3.31 1.372 5.888 4.644 5.888 4.572 0 4.426-7.35 4.426-12.634 0-4.608 1.426-29.126 2.742-42.38 1.938-21.85 5.266-33.13 5.266-37.098 0-3.986-1.408-5.066-3.382-5.066-2.614 0-5.12 3.146-9.69 8.446-5.888 6.602-15.066 7.934-30.79 9.268-15.048 1.316-95.64 1.262-104.16 1.262-3.274 0-3.804-1.902-3.804-6.546v-182.796c0-4.626 1.17-6.528 3.804-6.528 7.204 0 78.692 0.586 89.826 1.902 35.378 3.986 41.814 11.756 46.404 22.362 3.254 7.97 3.804 19.4 3.804 24.024 0 5.284 1.354 8.648 5.266 8.648 2.634 0 4.004-4.060 4.644-7.37 1.316-7.952 2.524-37.226 3.164-43.844 1.956-18.558 5.284-26.364 5.284-30.99 0.008-3.402-0.558-5.978-2.552-5.978v0zM1533.276 287.954c-9.634 0-18.668 0.22-26.784 0.22-39.272 0-80.502 1.902-88.344 1.902-3.274 0-44.336-1.902-73.81-1.902-7.204 0-10.53 1.316-10.53 5.266 0 2.652 2.652 4.004 5.266 4.004 5.888 0 16.912 0.586 22.142 1.902 21.612 4.626 26.93 15.45 28.248 37.958 1.316 21.21 1.482 39.6 1.482 142.94v116.61c0 63.608-0.31 115.988-3.584 143.818-2.614 19.216-5.668 33.842-18.76 36.476-5.888 1.316-13.748 2.542-19.6 2.542-3.95 0-5.284 1.994-5.284 4.004 0 3.968 3.346 5.266 10.548 5.266 9.818 0 24.646-1.482 37.738-1.482 13.748-0.64 24.828-0.402 26.144-0.402 3.274 0 25.56 2.012 54.41 4.004 28.138 1.974 62.95 4.022 91.088 4.022 111.31 0 170.272-46.55 198.428-76.332 36.678-39.088 70.848-103.356 70.848-186.856 0-78.82-30.918-133.778-63.662-168.244-68.198-71.326-168.554-75.752-235.984-75.716v0zM2097.536 287.954c-9.616 0-18.466 0.22-26.566 0.22-39.272 0-80.484 1.902-88.362 1.902-3.274 0-44.758-1.902-74.23-1.902-7.204 0-10.312 1.316-10.312 5.266 0 2.652 2.67 4.004 5.284 4.004 5.888 0 16.894 0.586 22.124 1.902 21.612 4.626 26.73 15.45 28.046 37.958 1.316 21.21 1.482 39.6 1.482 142.94v116.61c0 63.608 0 115.988-3.164 143.818-2.634 19.216-6.090 33.842-19.198 36.476-5.888 1.316-13.712 2.542-19.618 2.542-3.932 0-5.266 1.994-5.266 4.004 0 3.968 3.328 5.266 10.53 5.266 9.818 0 24.864-1.482 37.976-1.482 13.768-0.64 25.066-0.402 26.346-0.402 3.274 0 25.394 2.012 54.19 4.004 28.174 1.974 62.95 4.022 91.088 4.022 111.31 0 170.254-46.55 198.428-76.332 36.64-39.088 70.628-103.356 70.628-186.856 0-78.82-30.918-133.778-63.682-168.244-68.158-71.326-168.312-75.752-235.724-75.716zM176.18 288.174c-6.546 0-10.548 1.334-10.548 4.644 0 3.986 2.852 4.626 6.108 4.626 4.572 0 20.808 0.714 29.308 4.022 17.040 6.62 25.56 16.528 36.056 51.652l116.592 392.816c13.090 45.086 16.418 52.31 22.984 52.31 7.86 0 11.042-7.388 21.502-35.232 23.584-61.578 113.302-304.764 136.85-368.354h1.262l128.404 369.214c9.178 25.834 13.054 34.374 19.618 34.374 7.204 0 10.604-7.898 27.626-56.934 25.522-74.176 91.398-284.872 120.176-369.012 12.45-36.422 23.164-64.194 42.8-71.468 7.204-2.67 19.746-3.402 22.344-3.402 3.932 0 5.706-1.938 5.706-5.266 0-2.652-3.402-4.004-9.288-4.004-20.296 0-48.342 1.902-52.932 1.902-5.888 0-33.458-1.902-66.844-1.902-7.86 0-10.97 1.334-10.97 4.644 0 2.652 2.652 4.626 5.906 4.626 30.112 0 37.116 7.916 37.116 19.838 0 8.61-0.402 17.9-6.966 42.362-22.91 84.798-83.116 277.066-100.796 338.022h-2.742l-130.306-376.398c-7.88-22.508-11.664-31.192-16.254-31.192-3.932 0-6.838 3.402-16.656 30.57l-138.532 378.264h-1.482c-9.818-35.122-77.888-278.328-87.704-320.708-6.528-29.162-12.432-52.31-12.432-60.938s4.7-13.84 8.628-15.816c7.88-3.986 20.076-4.022 25.304-4.022 3.274 0 6.748-0.676 6.748-4.626 0-2.67-2.852-4.644-12.012-4.644-32.746 0-61.578 1.902-67.466 1.902-7.14 0.032-43.048-1.87-77.108-1.87v0zM2481.304 288.174c-7.204 0-10.548 1.316-10.548 5.266 0 2.652 2.67 4.004 5.266 4.004 4.572 0 13.036 0.566 20.24 2.542 14.408 3.328 20.826 14.828 22.124 37.336 1.334 21.21 1.482 39.6 1.482 142.94v116.61c0 63.608 0 115.988-3.164 143.818-2.634 19.216-6.090 33.842-19.18 36.476-5.906 1.316-13.712 2.542-19.618 2.542-3.932 0-5.266 1.994-5.266 4.004 0 3.968 3.346 5.266 10.53 5.266 19.618 0 61.030-1.902 64.302-1.902 3.274 0 44.336 1.902 80.356 1.902 7.204 0 10.548-1.938 10.548-5.266 0-1.974-1.372-4.004-5.266-4.004-5.906 0-20.35-1.226-29.528-2.542-19.618-2.652-23.366-17.26-25.304-36.476-3.254-27.808-3.584-80.21-3.584-143.818v-116.61c0-103.336 0.202-121.73 1.482-142.94 1.298-23.2 6.582-34.666 24.242-37.958 7.86-1.316 11.848-1.902 16.456-1.902 2.634 0 5.284-1.354 5.284-4.004 0-3.986-3.346-5.266-10.568-5.266-19.636 0-60.792 1.902-64.102 1.902-3.254-0.018-44.572-1.92-66.184-1.92v0zM4764.488 301.448c40.35 0 79.624 12.89 112.37 38.176-60.902 53.972-88.766 133.98-88.766 198.21 0 73.004 28.010 154.238 90.886 206.218-33.88 22.544-70.81 29.106-96.17 29.106-117.854 0-209.562-99.518-209.562-253.882 0-145.060 81.892-217.828 191.242-217.828zM5041.572 301.448c103.41 0 199.032 85.382 199.032 244.394 0 192.76-121.766 227.316-180.712 227.316-44.72 0-85.73-14.48-119.316-40.698 54.428-49.896 85.802-123.558 85.802-205.194 0-86.462-34.61-154.038-90.886-196.728 29.93-19.344 66.188-29.090 106.080-29.090v0zM1497.002 310.736c77.906 0 152.482 9.288 214.042 74.852 26.858 28.504 62.84 82.88 62.84 167 0 60.974-18.266 124.382-52.292 158.134-38.632 39.088-94.928 61.798-155.83 61.798-77.266 0-102.824-13.986-111.328-26.584-5.266-7.278-6.528-33.806-7.186-50.39-0.658-12.578-1.482-73.572-1.482-143.8v-82.24c0-51.012 0-118.512 0.64-141.056 0-7.296 1.902-10.64 7.806-13.292 5.218-2.63 29.68-4.422 42.79-4.422v0zM2061.062 310.736c77.906 0 152.464 9.288 214.024 74.852 26.858 28.504 62.84 82.88 62.84 167 0 60.974-18.266 124.382-52.292 158.134-38.632 39.088-94.946 61.798-155.83 61.798-77.266 0-102.844-13.986-111.328-26.584-5.248-7.278-6.51-33.806-7.168-50.39-0.658-12.578-1.482-73.572-1.482-143.8v-82.24c0-51.012 0-118.512 0.64-141.056 0-7.296 1.884-10.64 7.788-13.292 5.254-2.63 29.718-4.422 42.808-4.422v0zM4900.3 361.124c38.304 41.264 63.26 103.374 63.26 184.734 0 77.722-19.728 129.684-47.226 164.038-40.772-44.3-65.802-109.902-65.802-190.604 0-69.182 18.43-121.892 49.768-158.168z" />
</svg>
